<svg width="190" height="230" viewBox="0 0 220 260" fill="none" xmlns="http://www.w3.org/2000/svg">
<g id="angular" clip-path="url(#clip0)">
<g id="Group 174">
<g id="Group 104">
<rect id="Rectangle 139" x="20" y="15" width="180" height="230" rx="16" fill="#F2F7FF"/>
<g id="Group 41">
<g id="comp x5F 21 angular">
<g id="Group">
<circle id="Ellipse 93" cx="110" cy="85" r="45" fill="white"/>
<path id="Vector" d="M99.9199 92.2922L99.2881 93.7013H100.832H119.167H120.712L120.08 92.2922L110.912 71.8456L110 69.8104L109.088 71.8456L99.9199 92.2922ZM110.315 39.051L110 38.9463L109.685 39.051L59.6848 55.6584L58.9064 55.917L59.0076 56.7309L66.6593 118.27L66.7244 118.794L67.1931 119.036L109.541 140.889L110 141.125L110.459 140.889L152.807 119.036L153.275 118.794L153.34 118.27L160.992 56.7309L161.094 55.917L160.315 55.6584L110.315 39.051ZM124.248 101.3L123.988 100.697H123.33H96.7178H96.0604L95.7998 101.3L89.756 115.295H80.2846L110 53.3602L139.739 115.295H130.291L124.248 101.3Z" fill="#E55039" stroke="#0C2759" stroke-width="2"/>
</g>
</g>
</g>
<path id="ANGULAR" d="M48.3779 192L54.8339 174.48H58.0979L64.7699 192H62.8979L60.7859 186.432H52.2179L50.2019 192H48.3779ZM52.8419 184.776H60.1619L56.8739 176.136H55.9859L52.8419 184.776ZM68.2985 192V174.48H71.3465L80.9465 190.344H81.2345V174.48H82.9865V192H79.9145L70.3145 176.136H70.0265V192H68.2985ZM96.1108 192.408C94.6708 192.408 93.3908 192.168 92.2708 191.688C91.1668 191.208 90.2308 190.552 89.4628 189.72C88.7108 188.872 88.1428 187.904 87.7588 186.816C87.3748 185.728 87.1828 184.568 87.1828 183.336V182.904C87.1828 181.784 87.3668 180.696 87.7348 179.64C88.1188 178.584 88.6708 177.632 89.3908 176.784C90.1268 175.936 91.0228 175.264 92.0788 174.768C93.1348 174.272 94.3508 174.024 95.7268 174.024C97.1508 174.024 98.4148 174.296 99.5188 174.84C100.623 175.368 101.511 176.112 102.183 177.072C102.855 178.032 103.255 179.144 103.383 180.408H101.535C101.407 179.384 101.063 178.52 100.503 177.816C99.9588 177.112 99.2708 176.584 98.4388 176.232C97.6068 175.88 96.7028 175.704 95.7268 175.704C94.3508 175.704 93.1588 176.024 92.1508 176.664C91.1588 177.304 90.3908 178.184 89.8468 179.304C89.3028 180.424 89.0308 181.704 89.0308 183.144C89.0308 184.664 89.3108 186 89.8708 187.152C90.4308 188.288 91.2388 189.176 92.2948 189.816C93.3508 190.456 94.6228 190.776 96.1108 190.776C97.2308 190.776 98.2468 190.592 99.1588 190.224C100.087 189.856 100.855 189.36 101.463 188.736V185.304H95.4628V183.768H104.751V185.304H103.191V189.288C102.439 190.264 101.463 191.032 100.263 191.592C99.0628 192.136 97.6788 192.408 96.1108 192.408ZM115.216 192.408C113.616 192.408 112.288 192.104 111.232 191.496C110.176 190.872 109.384 190.016 108.856 188.928C108.328 187.84 108.064 186.584 108.064 185.16V174.48H109.888V185.376C109.888 186.976 110.336 188.272 111.232 189.264C112.128 190.24 113.456 190.728 115.216 190.728C116.96 190.728 118.28 190.24 119.176 189.264C120.072 188.288 120.52 186.992 120.52 185.376V174.48H122.344V185.16C122.344 186.584 122.08 187.84 121.552 188.928C121.024 190.016 120.232 190.872 119.176 191.496C118.136 192.104 116.816 192.408 115.216 192.408ZM127.478 192V174.48H129.302V190.344H137.054V192H127.478ZM138.753 192L145.209 174.48H148.473L155.145 192H153.273L151.161 186.432H142.593L140.577 192H138.753ZM143.217 184.776H150.537L147.249 176.136H146.361L143.217 184.776ZM158.674 192V174.408H164.146C166.082 174.408 167.578 174.864 168.634 175.776C169.69 176.688 170.218 178 170.218 179.712V180.048C170.218 181.392 169.882 182.496 169.21 183.36C168.554 184.208 167.61 184.792 166.378 185.112L171.778 192H169.546L164.41 185.352C164.33 185.352 164.242 185.352 164.146 185.352H160.498V192H158.674ZM164.458 176.016H160.498V183.72H164.458C165.754 183.72 166.722 183.352 167.362 182.616C168.018 181.88 168.346 180.968 168.346 179.88C168.346 178.776 168.018 177.856 167.362 177.12C166.722 176.384 165.754 176.016 164.458 176.016Z" fill="#0C2759"/>
</g>
</g>
</g>
<defs>
<clipPath id="clip0">
<rect width="220" height="260" fill="white"/>
</clipPath>
</defs>
</svg>
