<svg width="190" height="230" viewBox="0 0 220 260" fill="none" xmlns="http://www.w3.org/2000/svg">
<g id="bootstrap" clip-path="url(#clip0)">
<g id="Group 174">
<g id="Group 102">
<rect id="Rectangle 139" x="20" y="15" width="180" height="230" rx="16" fill="#F2F7FF"/>
<g id="Group 21">
<g id="bootstrap_2">
<g id="bootstrap-solid 1" clip-path="url(#clip1)">
<g id="solid">
<path id="bg" d="M157.742 130.333C157.742 138.726 151.142 145.5 143.202 145.5H79.0403C71.1002 145.5 64.5 138.726 64.5 130.333V63.6667C64.5 55.2738 71.1002 48.5 79.0403 48.5H143.202C151.142 48.5 157.742 55.2738 157.742 63.6667V130.333Z" fill="#563D7C" stroke="#0C2759" stroke-width="3"/>
<g id="B">
<path id="Vector" d="M89.1517 67.7323H88.1517V68.7323V127.066V128.066H89.1517H114.942C118.633 128.066 121.856 127.633 124.607 126.743C127.331 125.861 129.593 124.661 131.396 123.12C133.2 121.578 134.524 119.729 135.372 117.581C136.208 115.478 136.622 113.211 136.622 110.807C136.622 106.669 135.69 103.163 133.778 100.315L133.777 100.313C132.25 98.0522 130.15 96.4369 127.529 95.4542C129.308 94.3532 130.759 92.9634 131.864 91.2939C133.373 89.0121 134.105 86.2959 134.105 83.1931C134.105 78.1168 132.498 74.1803 129.165 71.5429C125.906 68.9631 121.623 67.7323 116.436 67.7323H89.1517ZM122.612 115.596L122.612 115.596L122.605 115.603C121.21 116.983 119.168 117.732 116.357 117.732H99.9804V101.497H116.357C119.178 101.497 121.196 102.203 122.623 103.546C124.038 104.877 124.793 106.788 124.793 109.484C124.793 112.233 124.019 114.232 122.612 115.596ZM115.021 92.1604H99.9804V78.0493H115.021C117.558 78.0493 119.338 78.6242 120.509 79.6113C121.594 80.5253 122.277 82.2362 122.277 85.0558C122.277 87.4569 121.564 89.1506 120.252 90.3232C118.888 91.5416 117.171 92.1604 115.021 92.1604Z" fill="white" stroke="#0C2759" stroke-width="2"/>
</g>
</g>
</g>
</g>
<path id="BOOTSTRAP" d="M37.4196 193.072V175.408H42.9636C44.7716 175.408 46.1236 175.816 47.0196 176.632C47.9156 177.448 48.3636 178.576 48.3636 180.016V180.304C48.3636 181.248 48.1636 182.024 47.7636 182.632C47.3636 183.24 46.8116 183.704 46.1076 184.024C47.0196 184.296 47.7396 184.768 48.2676 185.44C48.8116 186.096 49.0836 186.976 49.0836 188.08V188.368C49.0836 189.792 48.6276 190.936 47.7156 191.8C46.8196 192.648 45.4676 193.072 43.6596 193.072H37.4196ZM43.2756 177.016H39.2436V183.376H43.2756C44.3796 183.376 45.1956 183.08 45.7236 182.488C46.2516 181.896 46.5156 181.136 46.5156 180.208C46.5156 179.264 46.2516 178.496 45.7236 177.904C45.1956 177.312 44.3796 177.016 43.2756 177.016ZM43.9236 184.912H39.2436V191.464H43.9236C44.9636 191.464 45.7716 191.168 46.3476 190.576C46.9396 189.968 47.2356 189.168 47.2356 188.176C47.2356 187.2 46.9476 186.416 46.3716 185.824C45.7956 185.216 44.9796 184.912 43.9236 184.912ZM61.1308 193.408C59.6108 193.408 58.2908 193.136 57.1708 192.592C56.0508 192.048 55.1148 191.328 54.3628 190.432C53.6268 189.536 53.0748 188.56 52.7068 187.504C52.3548 186.448 52.1788 185.416 52.1788 184.408V183.976C52.1788 182.904 52.3628 181.84 52.7308 180.784C53.1148 179.712 53.6828 178.744 54.4348 177.88C55.1868 177.016 56.1228 176.328 57.2428 175.816C58.3628 175.288 59.6588 175.024 61.1308 175.024C62.6188 175.024 63.9148 175.288 65.0188 175.816C66.1388 176.328 67.0748 177.016 67.8268 177.88C68.5788 178.744 69.1388 179.712 69.5068 180.784C69.8908 181.84 70.0828 182.904 70.0828 183.976V184.432C70.0828 185.44 69.8988 186.472 69.5308 187.528C69.1788 188.568 68.6348 189.536 67.8988 190.432C67.1628 191.328 66.2268 192.048 65.0908 192.592C63.9708 193.136 62.6508 193.408 61.1308 193.408ZM61.1308 191.728C62.2508 191.728 63.2508 191.528 64.1308 191.128C65.0108 190.712 65.7548 190.152 66.3628 189.448C66.9708 188.728 67.4348 187.92 67.7548 187.024C68.0748 186.128 68.2348 185.192 68.2348 184.216C68.2348 182.856 67.9468 181.608 67.3708 180.472C66.8108 179.336 65.9948 178.424 64.9228 177.736C63.8668 177.048 62.6028 176.704 61.1308 176.704C59.6748 176.704 58.4108 177.048 57.3388 177.736C56.2828 178.424 55.4668 179.336 54.8908 180.472C54.3148 181.608 54.0268 182.856 54.0268 184.216C54.0268 185.192 54.1868 186.128 54.5068 187.024C54.8268 187.92 55.2908 188.728 55.8988 189.448C56.5228 190.152 57.2748 190.712 58.1548 191.128C59.0348 191.528 60.0268 191.728 61.1308 191.728ZM81.9433 193.408C80.4233 193.408 79.1033 193.136 77.9833 192.592C76.8633 192.048 75.9273 191.328 75.1753 190.432C74.4393 189.536 73.8873 188.56 73.5193 187.504C73.1673 186.448 72.9913 185.416 72.9913 184.408V183.976C72.9913 182.904 73.1753 181.84 73.5433 180.784C73.9273 179.712 74.4953 178.744 75.2473 177.88C75.9993 177.016 76.9353 176.328 78.0553 175.816C79.1753 175.288 80.4713 175.024 81.9433 175.024C83.4313 175.024 84.7273 175.288 85.8313 175.816C86.9513 176.328 87.8873 177.016 88.6393 177.88C89.3913 178.744 89.9513 179.712 90.3193 180.784C90.7033 181.84 90.8953 182.904 90.8953 183.976V184.432C90.8953 185.44 90.7113 186.472 90.3433 187.528C89.9913 188.568 89.4473 189.536 88.7113 190.432C87.9753 191.328 87.0393 192.048 85.9033 192.592C84.7833 193.136 83.4633 193.408 81.9433 193.408ZM81.9433 191.728C83.0633 191.728 84.0633 191.528 84.9433 191.128C85.8233 190.712 86.5673 190.152 87.1753 189.448C87.7833 188.728 88.2473 187.92 88.5673 187.024C88.8873 186.128 89.0473 185.192 89.0473 184.216C89.0473 182.856 88.7593 181.608 88.1833 180.472C87.6233 179.336 86.8073 178.424 85.7353 177.736C84.6793 177.048 83.4153 176.704 81.9433 176.704C80.4873 176.704 79.2233 177.048 78.1513 177.736C77.0953 178.424 76.2793 179.336 75.7033 180.472C75.1273 181.608 74.8393 182.856 74.8393 184.216C74.8393 185.192 74.9993 186.128 75.3193 187.024C75.6393 187.92 76.1033 188.728 76.7113 189.448C77.3353 190.152 78.0873 190.712 78.9673 191.128C79.8473 191.528 80.8393 191.728 81.9433 191.728ZM97.9213 193V177.136H92.4493V175.48H105.217V177.136H99.7453V193H97.9213ZM113.676 193.408C112.204 193.408 110.964 193.176 109.956 192.712C108.948 192.232 108.18 191.576 107.652 190.744C107.14 189.912 106.884 188.96 106.884 187.888H108.708C108.708 188.56 108.868 189.192 109.188 189.784C109.524 190.36 110.052 190.832 110.772 191.2C111.508 191.552 112.476 191.728 113.676 191.728C115.34 191.728 116.572 191.384 117.372 190.696C118.188 189.992 118.596 189.136 118.596 188.128C118.596 187.28 118.26 186.576 117.588 186.016C116.932 185.44 115.94 185.096 114.612 184.984L112.596 184.792C111.092 184.664 109.892 184.2 108.996 183.4C108.116 182.584 107.676 181.512 107.676 180.184C107.676 179.176 107.916 178.288 108.396 177.52C108.876 176.736 109.556 176.128 110.436 175.696C111.332 175.248 112.404 175.024 113.652 175.024C114.916 175.024 115.996 175.256 116.892 175.72C117.804 176.168 118.5 176.792 118.98 177.592C119.46 178.392 119.7 179.32 119.7 180.376H117.876C117.876 179.736 117.732 179.136 117.444 178.576C117.156 178.016 116.7 177.568 116.076 177.232C115.452 176.88 114.644 176.704 113.652 176.704C112.692 176.704 111.908 176.864 111.3 177.184C110.692 177.504 110.236 177.928 109.932 178.456C109.644 178.984 109.5 179.56 109.5 180.184C109.5 180.984 109.772 181.656 110.316 182.2C110.876 182.728 111.692 183.032 112.764 183.112L114.78 183.304C116.556 183.448 117.94 183.952 118.932 184.816C119.924 185.664 120.42 186.768 120.42 188.128C120.42 189.152 120.14 190.064 119.58 190.864C119.036 191.664 118.26 192.288 117.252 192.736C116.244 193.184 115.052 193.408 113.676 193.408ZM127.781 193V177.136H122.309V175.48H135.077V177.136H129.605V193H127.781ZM138.482 193V175.408H143.954C145.89 175.408 147.386 175.864 148.442 176.776C149.498 177.688 150.026 179 150.026 180.712V181.048C150.026 182.392 149.69 183.496 149.018 184.36C148.362 185.208 147.418 185.792 146.186 186.112L151.586 193H149.354L144.218 186.352C144.138 186.352 144.05 186.352 143.954 186.352H140.306V193H138.482ZM144.266 177.016H140.306V184.72H144.266C145.562 184.72 146.53 184.352 147.17 183.616C147.826 182.88 148.154 181.968 148.154 180.88C148.154 179.776 147.826 178.856 147.17 178.12C146.53 177.384 145.562 177.016 144.266 177.016ZM153.015 193L159.471 175.48H162.735L169.407 193H167.535L165.423 187.432H156.855L154.839 193H153.015ZM157.479 185.776H164.799L161.511 177.136H160.623L157.479 185.776ZM172.935 193V175.408H178.047C179.455 175.408 180.615 175.64 181.527 176.104C182.455 176.568 183.143 177.208 183.591 178.024C184.055 178.84 184.287 179.776 184.287 180.832V181.168C184.287 182.224 184.055 183.16 183.591 183.976C183.143 184.792 182.455 185.432 181.527 185.896C180.615 186.36 179.455 186.592 178.047 186.592H174.759V193H172.935ZM178.359 177.016H174.759V184.984H178.359C179.303 184.984 180.071 184.808 180.663 184.456C181.255 184.104 181.695 183.624 181.983 183.016C182.271 182.408 182.415 181.736 182.415 181C182.415 179.88 182.087 178.936 181.431 178.168C180.791 177.4 179.767 177.016 178.359 177.016Z" fill="#0C2759"/>
</g>
</g>
</g>
</g>
<defs>
<clipPath id="clip0">
<rect width="220" height="260" fill="white"/>
</clipPath>
<clipPath id="clip1">
<rect width="96.242" height="100" fill="white" transform="translate(63 47)"/>
</clipPath>
</defs>
</svg>
