<svg width="180" height="46" viewBox="0 0 180 46" fill="none" xmlns="http://www.w3.org/2000/svg">
<rect width="180" height="46" rx="23" fill="#E0ECFF"/>
<path d="M51.9339 29.304C50.8886 29.304 49.9766 29.1333 49.1979 28.792C48.4193 28.44 47.7739 27.9707 47.2619 27.384C46.7606 26.7973 46.3873 26.152 46.1419 25.448C45.8966 24.7333 45.7739 24.0133 45.7739 23.288V22.936C45.7739 22.2 45.8966 21.48 46.1419 20.776C46.3873 20.072 46.7553 19.432 47.2459 18.856C47.7473 18.28 48.3659 17.8213 49.1019 17.48C49.8486 17.1387 50.7073 16.968 51.6779 16.968C52.7233 16.968 53.6513 17.1653 54.4619 17.56C55.2726 17.9547 55.9233 18.4987 56.4139 19.192C56.9046 19.8747 57.1926 20.664 57.2779 21.56H54.6539C54.5473 20.92 54.2219 20.4027 53.6779 20.008C53.1339 19.6133 52.4673 19.416 51.6779 19.416C50.9953 19.416 50.4086 19.576 49.9179 19.896C49.4379 20.2053 49.0699 20.6427 48.8139 21.208C48.5579 21.7627 48.4299 22.4027 48.4299 23.128C48.4299 24.2693 48.7339 25.1867 49.3419 25.88C49.9606 26.5733 50.8246 26.92 51.9339 26.92C52.5313 26.92 53.0646 26.8187 53.5339 26.616C54.0033 26.4027 54.3766 26.1253 54.6539 25.784V24.808H51.5979V22.92H58.0299V24.808H57.0699V26.792C56.5686 27.6027 55.8753 28.2267 54.9899 28.664C54.1046 29.0907 53.0859 29.304 51.9339 29.304ZM59.7581 29V17.32H62.3821V29H59.7581ZM67.3586 29V19.608H64.0786V17.32H73.2786V19.608H69.9826V29H67.3586ZM74.9292 29V17.32H77.5532V21.976H82.4812V17.32H85.1052V29H82.4812V24.28H77.5532V29H74.9292ZM92.6221 29.304C91.5234 29.304 90.5901 29.1013 89.8221 28.696C89.0647 28.28 88.4887 27.6933 88.0941 26.936C87.6994 26.1787 87.5021 25.2827 87.5021 24.248V17.32H90.1261V24.344C90.1261 25.112 90.3394 25.7253 90.7661 26.184C91.2034 26.632 91.8221 26.856 92.6221 26.856C93.4221 26.856 94.0354 26.632 94.4621 26.184C94.8994 25.736 95.1181 25.1227 95.1181 24.344V17.32H97.7421V24.248C97.7421 25.2827 97.5447 26.1787 97.1501 26.936C96.7554 27.6933 96.1794 28.28 95.4221 28.696C94.6647 29.1013 93.7314 29.304 92.6221 29.304ZM100.148 29.08V17.224H104.532C105.876 17.224 106.905 17.5067 107.62 18.072C108.345 18.6373 108.708 19.4427 108.708 20.488V20.728C108.708 21.2613 108.607 21.7147 108.404 22.088C108.212 22.4507 107.94 22.7493 107.588 22.984C108.079 23.208 108.468 23.528 108.756 23.944C109.044 24.36 109.188 24.8933 109.188 25.544V25.768C109.188 26.824 108.831 27.64 108.116 28.216C107.401 28.792 106.361 29.08 104.996 29.08H100.148ZM104.692 19.272H102.708V22.12H104.692C105.183 22.12 105.54 21.992 105.764 21.736C105.999 21.48 106.116 21.1387 106.116 20.712C106.116 20.264 105.999 19.912 105.764 19.656C105.54 19.4 105.183 19.272 104.692 19.272ZM105.124 24.104H102.708V27.032H105.124C105.615 27.032 105.983 26.9093 106.228 26.664C106.473 26.408 106.596 26.04 106.596 25.56C106.596 24.5893 106.105 24.104 105.124 24.104Z" fill="#0C2759"/>
<path d="M140.359 33V29.319C140.397 28.8654 140.331 28.4095 140.165 27.9814C139.999 27.5534 139.736 27.1631 139.395 26.8364C142.615 26.5035 146 25.3716 146 20.1783C146 18.8503 145.449 17.5732 144.462 16.6114C144.929 15.4495 144.896 14.1653 144.369 13.0255C144.369 13.0255 143.159 12.6926 140.359 14.4332C138.008 13.8424 135.53 13.8424 133.179 14.4332C130.379 12.6926 129.169 13.0255 129.169 13.0255C128.642 14.1653 128.609 15.4495 129.077 16.6114C128.082 17.5803 127.531 18.8689 127.538 20.2068C127.538 25.3621 130.923 26.494 134.144 26.865C133.806 27.1883 133.546 27.574 133.38 27.9968C133.214 28.4196 133.145 28.8701 133.179 29.319V33M133.179 30.1465C128.051 31.5732 128.051 27.7686 126 27.293L133.179 30.1465Z" stroke="#0C2759" stroke-width="2" stroke-linecap="round" stroke-linejoin="round"/>
</svg>
