<svg width="180" height="46" viewBox="0 0 180 46" fill="none" xmlns="http://www.w3.org/2000/svg">
<rect width="180" height="46" rx="23" fill="#E0ECFF"/>
<path d="M48.3871 29.304C47.3417 29.304 46.4297 29.1333 45.6511 28.792C44.8724 28.44 44.2271 27.9707 43.7151 27.384C43.2137 26.7973 42.8404 26.152 42.5951 25.448C42.3497 24.7333 42.2271 24.0133 42.2271 23.288V22.936C42.2271 22.2 42.3497 21.48 42.5951 20.776C42.8404 20.072 43.2084 19.432 43.6991 18.856C44.2004 18.28 44.8191 17.8213 45.5551 17.48C46.3017 17.1387 47.1604 16.968 48.1311 16.968C49.1764 16.968 50.1044 17.1653 50.9151 17.56C51.7257 17.9547 52.3764 18.4987 52.8671 19.192C53.3577 19.8747 53.6457 20.664 53.7311 21.56H51.1071C51.0004 20.92 50.6751 20.4027 50.1311 20.008C49.5871 19.6133 48.9204 19.416 48.1311 19.416C47.4484 19.416 46.8617 19.576 46.3711 19.896C45.8911 20.2053 45.5231 20.6427 45.2671 21.208C45.0111 21.7627 44.8831 22.4027 44.8831 23.128C44.8831 24.2693 45.1871 25.1867 45.7951 25.88C46.4137 26.5733 47.2777 26.92 48.3871 26.92C48.9844 26.92 49.5177 26.8187 49.9871 26.616C50.4564 26.4027 50.8297 26.1253 51.1071 25.784V24.808H48.0511V22.92H54.4831V24.808H53.5231V26.792C53.0217 27.6027 52.3284 28.2267 51.4431 28.664C50.5577 29.0907 49.5391 29.304 48.3871 29.304ZM57.4432 19.368C56.9632 19.368 56.6059 19.2453 56.3712 19C56.1472 18.744 56.0352 18.424 56.0352 18.04C56.0352 17.6453 56.1472 17.3253 56.3712 17.08C56.6059 16.824 56.9632 16.696 57.4432 16.696C57.9232 16.696 58.2752 16.824 58.4992 17.08C58.7339 17.3253 58.8512 17.6453 58.8512 18.04C58.8512 18.424 58.7339 18.744 58.4992 19C58.2752 19.2453 57.9232 19.368 57.4432 19.368ZM56.4512 29V22.12H55.2832V20.232H59.0112V29H56.4512ZM65.3629 29.112C64.4776 29.112 63.7629 29.0053 63.2189 28.792C62.6749 28.568 62.2749 28.2 62.0189 27.688C61.7736 27.1653 61.6509 26.4613 61.6509 25.576V22.104H60.3229V20.232H61.6509V17.864H64.0349V20.232H66.5949V22.104H64.0349V25.672C64.0349 26.088 64.1416 26.408 64.3549 26.632C64.5789 26.8453 64.8936 26.952 65.2989 26.952H66.5949V29.112H65.3629ZM71.2764 29.272C70.2631 29.272 69.4844 28.9467 68.9404 28.296C68.3964 27.6453 68.1244 26.6533 68.1244 25.32V20.232H70.6844V25.448C70.6844 25.9173 70.8178 26.2907 71.0844 26.568C71.3511 26.8453 71.7084 26.984 72.1564 26.984C72.6151 26.984 72.9884 26.84 73.2764 26.552C73.5644 26.264 73.7084 25.8747 73.7084 25.384V20.232H76.2684V29H74.2364V26.952C73.8738 28.4987 72.9244 29.272 71.3884 29.272H71.2764ZM78.6289 29V17.32H81.1889V21.672C81.6583 20.5307 82.5223 19.96 83.7809 19.96H83.8929C84.8636 19.96 85.6049 20.3067 86.1169 21C86.6289 21.6827 86.8849 22.6853 86.8849 24.008V29H84.3249V23.848C84.3249 23.368 84.1809 22.984 83.8929 22.696C83.6156 22.3973 83.2476 22.248 82.7889 22.248C82.3089 22.248 81.9196 22.408 81.6209 22.728C81.3329 23.0373 81.1889 23.4427 81.1889 23.944V29H78.6289ZM92.0264 29.272C91.0131 29.272 90.2344 28.9467 89.6904 28.296C89.1464 27.6453 88.8744 26.6533 88.8744 25.32V20.232H91.4344V25.448C91.4344 25.9173 91.5678 26.2907 91.8344 26.568C92.1011 26.8453 92.4584 26.984 92.9064 26.984C93.3651 26.984 93.7384 26.84 94.0264 26.552C94.3144 26.264 94.4584 25.8747 94.4584 25.384V20.232H97.0184V29H94.9864V26.952C94.6238 28.4987 93.6744 29.272 92.1384 29.272H92.0264ZM104.771 29.288C103.96 29.288 103.262 29.096 102.675 28.712C102.088 28.328 101.667 27.7733 101.411 27.048V29H99.3789V17.32H101.939V21.624C102.248 21.08 102.659 20.6693 103.171 20.392C103.683 20.1147 104.264 19.976 104.915 19.976C105.715 19.976 106.408 20.1733 106.995 20.568C107.582 20.952 108.035 21.48 108.355 22.152C108.686 22.8133 108.851 23.5707 108.851 24.424V24.776C108.851 25.6293 108.686 26.3973 108.355 27.08C108.024 27.752 107.555 28.2907 106.947 28.696C106.339 29.0907 105.614 29.288 104.771 29.288ZM104.099 27.144C104.75 27.144 105.272 26.9093 105.667 26.44C106.072 25.96 106.275 25.3467 106.275 24.6C106.275 23.8533 106.072 23.2507 105.667 22.792C105.272 22.3333 104.75 22.104 104.099 22.104C103.704 22.104 103.336 22.1947 102.995 22.376C102.664 22.5573 102.392 22.8187 102.179 23.16C101.976 23.5013 101.875 23.9067 101.875 24.376V24.968C101.875 25.4267 101.982 25.8213 102.195 26.152C102.419 26.472 102.702 26.7173 103.043 26.888C103.384 27.0587 103.736 27.144 104.099 27.144Z" fill="#0C2759"/>
<path d="M140.359 33V29.319C140.397 28.8654 140.331 28.4095 140.165 27.9814C139.999 27.5534 139.736 27.1631 139.395 26.8364C142.615 26.5035 146 25.3716 146 20.1783C146 18.8503 145.449 17.5732 144.462 16.6114C144.929 15.4495 144.896 14.1653 144.369 13.0255C144.369 13.0255 143.159 12.6926 140.359 14.4332C138.008 13.8424 135.53 13.8424 133.179 14.4332C130.379 12.6926 129.169 13.0255 129.169 13.0255C128.642 14.1653 128.609 15.4495 129.077 16.6114C128.082 17.5803 127.531 18.8689 127.538 20.2068C127.538 25.3621 130.923 26.494 134.144 26.865C133.806 27.1883 133.546 27.574 133.38 27.9968C133.214 28.4196 133.145 28.8701 133.179 29.319V33M133.179 30.1465C128.051 31.5732 128.051 27.7686 126 27.293L133.179 30.1465Z" stroke="#0C2759" stroke-width="2" stroke-linecap="round" stroke-linejoin="round"/>
</svg>
