<svg width="180" height="46" viewBox="0 0 180 46" fill="none" xmlns="http://www.w3.org/2000/svg">
<rect width="180" height="46" rx="23" fill="#E0ECFF"/>
<path d="M53.5433 29.304C52.498 29.304 51.586 29.1333 50.8073 28.792C50.0286 28.44 49.3833 27.9707 48.8713 27.384C48.37 26.7973 47.9966 26.152 47.7513 25.448C47.506 24.7333 47.3833 24.0133 47.3833 23.288V22.936C47.3833 22.2 47.506 21.48 47.7513 20.776C47.9966 20.072 48.3646 19.432 48.8553 18.856C49.3566 18.28 49.9753 17.8213 50.7113 17.48C51.458 17.1387 52.3166 16.968 53.2873 16.968C54.3326 16.968 55.2606 17.1653 56.0713 17.56C56.882 17.9547 57.5326 18.4987 58.0233 19.192C58.514 19.8747 58.802 20.664 58.8873 21.56H56.2633C56.1566 20.92 55.8313 20.4027 55.2873 20.008C54.7433 19.6133 54.0766 19.416 53.2873 19.416C52.6046 19.416 52.018 19.576 51.5273 19.896C51.0473 20.2053 50.6793 20.6427 50.4233 21.208C50.1673 21.7627 50.0393 22.4027 50.0393 23.128C50.0393 24.2693 50.3433 25.1867 50.9513 25.88C51.57 26.5733 52.434 26.92 53.5433 26.92C54.1406 26.92 54.674 26.8187 55.1433 26.616C55.6126 26.4027 55.986 26.1253 56.2633 25.784V24.808H53.2073V22.92H59.6393V24.808H58.6793V26.792C58.178 27.6027 57.4846 28.2267 56.5993 28.664C55.714 29.0907 54.6953 29.304 53.5433 29.304ZM62.5994 19.368C62.1194 19.368 61.7621 19.2453 61.5274 19C61.3034 18.744 61.1914 18.424 61.1914 18.04C61.1914 17.6453 61.3034 17.3253 61.5274 17.08C61.7621 16.824 62.1194 16.696 62.5994 16.696C63.0794 16.696 63.4314 16.824 63.6554 17.08C63.8901 17.3253 64.0074 17.6453 64.0074 18.04C64.0074 18.424 63.8901 18.744 63.6554 19C63.4314 19.2453 63.0794 19.368 62.5994 19.368ZM61.6074 29V22.12H60.4394V20.232H64.1674V29H61.6074ZM70.5192 29.112C69.6339 29.112 68.9192 29.0053 68.3752 28.792C67.8312 28.568 67.4312 28.2 67.1752 27.688C66.9299 27.1653 66.8072 26.4613 66.8072 25.576V22.104H65.4792V20.232H66.8072V17.864H69.1912V20.232H71.7512V22.104H69.1912V25.672C69.1912 26.088 69.2979 26.408 69.5112 26.632C69.7352 26.8453 70.0499 26.952 70.4552 26.952H71.7512V29.112H70.5192ZM73.4727 29V17.32H76.0327V21.672C76.502 20.5307 77.366 19.96 78.6247 19.96H78.7367C79.7074 19.96 80.4487 20.3067 80.9607 21C81.4727 21.6827 81.7287 22.6853 81.7287 24.008V29H79.1687V23.848C79.1687 23.368 79.0247 22.984 78.7367 22.696C78.4594 22.3973 78.0914 22.248 77.6327 22.248C77.1527 22.248 76.7634 22.408 76.4647 22.728C76.1767 23.0373 76.0327 23.4427 76.0327 23.944V29H73.4727ZM86.8702 29.272C85.8569 29.272 85.0782 28.9467 84.5342 28.296C83.9902 27.6453 83.7182 26.6533 83.7182 25.32V20.232H86.2782V25.448C86.2782 25.9173 86.4115 26.2907 86.6782 26.568C86.9449 26.8453 87.3022 26.984 87.7502 26.984C88.2089 26.984 88.5822 26.84 88.8702 26.552C89.1582 26.264 89.3022 25.8747 89.3022 25.384V20.232H91.8622V29H89.8302V26.952C89.4675 28.4987 88.5182 29.272 86.9822 29.272H86.8702ZM99.6147 29.288C98.804 29.288 98.1054 29.096 97.5187 28.712C96.932 28.328 96.5107 27.7733 96.2547 27.048V29H94.2227V17.32H96.7827V21.624C97.092 21.08 97.5027 20.6693 98.0147 20.392C98.5267 20.1147 99.108 19.976 99.7587 19.976C100.559 19.976 101.252 20.1733 101.839 20.568C102.425 20.952 102.879 21.48 103.199 22.152C103.529 22.8133 103.695 23.5707 103.695 24.424V24.776C103.695 25.6293 103.529 26.3973 103.199 27.08C102.868 27.752 102.399 28.2907 101.791 28.696C101.183 29.0907 100.457 29.288 99.6147 29.288ZM98.9427 27.144C99.5934 27.144 100.116 26.9093 100.511 26.44C100.916 25.96 101.119 25.3467 101.119 24.6C101.119 23.8533 100.916 23.2507 100.511 22.792C100.116 22.3333 99.5934 22.104 98.9427 22.104C98.548 22.104 98.18 22.1947 97.8387 22.376C97.508 22.5573 97.236 22.8187 97.0227 23.16C96.82 23.5013 96.7187 23.9067 96.7187 24.376V24.968C96.7187 25.4267 96.8254 25.8213 97.0387 26.152C97.2627 26.472 97.5454 26.7173 97.8867 26.888C98.228 27.0587 98.58 27.144 98.9427 27.144Z" fill="#0C2759"/>
<path d="M140.359 33V29.319C140.397 28.8654 140.331 28.4095 140.165 27.9814C139.999 27.5534 139.736 27.1631 139.395 26.8364C142.615 26.5035 146 25.3716 146 20.1783C146 18.8503 145.449 17.5732 144.462 16.6114C144.929 15.4495 144.896 14.1653 144.369 13.0255C144.369 13.0255 143.159 12.6926 140.359 14.4332C138.008 13.8424 135.53 13.8424 133.179 14.4332C130.379 12.6926 129.169 13.0255 129.169 13.0255C128.642 14.1653 128.609 15.4495 129.077 16.6114C128.082 17.5803 127.531 18.8689 127.538 20.2068C127.538 25.3621 130.923 26.494 134.144 26.865C133.806 27.1883 133.546 27.574 133.38 27.9968C133.214 28.4196 133.145 28.8701 133.179 29.319V33M133.179 30.1465C128.051 31.5732 128.051 27.7686 126 27.293L133.179 30.1465Z" stroke="#0C2759" stroke-width="2" stroke-linecap="round" stroke-linejoin="round"/>
</svg>
