<svg width="180" height="46" viewBox="0 0 180 46" fill="none" xmlns="http://www.w3.org/2000/svg">
<rect width="180" height="46" rx="23" fill="#E0ECFF"/>
<path d="M57.5433 29.304C56.498 29.304 55.586 29.1333 54.8073 28.792C54.0286 28.44 53.3833 27.9707 52.8713 27.384C52.37 26.7973 51.9966 26.152 51.7513 25.448C51.506 24.7333 51.3833 24.0133 51.3833 23.288V22.936C51.3833 22.2 51.506 21.48 51.7513 20.776C51.9966 20.072 52.3646 19.432 52.8553 18.856C53.3566 18.28 53.9753 17.8213 54.7113 17.48C55.458 17.1387 56.3166 16.968 57.2873 16.968C58.3326 16.968 59.2606 17.1653 60.0713 17.56C60.882 17.9547 61.5326 18.4987 62.0233 19.192C62.514 19.8747 62.802 20.664 62.8873 21.56H60.2633C60.1566 20.92 59.8313 20.4027 59.2873 20.008C58.7433 19.6133 58.0766 19.416 57.2873 19.416C56.6046 19.416 56.018 19.576 55.5273 19.896C55.0473 20.2053 54.6793 20.6427 54.4233 21.208C54.1673 21.7627 54.0393 22.4027 54.0393 23.128C54.0393 24.2693 54.3433 25.1867 54.9513 25.88C55.57 26.5733 56.434 26.92 57.5433 26.92C58.1406 26.92 58.674 26.8187 59.1433 26.616C59.6126 26.4027 59.986 26.1253 60.2633 25.784V24.808H57.2073V22.92H63.6393V24.808H62.6793V26.792C62.178 27.6027 61.4846 28.2267 60.5993 28.664C59.714 29.0907 58.6953 29.304 57.5433 29.304ZM66.5994 19.368C66.1194 19.368 65.7621 19.2453 65.5274 19C65.3034 18.744 65.1914 18.424 65.1914 18.04C65.1914 17.6453 65.3034 17.3253 65.5274 17.08C65.7621 16.824 66.1194 16.696 66.5994 16.696C67.0794 16.696 67.4314 16.824 67.6554 17.08C67.8901 17.3253 68.0074 17.6453 68.0074 18.04C68.0074 18.424 67.8901 18.744 67.6554 19C67.4314 19.2453 67.0794 19.368 66.5994 19.368ZM65.6074 29V22.12H64.4394V20.232H68.1674V29H65.6074ZM74.5192 29.112C73.6339 29.112 72.9192 29.0053 72.3752 28.792C71.8312 28.568 71.4312 28.2 71.1752 27.688C70.9299 27.1653 70.8072 26.4613 70.8072 25.576V22.104H69.4792V20.232H70.8072V17.864H73.1912V20.232H75.7512V22.104H73.1912V25.672C73.1912 26.088 73.2979 26.408 73.5112 26.632C73.7352 26.8453 74.0499 26.952 74.4552 26.952H75.7512V29.112H74.5192ZM77.4727 29V17.32H80.0327V21.672C80.502 20.5307 81.366 19.96 82.6247 19.96H82.7367C83.7074 19.96 84.4487 20.3067 84.9607 21C85.4727 21.6827 85.7287 22.6853 85.7287 24.008V29H83.1687V23.848C83.1687 23.368 83.0247 22.984 82.7367 22.696C82.4594 22.3973 82.0914 22.248 81.6327 22.248C81.1527 22.248 80.7634 22.408 80.4647 22.728C80.1767 23.0373 80.0327 23.4427 80.0327 23.944V29H77.4727ZM90.8702 29.272C89.8569 29.272 89.0782 28.9467 88.5342 28.296C87.9902 27.6453 87.7182 26.6533 87.7182 25.32V20.232H90.2782V25.448C90.2782 25.9173 90.4115 26.2907 90.6782 26.568C90.9449 26.8453 91.3022 26.984 91.7502 26.984C92.2089 26.984 92.5822 26.84 92.8702 26.552C93.1582 26.264 93.3022 25.8747 93.3022 25.384V20.232H95.8622V29H93.8302V26.952C93.4675 28.4987 92.5182 29.272 90.9822 29.272H90.8702ZM103.615 29.288C102.804 29.288 102.105 29.096 101.519 28.712C100.932 28.328 100.511 27.7733 100.255 27.048V29H98.2227V17.32H100.783V21.624C101.092 21.08 101.503 20.6693 102.015 20.392C102.527 20.1147 103.108 19.976 103.759 19.976C104.559 19.976 105.252 20.1733 105.839 20.568C106.425 20.952 106.879 21.48 107.199 22.152C107.529 22.8133 107.695 23.5707 107.695 24.424V24.776C107.695 25.6293 107.529 26.3973 107.199 27.08C106.868 27.752 106.399 28.2907 105.791 28.696C105.183 29.0907 104.457 29.288 103.615 29.288ZM102.943 27.144C103.593 27.144 104.116 26.9093 104.511 26.44C104.916 25.96 105.119 25.3467 105.119 24.6C105.119 23.8533 104.916 23.2507 104.511 22.792C104.116 22.3333 103.593 22.104 102.943 22.104C102.548 22.104 102.18 22.1947 101.839 22.376C101.508 22.5573 101.236 22.8187 101.023 23.16C100.82 23.5013 100.719 23.9067 100.719 24.376V24.968C100.719 25.4267 100.825 25.8213 101.039 26.152C101.263 26.472 101.545 26.7173 101.887 26.888C102.228 27.0587 102.58 27.144 102.943 27.144Z" fill="#232224"/>
<path d="M129.359 33V29.319C129.397 28.8654 129.331 28.4095 129.165 27.9814C128.999 27.5534 128.736 27.1631 128.395 26.8364C131.615 26.5035 135 25.3716 135 20.1783C135 18.8503 134.449 17.5732 133.462 16.6114C133.929 15.4495 133.896 14.1653 133.369 13.0255C133.369 13.0255 132.159 12.6926 129.359 14.4332C127.008 13.8424 124.53 13.8424 122.179 14.4332C119.379 12.6926 118.169 13.0255 118.169 13.0255C117.642 14.1653 117.609 15.4495 118.077 16.6114C117.082 17.5803 116.531 18.8689 116.538 20.2068C116.538 25.3621 119.923 26.494 123.144 26.865C122.806 27.1883 122.546 27.574 122.38 27.9968C122.214 28.4196 122.145 28.8701 122.179 29.319V33M122.179 30.1465C117.051 31.5732 117.051 27.7686 115 27.293L122.179 30.1465Z" stroke="url(#paint0_linear)" stroke-width="2" stroke-linecap="round" stroke-linejoin="round"/>
<defs>
<linearGradient id="paint0_linear" x1="125" y1="13" x2="125.097" y2="32.0099" gradientUnits="userSpaceOnUse">
<stop stop-color="#538BF0"/>
<stop offset="1" stop-color="#2DC7ED"/>
</linearGradient>
</defs>
</svg>
