<svg width="180" height="46" viewBox="0 0 180 46" fill="none" xmlns="http://www.w3.org/2000/svg">
<rect width="180" height="46" rx="23" fill="#E0ECFF"/>
<path d="M34.3433 29.064V17.224H38.6793C39.7353 17.224 40.6579 17.3787 41.4473 17.688C42.2366 17.9973 42.8926 18.4187 43.4153 18.952C43.9486 19.4853 44.3486 20.0987 44.6153 20.792C44.8819 21.4747 45.0153 22.1947 45.0153 22.952V23.304C45.0153 24.0187 44.8819 24.7173 44.6153 25.4C44.3486 26.0827 43.9486 26.7013 43.4153 27.256C42.8926 27.8107 42.2366 28.2533 41.4473 28.584C40.6579 28.904 39.7353 29.064 38.6793 29.064H34.3433ZM38.8233 19.672H36.9673V26.616H38.8233C39.9219 26.616 40.7859 26.296 41.4153 25.656C42.0446 25.016 42.3593 24.1733 42.3593 23.128C42.3593 22.0293 42.0446 21.1813 41.4153 20.584C40.7859 19.976 39.9219 19.672 38.8233 19.672ZM50.9713 29.304C49.9473 29.304 49.0726 29.096 48.3473 28.68C47.6326 28.264 47.0886 27.72 46.7153 27.048C46.3419 26.3653 46.1553 25.624 46.1553 24.824V24.456C46.1553 23.6347 46.3473 22.8827 46.7313 22.2C47.1259 21.5067 47.6806 20.9573 48.3953 20.552C49.1206 20.136 49.9793 19.928 50.9713 19.928C51.9633 19.928 52.8219 20.136 53.5473 20.552C54.2726 20.9573 54.8273 21.5067 55.2113 22.2C55.6059 22.8827 55.8033 23.6347 55.8033 24.456V24.824C55.8033 25.624 55.6113 26.3653 55.2273 27.048C54.8539 27.72 54.3099 28.264 53.5953 28.68C52.8806 29.096 52.0059 29.304 50.9713 29.304ZM50.9713 27.144C51.7073 27.144 52.2673 26.9093 52.6513 26.44C53.0459 25.96 53.2433 25.3627 53.2433 24.648C53.2433 23.912 53.0406 23.304 52.6353 22.824C52.2406 22.3333 51.6859 22.088 50.9713 22.088C50.2566 22.088 49.7019 22.3333 49.3073 22.824C48.9126 23.304 48.7153 23.912 48.7153 24.648C48.7153 25.3627 48.9073 25.96 49.2913 26.44C49.6753 26.9093 50.2353 27.144 50.9713 27.144ZM58.8428 29L56.4908 20.232H59.0028L60.6508 26.872H61.0028L62.2028 20.52H65.0028L66.3788 26.872H66.7148L68.2028 20.232H70.5548L68.4428 29H64.8748L63.5628 23.24L62.3948 29H58.8428ZM72.1368 29V20.232H74.1688V22.472C74.5208 20.7973 75.5074 19.96 77.1288 19.96H77.2408C78.2541 19.96 79.0328 20.296 79.5768 20.968C80.1208 21.6293 80.3928 22.6373 80.3928 23.992V29H77.8328V23.848C77.8328 23.3787 77.6941 22.9947 77.4168 22.696C77.1394 22.3973 76.7661 22.248 76.2968 22.248C75.8168 22.248 75.4274 22.4027 75.1288 22.712C74.8408 23.0107 74.6968 23.4053 74.6968 23.896V29H72.1368ZM82.6863 29V19.208H81.6463V17.32H85.2623V29H82.6863ZM91.8931 29.304C90.8691 29.304 89.9945 29.096 89.2691 28.68C88.5545 28.264 88.0105 27.72 87.6371 27.048C87.2638 26.3653 87.0771 25.624 87.0771 24.824V24.456C87.0771 23.6347 87.2691 22.8827 87.6531 22.2C88.0478 21.5067 88.6025 20.9573 89.3171 20.552C90.0425 20.136 90.9011 19.928 91.8931 19.928C92.8851 19.928 93.7438 20.136 94.4691 20.552C95.1945 20.9573 95.7491 21.5067 96.1331 22.2C96.5278 22.8827 96.7251 23.6347 96.7251 24.456V24.824C96.7251 25.624 96.5331 26.3653 96.1491 27.048C95.7758 27.72 95.2318 28.264 94.5171 28.68C93.8025 29.096 92.9278 29.304 91.8931 29.304ZM91.8931 27.144C92.6291 27.144 93.1891 26.9093 93.5731 26.44C93.9678 25.96 94.1651 25.3627 94.1651 24.648C94.1651 23.912 93.9625 23.304 93.5571 22.824C93.1625 22.3333 92.6078 22.088 91.8931 22.088C91.1785 22.088 90.6238 22.3333 90.2291 22.824C89.8345 23.304 89.6371 23.912 89.6371 24.648C89.6371 25.3627 89.8291 25.96 90.2131 26.44C90.5971 26.9093 91.1571 27.144 91.8931 27.144ZM101.008 29.224C100.058 29.224 99.2904 28.9787 98.7038 28.488C98.1278 27.9973 97.8398 27.304 97.8398 26.408C97.8398 25.768 98.0051 25.2453 98.3358 24.84C98.6664 24.424 99.1304 24.12 99.7278 23.928C100.325 23.7253 101.013 23.624 101.792 23.624H103.376V23.592C103.376 22.696 102.928 22.248 102.032 22.248C101.797 22.248 101.488 22.2587 101.104 22.28C100.72 22.2907 100.32 22.3067 99.9038 22.328C99.4984 22.3387 99.1358 22.3547 98.8158 22.376V20.216C99.1891 20.184 99.6478 20.1573 100.192 20.136C100.736 20.104 101.237 20.088 101.696 20.088C103.04 20.088 104.064 20.376 104.768 20.952C105.482 21.5173 105.84 22.408 105.84 23.624V29H103.808V27.352C103.616 27.96 103.285 28.424 102.816 28.744C102.346 29.064 101.744 29.224 101.008 29.224ZM101.776 27.448C102.192 27.448 102.554 27.3307 102.864 27.096C103.173 26.8613 103.344 26.4133 103.376 25.752V25.048H101.776C101.328 25.048 100.981 25.16 100.736 25.384C100.501 25.608 100.384 25.9013 100.384 26.264C100.384 26.616 100.501 26.904 100.736 27.128C100.981 27.3413 101.328 27.448 101.776 27.448ZM111.628 29.288C110.806 29.288 110.081 29.096 109.452 28.712C108.833 28.3173 108.348 27.784 107.996 27.112C107.644 26.44 107.468 25.6827 107.468 24.84V24.472C107.468 23.6293 107.633 22.8667 107.964 22.184C108.294 21.5013 108.764 20.9627 109.372 20.568C109.99 20.1733 110.71 19.976 111.532 19.976C112.812 19.976 113.756 20.4613 114.364 21.432V17.32H116.94V29H114.908V27.16C114.62 27.8533 114.193 28.3813 113.628 28.744C113.062 29.1067 112.396 29.288 111.628 29.288ZM112.268 27.144C112.854 27.144 113.361 26.9467 113.788 26.552C114.214 26.1573 114.428 25.5973 114.428 24.872V24.28C114.428 23.8213 114.326 23.432 114.124 23.112C113.921 22.7813 113.654 22.5307 113.324 22.36C112.993 22.1893 112.636 22.104 112.252 22.104C111.601 22.104 111.068 22.3387 110.652 22.808C110.236 23.2773 110.028 23.8907 110.028 24.648C110.028 25.416 110.236 26.024 110.652 26.472C111.078 26.92 111.617 27.144 112.268 27.144ZM128.125 29.304C127.069 29.304 126.162 29.1227 125.405 28.76C124.648 28.3867 124.024 27.9013 123.533 27.304C123.053 26.696 122.701 26.0453 122.477 25.352C122.253 24.648 122.141 23.9653 122.141 23.304V22.952C122.141 22.2267 122.258 21.512 122.493 20.808C122.728 20.0933 123.085 19.448 123.565 18.872C124.056 18.296 124.669 17.8373 125.405 17.496C126.152 17.144 127.032 16.968 128.045 16.968C129.101 16.968 130.029 17.1653 130.829 17.56C131.64 17.9547 132.285 18.504 132.765 19.208C133.256 19.912 133.549 20.728 133.645 21.656H131.005C130.888 20.9627 130.562 20.4187 130.029 20.024C129.496 19.6187 128.834 19.416 128.045 19.416C127 19.416 126.194 19.7627 125.629 20.456C125.074 21.1387 124.797 22.0347 124.797 23.144C124.797 23.88 124.925 24.5307 125.181 25.096C125.437 25.6507 125.81 26.0827 126.301 26.392C126.802 26.7013 127.41 26.856 128.125 26.856C128.936 26.856 129.618 26.6587 130.173 26.264C130.738 25.8693 131.08 25.3253 131.197 24.632H133.821C133.725 25.496 133.437 26.28 132.957 26.984C132.488 27.688 131.842 28.2533 131.021 28.68C130.21 29.096 129.245 29.304 128.125 29.304ZM138.013 29L134.461 17.32H137.165L139.885 26.872H140.445L142.973 17.32H145.597L142.285 29H138.013Z" fill="#0C2759"/>
</svg>
