<svg width="180" height="46" viewBox="0 0 180 46" fill="none" xmlns="http://www.w3.org/2000/svg">
<rect width="180" height="46" rx="23" fill="#E0ECFF"/>
<path d="M41.1954 29.304C40.1394 29.304 39.2328 29.1227 38.4754 28.76C37.7181 28.3867 37.0941 27.9013 36.6034 27.304C36.1234 26.696 35.7714 26.0453 35.5474 25.352C35.3234 24.648 35.2114 23.9653 35.2114 23.304V22.952C35.2114 22.2267 35.3288 21.512 35.5634 20.808C35.7981 20.0933 36.1554 19.448 36.6354 18.872C37.1261 18.296 37.7394 17.8373 38.4754 17.496C39.2221 17.144 40.1021 16.968 41.1154 16.968C42.1714 16.968 43.0994 17.1653 43.8994 17.56C44.7101 17.9547 45.3554 18.504 45.8354 19.208C46.3261 19.912 46.6194 20.728 46.7154 21.656H44.0754C43.9581 20.9627 43.6328 20.4187 43.0994 20.024C42.5661 19.6187 41.9048 19.416 41.1154 19.416C40.0701 19.416 39.2648 19.7627 38.6994 20.456C38.1448 21.1387 37.8674 22.0347 37.8674 23.144C37.8674 23.88 37.9954 24.5307 38.2514 25.096C38.5074 25.6507 38.8808 26.0827 39.3714 26.392C39.8728 26.7013 40.4808 26.856 41.1954 26.856C42.0061 26.856 42.6888 26.6587 43.2434 26.264C43.8088 25.8693 44.1501 25.3253 44.2674 24.632H46.8914C46.7954 25.496 46.5074 26.28 46.0274 26.984C45.5581 27.688 44.9128 28.2533 44.0914 28.68C43.2808 29.096 42.3154 29.304 41.1954 29.304ZM51.4483 29.272C50.435 29.272 49.6563 28.9467 49.1123 28.296C48.5683 27.6453 48.2963 26.6533 48.2963 25.32V20.232H50.8563V25.448C50.8563 25.9173 50.9896 26.2907 51.2563 26.568C51.523 26.8453 51.8803 26.984 52.3283 26.984C52.787 26.984 53.1603 26.84 53.4483 26.552C53.7363 26.264 53.8803 25.8747 53.8803 25.384V20.232H56.4403V29H54.4083V26.952C54.0456 28.4987 53.0963 29.272 51.5603 29.272H51.4483ZM58.8008 29V20.232H60.8328V23.208C60.9288 22.216 61.2328 21.4533 61.7448 20.92C62.2675 20.3867 62.9768 20.12 63.8728 20.12H64.2088V22.328H63.5688C62.8541 22.328 62.3048 22.52 61.9208 22.904C61.5475 23.288 61.3608 23.832 61.3608 24.536V29H58.8008ZM65.5352 29V20.232H67.5672V23.208C67.6632 22.216 67.9672 21.4533 68.4792 20.92C69.0019 20.3867 69.7112 20.12 70.6072 20.12H70.9432V22.328H70.3032C69.5885 22.328 69.0392 22.52 68.6552 22.904C68.2819 23.288 68.0952 23.832 68.0952 24.536V29H65.5352ZM72.6856 29V22.12H71.5176V20.232H75.2456V29H72.6856ZM72.2856 19.208L73.7256 15.864H76.3496L74.5256 19.208H72.2856ZM81.5493 29.304C80.792 29.304 80.1306 29.1813 79.5653 28.936C79.0106 28.68 78.5466 28.3387 78.1733 27.912C77.8 27.4853 77.5226 27.0053 77.3413 26.472C77.16 25.928 77.0693 25.368 77.0693 24.792V24.488C77.0693 23.688 77.2346 22.9413 77.5653 22.248C77.9066 21.5547 78.408 20.9947 79.0693 20.568C79.7413 20.1413 80.5626 19.928 81.5333 19.928C82.3226 19.928 83.0213 20.0827 83.6293 20.392C84.2373 20.6907 84.7226 21.112 85.0853 21.656C85.448 22.2 85.6506 22.824 85.6933 23.528H83.1813C83.1386 23.1333 82.9786 22.8027 82.7013 22.536C82.424 22.2587 82.0346 22.12 81.5333 22.12C80.8826 22.12 80.4026 22.3547 80.0933 22.824C79.784 23.2827 79.6293 23.8907 79.6293 24.648C79.6293 25.3627 79.7733 25.9547 80.0613 26.424C80.36 26.8827 80.856 27.112 81.5493 27.112C82.0613 27.112 82.4613 26.9787 82.7493 26.712C83.0373 26.4453 83.208 26.0933 83.2613 25.656H85.7573C85.7146 26.3813 85.5066 27.0213 85.1333 27.576C84.7706 28.12 84.2746 28.5467 83.6453 28.856C83.0266 29.1547 82.328 29.304 81.5493 29.304ZM90.3546 29.272C89.3412 29.272 88.5626 28.9467 88.0186 28.296C87.4746 27.6453 87.2026 26.6533 87.2026 25.32V20.232H89.7626V25.448C89.7626 25.9173 89.8959 26.2907 90.1626 26.568C90.4292 26.8453 90.7866 26.984 91.2346 26.984C91.6932 26.984 92.0666 26.84 92.3546 26.552C92.6426 26.264 92.7866 25.8747 92.7866 25.384V20.232H95.3466V29H93.3146V26.952C92.9519 28.4987 92.0026 29.272 90.4666 29.272H90.3546ZM97.8191 29V19.208H96.7791V17.32H100.395V29H97.8191ZM107.026 29.304C106.002 29.304 105.127 29.096 104.402 28.68C103.687 28.264 103.143 27.72 102.77 27.048C102.397 26.3653 102.21 25.624 102.21 24.824V24.456C102.21 23.6347 102.402 22.8827 102.786 22.2C103.181 21.5067 103.735 20.9573 104.45 20.552C105.175 20.136 106.034 19.928 107.026 19.928C108.018 19.928 108.877 20.136 109.602 20.552C110.327 20.9573 110.882 21.5067 111.266 22.2C111.661 22.8827 111.858 23.6347 111.858 24.456V24.824C111.858 25.624 111.666 26.3653 111.282 27.048C110.909 27.72 110.365 28.264 109.65 28.68C108.935 29.096 108.061 29.304 107.026 29.304ZM107.026 27.144C107.762 27.144 108.322 26.9093 108.706 26.44C109.101 25.96 109.298 25.3627 109.298 24.648C109.298 23.912 109.095 23.304 108.69 22.824C108.295 22.3333 107.741 22.088 107.026 22.088C106.311 22.088 105.757 22.3333 105.362 22.824C104.967 23.304 104.77 23.912 104.77 24.648C104.77 25.3627 104.962 25.96 105.346 26.44C105.73 26.9093 106.29 27.144 107.026 27.144Z" fill="#232224"/>
<path d="M146 26.3333V30.7777C146 31.3671 145.766 31.9323 145.349 32.349C144.932 32.7658 144.367 32.9999 143.778 32.9999H128.222C127.633 32.9999 127.068 32.7658 126.651 32.349C126.234 31.9323 126 31.3671 126 30.7777V26.3333" stroke="url(#paint0_linear)" stroke-width="2" stroke-linecap="round" stroke-linejoin="round"/>
<path d="M130.444 20.7778L136 26.3334L141.555 20.7778" stroke="url(#paint1_linear)" stroke-width="2" stroke-linecap="round" stroke-linejoin="round"/>
<path d="M136 26.3333V13" stroke="url(#paint2_linear)" stroke-width="2" stroke-linecap="round" stroke-linejoin="round"/>
<defs>
<linearGradient id="paint0_linear" x1="136" y1="26.3333" x2="136.011" y2="32.67" gradientUnits="userSpaceOnUse">
<stop stop-color="#538BF0"/>
<stop offset="1" stop-color="#2DC7ED"/>
</linearGradient>
<linearGradient id="paint1_linear" x1="136" y1="20.7778" x2="136.013" y2="26.0585" gradientUnits="userSpaceOnUse">
<stop stop-color="#538BF0"/>
<stop offset="1" stop-color="#2DC7ED"/>
</linearGradient>
<linearGradient id="paint2_linear" x1="136.5" y1="13" x2="137.359" y2="25.6152" gradientUnits="userSpaceOnUse">
<stop stop-color="#538BF0"/>
<stop offset="1" stop-color="#2DC7ED"/>
</linearGradient>
</defs>
</svg>
