<svg width="150" height="200" viewBox="0 0 180 230" fill="none" xmlns="http://www.w3.org/2000/svg">
<rect width="180" height="230" rx="16" fill="#F2F7FF"/>
<path d="M48 29H46.9148L47.0033 30.0816L54.6662 123.721L54.7218 124.399L55.3735 124.597L89.7814 135.001L90.0708 135.088L90.3602 135.001L124.756 124.603L125.408 124.406L125.463 123.728L133.138 30.0817L133.227 29H132.142H48Z" fill="#2E6BDB" stroke="#0C2759" stroke-width="2"/>
<path d="M114.761 60.5388L114.761 60.5392L113.793 72.3021L113.793 72.3027L110.929 106.886L90.0508 113.133L69.2063 106.887L67.831 90.2072H76.4986L77.2159 98.8553L77.2727 99.54L77.9321 99.7326L89.7781 103.192L90.3726 103.366L90.6106 103.108L102.208 99.7262L102.855 99.5375L102.923 98.8671L104.54 82.9289L104.652 81.8247L103.542 81.828L67.1417 81.9359L66.2769 73.026L104.453 72.5392L105.376 72.5274L105.438 71.6071L106.232 59.9413L106.304 58.8702L105.231 58.8734L65.0629 58.9941L64.4993 50.1439H90.0704H115.621L114.761 60.5388Z" fill="#FAFAFA" stroke="#0C2759" stroke-width="2"/>
<path d="M66.6258 182.408C65.0578 182.408 63.7138 182.136 62.5938 181.592C61.4898 181.032 60.5858 180.304 59.8818 179.408C59.1938 178.512 58.6898 177.544 58.3698 176.504C58.0498 175.448 57.8898 174.424 57.8898 173.432V172.976C57.8898 171.904 58.0498 170.84 58.3698 169.784C58.7058 168.728 59.2178 167.768 59.9058 166.904C60.6098 166.024 61.5058 165.328 62.5938 164.816C63.6818 164.288 64.9698 164.024 66.4578 164.024C67.9618 164.024 69.2578 164.288 70.3458 164.816C71.4498 165.344 72.3298 166.088 72.9858 167.048C73.6418 168.008 74.0418 169.128 74.1858 170.408H72.3378C72.1938 169.368 71.8498 168.504 71.3058 167.816C70.7778 167.112 70.0898 166.584 69.2418 166.232C68.4098 165.88 67.4818 165.704 66.4578 165.704C64.9858 165.704 63.7458 166.048 62.7378 166.736C61.7458 167.408 60.9938 168.312 60.4818 169.448C59.9858 170.584 59.7378 171.84 59.7378 173.216C59.7378 174.192 59.8818 175.128 60.1698 176.024C60.4578 176.92 60.8818 177.728 61.4418 178.448C62.0178 179.152 62.7378 179.712 63.6018 180.128C64.4658 180.528 65.4738 180.728 66.6258 180.728C68.2258 180.728 69.5698 180.328 70.6578 179.528C71.7458 178.712 72.4178 177.544 72.6738 176.024H74.5218C74.3458 177.224 73.9298 178.312 73.2738 179.288C72.6178 180.248 71.7298 181.008 70.6098 181.568C69.5058 182.128 68.1778 182.408 66.6258 182.408ZM83.8325 182.408C82.3605 182.408 81.1205 182.176 80.1125 181.712C79.1045 181.232 78.3365 180.576 77.8085 179.744C77.2965 178.912 77.0405 177.96 77.0405 176.888H78.8645C78.8645 177.56 79.0245 178.192 79.3445 178.784C79.6805 179.36 80.2085 179.832 80.9285 180.2C81.6645 180.552 82.6325 180.728 83.8325 180.728C85.4965 180.728 86.7285 180.384 87.5285 179.696C88.3445 178.992 88.7525 178.136 88.7525 177.128C88.7525 176.28 88.4165 175.576 87.7445 175.016C87.0885 174.44 86.0965 174.096 84.7685 173.984L82.7525 173.792C81.2485 173.664 80.0485 173.2 79.1525 172.4C78.2725 171.584 77.8325 170.512 77.8325 169.184C77.8325 168.176 78.0725 167.288 78.5525 166.52C79.0325 165.736 79.7125 165.128 80.5925 164.696C81.4885 164.248 82.5605 164.024 83.8085 164.024C85.0725 164.024 86.1525 164.256 87.0485 164.72C87.9605 165.168 88.6565 165.792 89.1365 166.592C89.6165 167.392 89.8565 168.32 89.8565 169.376H88.0325C88.0325 168.736 87.8885 168.136 87.6005 167.576C87.3125 167.016 86.8565 166.568 86.2325 166.232C85.6085 165.88 84.8005 165.704 83.8085 165.704C82.8485 165.704 82.0645 165.864 81.4565 166.184C80.8485 166.504 80.3925 166.928 80.0885 167.456C79.8005 167.984 79.6565 168.56 79.6565 169.184C79.6565 169.984 79.9285 170.656 80.4725 171.2C81.0325 171.728 81.8485 172.032 82.9205 172.112L84.9365 172.304C86.7125 172.448 88.0965 172.952 89.0885 173.816C90.0805 174.664 90.5765 175.768 90.5765 177.128C90.5765 178.152 90.2965 179.064 89.7365 179.864C89.1925 180.664 88.4165 181.288 87.4085 181.736C86.4005 182.184 85.2085 182.408 83.8325 182.408ZM100.567 182.408C99.0948 182.408 97.8548 182.176 96.8468 181.712C95.8388 181.232 95.0708 180.576 94.5428 179.744C94.0308 178.912 93.7748 177.96 93.7748 176.888H95.5988C95.5988 177.56 95.7588 178.192 96.0788 178.784C96.4148 179.36 96.9428 179.832 97.6628 180.2C98.3988 180.552 99.3668 180.728 100.567 180.728C102.231 180.728 103.463 180.384 104.263 179.696C105.079 178.992 105.487 178.136 105.487 177.128C105.487 176.28 105.151 175.576 104.479 175.016C103.823 174.44 102.831 174.096 101.503 173.984L99.4868 173.792C97.9828 173.664 96.7828 173.2 95.8868 172.4C95.0068 171.584 94.5668 170.512 94.5668 169.184C94.5668 168.176 94.8068 167.288 95.2868 166.52C95.7668 165.736 96.4468 165.128 97.3268 164.696C98.2228 164.248 99.2948 164.024 100.543 164.024C101.807 164.024 102.887 164.256 103.783 164.72C104.695 165.168 105.391 165.792 105.871 166.592C106.351 167.392 106.591 168.32 106.591 169.376H104.767C104.767 168.736 104.623 168.136 104.335 167.576C104.047 167.016 103.591 166.568 102.967 166.232C102.343 165.88 101.535 165.704 100.543 165.704C99.5828 165.704 98.7988 165.864 98.1908 166.184C97.5828 166.504 97.1268 166.928 96.8228 167.456C96.5348 167.984 96.3908 168.56 96.3908 169.184C96.3908 169.984 96.6628 170.656 97.2068 171.2C97.7668 171.728 98.5828 172.032 99.6548 172.112L101.671 172.304C103.447 172.448 104.831 172.952 105.823 173.816C106.815 174.664 107.311 175.768 107.311 177.128C107.311 178.152 107.031 179.064 106.471 179.864C105.927 180.664 105.151 181.288 104.143 181.736C103.135 182.184 101.943 182.408 100.567 182.408ZM116.077 182.408C114.797 182.408 113.709 182.16 112.813 181.664C111.933 181.152 111.261 180.48 110.797 179.648C110.333 178.816 110.101 177.888 110.101 176.864H111.853C111.853 178.08 112.229 179.048 112.981 179.768C113.733 180.472 114.765 180.824 116.077 180.824C117.357 180.824 118.373 180.472 119.125 179.768C119.893 179.048 120.277 178.096 120.277 176.912C120.277 175.712 119.901 174.744 119.149 174.008C118.397 173.272 117.381 172.904 116.101 172.904C115.589 172.904 115.141 172.968 114.757 173.096C114.389 173.208 114.069 173.352 113.797 173.528L112.813 171.848L119.797 166.424L119.605 166.04H110.797V164.48H121.285V167.072L115.621 171.488C115.797 171.472 115.981 171.464 116.173 171.464C117.405 171.464 118.453 171.704 119.317 172.184C120.197 172.664 120.869 173.312 121.333 174.128C121.797 174.928 122.029 175.8 122.029 176.744V177.08C122.029 178.008 121.797 178.88 121.333 179.696C120.869 180.512 120.189 181.168 119.293 181.664C118.413 182.16 117.341 182.408 116.077 182.408Z" fill="#0C2759"/>
</svg>
