<svg width="220" height="260" viewBox="0 0 220 260" fill="none" xmlns="http://www.w3.org/2000/svg">
<g id="css3">
<g id="Group 174">
<g id="Group 108">
<g id="Group 98">
<g id="Group 97">
<rect id="Rectangle 139" x="20" y="15" width="180" height="230" rx="16" fill="#F2F7FF"/>
<g id="Group 100">
<g id="Group 13">
<path id="Vector" d="M68 44H66.9148L67.0033 45.0816L74.6662 138.721L74.7218 139.399L75.3735 139.597L109.781 150.001L110.071 150.088L110.36 150.001L144.756 139.603L145.408 139.406L145.463 138.728L153.138 45.0817L153.227 44H152.142H68Z" fill="#2E6BDB" stroke="#0C2759" stroke-width="2"/>
<path id="Vector_2" d="M134.761 75.5388L134.761 75.5392L133.793 87.3021L133.793 87.3027L130.929 121.886L110.051 128.133L89.2063 121.887L87.831 105.207H96.4986L97.2159 113.855L97.2727 114.54L97.9321 114.733L109.778 118.192L110.372 118.366L110.611 118.108L122.208 114.726L122.855 114.538L122.923 113.867L124.54 97.9289L124.652 96.8247L123.542 96.828L87.1417 96.9359L86.2769 88.026L124.453 87.5392L125.376 87.5274L125.438 86.6071L126.232 74.9413L126.304 73.8702L125.231 73.8734L85.0629 73.9941L84.4993 65.1439H110.07H135.621L134.761 75.5388Z" fill="#FAFAFA" stroke="#0C2759" stroke-width="2"/>
</g>
</g>
<path id="CSS3" d="M86.6258 197.408C85.0578 197.408 83.7138 197.136 82.5938 196.592C81.4898 196.032 80.5858 195.304 79.8818 194.408C79.1938 193.512 78.6898 192.544 78.3698 191.504C78.0498 190.448 77.8898 189.424 77.8898 188.432V187.976C77.8898 186.904 78.0498 185.84 78.3698 184.784C78.7058 183.728 79.2178 182.768 79.9058 181.904C80.6098 181.024 81.5058 180.328 82.5938 179.816C83.6818 179.288 84.9698 179.024 86.4578 179.024C87.9618 179.024 89.2578 179.288 90.3458 179.816C91.4498 180.344 92.3298 181.088 92.9858 182.048C93.6418 183.008 94.0418 184.128 94.1858 185.408H92.3378C92.1938 184.368 91.8498 183.504 91.3058 182.816C90.7778 182.112 90.0898 181.584 89.2418 181.232C88.4098 180.88 87.4818 180.704 86.4578 180.704C84.9858 180.704 83.7458 181.048 82.7378 181.736C81.7458 182.408 80.9938 183.312 80.4818 184.448C79.9858 185.584 79.7378 186.84 79.7378 188.216C79.7378 189.192 79.8818 190.128 80.1698 191.024C80.4578 191.92 80.8818 192.728 81.4418 193.448C82.0178 194.152 82.7378 194.712 83.6018 195.128C84.4658 195.528 85.4738 195.728 86.6258 195.728C88.2258 195.728 89.5698 195.328 90.6578 194.528C91.7458 193.712 92.4178 192.544 92.6738 191.024H94.5218C94.3458 192.224 93.9298 193.312 93.2738 194.288C92.6178 195.248 91.7298 196.008 90.6098 196.568C89.5058 197.128 88.1778 197.408 86.6258 197.408ZM103.832 197.408C102.36 197.408 101.12 197.176 100.112 196.712C99.1045 196.232 98.3365 195.576 97.8085 194.744C97.2965 193.912 97.0405 192.96 97.0405 191.888H98.8645C98.8645 192.56 99.0245 193.192 99.3445 193.784C99.6805 194.36 100.208 194.832 100.928 195.2C101.664 195.552 102.632 195.728 103.832 195.728C105.496 195.728 106.728 195.384 107.528 194.696C108.344 193.992 108.752 193.136 108.752 192.128C108.752 191.28 108.416 190.576 107.744 190.016C107.088 189.44 106.096 189.096 104.768 188.984L102.752 188.792C101.248 188.664 100.048 188.2 99.1525 187.4C98.2725 186.584 97.8325 185.512 97.8325 184.184C97.8325 183.176 98.0725 182.288 98.5525 181.52C99.0325 180.736 99.7125 180.128 100.592 179.696C101.488 179.248 102.56 179.024 103.808 179.024C105.072 179.024 106.152 179.256 107.048 179.72C107.96 180.168 108.656 180.792 109.136 181.592C109.616 182.392 109.856 183.32 109.856 184.376H108.032C108.032 183.736 107.888 183.136 107.6 182.576C107.312 182.016 106.856 181.568 106.232 181.232C105.608 180.88 104.8 180.704 103.808 180.704C102.848 180.704 102.064 180.864 101.456 181.184C100.848 181.504 100.392 181.928 100.088 182.456C99.8005 182.984 99.6565 183.56 99.6565 184.184C99.6565 184.984 99.9285 185.656 100.472 186.2C101.032 186.728 101.848 187.032 102.92 187.112L104.936 187.304C106.712 187.448 108.096 187.952 109.088 188.816C110.08 189.664 110.576 190.768 110.576 192.128C110.576 193.152 110.296 194.064 109.736 194.864C109.192 195.664 108.416 196.288 107.408 196.736C106.4 197.184 105.208 197.408 103.832 197.408ZM120.567 197.408C119.095 197.408 117.855 197.176 116.847 196.712C115.839 196.232 115.071 195.576 114.543 194.744C114.031 193.912 113.775 192.96 113.775 191.888H115.599C115.599 192.56 115.759 193.192 116.079 193.784C116.415 194.36 116.943 194.832 117.663 195.2C118.399 195.552 119.367 195.728 120.567 195.728C122.231 195.728 123.463 195.384 124.263 194.696C125.079 193.992 125.487 193.136 125.487 192.128C125.487 191.28 125.151 190.576 124.479 190.016C123.823 189.44 122.831 189.096 121.503 188.984L119.487 188.792C117.983 188.664 116.783 188.2 115.887 187.4C115.007 186.584 114.567 185.512 114.567 184.184C114.567 183.176 114.807 182.288 115.287 181.52C115.767 180.736 116.447 180.128 117.327 179.696C118.223 179.248 119.295 179.024 120.543 179.024C121.807 179.024 122.887 179.256 123.783 179.72C124.695 180.168 125.391 180.792 125.871 181.592C126.351 182.392 126.591 183.32 126.591 184.376H124.767C124.767 183.736 124.623 183.136 124.335 182.576C124.047 182.016 123.591 181.568 122.967 181.232C122.343 180.88 121.535 180.704 120.543 180.704C119.583 180.704 118.799 180.864 118.191 181.184C117.583 181.504 117.127 181.928 116.823 182.456C116.535 182.984 116.391 183.56 116.391 184.184C116.391 184.984 116.663 185.656 117.207 186.2C117.767 186.728 118.583 187.032 119.655 187.112L121.671 187.304C123.447 187.448 124.831 187.952 125.823 188.816C126.815 189.664 127.311 190.768 127.311 192.128C127.311 193.152 127.031 194.064 126.471 194.864C125.927 195.664 125.151 196.288 124.143 196.736C123.135 197.184 121.943 197.408 120.567 197.408ZM136.077 197.408C134.797 197.408 133.709 197.16 132.813 196.664C131.933 196.152 131.261 195.48 130.797 194.648C130.333 193.816 130.101 192.888 130.101 191.864H131.853C131.853 193.08 132.229 194.048 132.981 194.768C133.733 195.472 134.765 195.824 136.077 195.824C137.357 195.824 138.373 195.472 139.125 194.768C139.893 194.048 140.277 193.096 140.277 191.912C140.277 190.712 139.901 189.744 139.149 189.008C138.397 188.272 137.381 187.904 136.101 187.904C135.589 187.904 135.141 187.968 134.757 188.096C134.389 188.208 134.069 188.352 133.797 188.528L132.813 186.848L139.797 181.424L139.605 181.04H130.797V179.48H141.285V182.072L135.621 186.488C135.797 186.472 135.981 186.464 136.173 186.464C137.405 186.464 138.453 186.704 139.317 187.184C140.197 187.664 140.869 188.312 141.333 189.128C141.797 189.928 142.029 190.8 142.029 191.744V192.08C142.029 193.008 141.797 193.88 141.333 194.696C140.869 195.512 140.189 196.168 139.293 196.664C138.413 197.16 137.341 197.408 136.077 197.408Z" fill="#0C2759"/>
</g>
</g>
</g>
</g>
</g>
</svg>
