<svg width="616" height="580" viewBox="0 0 616 580" fill="none" xmlns="http://www.w3.org/2000/svg">
<g id="Group 174">
<path id="quadrinho" class="quadrinho" d="M614 5H232V272H614V5Z" fill="#E6E6E6"/>
<path id="quadrinho-2" class="quadrinho-2" d="M603 28H243V251H603V28Z" fill="white"/>
<path id="quadrinho-3" class="quadrinho-3" d="M402.459 105C402.072 105 401.701 105.211 401.427 105.586C401.154 105.961 401 106.47 401 107C401 107.53 401.154 108.039 401.427 108.414C401.701 108.789 402.072 109 402.459 109H482.541C482.928 109 483.299 108.789 483.573 108.414C483.846 108.039 484 107.53 484 107C484 106.47 483.846 105.961 483.573 105.586C483.299 105.211 482.928 105 482.541 105H402.459Z" fill="#E6E6E6"/>
<path id="quadrinho-4" class="quadrinho-4" d="M402.463 118C402.075 118.001 401.703 118.212 401.428 118.587C401.154 118.962 401 119.47 401 120C401 120.53 401.154 121.038 401.428 121.413C401.703 121.788 402.075 121.999 402.463 122H443.537C443.925 121.999 444.297 121.788 444.572 121.413C444.846 121.038 445 120.53 445 120C445 119.47 444.846 118.962 444.572 118.587C444.297 118.212 443.925 118.001 443.537 118H402.463Z" fill="#E6E6E6"/>
<path id="quadrinho-5" class="quadrinho-5" d="M402.459 156C402.072 156 401.701 156.211 401.427 156.586C401.154 156.961 401 157.47 401 158C401 158.53 401.154 159.039 401.427 159.414C401.701 159.789 402.072 160 402.459 160H552.541C552.928 160 553.299 159.789 553.573 159.414C553.846 159.039 554 158.53 554 158C554 157.47 553.846 156.961 553.573 156.586C553.299 156.211 552.928 156 552.541 156H402.459Z" fill="#E6E6E6"/>
<path id="quadrinho-6" class="quadrinho-6" d="M402.458 169C402.071 169.001 401.7 169.212 401.427 169.587C401.154 169.962 401 170.47 401 171C401 171.53 401.154 172.038 401.427 172.413C401.7 172.788 402.071 172.999 402.458 173H513.542C513.929 172.999 514.3 172.788 514.573 172.413C514.846 172.038 515 171.53 515 171C515 170.47 514.846 169.962 514.573 169.587C514.3 169.212 513.929 169.001 513.542 169H402.458Z" fill="#E6E6E6"/>
<path id="quadrinho-7" class="quadrinho-7" d="M402.456 181C402.069 181.001 401.699 181.265 401.426 181.734C401.153 182.203 401 182.838 401 183.5C401 184.162 401.153 184.797 401.426 185.266C401.699 185.735 402.069 185.999 402.456 186H552.544C552.931 185.999 553.301 185.735 553.574 185.266C553.847 184.797 554 184.162 554 183.5C554 182.838 553.847 182.203 553.574 181.734C553.301 181.265 552.931 181.001 552.544 181H402.456Z" fill="#E6E6E6"/>
<path id="quadrinho-8" class="quadrinho-8" d="M402.458 194C402.071 194.001 401.7 194.265 401.427 194.734C401.154 195.203 401 195.838 401 196.5C401 197.162 401.154 197.797 401.427 198.266C401.7 198.735 402.071 198.999 402.458 199H513.542C513.929 198.999 514.3 198.735 514.573 198.266C514.846 197.797 515 197.162 515 196.5C515 195.838 514.846 195.203 514.573 194.734C514.3 194.265 513.929 194.001 513.542 194H402.458Z" fill="#E6E6E6"/>
<g id="quadrinho-9" class="quadrinho-9">
<path id="Vector" d="M333.619 139.546C340.864 139.546 346.737 133.672 346.737 126.427C346.737 119.181 340.864 113.307 333.619 113.307C326.373 113.307 320.5 119.181 320.5 126.427C320.5 133.672 326.373 139.546 333.619 139.546Z" fill="#FFCCCC"/>
<path id="Vector_2" d="M329.464 115.931C329.464 115.931 335.586 117.571 338.757 118.227C341.927 118.883 341.599 117.024 341.599 117.024C341.599 117.024 345.753 117.571 345.535 117.133C345.316 116.696 347.284 114.4 344.988 111.776C342.692 109.152 343.348 107.184 343.348 107.184H341.38L340.834 106.419H337.773C337.773 106.419 334.388 103.451 328.376 104.326C322.363 105.2 315.252 107.512 314.596 111.12C314.507 111.61 314.39 112.153 314.254 112.727C312.61 119.669 316.103 126.164 319.727 132.31C320.617 133.82 324.924 137.113 324.814 134.854C324.704 132.594 320.937 127.52 323.561 127.192C326.184 126.864 330.667 120.195 329.464 115.931Z" fill="#CD6133"/>
<path id="Vector_3" d="M326.177 168.84C323.644 168.638 321.133 168.225 318.668 167.607L318.807 164.99L319.955 144.187L319.966 144.028H343.075L346.702 163.182L347.191 165.767C346.234 166.139 345.266 166.49 344.277 166.798C344.266 166.798 344.266 166.809 344.256 166.809C342.884 167.234 341.491 167.607 340.086 167.915C338.22 168.318 336.33 168.609 334.429 168.787C332.959 168.933 331.483 169.004 330.005 169C328.729 169 327.442 168.947 326.177 168.84Z" fill="#0C2759"/>
<path id="Vector_4" d="M311.32 165.139C310.363 164.724 309.437 164.278 308.523 163.81L308.129 163.608C307.863 163.469 307.587 163.32 307.321 163.172C306.959 162.97 306.608 162.767 306.268 162.565C305.938 162.374 305.598 162.172 305.269 161.97C305.247 161.959 305.237 161.948 305.216 161.948C304.067 161.215 302.94 160.46 301.855 159.641C301.674 159.502 301.493 159.364 301.312 159.226L301.121 156.163L301.397 155.993L319.955 144.187L320.21 144.028L320.231 144.017L322.848 144.028V153.77C324.326 155.908 325.326 160.385 325.942 166.245C326.028 167.085 326.102 167.947 326.177 168.84C323.644 168.638 321.133 168.225 318.668 167.607C318.403 167.553 318.147 167.49 317.881 167.415C316.331 167.009 314.805 166.52 313.308 165.947C312.851 165.777 312.404 165.596 311.958 165.416L311.915 165.394C311.724 165.309 311.511 165.224 311.32 165.139Z" fill="#2F2E41"/>
<path id="Vector_5" d="M307.321 163.172C306.959 162.97 306.608 162.767 306.268 162.565C305.938 162.374 305.598 162.172 305.268 161.97C305.247 161.959 305.237 161.948 305.215 161.948C304.067 161.215 302.94 160.459 301.855 159.641C301.674 159.502 301.493 159.364 301.312 159.226C301.227 159.151 301.142 159.088 301.046 159.013C300.366 158.492 299.707 157.95 299.068 157.375C299.037 157.354 299.015 157.322 298.983 157.301C299.628 156.805 300.35 156.421 301.121 156.163L301.876 156.386L307.257 158.003L307.289 160.183L307.321 163.172Z" fill="#2F2E41"/>
<path id="Vector_6" d="M352.636 163.203C352.316 163.374 351.997 163.544 351.679 163.703C351.604 163.746 351.541 163.778 351.477 163.81C351.051 164.022 350.636 164.235 350.211 164.437C350.2 164.448 350.179 164.448 350.179 164.458C350.158 164.469 350.126 164.48 350.105 164.49C349.148 164.948 348.18 165.373 347.191 165.767C346.234 166.139 345.266 166.49 344.277 166.798C344.266 166.798 344.266 166.809 344.256 166.809C342.884 167.234 341.491 167.606 340.086 167.915C340.071 167.041 340.185 166.17 340.427 165.33L340.437 165.182L341.352 150.377L340.129 144.028L343.639 143.507L362.941 153.897C362.941 153.897 360.814 156.024 352.083 160.555C351.311 160.956 352.444 162.289 352.636 163.203Z" fill="#2F2E41"/>
<path id="Vector_7" d="M334.195 166.235C332.812 166.362 331.409 166.426 330.005 166.426C328.644 166.426 327.293 166.373 325.942 166.245C326.028 167.085 326.102 167.947 326.177 168.84C327.442 168.947 328.729 169 330.005 169C331.482 169.004 332.959 168.933 334.429 168.787C336.33 168.609 338.22 168.318 340.086 167.915C340.071 167.041 340.185 166.17 340.427 165.331L340.437 165.182C338.385 165.681 336.298 166.033 334.195 166.235ZM374.383 106.549C372.136 100.093 368.508 94.2048 363.751 89.2954C358.995 84.386 353.225 80.5733 346.844 78.123C340.463 75.6728 333.624 74.6441 326.804 75.1087C319.985 75.5732 313.348 77.5198 307.358 80.8127C301.368 84.1056 296.169 88.6656 292.122 94.1747C288.075 99.6837 285.279 106.009 283.927 112.71C282.576 119.411 282.703 126.326 284.299 132.973C285.894 139.62 288.92 145.839 293.166 151.196C293.592 151.728 294.028 152.26 294.474 152.77C294.517 152.813 294.538 152.845 294.57 152.876C295.668 154.143 296.836 155.347 298.069 156.482C298.367 156.758 298.675 157.035 298.983 157.301C299.015 157.322 299.037 157.354 299.068 157.375C299.707 157.95 300.366 158.492 301.046 159.013C301.142 159.088 301.228 159.151 301.312 159.226C301.493 159.364 301.674 159.502 301.855 159.641C302.94 160.46 304.067 161.215 305.216 161.949C305.237 161.949 305.247 161.959 305.268 161.97C305.598 162.172 305.938 162.374 306.268 162.565C306.609 162.767 306.96 162.97 307.321 163.172C307.587 163.32 307.863 163.469 308.129 163.608L308.523 163.81C309.437 164.278 310.363 164.724 311.32 165.139C311.511 165.224 311.724 165.309 311.915 165.394L311.958 165.416C312.404 165.596 312.851 165.777 313.308 165.947C314.805 166.52 316.331 167.01 317.881 167.415C318.147 167.49 318.402 167.553 318.668 167.607C321.133 168.225 323.644 168.638 326.177 168.84C327.442 168.947 328.729 169 330.005 169C331.482 169.004 332.959 168.933 334.429 168.787C336.33 168.609 338.22 168.318 340.086 167.915C341.49 167.607 342.884 167.234 344.256 166.809C344.266 166.809 344.266 166.798 344.277 166.798C345.266 166.49 346.234 166.139 347.191 165.767C348.18 165.373 349.148 164.948 350.105 164.49C350.126 164.48 350.158 164.469 350.179 164.458C350.179 164.448 350.2 164.448 350.211 164.437C350.636 164.235 351.051 164.022 351.477 163.81C351.541 163.778 351.604 163.746 351.679 163.703C351.997 163.544 352.316 163.374 352.636 163.204C352.657 163.193 352.667 163.182 352.689 163.172C353.529 162.704 354.359 162.214 355.177 161.693C355.401 161.555 355.624 161.417 355.847 161.257C356.177 161.055 356.496 160.832 356.804 160.608C357.219 160.321 357.634 160.024 358.038 159.715C358.173 159.629 358.3 159.533 358.421 159.428C359.41 158.683 360.367 157.896 361.282 157.067C368.217 150.887 373.164 142.788 375.496 133.795C377.828 124.803 377.441 115.321 374.383 106.549L374.383 106.549ZM360.484 154.323C359.333 155.406 358.126 156.428 356.868 157.386C356.592 157.599 356.304 157.811 356.018 158.003C355.741 158.215 355.465 158.418 355.178 158.609C354.933 158.779 354.688 158.949 354.433 159.109C354.412 159.13 354.38 159.141 354.359 159.162C354.177 159.29 353.986 159.407 353.806 159.524C353.242 159.875 352.657 160.226 352.083 160.555C351.945 160.63 351.817 160.715 351.679 160.789C351.604 160.832 351.53 160.874 351.445 160.917C351.126 161.098 350.806 161.257 350.487 161.427C350.445 161.459 350.392 161.47 350.349 161.502C350.333 161.504 350.318 161.512 350.307 161.523C350.083 161.64 349.86 161.746 349.637 161.853C349.445 161.949 349.265 162.044 349.073 162.129C348.297 162.502 347.499 162.852 346.701 163.182C345.861 163.523 345.011 163.831 344.149 164.118C343.936 164.193 343.713 164.278 343.49 164.341C342.479 164.661 341.469 164.948 340.437 165.182C338.385 165.681 336.298 166.033 334.195 166.235C332.812 166.362 331.409 166.426 330.005 166.426C328.644 166.426 327.293 166.373 325.942 166.245C323.533 166.025 321.146 165.605 318.807 164.99C318.721 164.969 318.626 164.948 318.541 164.926C316.621 164.426 314.741 163.786 312.915 163.012C312.819 162.97 312.713 162.938 312.628 162.895C312.521 162.852 312.426 162.821 312.341 162.778C312.234 162.736 312.139 162.693 312.043 162.65C311.245 162.299 310.469 161.917 309.693 161.523L309.331 161.332C308.64 160.97 307.959 160.598 307.289 160.183C307.055 160.055 306.811 159.907 306.577 159.758C306.311 159.598 306.045 159.428 305.789 159.258C305.726 159.215 305.662 159.173 305.598 159.13C305.003 158.726 304.397 158.322 303.822 157.886C303.418 157.588 303.025 157.301 302.631 156.992C302.376 156.801 302.121 156.599 301.876 156.386C301.717 156.269 301.557 156.131 301.397 155.993C301.185 155.812 300.972 155.631 300.76 155.44C300.43 155.174 300.122 154.876 299.823 154.599C298.626 153.496 297.493 152.324 296.431 151.09C296.07 150.686 295.729 150.281 295.4 149.856C295.323 149.772 295.252 149.683 295.187 149.59C289.833 142.831 286.562 134.659 285.772 126.073C284.983 117.486 286.71 108.855 290.742 101.233C294.774 93.6108 300.937 87.3271 308.479 83.1483C316.022 78.9694 324.617 77.0762 333.217 77.6995C341.817 78.3228 350.049 81.4358 356.91 86.6586C363.771 91.8813 368.964 98.9881 371.855 107.112C374.746 115.236 375.21 124.026 373.191 132.409C371.172 140.792 366.757 148.406 360.484 154.323L360.484 154.323Z" fill="#3F3D56"/>
</g>
<path id="Vector_8" d="M54.8257 486.268L67.0857 486.267L72.9177 438.979L54.8237 438.98L54.8257 486.268Z" fill="#FFCCCC"/>
<path id="Vector_9" d="M51.6987 482.266L75.8427 482.265H75.8437C79.9244 482.265 83.8378 483.886 86.7233 486.771C89.6088 489.657 91.2299 493.57 91.2302 497.651V498.151L51.6995 498.152L51.6987 482.266Z" fill="#2F2E41"/>
<path id="Vector_10" d="M100.826 486.268L113.086 486.267L118.918 438.979L100.824 438.98L100.826 486.268Z" fill="#FFCCCC"/>
<path id="Vector_11" d="M97.6987 482.266L121.843 482.265H121.844C125.924 482.265 129.838 483.886 132.723 486.771C135.609 489.657 137.23 493.57 137.23 497.651V498.151L97.6995 498.152L97.6987 482.266Z" fill="#2F2E41"/>
<path id="Vector_12" d="M17.6264 299.41C18.6298 298.336 19.3854 297.055 19.84 295.657C20.2946 294.259 20.4372 292.778 20.2576 291.319C20.0781 289.86 19.5808 288.458 18.8008 287.212C18.0208 285.966 16.9771 284.906 15.7431 284.107L24.2613 249.402L6.76896 255.635L1.3617 287.635C0.15668 289.797 -0.213432 292.326 0.321479 294.743C0.856389 297.159 2.25918 299.296 4.26401 300.747C6.26885 302.199 8.73645 302.864 11.1992 302.618C13.662 302.372 15.9489 301.23 17.6264 299.41Z" fill="#FFCCCC"/>
<path id="Vector_13" d="M147.767 296.41C146.764 295.336 146.008 294.055 145.554 292.657C145.099 291.259 144.956 289.778 145.136 288.319C145.316 286.86 145.813 285.458 146.593 284.212C147.373 282.966 148.417 281.906 149.651 281.107L141.132 246.402L158.625 252.635L164.032 284.635C165.237 286.797 165.607 289.326 165.072 291.743C164.537 294.159 163.135 296.296 161.13 297.747C159.125 299.199 156.657 299.864 154.194 299.618C151.732 299.372 149.445 298.23 147.767 296.41Z" fill="#FFCCCC"/>
<path id="Vector_14" d="M33.7568 275.084L50.7498 474.149L75.6138 471.882L85.5648 318.032L94.4228 378.95L96.1968 475.716L118.697 474.216L131.191 370.116L128.126 269.299L42.7088 260.649L33.7568 275.084Z" fill="#2F2E41"/>
<path id="Vector_15" d="M80.502 93.9387C94.7431 93.9387 106.288 82.394 106.288 68.1529C106.288 53.9119 94.7431 42.3672 80.502 42.3672C66.261 42.3672 54.7163 53.9119 54.7163 68.1529C54.7163 82.394 66.261 93.9387 80.502 93.9387Z" fill="#FFCCCC"/>
<path id="Vector_16" d="M72.3364 47.5243C72.3364 47.5243 84.3697 50.7475 90.6013 52.0368C96.8328 53.3261 96.1882 49.6731 96.1882 49.6731C96.1882 49.6731 104.354 50.7475 103.924 49.888C103.494 49.0285 107.362 44.516 102.85 39.3588C98.337 34.2017 99.6263 30.3338 99.6263 30.3338H95.7584L94.684 28.8297H88.6673C88.6673 28.8297 82.0153 22.9967 70.1968 24.7157C58.3783 26.4347 44.4017 30.9785 43.1125 38.0696C42.9376 39.0314 42.7074 40.0999 42.44 41.2285C39.2083 54.8722 46.0749 67.6379 53.1968 79.7156C54.9471 82.6838 63.4134 89.1563 63.1968 84.7156C62.9802 80.2749 55.5756 70.3017 60.7327 69.6571C65.8899 69.0124 74.7001 55.9047 72.3364 47.5243Z" fill="#CD6133"/>
<path id="Vector_17" d="M53.6695 102.747H99.0812L131.191 272.322C131.191 272.322 103.197 274.716 87.1971 280.716C71.1971 286.716 44.5986 267.01 44.5986 267.01L53.6695 102.747Z" fill="#0C2759"/>
<path id="Vector_18" d="M59.3386 121.897V102.747L54.1968 102.716L16.6299 126.601L24.7815 257.464C24.7815 257.464 34.4295 301.121 49.0631 300.669C63.6968 300.216 74.9803 144.578 59.3386 121.897Z" fill="#2F2E41"/>
<path id="Vector_19" d="M28.6968 130.216L16.6299 126.601C16.6299 126.601 7.69684 129.216 7.69684 138.216C7.69684 147.216 0 275.084 0 275.084L24.4507 277.245L29.6968 212.216L28.6968 130.216Z" fill="#2F2E41"/>
<path id="Vector_20" d="M95.6969 115.216L93.2916 102.747L100.197 101.716L125.197 111.716C125.197 111.716 147.697 276.216 137.697 281.216C127.697 286.216 120.945 282.342 120.945 282.342C120.945 282.342 88.0537 161.016 93.8753 144.616L95.6969 115.216Z" fill="#2F2E41"/>
<path id="Vector_21" d="M107.697 114.216L111.963 112.359C111.963 112.359 124.486 106.153 131.592 118.684C138.697 131.216 163.697 271.216 163.697 271.216L143.126 275.084L127.748 224.7L107.697 114.216Z" fill="#2F2E41"/>
<path id="quadrinho-10" class="quadrinho-10" d="M616 0H234V24H616V0Z" fill="#0C2759"/>
<path id="quadrinho-11" class="quadrinho-11" d="M264 17C265.657 17 267 14.9853 267 12.5C267 10.0147 265.657 8 264 8C262.343 8 261 10.0147 261 12.5C261 14.9853 262.343 17 264 17Z" fill="white"/>
<path id="quadrinho-12" class="quadrinho-12" d="M275 17C276.657 17 278 14.9853 278 12.5C278 10.0147 276.657 8 275 8C273.343 8 272 10.0147 272 12.5C272 14.9853 273.343 17 275 17Z" fill="white"/>
<path id="quadrinho-13" class="quadrinho-13" d="M286 17C287.657 17 289 14.9853 289 12.5C289 10.0147 287.657 8 286 8C284.343 8 283 10.0147 283 12.5C283 14.9853 284.343 17 286 17Z" fill="white"/>
<path id="Vector 210" d="M421 337.004L422.013 577.002" stroke="url(#paint0_linear)" stroke-width="5" stroke-linecap="round" stroke-dasharray="1 10"/>
</g>
<defs>
<linearGradient id="paint0_linear" x1="421.644" y1="371.202" x2="422.513" y2="577" gradientUnits="userSpaceOnUse">
<stop stop-color="#5FB8FC"/>
<stop offset="1" stop-color="#D1D1D1" stop-opacity="0"/>
</linearGradient>
</defs>
</svg>
