<svg width="463" height="516" viewBox="0 0 463 516" fill="none" xmlns="http://www.w3.org/2000/svg">
<g id="Group 706">
<g id="Group 705">
<g id="Group 704">
<g id="Group 703">
<g id="figboy3" clip-path="url(#clip0)">
<g id="Group 702">
<path id="Vector" d="M193.623 293.456C193.92 293.584 194.189 293.769 194.414 294C194.639 294.232 194.816 294.505 194.936 294.805C195.055 295.105 195.114 295.426 195.11 295.749C195.105 296.072 195.037 296.39 194.91 296.687L191.57 304.443L191.949 304.637L189.672 309.901L189.308 309.699L177.345 337.485C176.936 338.436 176.194 339.206 175.259 339.65C174.324 340.095 173.259 340.184 172.263 339.901L153.663 334.616C153.21 334.488 152.79 334.262 152.434 333.954C152.078 333.646 151.793 333.264 151.601 332.834C151.408 332.405 151.311 331.939 151.317 331.468C151.324 330.997 151.433 330.533 151.637 330.109L170.385 291.232C170.779 290.415 171.439 289.757 172.256 289.365C173.074 288.973 174 288.871 174.884 289.076L193.186 293.315C193.336 293.348 193.482 293.395 193.623 293.456V293.456Z" fill="#E66767"/>
<path id="Vector_2" d="M178.142 292.072L187.764 294.3C187.937 294.34 188.119 294.322 188.281 294.249C188.443 294.175 188.576 294.05 188.66 293.893C188.754 293.716 188.905 293.574 189.089 293.491C189.272 293.408 189.477 293.387 189.674 293.433L191.7 293.902C191.977 293.966 192.236 294.09 192.46 294.265C192.683 294.441 192.865 294.663 192.993 294.916C193.122 295.169 193.193 295.447 193.202 295.731C193.211 296.015 193.157 296.297 193.045 296.558L175.732 336.855C175.517 337.355 175.125 337.759 174.632 337.989C174.139 338.219 173.578 338.259 173.057 338.101L154.587 332.529C154.352 332.458 154.134 332.337 153.95 332.174C153.765 332.011 153.618 331.81 153.518 331.585C153.418 331.36 153.368 331.117 153.371 330.87C153.374 330.624 153.43 330.382 153.536 330.159L171.835 291.531C172.105 290.961 172.561 290.502 173.128 290.227C173.695 289.953 174.338 289.881 174.952 290.023L177.088 290.518C177.036 290.862 177.116 291.213 177.311 291.501C177.506 291.789 177.803 291.993 178.142 292.072Z" fill="#232224"/>
<path id="circle-insta-1" class="circle-insta-1" d="M253.136 84C244.829 84 236.709 81.5368 229.802 76.9218C222.895 72.3067 217.512 65.7472 214.333 58.0727C211.154 50.3982 210.323 41.9534 211.943 33.8062C213.564 25.659 217.564 18.1753 223.438 12.3015C229.312 6.42772 236.795 2.42762 244.942 0.807036C253.09 -0.813543 261.534 0.0182006 269.209 3.19708C276.883 6.37596 283.443 11.7592 288.058 18.6661C292.673 25.5729 295.136 33.6932 295.136 42C295.124 53.1352 290.695 63.8108 282.821 71.6846C274.947 79.5584 264.271 83.9874 253.136 84V84ZM253.136 2.00001C245.225 2.00001 237.491 4.34597 230.913 8.74123C224.335 13.1365 219.209 19.3836 216.181 26.6927C213.154 34.0017 212.361 42.0444 213.905 49.8036C215.448 57.5629 219.258 64.6902 224.852 70.2843C230.446 75.8784 237.573 79.688 245.333 81.2314C253.092 82.7748 261.135 81.9827 268.444 78.9552C275.753 75.9277 282 70.8008 286.395 64.2228C290.79 57.6449 293.136 49.9113 293.136 42C293.124 31.395 288.906 21.2278 281.407 13.729C273.908 6.23013 263.741 2.012 253.136 2.00001V2.00001Z" fill="#232224"/>
<path id="circle-twitter-2" class="circle-twitter-2" d="M415.136 123C406.829 123 398.709 120.537 391.802 115.922C384.895 111.307 379.512 104.747 376.333 97.0727C373.154 89.3982 372.323 80.9534 373.943 72.8062C375.564 64.659 379.564 57.1753 385.438 51.3015C391.312 45.4277 398.795 41.4276 406.942 39.807C415.09 38.1865 423.534 39.0182 431.209 42.1971C438.883 45.376 445.443 50.7592 450.058 57.6661C454.673 64.5729 457.136 72.6932 457.136 81C457.124 92.1353 452.695 102.811 444.821 110.685C436.947 118.558 426.271 122.987 415.136 123V123ZM415.136 41C407.225 41 399.491 43.346 392.913 47.7412C386.335 52.1365 381.209 58.3836 378.181 65.6927C375.154 73.0017 374.361 81.0444 375.905 88.8036C377.448 96.5629 381.258 103.69 386.852 109.284C392.446 114.878 399.573 118.688 407.333 120.231C415.092 121.775 423.135 120.983 430.444 117.955C437.753 114.928 444 109.801 448.395 103.223C452.79 96.6449 455.136 88.9113 455.136 81C455.124 70.395 450.906 60.2278 443.407 52.729C435.908 45.2301 425.741 41.012 415.136 41V41Z" fill="#232224"/>
<path id="circle-linkedin-3" class="circle-linkedin-3" d="M340.136 256C331.829 256 323.709 253.537 316.802 248.922C309.895 244.307 304.512 237.747 301.333 230.073C298.154 222.398 297.323 213.953 298.943 205.806C300.564 197.659 304.564 190.175 310.438 184.302C316.312 178.428 323.795 174.428 331.942 172.807C340.09 171.186 348.534 172.018 356.209 175.197C363.883 178.376 370.443 183.759 375.058 190.666C379.673 197.573 382.136 205.693 382.136 214C382.124 225.135 377.695 235.811 369.821 243.685C361.947 251.558 351.271 255.987 340.136 256V256ZM340.136 174C332.225 174 324.491 176.346 317.913 180.741C311.335 185.136 306.209 191.384 303.181 198.693C300.154 206.002 299.361 214.044 300.905 221.804C302.448 229.563 306.258 236.69 311.852 242.284C317.446 247.878 324.573 251.688 332.333 253.231C340.092 254.775 348.135 253.983 355.444 250.955C362.753 247.928 369 242.801 373.395 236.223C377.79 229.645 380.136 221.911 380.136 214C380.124 203.395 375.906 193.228 368.407 185.729C360.908 178.23 350.741 174.012 340.136 174V174Z" fill="#232224"/>
<path id="circle-twitter-2_2" class="circle-twitter-2" d="M439.136 69.4977L444.136 68.4977C444.136 68.4977 439.936 73.1977 439.136 73.4977C439.062 74.4963 439.062 75.4991 439.136 76.4977C429.536 117.698 394.136 99.4977 394.136 99.4977C407.036 99.7977 408.136 94.4977 408.136 94.4977C400.636 93.3977 399.136 88.4977 399.136 88.4977C399.809 88.8527 400.589 88.947 401.327 88.7624C402.066 88.5779 402.71 88.1276 403.136 87.4977C395.036 85.3977 396.136 77.4977 396.136 77.4977C397.58 78.5401 399.267 79.1943 401.036 79.3978C400.136 78.2978 392.536 69.1977 397.136 64.4977C397.136 64.4977 402.736 74.4978 417.436 75.3978L418.436 75.1977C418.266 74.4775 418.199 73.7368 418.236 72.9977C418.236 70.213 419.343 67.5422 421.312 65.5731C423.281 63.604 425.951 62.4977 428.736 62.4977C435.736 62.4977 437.236 66.4977 437.236 66.4977L442.236 63.4977C442.136 63.4977 441.636 68.4977 439.136 69.4977Z" fill="#00ACEE"/>
<path id="circle-linkedin-3_2" class="circle-linkedin-3" d="M358.807 190.998L321.744 191.002C321.267 190.979 320.791 191.05 320.342 191.211C319.893 191.373 319.48 191.621 319.128 191.943C318.775 192.264 318.49 192.652 318.287 193.084C318.085 193.516 317.97 193.984 317.949 194.461L317.953 231.606C317.978 232.605 318.386 233.557 319.092 234.265C319.798 234.972 320.748 235.383 321.748 235.411L358.8 235.408C359.775 235.369 360.695 234.949 361.362 234.236C362.029 233.524 362.388 232.577 362.362 231.602L362.359 194.457C362.366 193.992 362.279 193.531 362.102 193.102C361.925 192.673 361.662 192.284 361.33 191.96C360.997 191.636 360.601 191.384 360.167 191.218C359.734 191.053 359.27 190.978 358.807 190.998V190.998ZM331.718 228.018L325.356 228.019L325.354 208.238L331.716 208.237L331.718 228.018ZM328.755 205.23H328.71C327.794 205.224 326.918 204.855 326.274 204.205C325.63 203.554 325.27 202.675 325.273 201.759C325.276 200.844 325.642 199.967 326.29 199.32C326.939 198.674 327.817 198.311 328.732 198.311C329.648 198.311 330.526 198.674 331.174 199.32C331.823 199.967 332.189 200.844 332.192 201.759C332.195 202.675 331.835 203.554 331.191 204.205C330.546 204.855 329.671 205.224 328.755 205.23V205.23ZM354.97 228.016L348.608 228.017L348.607 217.201C348.606 214.61 347.68 212.839 345.379 212.839C344.659 212.845 343.958 213.074 343.374 213.495C342.79 213.916 342.35 214.507 342.117 215.188C341.947 215.691 341.873 216.22 341.897 216.75L341.898 228.017L335.536 228.018L335.534 208.237L341.896 208.236L341.896 210.989C342.475 209.987 343.314 209.16 344.323 208.594C345.333 208.028 346.476 207.744 347.633 207.773C351.81 207.772 354.969 210.525 354.97 216.46V228.016Z" fill="url(#paint0_linear)"/>
<path id="Vector_3" d="M132.337 503.46L143.769 503.459L149.206 459.363L132.333 459.364L132.337 503.46Z" fill="#FFCCCC"/>
<path id="Vector_4" d="M165.817 514.073L129.888 514.076L129.886 500.194L151.934 500.192C153.757 500.192 155.562 500.551 157.247 501.248C158.931 501.946 160.461 502.968 161.751 504.257C163.04 505.546 164.062 507.076 164.76 508.76C165.458 510.444 165.817 512.25 165.817 514.073V514.073L165.817 514.073Z" fill="#2F2E41"/>
<path id="Vector_5" d="M70.7149 503.46L82.1479 503.459L87.5839 459.363L70.7109 459.364L70.7149 503.46Z" fill="#FFCCCC"/>
<path id="Vector_6" d="M104.196 514.073L68.2665 514.076L68.2653 500.194L90.3131 500.192C93.9948 500.192 97.5259 501.654 100.129 504.257C102.733 506.86 104.196 510.391 104.196 514.073V514.073L104.196 514.073Z" fill="#2F2E41"/>
<path id="Vector_7" d="M104.196 189.985C117.761 189.985 128.757 178.988 128.757 165.424C128.757 151.859 117.761 140.863 104.196 140.863C90.6316 140.863 79.6353 151.859 79.6353 165.424C79.6353 178.988 90.6316 189.985 104.196 189.985Z" fill="#FFCCCC"/>
<path id="Vector_8" d="M188.179 325.602C188.007 324.242 187.54 322.936 186.809 321.776C186.078 320.616 185.102 319.631 183.949 318.889C182.796 318.147 181.495 317.668 180.136 317.483C178.778 317.299 177.395 317.415 176.087 317.822L162.36 301.368L150.327 307.271L170.037 330.235C170.868 332.389 172.46 334.162 174.511 335.221C176.562 336.279 178.93 336.548 181.166 335.977C183.402 335.405 185.351 334.034 186.644 332.122C187.936 330.21 188.483 327.89 188.179 325.602V325.602Z" fill="#FFCCCC"/>
<path id="Vector_9" d="M73.1089 343.777C73.6938 342.538 73.9998 341.185 74.0052 339.814C74.0107 338.443 73.7155 337.088 73.1405 335.843C72.5655 334.599 71.7247 333.496 70.6772 332.611C69.6297 331.727 68.401 331.083 67.0778 330.725L64.322 309.475L51 308L55.3132 337.955C54.859 340.217 55.2506 342.568 56.4138 344.562C57.5771 346.555 59.4311 348.053 61.6247 348.77C63.8182 349.488 66.1989 349.376 68.3155 348.456C70.4321 347.536 72.1376 345.871 73.1089 343.777L73.1089 343.777Z" fill="#FFCCCC"/>
<path id="Vector_10" d="M57.9168 329C56.7841 329 55.6893 328.611 54.8317 327.904C53.9741 327.197 53.4108 326.219 53.2443 325.148L46.3602 280.843C45.4952 275.266 46.1948 269.57 48.3877 264.336L69.5222 213.93C70.3865 211.868 71.8046 210.061 73.6333 208.69C75.462 207.32 77.6367 206.435 79.9377 206.124C82.2388 205.813 84.5849 206.089 86.7392 206.921C88.8935 207.754 90.7798 209.116 92.2077 210.868H92.2079C93.6834 212.674 94.6156 214.831 94.9042 217.106C95.1927 219.381 94.8267 221.688 93.8454 223.778L83.882 245.077C72.7083 268.97 68.4923 295.304 71.6791 321.297C71.8081 322.346 71.5479 323.406 70.9439 324.29C70.34 325.175 69.4305 325.829 68.3739 326.139L59.3044 328.801C58.8547 328.933 58.3871 329 57.9168 329Z" fill="#3E65AA"/>
<path id="Vector_11" d="M67.3874 494.576C66.7863 494.576 66.1912 494.456 65.6373 494.223C65.0834 493.989 64.5819 493.647 64.1624 493.216C63.7429 492.786 63.4139 492.276 63.1948 491.716C62.9757 491.156 62.871 490.558 62.8868 489.957L67.2561 324.141L67.7325 324.131L139.959 322.556L152.429 483.792C152.498 484.773 152.243 485.75 151.705 486.574C151.167 487.397 150.375 488.023 149.449 488.354L149.312 488.382L135.136 489.248C134.538 489.45 133.905 489.524 133.276 489.465C132.648 489.406 132.039 489.215 131.489 488.906C130.94 488.596 130.461 488.175 130.085 487.668C129.709 487.161 129.443 486.581 129.306 485.966L106.198 382.569C106.122 382.229 105.929 381.925 105.654 381.711C105.378 381.497 105.036 381.386 104.687 381.397C104.339 381.408 104.004 381.54 103.743 381.771C103.481 382.002 103.308 382.316 103.253 382.661L86.1815 490.05C86.0158 491.067 85.5076 491.997 84.7411 492.686C83.9745 493.375 82.9957 493.781 81.9667 493.838L67.6145 494.57C67.5387 494.574 67.463 494.576 67.3874 494.576Z" fill="#2F2E41"/>
<path id="Vector_12" d="M88.6439 337.866C79.656 337.866 71.807 336.508 67.4729 332.634C64.6877 330.144 63.4831 326.758 63.8929 322.57C65.4332 306.827 62.7641 272.322 60.2539 246.148C59.6789 240.009 60.3306 233.818 62.171 227.933C64.0114 222.049 67.0037 216.589 70.9739 211.872C74.7939 207.302 79.4967 203.55 84.8007 200.84C90.1047 198.13 95.901 196.518 101.843 196.101C110.111 195.512 129.474 194.139 135.492 209.554C144.533 232.71 140.111 243.329 135.835 253.599C132.202 262.324 128.445 271.345 133.05 288.287C135.594 297.656 138.675 306.87 142.277 315.885C144.771 322.28 146.022 325.489 144.867 327.585C143.955 329.239 141.681 329.959 137.804 330.71C136.537 330.955 134.864 331.311 132.871 331.735C122.739 333.888 104.024 337.866 88.6439 337.866Z" fill="#538BF0"/>
<path id="Vector_13" d="M162.435 323.353C162.4 323.353 162.366 323.353 162.331 323.352C161.683 323.338 161.046 323.183 160.464 322.9C159.881 322.616 159.367 322.209 158.956 321.708L133.497 290.684C128.06 284.056 124.481 276.104 123.124 267.639L115.285 218.648C115.021 216.996 115.088 215.308 115.485 213.682C115.881 212.056 116.597 210.526 117.592 209.18C118.586 207.835 119.839 206.701 121.277 205.845C122.715 204.99 124.31 204.43 125.967 204.198C127.624 203.966 129.311 204.067 130.928 204.495C132.546 204.923 134.062 205.669 135.388 206.69C136.714 207.711 137.823 208.986 138.65 210.441C139.477 211.895 140.005 213.5 140.205 215.161L143.321 241.146C146.203 265.149 155.512 287.929 170.265 307.08L172.046 309.391C172.689 310.225 173.019 311.258 172.979 312.31C172.939 313.362 172.531 314.366 171.826 315.149L165.779 321.865C165.357 322.333 164.841 322.708 164.265 322.965C163.689 323.221 163.066 323.353 162.435 323.353Z" fill="#3E65AA"/>
<path id="circle-instagram-1" class="circle-insta-1" d="M281.745 90.8587C290.994 90.8587 298.491 83.2792 298.491 73.9294C298.491 64.5795 290.994 57 281.745 57C272.497 57 265 64.5795 265 73.9294C265 83.2792 272.497 90.8587 281.745 90.8587Z" fill="#232224"/>
<path id="circle-instagram-1_2" class="circle-insta-1" d="M283.815 83.058H280.406V70.067C279.147 71.2515 277.643 72.1435 276 72.6792V69.5512C277.055 69.1629 278.036 68.5966 278.9 67.8769C279.878 67.1445 280.623 66.1456 281.048 65H283.815V83.058Z" fill="white"/>
<path id="circle-twitter-2_3" class="circle-twitter-2" d="M441.929 137.859C451.279 137.859 458.859 130.279 458.859 120.929C458.859 111.58 451.279 104 441.929 104C432.58 104 425 111.58 425 120.929C425 130.279 432.58 137.859 441.929 137.859Z" fill="#232224"/>
<path id="circle-twitter-2_4" class="circle-twitter-2" d="M439.632 123.799C439.574 124.708 439.83 125.609 440.358 126.351C440.546 126.619 440.793 126.841 441.082 126.997C441.37 127.153 441.69 127.24 442.018 127.25C442.308 127.253 442.594 127.188 442.855 127.06C443.115 126.932 443.342 126.745 443.517 126.514C443.979 125.798 444.19 124.95 444.117 124.101C444.188 123.21 443.961 122.321 443.47 121.574C443.284 121.328 443.045 121.128 442.769 120.989C442.494 120.85 442.191 120.776 441.883 120.772C441.574 120.769 441.269 120.836 440.991 120.968C440.713 121.101 440.468 121.295 440.277 121.537C439.802 122.192 439.574 122.993 439.632 123.799V123.799ZM446.975 116.405L443.839 116.768C443.814 116.216 443.603 115.689 443.239 115.273C443.073 115.111 442.877 114.985 442.661 114.902C442.445 114.819 442.214 114.781 441.983 114.79C441.636 114.795 441.297 114.886 440.994 115.054C440.691 115.222 440.435 115.463 440.248 115.754C439.622 117 439.315 118.38 439.354 119.773C439.703 119.305 440.157 118.925 440.68 118.665C441.203 118.405 441.779 118.271 442.363 118.275C443.026 118.273 443.681 118.417 444.281 118.696C444.882 118.976 445.414 119.384 445.838 119.893C446.832 121.051 447.349 122.542 447.285 124.066C447.362 125.66 446.817 127.222 445.764 128.421C445.228 128.975 444.58 129.408 443.862 129.689C443.145 129.971 442.375 130.095 441.606 130.053C440.836 130.011 440.084 129.805 439.402 129.447C438.719 129.089 438.121 128.589 437.649 127.98C436.55 126.593 436 124.32 436 121.159C436 117.918 436.573 115.581 437.718 114.15C438.239 113.465 438.915 112.914 439.69 112.54C440.466 112.167 441.319 111.983 442.179 112.003C443.346 111.961 444.485 112.364 445.366 113.13C446.268 114.001 446.837 115.159 446.975 116.405V116.405Z" fill="white"/>
<path id="circle-linkedin-3_3" class="circle-linkedin-3" d="M370.929 268.859C380.279 268.859 387.859 261.279 387.859 251.929C387.859 242.58 380.279 235 370.929 235C361.58 235 354 242.58 354 251.929C354 261.279 361.58 268.859 370.929 268.859Z" fill="#232224"/>
<path id="circle-linkedin-3_4" class="circle-linkedin-3" d="M368.552 247.798C368.535 248.085 368.575 248.372 368.671 248.643C368.766 248.914 368.915 249.163 369.109 249.376C369.303 249.568 369.535 249.717 369.789 249.814C370.044 249.912 370.316 249.955 370.589 249.943C370.864 249.956 371.14 249.912 371.398 249.813C371.655 249.715 371.89 249.564 372.087 249.37C372.282 249.157 372.432 248.907 372.528 248.635C372.625 248.362 372.666 248.074 372.649 247.785C372.662 247.507 372.62 247.229 372.525 246.967C372.429 246.705 372.283 246.465 372.094 246.26C371.902 246.068 371.672 245.918 371.419 245.819C371.166 245.721 370.896 245.676 370.624 245.688C370.346 245.674 370.068 245.719 369.808 245.818C369.549 245.918 369.312 246.07 369.114 246.266C368.923 246.471 368.775 246.712 368.679 246.975C368.582 247.238 368.539 247.518 368.552 247.798V247.798ZM368.248 255.369C368.2 256.157 368.449 256.935 368.945 257.55C369.159 257.8 369.426 258.001 369.726 258.136C370.027 258.272 370.353 258.339 370.683 258.333C371.002 258.341 371.319 258.277 371.611 258.146C371.902 258.016 372.161 257.822 372.369 257.58C372.852 256.962 373.089 256.187 373.036 255.404C373.071 254.677 372.829 253.964 372.357 253.41C372.143 253.166 371.878 252.972 371.581 252.841C371.283 252.711 370.961 252.647 370.636 252.655C370.288 252.632 369.94 252.699 369.626 252.849C369.311 252.999 369.04 253.227 368.839 253.512C368.454 254.055 368.247 254.703 368.248 255.369V255.369ZM367.874 251.209C367.109 250.911 366.458 250.377 366.018 249.684C365.632 249.042 365.432 248.306 365.439 247.557C365.421 246.949 365.53 246.344 365.761 245.781C365.992 245.218 366.339 244.71 366.779 244.289C367.871 243.453 369.208 243 370.584 243C371.959 243 373.297 243.453 374.389 244.289C374.832 244.708 375.181 245.216 375.414 245.779C375.648 246.342 375.759 246.948 375.741 247.557C375.757 248.333 375.541 249.095 375.119 249.746C374.697 250.397 374.09 250.907 373.375 251.209C374.254 251.536 375.009 252.131 375.532 252.909C376.055 253.688 376.32 254.611 376.291 255.548C376.332 256.286 376.216 257.024 375.951 257.713C375.686 258.403 375.278 259.028 374.754 259.549C374.229 260.069 373.601 260.473 372.909 260.733C372.218 260.993 371.479 261.104 370.742 261.058C369.334 261.108 367.953 260.66 366.843 259.793C366.238 259.3 365.757 258.673 365.438 257.961C365.118 257.249 364.97 256.472 365.005 255.692C364.996 254.769 365.235 253.861 365.696 253.061C366.2 252.222 366.965 251.572 367.874 251.209V251.209Z" fill="white"/>
<path id="Vector_14" d="M232 515.972H1C0.734784 515.972 0.480414 515.867 0.292877 515.68C0.105341 515.492 0 515.238 0 514.972C0 514.707 0.105341 514.453 0.292877 514.265C0.480414 514.078 0.734784 513.972 1 513.972H232C232.265 513.972 232.52 514.078 232.707 514.265C232.895 514.453 233 514.707 233 514.972C233 515.238 232.895 515.492 232.707 515.68C232.52 515.867 232.265 515.972 232 515.972Z" fill="#232224"/>
<path id="Vector_15" d="M101.718 151.126C101.718 151.126 113.751 154.349 119.983 155.638C126.214 156.927 125.57 153.274 125.57 153.274C125.57 153.274 133.735 154.349 133.306 153.489C132.876 152.63 136.744 148.117 132.231 142.96C127.719 137.803 129.008 133.935 129.008 133.935H125.14L124.066 132.431H118.049C118.049 132.431 111.397 126.598 99.5784 128.317C87.7599 130.036 73.7833 134.58 72.494 141.671C72.3192 142.633 72.0889 143.701 71.8216 144.83C68.5899 158.474 75.4565 171.239 82.5784 183.317C84.3287 186.285 92.795 192.758 92.5784 188.317C92.3618 183.876 84.9572 173.903 90.1143 173.258C95.2715 172.614 104.082 159.506 101.718 151.126Z" fill="#CD6133"/>
<path id="circle-instagram-1_3" class="circle-insta-1" d="M253.004 31.7445C247.329 31.7445 242.751 36.3233 242.751 42C242.751 47.6767 247.329 52.2555 253.004 52.2555C258.68 52.2555 263.258 47.6767 263.258 42C263.258 36.3233 258.68 31.7445 253.004 31.7445ZM253.004 48.6674C249.337 48.6674 246.339 45.6773 246.339 42C246.339 38.3227 249.328 35.3326 253.004 35.3326C256.681 35.3326 259.67 38.3227 259.67 42C259.67 45.6773 256.672 48.6674 253.004 48.6674V48.6674ZM266.069 31.325C266.069 32.6549 264.998 33.7171 263.677 33.7171C262.347 33.7171 261.286 32.646 261.286 31.325C261.286 30.004 262.356 28.9329 263.677 28.9329C264.998 28.9329 266.069 30.004 266.069 31.325ZM272.859 33.7528C272.708 30.5485 271.976 27.7101 269.629 25.3716C267.291 23.0331 264.453 22.3012 261.25 22.1406C257.948 21.9531 248.052 21.9531 244.75 22.1406C241.555 22.2923 238.718 23.0242 236.371 25.3627C234.024 27.7012 233.301 30.5396 233.141 33.7438C232.953 37.0463 232.953 46.9448 233.141 50.2472C233.292 53.4515 234.024 56.2899 236.371 58.6284C238.718 60.9669 241.547 61.6988 244.75 61.8594C248.052 62.0469 257.948 62.0469 261.25 61.8594C264.453 61.7077 267.291 60.9758 269.629 58.6284C271.967 56.2899 272.699 53.4515 272.859 50.2472C273.047 46.9448 273.047 37.0552 272.859 33.7528V33.7528ZM268.594 53.7907C267.898 55.5401 266.55 56.8879 264.793 57.593C262.16 58.6373 255.914 58.3963 253.004 58.3963C250.095 58.3963 243.84 58.6284 241.216 57.593C239.467 56.8968 238.12 55.549 237.415 53.7907C236.371 51.1576 236.612 44.9097 236.612 42C236.612 39.0903 236.38 32.8334 237.415 30.2093C238.111 28.4599 239.458 27.1121 241.216 26.407C243.849 25.3627 250.095 25.6037 253.004 25.6037C255.914 25.6037 262.169 25.3716 264.793 26.407C266.542 27.1032 267.889 28.451 268.594 30.2093C269.638 32.8424 269.397 39.0903 269.397 42C269.397 44.9097 269.638 51.1666 268.594 53.7907Z" fill="#DD2A7B"/>
</g>
</g>
</g>
</g>
</g>
</g>
<defs>
<linearGradient id="paint0_linear" x1="340.156" y1="190.995" x2="340.156" y2="235.411" gradientUnits="userSpaceOnUse">
<stop stop-color="#538BF0"/>
<stop offset="1" stop-color="#0C2759"/>
</linearGradient>
<clipPath id="clip0">
<rect width="462.678" height="515.972" fill="white"/>
</clipPath>
</defs>
</svg>
