<svg width="1100" height="1100" viewBox="0 0 1100 1100" fill="none" xmlns="http://www.w3.org/2000/svg">
<g id="figboy2">
<g id="Group 172">
<path id="Vector 212" d="M560 778V1055" stroke="url(#paint0_linear)" stroke-width="5" stroke-linecap="round" stroke-dasharray="1 10"/>
<path id="Vector" d="M298.17 663.218C298.135 663.362 298.092 663.533 298.042 663.727C297.861 664.429 297.58 665.45 297.184 666.721C296.393 669.262 295.142 672.799 293.305 676.777C289.627 684.738 283.615 694.429 274.268 701.444C264.922 708.458 253.98 711.491 245.353 712.766C241.042 713.403 237.318 713.6 234.674 713.637C233.351 713.656 232.3 713.635 231.58 713.609C231.382 713.602 231.209 713.595 231.063 713.588C231.098 713.444 231.141 713.274 231.191 713.079C231.372 712.377 231.653 711.356 232.048 710.086C232.839 707.544 234.09 704.007 235.928 700.029C239.606 692.069 245.618 682.377 254.965 675.362C264.311 668.348 275.253 665.315 283.88 664.041C288.19 663.404 291.914 663.207 294.559 663.169C295.881 663.15 296.933 663.171 297.653 663.197C297.851 663.204 298.024 663.211 298.17 663.218Z" fill="#16A085" stroke="black"/>
<path id="Vector_2" d="M262.065 681.422C257.572 692.253 249.692 700.476 242.914 705.999C239.527 708.758 236.422 710.838 234.165 712.227C233.037 712.922 232.121 713.443 231.489 713.791C231.316 713.885 231.165 713.967 231.036 714.036C230.994 713.895 230.945 713.728 230.89 713.536C230.691 712.839 230.415 711.817 230.113 710.521C229.507 707.928 228.793 704.243 228.361 699.878C227.497 691.141 227.765 679.717 232.258 668.885C236.75 658.054 244.63 649.831 251.409 644.308C254.796 641.549 257.9 639.469 260.157 638.08C261.285 637.385 262.201 636.864 262.833 636.517C263.006 636.422 263.157 636.34 263.286 636.271C263.329 636.412 263.378 636.579 263.432 636.771C263.632 637.468 263.907 638.49 264.21 639.786C264.815 642.379 265.529 646.065 265.961 650.43C266.825 659.166 266.557 670.59 262.065 681.422Z" fill="#16A085" stroke="black"/>
<path id="Ellipse 276" d="M552.455 438.455C590.211 438.455 620.818 407.64 620.818 369.628C620.818 331.616 590.211 300.802 552.455 300.802C514.699 300.802 484.092 331.616 484.092 369.628C484.092 407.64 514.699 438.455 552.455 438.455Z" fill="#FFCCCC"/>
<path id="Path 1461" d="M616.307 310.251C606.086 293.541 590.087 281.228 571.39 275.683L562.997 281.849V273.842C558.507 273.15 553.962 272.884 549.422 273.046L542.181 279.642V273.594C531.461 274.935 521.132 278.498 511.848 284.059C502.563 289.619 494.523 297.055 488.235 305.9C472.511 328.722 469.856 360.473 485.323 383.479C489.568 370.342 494.721 358.017 498.967 344.882C502.304 345.34 505.686 345.357 509.027 344.931L514.192 332.797L515.635 344.418C531.646 343.014 555.393 339.93 570.57 337.105L569.094 328.19L577.924 335.598C582.574 334.521 585.335 333.543 585.107 332.796C596.395 351.117 610.21 362.819 621.497 381.141C625.784 355.306 630.719 333.825 616.307 310.251Z" fill="#CD6133"/>
<path id="Vector_3" d="M699.485 546.619C697.134 532.38 694.71 517.868 688.136 505.041C683.816 496.639 676.959 488.633 667.715 486.971C665.894 486.808 664.104 486.391 662.397 485.732C659.689 484.418 623.289 463.499 617.504 459.855C612.537 456.727 604.695 450.936 600.741 450.936C596.764 450.848 581.511 454.421 521.98 449.736C521.98 449.736 505.626 456.226 492.972 464.095C492.78 463.968 431.184 497.269 428.87 497.182C424.488 496.996 420.414 499.821 417.902 503.378C415.39 506.936 414.212 511.34 412.978 515.598C426.432 545.762 438.741 575.964 452.196 606.128C452.826 607.264 453.161 608.542 453.169 609.843C452.899 611.194 452.326 612.464 451.495 613.559C444.897 624.229 445.107 637.651 445.828 650.193C446.549 662.734 447.441 675.982 441.874 687.223C440.36 690.31 438.391 693.135 436.95 696.221C433.578 703.211 432.359 725.568 434.329 733.078L681.136 740.196C675.83 725.51 699.485 546.619 699.485 546.619Z" fill="#0C2759"/>
<path id="Path 1421" d="M391.644 607.466C391.152 611.052 391.102 614.686 391.497 618.285L395.034 669.431C395.366 674.252 395.693 679.06 396.142 683.869C396.991 693.201 398.259 702.459 399.833 711.703C399.868 713.016 400.419 714.26 401.366 715.164C402.312 716.068 403.575 716.557 404.879 716.524C420.45 719.841 436.539 719.708 452.431 718.804C476.681 717.442 538.722 714.864 542.512 709.906C546.303 704.949 544.094 696.931 539.151 692.922C534.209 688.914 452.337 679.141 452.337 679.141C453.137 672.759 455.55 666.748 457.839 660.688C461.951 649.941 465.792 638.84 465.866 627.326C465.939 615.813 461.631 603.708 452.263 597.112C444.557 591.697 434.636 590.693 425.245 590.915C418.413 591.113 406.608 589.465 400.368 592.155C395.429 594.344 392.567 602.597 391.644 607.466Z" fill="#FFCCCC"/>
<path id="Path 1430" d="M412.266 516.516C411.067 517.78 410.137 519.277 409.534 520.916C399.584 543.492 393.707 567.672 392.178 592.323C392.205 593.525 391.929 594.715 391.378 595.781C390.834 596.491 390.228 597.15 389.568 597.751C388.993 598.438 388.557 599.232 388.287 600.088C388.016 600.945 387.916 601.846 387.991 602.741C388.067 603.636 388.317 604.508 388.727 605.306C389.137 606.104 389.699 606.813 390.381 607.392C390.493 607.487 390.608 607.578 390.725 607.666C392.756 603.818 397.618 602.56 401.94 602.226C422.632 600.578 442.844 610.269 463.597 609.538C462.133 604.444 460.027 599.549 458.833 594.394C453.552 571.504 466.723 546.583 458.648 524.535C457.035 520.124 454.34 515.786 450.094 513.853C448.335 513.139 446.495 512.648 444.616 512.393C439.372 511.439 428.933 507.362 423.863 508.998C421.991 509.605 421.253 511.377 419.702 512.448C417.345 513.963 414.219 514.52 412.266 516.516Z" fill="#0C2759"/>
<path id="Path 1421_2" d="M699.632 592.155C693.392 589.465 681.587 591.113 674.755 590.915C665.365 590.692 655.443 591.697 647.737 597.112C638.369 603.708 634.061 615.813 634.134 627.326C634.208 638.84 638.049 649.941 642.161 660.688C644.45 666.748 646.863 672.759 647.663 679.141C647.663 679.141 565.791 688.914 560.849 692.922C555.906 696.931 553.697 704.949 557.488 709.906C561.278 714.864 679.549 719.841 695.121 716.524C696.425 716.557 697.688 716.068 698.635 715.164C699.581 714.26 700.132 713.015 700.168 711.703C701.741 702.459 703.009 693.201 703.858 683.869C704.307 679.06 704.634 674.252 704.966 669.431L708.504 618.285C708.898 614.686 708.848 611.052 708.356 607.466C707.433 602.597 704.571 594.344 699.632 592.155Z" fill="#FFCCCC"/>
<path id="Path 1430_2" d="M680.298 512.448C678.747 511.377 678.009 509.605 676.138 508.998C671.067 507.362 660.628 511.439 655.384 512.393C653.505 512.648 651.665 513.139 649.907 513.853C645.66 515.786 642.965 520.124 641.352 524.535C633.277 546.583 646.448 571.504 641.167 594.394C639.973 599.549 637.867 604.444 636.403 609.538C657.157 610.269 677.369 600.578 698.06 602.226C702.382 602.56 707.244 603.818 709.275 607.666C709.393 607.578 709.507 607.487 709.619 607.392C710.301 606.813 710.864 606.104 711.274 605.306C711.684 604.508 711.933 603.636 712.009 602.741C712.084 601.846 711.984 600.945 711.713 600.088C711.443 599.232 711.007 598.438 710.432 597.752C709.772 597.15 709.166 596.491 708.622 595.781C708.071 594.715 707.796 593.525 707.822 592.323C706.293 567.672 700.416 543.492 690.466 520.916C689.863 519.277 688.933 517.78 687.734 516.516C685.781 514.52 682.655 513.963 680.298 512.448Z" fill="#0C2759"/>
<path id="Vector_4" d="M532.208 718.966C542.398 718.966 550.659 710.649 550.659 700.39C550.659 690.13 542.398 681.813 532.208 681.813C522.018 681.813 513.757 690.13 513.757 700.39C513.757 710.649 522.018 718.966 532.208 718.966Z" fill="#FBBEBE"/>
<path id="Vector_5" d="M573.064 718.966C583.255 718.966 591.516 710.649 591.516 700.39C591.516 690.13 583.255 681.813 573.064 681.813C562.874 681.813 554.613 690.13 554.613 700.39C554.613 710.649 562.874 718.966 573.064 718.966Z" fill="#FBBEBE"/>
<path id="Vector_6" d="M686.959 742.249H433.467C430.507 742.246 427.67 741.061 425.577 738.954C423.484 736.847 422.307 733.991 422.303 731.011V576.182C422.307 573.202 423.484 570.345 425.577 568.239C427.67 566.132 430.507 564.947 433.467 564.943H686.959C689.919 564.947 692.756 566.132 694.849 568.239C696.942 570.345 698.119 573.202 698.123 576.182V731.011C698.119 733.991 696.942 736.847 694.849 738.954C692.756 741.061 689.919 742.246 686.959 742.249Z" fill="#353436"/>
<path id="Ellipse 263" d="M560.2 652.412C565.833 652.412 570.4 648.291 570.4 643.208C570.4 638.124 565.833 634.004 560.2 634.004C554.567 634.004 550 638.124 550 643.208C550 648.291 554.567 652.412 560.2 652.412Z" fill="url(#paint1_linear)"/>
<path id="Vector_7" d="M975 721.02C975 715.497 970.523 711.02 965 711.02H135C129.477 711.02 125 715.497 125 721.02V727.317C125 732.84 129.477 737.317 135 737.317H172.22C173.908 737.317 175.277 738.685 175.277 740.373V740.373C175.277 742.061 176.645 743.429 178.333 743.429H921.686C923.374 743.429 924.743 742.061 924.743 740.373V740.373C924.743 738.685 926.111 737.317 927.799 737.317H965C970.523 737.317 975 732.84 975 727.317V721.02Z" fill="#2C2C54"/>
<path id="Vector_8" d="M489.59 395.282C478.606 395.282 469.701 385.588 469.701 373.631V362.805C469.701 350.848 478.605 341.155 489.59 341.155V395.282H489.59Z" fill="#0C2759"/>
<path id="Vector_9" d="M616.538 341.155C627.523 341.155 636.428 350.848 636.428 362.805V373.631C636.428 385.588 627.523 395.282 616.538 395.282V341.155Z" fill="#0C2759"/>
<path id="Vector_10" d="M626.96 364.506H623.805C623.805 320.941 591.245 285.497 551.223 285.497C511.202 285.497 478.642 320.941 478.642 364.506H475.486C475.486 319.046 509.462 282.062 551.223 282.062C592.985 282.062 626.96 319.046 626.96 364.506Z" fill="#0C2759"/>
<path id="Vector 212_2" d="M556 46V209" stroke="url(#paint2_linear)" stroke-width="5" stroke-linecap="round" stroke-dasharray="1 10"/>
<g id="zap">
<path id="Vector_11" d="M498.739 499.923L488.739 511.923H497.739L496.739 519.923L506.739 507.923H497.739L498.739 499.923Z" stroke="black" stroke-width="2" stroke-linecap="round" stroke-linejoin="round"/>
</g>
</g>
</g>
<defs>
<linearGradient id="paint0_linear" x1="560.5" y1="817.473" x2="560.5" y2="1055" gradientUnits="userSpaceOnUse">
<stop stop-color="#5FB8FC"/>
<stop offset="1" stop-color="#D1D1D1" stop-opacity="0"/>
</linearGradient>
<linearGradient id="paint1_linear" x1="560.2" y1="636.627" x2="560.2" y2="652.412" gradientUnits="userSpaceOnUse">
<stop stop-color="#5FB8FC"/>
<stop offset="1" stop-color="#D1D1D1" stop-opacity="0"/>
</linearGradient>
<linearGradient id="paint2_linear" x1="556.5" y1="69.2275" x2="556.5" y2="209" gradientUnits="userSpaceOnUse">
<stop stop-color="#5FB8FC"/>
<stop offset="1" stop-color="#D1D1D1" stop-opacity="0"/>
</linearGradient>
</defs>
</svg>
