<svg width="850" height="1015" viewBox="0 0 850 1015" fill="none" xmlns="http://www.w3.org/2000/svg">
<g id="Group 183">
<g id="Group 152">
<g id="Group 150">
<g id="Group 151">
<path id="Vector" d="M680.579 575.385C678.573 561.784 678.044 548.004 678.999 534.288L680.579 511.587C671.872 529.029 673.84 551.986 680.579 575.385V575.385Z" fill="url(#paint0_linear)"/>
<path id="Vector_2" d="M687.368 579.182C686.402 571.066 686.148 562.881 686.608 554.72L687.368 541.208C683.179 551.59 684.125 565.255 687.368 579.182Z" fill="url(#paint1_linear)"/>
<g id="Vector_3">
<mask id="path-3-inside-1" fill="white">
<path d="M717.547 595.893V603.488C717.544 604.091 717.304 604.669 716.88 605.096C716.457 605.522 715.883 605.763 715.284 605.766H711.512C711.412 605.766 711.314 605.785 711.222 605.824C711.131 605.862 711.048 605.918 710.977 605.988C710.907 606.059 710.852 606.143 710.814 606.235C710.776 606.327 710.757 606.426 710.757 606.526V668.805C710.754 669.408 710.515 669.986 710.091 670.412C709.667 670.839 709.093 671.08 708.494 671.083H662.477C661.877 671.083 661.301 670.842 660.877 670.415C660.453 669.988 660.214 669.409 660.214 668.805V606.526C660.213 606.325 660.133 606.132 659.992 605.99C659.851 605.847 659.659 605.767 659.459 605.766H654.933C654.333 605.766 653.758 605.526 653.333 605.099C652.909 604.671 652.67 604.092 652.67 603.488V595.893C652.67 595.594 652.728 595.297 652.841 595.021C652.955 594.744 653.122 594.493 653.332 594.281C653.542 594.069 653.792 593.901 654.067 593.787C654.341 593.673 654.636 593.614 654.933 593.615H715.284C715.883 593.616 716.458 593.857 716.882 594.284C717.306 594.711 717.545 595.289 717.547 595.893Z"/>
</mask>
<path d="M717.547 595.893V603.488C717.544 604.091 717.304 604.669 716.88 605.096C716.457 605.522 715.883 605.763 715.284 605.766H711.512C711.412 605.766 711.314 605.785 711.222 605.824C711.131 605.862 711.048 605.918 710.977 605.988C710.907 606.059 710.852 606.143 710.814 606.235C710.776 606.327 710.757 606.426 710.757 606.526V668.805C710.754 669.408 710.515 669.986 710.091 670.412C709.667 670.839 709.093 671.08 708.494 671.083H662.477C661.877 671.083 661.301 670.842 660.877 670.415C660.453 669.988 660.214 669.409 660.214 668.805V606.526C660.213 606.325 660.133 606.132 659.992 605.99C659.851 605.847 659.659 605.767 659.459 605.766H654.933C654.333 605.766 653.758 605.526 653.333 605.099C652.909 604.671 652.67 604.092 652.67 603.488V595.893C652.67 595.594 652.728 595.297 652.841 595.021C652.955 594.744 653.122 594.493 653.332 594.281C653.542 594.069 653.792 593.901 654.067 593.787C654.341 593.673 654.636 593.614 654.933 593.615H715.284C715.883 593.616 716.458 593.857 716.882 594.284C717.306 594.711 717.545 595.289 717.547 595.893Z" fill="#F2F2F2" stroke="black" stroke-width="2" mask="url(#path-3-inside-1)"/>
</g>
<path id="Vector_4" d="M710.825 607.361H660.282V609.64H710.825V607.361Z" fill="#232224"/>
<g id="Vector_5">
<mask id="path-5-inside-2" fill="white">
<path d="M710.758 640.889C693.845 647.936 676.747 648.014 659.46 640.889V624.837C676.102 619.21 694.115 619.21 710.758 624.837V640.889Z"/>
</mask>
<path d="M710.758 640.889C693.845 647.936 676.747 648.014 659.46 640.889V624.837C676.102 619.21 694.115 619.21 710.758 624.837V640.889Z" fill="#FF9F1A" stroke="black" stroke-width="2" mask="url(#path-5-inside-2)"/>
</g>
</g>
</g>
</g>
<g id="Group 171">
<path id="Vector 212" d="M435 735V1012" stroke="url(#paint2_linear)" stroke-width="5" stroke-linecap="round" stroke-dasharray="1 10"/>
<g id="Vector_6">
<mask id="path-7-inside-3" fill="white">
<path d="M129.664 631.963C110.789 646.128 105.44 671.053 105.44 671.053C105.44 671.053 130.693 673.01 149.568 658.844C168.443 644.678 173.793 619.754 173.793 619.754C173.793 619.754 148.54 617.797 129.664 631.963Z"/>
</mask>
<path d="M129.664 631.963C110.789 646.128 105.44 671.053 105.44 671.053C105.44 671.053 130.693 673.01 149.568 658.844C168.443 644.678 173.793 619.754 173.793 619.754C173.793 619.754 148.54 617.797 129.664 631.963Z" fill="#16A085" stroke="black" stroke-width="2" mask="url(#path-7-inside-3)"/>
</g>
<g id="Vector_7">
<mask id="path-8-inside-4" fill="white">
<path d="M137.527 638.613C128.455 660.485 105.736 671.756 105.736 671.756C105.736 671.756 97.7242 647.566 106.796 625.694C115.867 603.822 138.587 592.551 138.587 592.551C138.587 592.551 146.598 616.742 137.527 638.613Z"/>
</mask>
<path d="M137.527 638.613C128.455 660.485 105.736 671.756 105.736 671.756C105.736 671.756 97.7242 647.566 106.796 625.694C115.867 603.822 138.587 592.551 138.587 592.551C138.587 592.551 146.598 616.742 137.527 638.613Z" fill="#16A085" stroke="black" stroke-width="2" mask="url(#path-8-inside-4)"/>
</g>
<path id="Ellipse 276" d="M427.455 395.455C465.211 395.455 495.818 364.64 495.818 326.628C495.818 288.616 465.211 257.802 427.455 257.802C389.699 257.802 359.092 288.616 359.092 326.628C359.092 364.64 389.699 395.455 427.455 395.455Z" fill="#FFCCCC"/>
<path id="Path 1461" d="M491.307 267.251C481.086 250.541 465.087 238.228 446.39 232.683L437.997 238.849V230.842C433.507 230.15 428.962 229.884 424.422 230.046L417.181 236.642V230.594C406.461 231.935 396.132 235.498 386.848 241.059C377.563 246.619 369.523 254.055 363.235 262.9C347.511 285.722 344.856 317.473 360.323 340.479C364.568 327.342 369.721 315.017 373.967 301.882C377.304 302.34 380.686 302.357 384.027 301.931L389.192 289.797L390.635 301.418C406.646 300.014 430.393 296.93 445.57 294.105L444.094 285.19L452.924 292.598C457.574 291.521 460.335 290.543 460.107 289.796C471.395 308.117 485.21 319.819 496.497 338.141C500.784 312.306 505.719 290.825 491.307 267.251Z" fill="#CD6133"/>
<path id="Vector_8" d="M574.485 503.619C572.134 489.38 569.71 474.868 563.137 462.041C558.816 453.639 551.959 445.633 542.715 443.971C540.894 443.808 539.104 443.391 537.397 442.732C534.689 441.418 498.289 420.499 492.504 416.855C487.537 413.727 479.695 407.936 475.741 407.936C471.764 407.848 456.511 411.421 396.98 406.736C396.98 406.736 380.626 413.226 367.972 421.095C367.78 420.968 306.184 454.269 303.87 454.182C299.488 453.996 295.414 456.821 292.902 460.378C290.39 463.936 289.212 468.34 287.978 472.598C301.432 502.762 313.741 532.964 327.196 563.128C327.826 564.264 328.161 565.542 328.169 566.843C327.899 568.194 327.326 569.464 326.495 570.559C319.897 581.229 320.107 594.651 320.828 607.193C321.549 619.734 322.441 632.982 316.874 644.223C315.36 647.31 313.391 650.135 311.95 653.221C308.578 660.211 307.359 682.568 309.329 690.078L556.136 697.196C550.83 682.51 574.485 503.619 574.485 503.619Z" fill="#0C2759"/>
<path id="Path 1421" d="M266.644 564.466C266.152 568.052 266.102 571.686 266.497 575.285L270.034 626.431C270.366 631.252 270.693 636.06 271.142 640.869C271.991 650.201 273.259 659.459 274.833 668.703C274.868 670.016 275.419 671.26 276.366 672.164C277.312 673.068 278.575 673.557 279.879 673.524C295.45 676.841 311.539 676.708 327.431 675.804C351.681 674.442 413.722 671.864 417.512 666.906C421.303 661.949 419.094 653.931 414.151 649.922C409.209 645.914 327.337 636.141 327.337 636.141C328.137 629.759 330.55 623.748 332.839 617.688C336.951 606.941 340.792 595.84 340.866 584.326C340.939 572.813 336.631 560.708 327.263 554.112C319.557 548.697 309.636 547.693 300.245 547.915C293.413 548.113 281.608 546.465 275.368 549.155C270.429 551.344 267.567 559.597 266.644 564.466Z" fill="#FFCCCC"/>
<path id="Path 1430" d="M287.266 473.516C286.067 474.78 285.137 476.277 284.534 477.916C274.584 500.492 268.707 524.672 267.178 549.323C267.205 550.525 266.929 551.715 266.378 552.781C265.834 553.491 265.228 554.15 264.568 554.751C263.993 555.438 263.557 556.232 263.287 557.088C263.016 557.945 262.916 558.846 262.991 559.741C263.067 560.636 263.317 561.508 263.727 562.306C264.137 563.104 264.699 563.813 265.381 564.392C265.493 564.487 265.608 564.578 265.725 564.666C267.756 560.818 272.618 559.56 276.94 559.226C297.632 557.578 317.844 567.269 338.597 566.538C337.133 561.444 335.027 556.549 333.833 551.394C328.552 528.504 341.723 503.583 333.648 481.535C332.035 477.124 329.34 472.786 325.094 470.853C323.335 470.139 321.495 469.648 319.616 469.393C314.372 468.439 303.933 464.362 298.863 465.998C296.991 466.605 296.253 468.377 294.702 469.448C292.345 470.963 289.219 471.52 287.266 473.516Z" fill="#0C2759"/>
<path id="Path 1421_2" d="M574.632 549.155C568.392 546.465 556.587 548.113 549.755 547.915C540.365 547.692 530.443 548.697 522.737 554.112C513.369 560.708 509.061 572.813 509.134 584.326C509.208 595.84 513.049 606.941 517.161 617.688C519.45 623.748 521.863 629.759 522.663 636.141C522.663 636.141 440.791 645.914 435.849 649.922C430.906 653.931 428.697 661.949 432.488 666.906C436.278 671.864 554.549 676.841 570.121 673.524C571.425 673.557 572.688 673.068 573.635 672.164C574.581 671.26 575.132 670.015 575.168 668.703C576.741 659.459 578.009 650.201 578.858 640.869C579.307 636.06 579.634 631.252 579.966 626.431L583.504 575.285C583.898 571.686 583.848 568.052 583.356 564.466C582.433 559.597 579.571 551.344 574.632 549.155Z" fill="#FFCCCC"/>
<path id="Path 1430_2" d="M555.298 469.448C553.747 468.377 553.009 466.605 551.138 465.998C546.067 464.362 535.628 468.439 530.384 469.393C528.505 469.648 526.665 470.139 524.907 470.853C520.66 472.786 517.965 477.124 516.352 481.535C508.277 503.583 521.448 528.504 516.167 551.394C514.973 556.549 512.867 561.444 511.403 566.538C532.157 567.269 552.369 557.578 573.06 559.226C577.382 559.56 582.244 560.818 584.275 564.666C584.393 564.578 584.507 564.487 584.619 564.392C585.301 563.813 585.864 563.104 586.274 562.306C586.684 561.508 586.933 560.636 587.009 559.741C587.084 558.846 586.984 557.945 586.713 557.088C586.443 556.232 586.007 555.438 585.432 554.752C584.772 554.15 584.166 553.491 583.622 552.781C583.071 551.715 582.796 550.525 582.822 549.323C581.293 524.672 575.416 500.492 565.466 477.916C564.863 476.277 563.933 474.78 562.734 473.516C560.781 471.52 557.655 470.963 555.298 469.448Z" fill="#0C2759"/>
<path id="Vector_9" d="M407.208 675.966C417.398 675.966 425.659 667.649 425.659 657.39C425.659 647.13 417.398 638.813 407.208 638.813C397.018 638.813 388.757 647.13 388.757 657.39C388.757 667.649 397.018 675.966 407.208 675.966Z" fill="#FBBEBE"/>
<path id="Vector_10" d="M448.064 675.966C458.255 675.966 466.516 667.649 466.516 657.39C466.516 647.13 458.255 638.813 448.064 638.813C437.874 638.813 429.613 647.13 429.613 657.39C429.613 667.649 437.874 675.966 448.064 675.966Z" fill="#FBBEBE"/>
<path id="Vector_11" d="M561.959 699.249H308.467C305.507 699.246 302.67 698.061 300.577 695.954C298.484 693.847 297.307 690.991 297.303 688.011V533.182C297.307 530.202 298.484 527.345 300.577 525.239C302.67 523.132 305.507 521.947 308.467 521.943H561.959C564.919 521.947 567.756 523.132 569.849 525.239C571.942 527.345 573.119 530.202 573.123 533.182V688.011C573.119 690.991 571.942 693.847 569.849 695.954C567.756 698.061 564.919 699.246 561.959 699.249Z" fill="#353436"/>
<path id="Ellipse 263" d="M435.2 609.412C440.833 609.412 445.4 605.291 445.4 600.208C445.4 595.124 440.833 591.004 435.2 591.004C429.567 591.004 425 595.124 425 600.208C425 605.291 429.567 609.412 435.2 609.412Z" fill="url(#paint3_linear)"/>
<path id="Vector_12" d="M850 678.02C850 672.497 845.523 668.02 840 668.02H10C4.47715 668.02 0 672.497 0 678.02V684.317C0 689.84 4.47715 694.317 10 694.317H47.2202C48.9082 694.317 50.2766 695.685 50.2766 697.373C50.2766 699.061 51.6449 700.429 53.3329 700.429H796.686C798.374 700.429 799.743 699.061 799.743 697.373C799.743 695.685 801.111 694.317 802.799 694.317H840C845.523 694.317 850 689.84 850 684.317V678.02Z" fill="#2C2C54"/>
<path id="Vector_13" d="M364.59 352.282C353.606 352.282 344.701 342.588 344.701 330.631V319.805C344.701 307.848 353.605 298.155 364.59 298.155V352.282H364.59Z" fill="#0C2759"/>
<path id="Vector_14" d="M491.538 298.155C502.523 298.155 511.428 307.848 511.428 319.805V330.631C511.428 342.588 502.523 352.282 491.538 352.282V298.155Z" fill="#0C2759"/>
<path id="Vector_15" d="M501.96 321.506H498.805C498.805 277.941 466.245 242.497 426.223 242.497C386.202 242.497 353.642 277.941 353.642 321.506H350.486C350.486 276.046 384.462 239.062 426.223 239.062C467.985 239.062 501.96 276.046 501.96 321.506Z" fill="#0C2759"/>
<path id="Vector 212_2" d="M431 3V166" stroke="url(#paint4_linear)" stroke-width="5" stroke-linecap="round" stroke-dasharray="1 10"/>
</g>
</g>
<defs>
<linearGradient id="paint0_linear" x1="677.671" y1="520.678" x2="677.671" y2="575.385" gradientUnits="userSpaceOnUse">
<stop stop-color="#4B3621"/>
<stop offset="1" stop-color="#D1D1D1" stop-opacity="0"/>
</linearGradient>
<linearGradient id="paint1_linear" x1="685.969" y1="546.619" x2="685.969" y2="579.182" gradientUnits="userSpaceOnUse">
<stop stop-color="#4B3621"/>
<stop offset="1" stop-color="#D1D1D1" stop-opacity="0"/>
</linearGradient>
<linearGradient id="paint2_linear" x1="435.5" y1="774.473" x2="435.5" y2="1012" gradientUnits="userSpaceOnUse">
<stop stop-color="#5FB8FC"/>
<stop offset="1" stop-color="#D1D1D1" stop-opacity="0"/>
</linearGradient>
<linearGradient id="paint3_linear" x1="435.2" y1="593.627" x2="435.2" y2="609.412" gradientUnits="userSpaceOnUse">
<stop stop-color="#5FB8FC"/>
<stop offset="1" stop-color="#D1D1D1" stop-opacity="0"/>
</linearGradient>
<linearGradient id="paint4_linear" x1="431.5" y1="26.2275" x2="431.5" y2="166" gradientUnits="userSpaceOnUse">
<stop stop-color="#5FB8FC"/>
<stop offset="1" stop-color="#D1D1D1" stop-opacity="0"/>
</linearGradient>
</defs>
</svg>
