<svg width="680" height="680" viewBox="0 0 680 680" fill="none" xmlns="http://www.w3.org/2000/svg">
<g id="figboy1">
<g id="Group 174">
<path id="Rectangle 62" d="M646 56H264V323H646V56Z" fill="#E6E6E6"/>
<path id="Rectangle 75" d="M635 79H275V302H635V79Z" fill="white"/>
<path id="Path 142" d="M434.459 156C434.072 156 433.701 156.211 433.427 156.586C433.154 156.961 433 157.47 433 158C433 158.53 433.154 159.039 433.427 159.414C433.701 159.789 434.072 160 434.459 160H514.541C514.928 160 515.299 159.789 515.573 159.414C515.846 159.039 516 158.53 516 158C516 157.47 515.846 156.961 515.573 156.586C515.299 156.211 514.928 156 514.541 156H434.459Z" fill="#E6E6E6"/>
<path id="Path 143" d="M434.463 169C434.075 169.001 433.703 169.212 433.428 169.587C433.154 169.962 433 170.47 433 171C433 171.53 433.154 172.038 433.428 172.413C433.703 172.788 434.075 172.999 434.463 173H475.537C475.925 172.999 476.297 172.788 476.572 172.413C476.846 172.038 477 171.53 477 171C477 170.47 476.846 169.962 476.572 169.587C476.297 169.212 475.925 169.001 475.537 169H434.463Z" fill="#E6E6E6"/>
<path id="Path 142_2" d="M434.459 207C434.072 207 433.701 207.211 433.427 207.586C433.154 207.961 433 208.47 433 209C433 209.53 433.154 210.039 433.427 210.414C433.701 210.789 434.072 211 434.459 211H584.541C584.928 211 585.299 210.789 585.573 210.414C585.846 210.039 586 209.53 586 209C586 208.47 585.846 207.961 585.573 207.586C585.299 207.211 584.928 207 584.541 207H434.459Z" fill="#E6E6E6"/>
<path id="Path 143_2" d="M434.458 220C434.071 220.001 433.7 220.212 433.427 220.587C433.154 220.962 433 221.47 433 222C433 222.53 433.154 223.038 433.427 223.413C433.7 223.788 434.071 223.999 434.458 224H545.542C545.929 223.999 546.3 223.788 546.573 223.413C546.846 223.038 547 222.53 547 222C547 221.47 546.846 220.962 546.573 220.587C546.3 220.212 545.929 220.001 545.542 220H434.458Z" fill="#E6E6E6"/>
<path id="Path 142_3" d="M434.456 232C434.069 232.001 433.699 232.265 433.426 232.734C433.153 233.203 433 233.838 433 234.5C433 235.162 433.153 235.797 433.426 236.266C433.699 236.735 434.069 236.999 434.456 237H584.544C584.931 236.999 585.301 236.735 585.574 236.266C585.847 235.797 586 235.162 586 234.5C586 233.838 585.847 233.203 585.574 232.734C585.301 232.265 584.931 232.001 584.544 232H434.456Z" fill="#E6E6E6"/>
<path id="Path 143_3" d="M434.458 245C434.071 245.001 433.7 245.265 433.427 245.734C433.154 246.203 433 246.838 433 247.5C433 248.162 433.154 248.797 433.427 249.266C433.7 249.735 434.071 249.999 434.458 250H545.542C545.929 249.999 546.3 249.735 546.573 249.266C546.846 248.797 547 248.162 547 247.5C547 246.838 546.846 246.203 546.573 245.734C546.3 245.265 545.929 245.001 545.542 245H434.458Z" fill="#E6E6E6"/>
<g id="Group 146">
<path id="Vector" d="M365.619 190.546C372.864 190.546 378.737 184.672 378.737 177.427C378.737 170.181 372.864 164.307 365.619 164.307C358.373 164.307 352.5 170.181 352.5 177.427C352.5 184.672 358.373 190.546 365.619 190.546Z" fill="#FFCCCC"/>
<path id="Vector_2" d="M361.464 166.931C361.464 166.931 367.586 168.571 370.757 169.227C373.927 169.883 373.599 168.024 373.599 168.024C373.599 168.024 377.753 168.571 377.535 168.133C377.316 167.696 379.284 165.4 376.988 162.776C374.692 160.152 375.348 158.184 375.348 158.184H373.38L372.834 157.419H369.773C369.773 157.419 366.388 154.451 360.376 155.326C354.363 156.2 347.252 158.512 346.596 162.12C346.507 162.61 346.39 163.153 346.254 163.727C344.61 170.669 348.103 177.164 351.727 183.31C352.617 184.82 356.924 188.113 356.814 185.854C356.704 183.594 352.937 178.52 355.561 178.192C358.184 177.864 362.667 171.195 361.464 166.931Z" fill="#CD6133"/>
<path id="Vector_3" d="M358.177 219.84C355.644 219.638 353.133 219.225 350.668 218.607L350.807 215.99L351.955 195.187L351.966 195.028H375.075L378.702 214.182L379.191 216.767C378.234 217.139 377.266 217.49 376.277 217.798C376.266 217.798 376.266 217.809 376.256 217.809C374.884 218.234 373.491 218.607 372.086 218.915C370.22 219.318 368.33 219.609 366.429 219.787C364.959 219.933 363.483 220.004 362.005 220C360.729 220 359.442 219.947 358.177 219.84Z" fill="#0C2759"/>
<path id="Vector_4" d="M343.32 216.139C342.363 215.724 341.437 215.278 340.523 214.81L340.129 214.608C339.863 214.469 339.587 214.32 339.321 214.172C338.959 213.97 338.608 213.767 338.268 213.565C337.938 213.374 337.598 213.172 337.269 212.97C337.247 212.959 337.237 212.949 337.216 212.949C336.067 212.215 334.94 211.46 333.855 210.641C333.674 210.502 333.493 210.364 333.312 210.226L333.121 207.163L333.397 206.993L351.955 195.187L352.21 195.028L352.231 195.017L354.848 195.028V204.77C356.326 206.908 357.326 211.385 357.942 217.245C358.028 218.085 358.102 218.947 358.177 219.84C355.644 219.638 353.133 219.225 350.668 218.607C350.403 218.553 350.147 218.49 349.881 218.415C348.331 218.009 346.805 217.52 345.308 216.947C344.851 216.777 344.404 216.596 343.958 216.416L343.915 216.394C343.724 216.309 343.511 216.224 343.32 216.139Z" fill="#2F2E41"/>
<path id="Vector_5" d="M339.321 214.172C338.959 213.97 338.608 213.767 338.268 213.565C337.938 213.374 337.598 213.172 337.268 212.97C337.247 212.959 337.237 212.948 337.215 212.948C336.067 212.215 334.94 211.459 333.855 210.641C333.674 210.502 333.493 210.364 333.312 210.226C333.227 210.151 333.142 210.088 333.046 210.013C332.366 209.492 331.707 208.95 331.068 208.375C331.037 208.354 331.015 208.322 330.983 208.301C331.628 207.805 332.35 207.421 333.121 207.163L333.876 207.386L339.257 209.003L339.289 211.183L339.321 214.172Z" fill="#2F2E41"/>
<path id="Vector_6" d="M384.636 214.203C384.316 214.374 383.997 214.544 383.679 214.703C383.604 214.746 383.541 214.778 383.477 214.81C383.051 215.022 382.636 215.235 382.211 215.437C382.2 215.448 382.179 215.448 382.179 215.458C382.158 215.469 382.126 215.48 382.105 215.49C381.148 215.948 380.18 216.373 379.191 216.767C378.234 217.139 377.266 217.49 376.277 217.798C376.266 217.798 376.266 217.809 376.256 217.809C374.884 218.234 373.491 218.606 372.086 218.915C372.071 218.041 372.185 217.17 372.427 216.33L372.437 216.182L373.352 201.377L372.129 195.028L375.639 194.507L394.941 204.897C394.941 204.897 392.814 207.024 384.083 211.555C383.311 211.956 384.444 213.289 384.636 214.203Z" fill="#2F2E41"/>
<path id="Vector_7" d="M366.195 217.235C364.812 217.362 363.409 217.426 362.005 217.426C360.644 217.426 359.293 217.373 357.942 217.245C358.028 218.085 358.102 218.947 358.177 219.84C359.442 219.947 360.729 220 362.005 220C363.482 220.004 364.959 219.933 366.429 219.787C368.33 219.609 370.22 219.318 372.086 218.915C372.071 218.041 372.185 217.17 372.427 216.331L372.437 216.182C370.385 216.681 368.298 217.033 366.195 217.235ZM406.383 157.549C404.136 151.093 400.508 145.205 395.751 140.295C390.995 135.386 385.225 131.573 378.844 129.123C372.463 126.673 365.624 125.644 358.804 126.109C351.985 126.573 345.348 128.52 339.358 131.813C333.368 135.106 328.169 139.666 324.122 145.175C320.075 150.684 317.279 157.009 315.927 163.71C314.576 170.411 314.703 177.326 316.299 183.973C317.894 190.62 320.92 196.839 325.166 202.196C325.592 202.728 326.028 203.26 326.474 203.77C326.517 203.813 326.538 203.845 326.57 203.876C327.668 205.143 328.836 206.347 330.069 207.482C330.367 207.758 330.675 208.035 330.983 208.301C331.015 208.322 331.037 208.354 331.068 208.375C331.707 208.95 332.366 209.492 333.046 210.013C333.142 210.088 333.228 210.151 333.312 210.226C333.493 210.364 333.674 210.502 333.855 210.641C334.94 211.46 336.067 212.215 337.216 212.949C337.237 212.949 337.247 212.959 337.268 212.97C337.598 213.172 337.938 213.374 338.268 213.565C338.609 213.767 338.96 213.97 339.321 214.172C339.587 214.32 339.863 214.469 340.129 214.608L340.523 214.81C341.437 215.278 342.363 215.724 343.32 216.139C343.511 216.224 343.724 216.309 343.915 216.394L343.958 216.416C344.404 216.596 344.851 216.777 345.308 216.947C346.805 217.52 348.331 218.01 349.881 218.415C350.147 218.49 350.402 218.553 350.668 218.607C353.133 219.225 355.644 219.638 358.177 219.84C359.442 219.947 360.729 220 362.005 220C363.482 220.004 364.959 219.933 366.429 219.787C368.33 219.609 370.22 219.318 372.086 218.915C373.49 218.607 374.884 218.234 376.256 217.809C376.266 217.809 376.266 217.798 376.277 217.798C377.266 217.49 378.234 217.139 379.191 216.767C380.18 216.373 381.148 215.948 382.105 215.49C382.126 215.48 382.158 215.469 382.179 215.458C382.179 215.448 382.2 215.448 382.211 215.437C382.636 215.235 383.051 215.022 383.477 214.81C383.541 214.778 383.604 214.746 383.679 214.703C383.997 214.544 384.316 214.374 384.636 214.204C384.657 214.193 384.667 214.182 384.689 214.172C385.529 213.704 386.359 213.214 387.177 212.693C387.401 212.555 387.624 212.417 387.847 212.257C388.177 212.055 388.496 211.832 388.804 211.608C389.219 211.321 389.634 211.024 390.038 210.715C390.173 210.629 390.3 210.533 390.421 210.428C391.41 209.683 392.367 208.896 393.282 208.067C400.217 201.887 405.164 193.788 407.496 184.795C409.828 175.803 409.441 166.321 406.383 157.549L406.383 157.549ZM392.484 205.323C391.333 206.406 390.126 207.428 388.868 208.386C388.592 208.599 388.304 208.811 388.018 209.003C387.741 209.215 387.465 209.418 387.178 209.609C386.933 209.779 386.688 209.949 386.433 210.109C386.412 210.13 386.38 210.141 386.359 210.162C386.177 210.29 385.986 210.407 385.806 210.524C385.242 210.875 384.657 211.226 384.083 211.555C383.945 211.63 383.817 211.715 383.679 211.789C383.604 211.832 383.53 211.874 383.445 211.917C383.126 212.098 382.806 212.257 382.487 212.427C382.445 212.459 382.392 212.47 382.349 212.502C382.333 212.504 382.318 212.512 382.307 212.523C382.083 212.64 381.86 212.746 381.637 212.853C381.445 212.949 381.265 213.044 381.073 213.129C380.297 213.502 379.499 213.852 378.701 214.182C377.861 214.523 377.011 214.831 376.149 215.118C375.936 215.193 375.713 215.278 375.49 215.341C374.479 215.661 373.469 215.948 372.437 216.182C370.385 216.681 368.298 217.033 366.195 217.235C364.812 217.362 363.409 217.426 362.005 217.426C360.644 217.426 359.293 217.373 357.942 217.245C355.533 217.025 353.146 216.605 350.807 215.99C350.721 215.969 350.626 215.948 350.541 215.926C348.621 215.426 346.741 214.786 344.915 214.012C344.819 213.97 344.713 213.938 344.628 213.895C344.521 213.852 344.426 213.821 344.341 213.778C344.234 213.736 344.139 213.693 344.043 213.65C343.245 213.299 342.469 212.917 341.693 212.523L341.331 212.332C340.64 211.97 339.959 211.598 339.289 211.183C339.055 211.055 338.811 210.907 338.577 210.758C338.311 210.598 338.045 210.428 337.789 210.258C337.726 210.215 337.662 210.173 337.598 210.13C337.003 209.726 336.397 209.322 335.822 208.886C335.418 208.588 335.025 208.301 334.631 207.992C334.376 207.801 334.121 207.599 333.876 207.386C333.717 207.269 333.557 207.131 333.397 206.993C333.185 206.812 332.972 206.631 332.76 206.44C332.43 206.174 332.122 205.876 331.823 205.599C330.626 204.496 329.493 203.324 328.431 202.09C328.07 201.686 327.729 201.281 327.4 200.856C327.323 200.772 327.252 200.683 327.187 200.59C321.833 193.831 318.562 185.659 317.772 177.073C316.983 168.486 318.71 159.855 322.742 152.233C326.774 144.611 332.937 138.327 340.479 134.148C348.022 129.969 356.617 128.076 365.217 128.7C373.817 129.323 382.049 132.436 388.91 137.659C395.771 142.881 400.964 149.988 403.855 158.112C406.746 166.236 407.21 175.026 405.191 183.409C403.172 191.792 398.757 199.406 392.484 205.323L392.484 205.323Z" fill="#3F3D56"/>
</g>
<path id="Vector_8" d="M86.8257 537.268L99.0857 537.267L104.918 489.979L86.8237 489.98L86.8257 537.268Z" fill="#FFCCCC"/>
<path id="Vector_9" d="M83.6987 533.266L107.843 533.265H107.844C111.924 533.265 115.838 534.886 118.723 537.771C121.609 540.657 123.23 544.57 123.23 548.651V549.151L83.6995 549.152L83.6987 533.266Z" fill="#2F2E41"/>
<path id="Vector_10" d="M132.826 537.268L145.086 537.267L150.918 489.979L132.824 489.98L132.826 537.268Z" fill="#FFCCCC"/>
<path id="Vector_11" d="M129.699 533.266L153.843 533.265H153.844C157.924 533.265 161.838 534.886 164.723 537.771C167.609 540.657 169.23 544.57 169.23 548.651V549.151L129.699 549.152L129.699 533.266Z" fill="#2F2E41"/>
<path id="Vector_12" d="M49.6264 350.41C50.6298 349.336 51.3854 348.055 51.84 346.657C52.2946 345.259 52.4372 343.778 52.2576 342.319C52.0781 340.86 51.5808 339.458 50.8008 338.212C50.0208 336.966 48.9771 335.906 47.7431 335.107L56.2613 300.402L38.769 306.635L33.3617 338.635C32.1567 340.797 31.7866 343.326 32.3215 345.743C32.8564 348.159 34.2592 350.296 36.264 351.747C38.2688 353.199 40.7364 353.864 43.1992 353.618C45.662 353.372 47.9489 352.23 49.6264 350.41V350.41Z" fill="#FFCCCC"/>
<path id="Vector_13" d="M179.767 347.41C178.764 346.336 178.008 345.055 177.554 343.657C177.099 342.259 176.956 340.778 177.136 339.319C177.316 337.86 177.813 336.458 178.593 335.212C179.373 333.966 180.417 332.906 181.651 332.107L173.132 297.402L190.625 303.635L196.032 335.635C197.237 337.797 197.607 340.326 197.072 342.743C196.537 345.159 195.135 347.296 193.13 348.747C191.125 350.199 188.657 350.864 186.194 350.618C183.732 350.372 181.445 349.23 179.767 347.41V347.41Z" fill="#FFCCCC"/>
<path id="Vector_14" d="M65.7568 326.084L82.7498 525.149L107.614 522.882L117.565 369.032L126.423 429.95L128.197 526.716L150.697 525.216L163.191 421.116L160.126 320.299L74.7088 311.649L65.7568 326.084Z" fill="#2F2E41"/>
<path id="Vector_15" d="M112.502 144.939C126.743 144.939 138.288 133.394 138.288 119.153C138.288 104.912 126.743 93.3672 112.502 93.3672C98.261 93.3672 86.7163 104.912 86.7163 119.153C86.7163 133.394 98.261 144.939 112.502 144.939Z" fill="#FFCCCC"/>
<path id="Vector_16" d="M104.336 98.5243C104.336 98.5243 116.37 101.748 122.601 103.037C128.833 104.326 128.188 100.673 128.188 100.673C128.188 100.673 136.354 101.748 135.924 100.888C135.494 100.028 139.362 95.516 134.85 90.3588C130.337 85.2017 131.626 81.3338 131.626 81.3338H127.758L126.684 79.8297H120.667C120.667 79.8297 114.015 73.9967 102.197 75.7157C90.3783 77.4347 76.4017 81.9785 75.1125 89.0696C74.9376 90.0314 74.7074 91.0999 74.44 92.2285C71.2083 105.872 78.0749 118.638 85.1968 130.716C86.9471 133.684 95.4134 140.156 95.1968 135.716C94.9802 131.275 87.5756 121.302 92.7327 120.657C97.8899 120.012 106.7 106.905 104.336 98.5243Z" fill="#CD6133"/>
<path id="Vector_17" d="M85.6695 153.747H131.081L163.191 323.322C163.191 323.322 135.197 325.716 119.197 331.716C103.197 337.716 76.5986 318.01 76.5986 318.01L85.6695 153.747Z" fill="#0C2759"/>
<path id="Vector_18" d="M91.3386 172.897V153.747L86.1968 153.716L48.6299 177.601L56.7815 308.464C56.7815 308.464 66.4295 352.121 81.0631 351.669C95.6968 351.216 106.98 195.578 91.3386 172.897Z" fill="#2F2E41"/>
<path id="Vector_19" d="M60.6968 181.216L48.6299 177.601C48.6299 177.601 39.6968 180.216 39.6968 189.216C39.6968 198.216 32 326.084 32 326.084L56.4507 328.245L61.6968 263.216L60.6968 181.216Z" fill="#2F2E41"/>
<path id="Vector_20" d="M127.697 166.216L125.292 153.747L132.197 152.716L157.197 162.716C157.197 162.716 179.697 327.216 169.697 332.216C159.697 337.216 152.945 333.342 152.945 333.342C152.945 333.342 120.054 212.016 125.875 195.616L127.697 166.216Z" fill="#2F2E41"/>
<path id="Vector_21" d="M139.697 165.216L143.963 163.359C143.963 163.359 156.486 157.153 163.592 169.684C170.697 182.216 195.697 322.216 195.697 322.216L175.126 326.084L159.748 275.7L139.697 165.216Z" fill="#2F2E41"/>
<path id="Rectangle 80" d="M648 51H266V75H648V51Z" fill="#0C2759"/>
<path id="Ellipse 90" d="M296 68C297.657 68 299 65.9853 299 63.5C299 61.0147 297.657 59 296 59C294.343 59 293 61.0147 293 63.5C293 65.9853 294.343 68 296 68Z" fill="white"/>
<path id="Ellipse 91" d="M307 68C308.657 68 310 65.9853 310 63.5C310 61.0147 308.657 59 307 59C305.343 59 304 61.0147 304 63.5C304 65.9853 305.343 68 307 68Z" fill="white"/>
<path id="Ellipse 92" d="M318 68C319.657 68 321 65.9853 321 63.5C321 61.0147 319.657 59 318 59C316.343 59 315 61.0147 315 63.5C315 65.9853 316.343 68 318 68Z" fill="white"/>
<path id="Vector 210" d="M453 388.004L454.013 628.002" stroke="url(#paint0_linear)" stroke-width="5" stroke-linecap="round" stroke-dasharray="1 10"/>
</g>
</g>
<defs>
<linearGradient id="paint0_linear" x1="453.644" y1="422.202" x2="454.513" y2="628" gradientUnits="userSpaceOnUse">
<stop stop-color="#5FB8FC"/>
<stop offset="1" stop-color="#D1D1D1" stop-opacity="0"/>
</linearGradient>
</defs>
</svg>
