<svg width="220" height="230" viewBox="0 0 220 260" fill="none" xmlns="http://www.w3.org/2000/svg">
<g id="figma" clip-path="url(#clip0)">
<g id="Group 174">
<g id="Group 106">
<rect id="Rectangle 139" x="20" y="15" width="180" height="230" rx="16" fill="#F2F7FF"/>
<g id="Group 23">
<g id="Group 42">
<g id="figma_2">
<g id="figma-1 1" clip-path="url(#clip1)">
<path id="path0 fill" d="M109.245 134.703C109.245 143.999 101.688 151.544 92.3753 151.544C83.0628 151.544 75.5059 143.999 75.5059 134.703C75.5059 125.408 83.0628 117.863 92.3753 117.863H109.245V134.703Z" fill="#06E790" stroke="#0C2759"/>
<path id="path1 fill" d="M75.5059 100.022C75.5059 90.7267 83.0628 83.1812 92.3753 83.1812H109.245V116.862H92.3753C83.0628 116.862 75.5059 109.317 75.5059 100.022Z" fill="#7A28E2" stroke="#0C2759"/>
<path id="path1 fill 1" d="M75.5039 65.3407C75.5039 56.0455 83.0608 48.5 92.3733 48.5H109.243V82.1813H92.3733C83.0608 82.1813 75.5039 74.6358 75.5039 65.3407Z" fill="#DE3F11" stroke="#0C2759"/>
<path id="path2 fill" d="M110.246 48.5H127.115C136.428 48.5 143.985 56.0455 143.985 65.3407C143.985 74.6358 136.428 82.1813 127.115 82.1813H110.246V48.5Z" fill="#E76D5F" stroke="#0C2759"/>
<path id="path3 fill" d="M143.985 100.022C143.985 109.317 136.428 116.862 127.115 116.862C117.803 116.862 110.246 109.317 110.246 100.022C110.246 90.7267 117.803 83.1812 127.115 83.1812C136.428 83.1812 143.985 90.7267 143.985 100.022Z" fill="#538BF0" stroke="#0C2759"/>
</g>
</g>
</g>
<path id="FIGMA" d="M72.5055 195V177.48H73.8495H82.0575V179.112H74.3295V185.256L81.6015 185.232V186.888L74.3295 186.912V195H72.5055ZM85.9832 195V177.48H87.8072V195H85.9832ZM100.974 195.408C99.534 195.408 98.254 195.168 97.134 194.688C96.03 194.208 95.094 193.552 94.326 192.72C93.574 191.872 93.006 190.904 92.622 189.816C92.238 188.728 92.046 187.568 92.046 186.336V185.904C92.046 184.784 92.23 183.696 92.598 182.64C92.982 181.584 93.534 180.632 94.254 179.784C94.99 178.936 95.886 178.264 96.942 177.768C97.998 177.272 99.214 177.024 100.59 177.024C102.014 177.024 103.278 177.296 104.382 177.84C105.486 178.368 106.374 179.112 107.046 180.072C107.718 181.032 108.118 182.144 108.246 183.408H106.398C106.27 182.384 105.926 181.52 105.366 180.816C104.822 180.112 104.134 179.584 103.302 179.232C102.47 178.88 101.566 178.704 100.59 178.704C99.214 178.704 98.022 179.024 97.014 179.664C96.022 180.304 95.254 181.184 94.71 182.304C94.166 183.424 93.894 184.704 93.894 186.144C93.894 187.664 94.174 189 94.734 190.152C95.294 191.288 96.102 192.176 97.158 192.816C98.214 193.456 99.486 193.776 100.974 193.776C102.094 193.776 103.11 193.592 104.022 193.224C104.95 192.856 105.718 192.36 106.326 191.736V188.304H100.326V186.768H109.614V188.304H108.054V192.288C107.302 193.264 106.326 194.032 105.126 194.592C103.926 195.136 102.542 195.408 100.974 195.408ZM113.263 195V177.48H115.639L121.159 189.6H121.591L127.087 177.48H129.511V195H127.687V179.88L122.503 191.304H120.103L114.943 179.952V195H113.263ZM133.046 195L139.502 177.48H142.766L149.438 195H147.566L145.454 189.432H136.886L134.87 195H133.046ZM137.51 187.776H144.83L141.542 179.136H140.654L137.51 187.776Z" fill="#0C2759"/>
</g>
</g>
</g>
</g>
<defs>
<clipPath id="clip0">
<rect width="220" height="260" fill="white"/>
</clipPath>
<clipPath id="clip1">
<rect width="69.4916" height="104.044" fill="white" transform="translate(75 48)"/>
</clipPath>
</defs>
</svg>
