<svg width="80" height="80" viewBox="0 0 80 80" fill="none" xmlns="http://www.w3.org/2000/svg">
<g id="git">
<path id="Vector" d="M54.1538 72.2857V60.4539C54.2775 58.996 54.0651 57.5305 53.5308 56.1546C52.9965 54.7788 52.1525 53.5242 51.0549 52.4743C61.4066 51.4042 72.2857 47.766 72.2857 31.073C72.2849 26.8044 70.5144 22.6996 67.3407 19.608C68.8435 15.8735 68.7372 11.7457 67.044 8.08192C67.044 8.08192 63.1538 7.01185 54.1538 12.6068C46.5978 10.7076 38.6329 10.7076 31.0769 12.6068C22.0769 7.01185 18.1868 8.08192 18.1868 8.08192C16.4935 11.7457 16.3873 15.8735 17.8901 19.608C14.6927 22.7225 12.9204 26.8645 12.9451 31.1647C12.9451 47.7354 23.8242 51.3736 34.1758 52.566C33.0912 53.6054 32.2547 54.8449 31.7208 56.2039C31.1869 57.563 30.9675 59.011 31.0769 60.4539V72.2857M31.0769 63.1137C14.5934 67.6997 14.5934 55.4704 8 53.9418L31.0769 63.1137Z" stroke="#868587" stroke-width="3" stroke-linecap="round" stroke-linejoin="round"/>
</g>
</svg>
