<svg width="120" height="120" viewBox="0 0 120 120" fill="none" xmlns="http://www.w3.org/2000/svg">
<g id="Github">
<g id="Group 168">
<rect id="Rectangle 884" x="10" y="10" width="100" height="100" rx="32.3077" fill="#F2F7FF"/>
<path id="Vector" d="M74.0108 92.1429V80.311C74.1344 78.8532 73.9221 77.3876 73.3878 76.0118C72.8534 74.636 72.0095 73.3814 70.9119 72.3314C81.2635 71.2614 92.1426 67.6232 92.1426 50.9302C92.1418 46.6616 90.3713 42.5568 87.1976 39.4652C88.7004 35.7307 88.5942 31.6028 86.9009 27.9391C86.9009 27.9391 83.0108 26.869 74.0108 32.4639C66.4548 30.5648 58.4899 30.5648 50.9339 32.4639C41.9339 26.869 38.0437 27.9391 38.0437 27.9391C36.3505 31.6028 36.2442 35.7307 37.747 39.4652C34.5497 42.5797 32.7773 46.7216 32.802 51.0219C32.802 67.5926 43.6811 71.2308 54.0328 72.4232C52.9481 73.4626 52.1116 74.7021 51.5777 76.0611C51.0438 77.4201 50.8244 78.8682 50.9339 80.311V92.1429M50.9339 82.9709C34.4503 87.5569 34.4503 75.3276 27.8569 73.7989L50.9339 82.9709Z" stroke="url(#paint0_linear)" stroke-width="3" stroke-linecap="round" stroke-linejoin="round"/>
</g>
</g>
<defs>
<linearGradient id="paint0_linear" x1="59.9998" y1="27.8572" x2="59.9998" y2="92.1429" gradientUnits="userSpaceOnUse">
<stop stop-color="#538BF0"/>
<stop offset="1" stop-color="#0C2759"/>
</linearGradient>
</defs>
</svg>
