<svg width="150" height="200" viewBox="0 0 220 230" fill="none" xmlns="http://www.w3.org/2000/svg">
<rect x="20" width="180" height="230" rx="16" fill="#F2F7FF"/>
<path d="M99.6733 183.408C98.2333 183.408 96.9533 183.168 95.8333 182.688C94.7293 182.208 93.7933 181.552 93.0253 180.72C92.2733 179.872 91.7053 178.904 91.3213 177.816C90.9373 176.728 90.7453 175.568 90.7453 174.336V173.904C90.7453 172.784 90.9293 171.696 91.2973 170.64C91.6813 169.584 92.2333 168.632 92.9533 167.784C93.6893 166.936 94.5853 166.264 95.6413 165.768C96.6973 165.272 97.9133 165.024 99.2893 165.024C100.713 165.024 101.977 165.296 103.081 165.84C104.185 166.368 105.073 167.112 105.745 168.072C106.417 169.032 106.817 170.144 106.945 171.408H105.097C104.969 170.384 104.625 169.52 104.065 168.816C103.521 168.112 102.833 167.584 102.001 167.232C101.169 166.88 100.265 166.704 99.2893 166.704C97.9133 166.704 96.7213 167.024 95.7133 167.664C94.7213 168.304 93.9533 169.184 93.4093 170.304C92.8653 171.424 92.5933 172.704 92.5933 174.144C92.5933 175.664 92.8733 177 93.4333 178.152C93.9933 179.288 94.8013 180.176 95.8573 180.816C96.9133 181.456 98.1853 181.776 99.6733 181.776C100.793 181.776 101.809 181.592 102.721 181.224C103.649 180.856 104.417 180.36 105.025 179.736V176.304H99.0253V174.768H108.313V176.304H106.753V180.288C106.001 181.264 105.025 182.032 103.825 182.592C102.625 183.136 101.241 183.408 99.6733 183.408ZM112.011 183V165.48H113.835V183H112.011ZM122.753 183V167.136H117.281V165.48H130.049V167.136H124.577V183H122.753Z" fill="#0C2759"/>
<circle cx="109.5" cy="92.5" r="42.5" fill="white"/>
<path d="M154.649 116.835L154.65 116.83C157.401 109.785 158 101.711 158 94.2016C158 84.4035 155.884 74.9865 150.768 67.2523C151.672 63.6666 152.131 59.9133 152.131 56.1403C152.131 50.9125 151.177 48.2416 149.322 43.627L149.069 43H148.394C144.114 43 140.519 43.5073 137.157 44.8496C133.941 46.134 131 48.1582 127.904 51.1258C123.065 49.7341 118.064 49.0936 113.106 49.0936C107.606 49.0936 102.114 49.7823 96.7528 51.3146C93.615 48.3125 90.6521 46.2423 87.4123 44.9198C84.0268 43.5379 80.4061 43 76.075 43H75.3967L75.1459 43.6302C73.3118 48.239 72.3375 50.9109 72.3375 56.1403C72.3375 59.9111 72.7793 63.731 73.7001 67.3891C68.5669 75.0318 66 84.3704 66 94.2016C66 101.758 67.0593 109.887 69.8599 116.84L69.8612 116.843C73.7051 126.294 81.0352 130.841 89.1191 133.009C96.6217 135.022 104.864 135.009 111.675 134.999C112.153 134.998 112.624 134.997 113.088 134.997C113.411 134.997 113.737 134.998 114.067 134.998C120.833 135.003 128.932 135.009 136.257 132.926C144 130.724 150.954 126.168 154.649 116.835ZM95.0125 119.951C98.0741 119.951 100.038 117.417 101.187 114.723C102.365 111.961 102.894 108.595 102.894 106.037C102.894 103.479 102.365 100.113 101.187 97.3513C100.038 94.6578 98.0741 92.1235 95.0125 92.1235C91.9509 92.1235 89.9866 94.6578 88.838 97.3513C87.6602 100.113 87.1312 103.479 87.1312 106.037C87.1312 108.595 87.6602 111.961 88.838 114.723C89.9866 117.417 91.9509 119.951 95.0125 119.951ZM131.163 87.6784C135.153 87.6784 138.309 89.7219 140.509 93.0509C142.725 96.4038 143.944 101.039 143.944 106.037C143.944 116.053 140.31 121.636 135.24 124.784C130.077 127.99 123.257 128.779 116.706 128.779H107.669C101.147 128.779 94.3361 127.984 89.1749 124.775C84.1063 121.624 80.4688 116.04 80.4688 106.037C80.4688 101.039 81.6872 96.4038 83.903 93.0509C86.103 89.7219 89.2598 87.6784 93.25 87.6784C96.0102 87.6784 98.6736 88.1709 101.463 88.6866C102.156 88.8148 102.858 88.9445 103.57 89.0684C106.454 89.6204 109.309 89.8346 112.206 89.8346C115.121 89.8346 117.976 89.6205 120.842 89.0685C121.614 88.9364 122.368 88.7978 123.111 88.6614C125.869 88.1547 128.461 87.6784 131.163 87.6784ZM129.456 92.1235C126.395 92.1235 124.43 94.6578 123.282 97.3513C122.104 100.113 121.575 103.479 121.575 106.037C121.575 108.595 122.104 111.961 123.282 114.723C124.43 117.417 126.395 119.951 129.456 119.951C132.518 119.951 134.482 117.417 135.631 114.723C136.809 111.961 137.337 108.595 137.337 106.037C137.337 103.479 136.809 100.113 135.631 97.3513C134.482 94.6578 132.518 92.1235 129.456 92.1235Z" fill="#2867D7" stroke="#0C2759" stroke-width="2"/>
</svg>
