<svg width="150" height="200" viewBox="0 0 180 230" fill="none" xmlns="http://www.w3.org/2000/svg">
<rect width="180" height="230" rx="16" fill="#F2F7FF"/>
<path d="M48 29H46.9147L47.0033 30.0816L54.6726 123.721L54.7282 124.4L55.3801 124.597L89.8166 135.001L90.1058 135.088L90.395 135.001L124.82 124.603L125.471 124.406L125.527 123.728L133.208 30.0818L133.297 29H132.212H48Z" fill="#FF5722" stroke="#0C2759" stroke-width="2"/>
<path d="M115.58 61.6216H116.501L116.577 60.7031L117.515 49.2258L117.603 48.1443H116.518H90.1059H63.6875H62.602L62.6909 49.2261L65.542 83.9572L65.6174 84.8754H66.5387H90.1059H102.007L100.925 98.0071L90.089 101.189L79.2867 98.0138L78.555 89.1256L78.4794 88.2077H77.5584H66.9718H65.8866L65.9751 89.2892L67.4849 107.738L67.5404 108.416L68.1923 108.613L89.7986 115.142L90.1156 115.238L90.4201 115.128L112.013 108.613L112.665 108.417L112.721 107.738L115.614 72.4668L115.703 71.3851H114.618H90.1059H77.1024L76.3036 61.6216H90.1059H115.58Z" fill="#FAFAFA" stroke="#0C2759" stroke-width="2"/>
<path d="M51.2751 182V164.48H53.0991V172.496H63.3231V164.48H65.1471V182H63.3231V174.128H53.0991V182H51.2751ZM74.019 182V166.136H68.547V164.48H81.315V166.136H75.843V182H74.019ZM84.7204 182V164.48H87.0964L92.6164 176.6H93.0484L98.5444 164.48H100.968V182H99.1444V166.88L93.9604 178.304H91.5604L86.4004 166.952V182H84.7204ZM106.447 182V164.48H108.271V180.344H116.023V182H106.447ZM124.16 182.408C122.832 182.408 121.72 182.144 120.824 181.616C119.928 181.072 119.248 180.36 118.784 179.48C118.32 178.6 118.088 177.656 118.088 176.648H119.84C119.84 177.448 120.008 178.16 120.344 178.784C120.68 179.408 121.168 179.904 121.808 180.272C122.464 180.64 123.248 180.824 124.16 180.824C125.072 180.824 125.848 180.648 126.488 180.296C127.128 179.928 127.616 179.432 127.952 178.808C128.304 178.168 128.48 177.448 128.48 176.648C128.48 175.864 128.312 175.152 127.976 174.512C127.64 173.872 127.144 173.368 126.488 173C125.848 172.616 125.072 172.424 124.16 172.424C123.52 172.424 122.888 172.536 122.264 172.76C121.64 172.968 121.12 173.28 120.704 173.696H119.048L119.96 164.48H128.672V166.04H121.376L120.8 171.944C121.248 171.608 121.752 171.352 122.312 171.176C122.888 170.984 123.528 170.888 124.232 170.888C125.544 170.888 126.648 171.16 127.544 171.704C128.44 172.248 129.112 172.952 129.56 173.816C130.024 174.664 130.256 175.56 130.256 176.504V176.816C130.256 177.76 130.024 178.664 129.56 179.528C129.096 180.376 128.408 181.072 127.496 181.616C126.6 182.144 125.488 182.408 124.16 182.408Z" fill="#0C2759"/>
</svg>
