<svg width="220" height="260" viewBox="0 0 220 260" fill="none" xmlns="http://www.w3.org/2000/svg">
<g id="html5">
<g id="Group 174">
<g id="Group 107">
<g id="Group 99">
<rect id="Rectangle 137" x="20" y="15" width="180" height="230" rx="16" fill="#F2F7FF"/>
<g id="Group 101">
<g id="Group 12">
<path id="Vector" d="M68 44H66.9147L67.0033 45.0816L74.6726 138.721L74.7282 139.4L75.3801 139.597L109.817 150.001L110.106 150.088L110.395 150.001L144.82 139.603L145.471 139.406L145.527 138.728L153.208 45.0818L153.297 44H152.212H68Z" fill="#FF5722" stroke="#0C2759" stroke-width="2"/>
<path id="Vector_2" d="M135.58 76.6216H136.501L136.577 75.7031L137.515 64.2258L137.603 63.1443H136.518H110.106H83.6875H82.602L82.6909 64.2261L85.542 98.9572L85.6174 99.8754H86.5387H110.106H122.007L120.925 113.007L110.089 116.189L99.2867 113.014L98.555 104.126L98.4794 103.208H97.5584H86.9718H85.8866L85.9751 104.289L87.4849 122.738L87.5404 123.416L88.1923 123.613L109.799 130.142L110.116 130.238L110.42 130.128L132.013 123.613L132.665 123.417L132.721 122.738L135.614 87.4668L135.703 86.3851H134.618H110.106H97.1024L96.3036 76.6216H110.106H135.58Z" fill="#FAFAFA" stroke="#0C2759" stroke-width="2"/>
</g>
</g>
<path id="HTML5" d="M71.2751 197V179.48H73.0991V187.496H83.3231V179.48H85.1471V197H83.3231V189.128H73.0991V197H71.2751ZM94.019 197V181.136H88.547V179.48H101.315V181.136H95.843V197H94.019ZM104.72 197V179.48H107.096L112.616 191.6H113.048L118.544 179.48H120.968V197H119.144V181.88L113.96 193.304H111.56L106.4 181.952V197H104.72ZM126.447 197V179.48H128.271V195.344H136.023V197H126.447ZM144.16 197.408C142.832 197.408 141.72 197.144 140.824 196.616C139.928 196.072 139.248 195.36 138.784 194.48C138.32 193.6 138.088 192.656 138.088 191.648H139.84C139.84 192.448 140.008 193.16 140.344 193.784C140.68 194.408 141.168 194.904 141.808 195.272C142.464 195.64 143.248 195.824 144.16 195.824C145.072 195.824 145.848 195.648 146.488 195.296C147.128 194.928 147.616 194.432 147.952 193.808C148.304 193.168 148.48 192.448 148.48 191.648C148.48 190.864 148.312 190.152 147.976 189.512C147.64 188.872 147.144 188.368 146.488 188C145.848 187.616 145.072 187.424 144.16 187.424C143.52 187.424 142.888 187.536 142.264 187.76C141.64 187.968 141.12 188.28 140.704 188.696H139.048L139.96 179.48H148.672V181.04H141.376L140.8 186.944C141.248 186.608 141.752 186.352 142.312 186.176C142.888 185.984 143.528 185.888 144.232 185.888C145.544 185.888 146.648 186.16 147.544 186.704C148.44 187.248 149.112 187.952 149.56 188.816C150.024 189.664 150.256 190.56 150.256 191.504V191.816C150.256 192.76 150.024 193.664 149.56 194.528C149.096 195.376 148.408 196.072 147.496 196.616C146.6 197.144 145.488 197.408 144.16 197.408Z" fill="#0C2759"/>
</g>
</g>
</g>
</g>
</svg>
