<svg width="80" height="80" viewBox="0 0 80 80" fill="none" xmlns="http://www.w3.org/2000/svg">
<g id="in">
<g id="Group 164">
<path id="Vector" d="M53 28.3008C58.1149 28.3008 63.0203 30.4396 66.637 34.2467C70.2538 38.0539 72.2857 43.2174 72.2857 48.6015V72.2857H59.4286V48.6015C59.4286 46.8068 58.7513 45.0856 57.5457 43.8166C56.3401 42.5476 54.705 41.8346 53 41.8346C51.2951 41.8346 49.6599 42.5476 48.4543 43.8166C47.2488 45.0856 46.5715 46.8068 46.5715 48.6015V72.2857H33.7144V48.6015C33.7144 43.2174 35.7462 38.0539 39.363 34.2467C42.9798 30.4396 47.8851 28.3008 53 28.3008V28.3008Z" stroke="#868587" stroke-width="4" stroke-linecap="round" stroke-linejoin="round"/>
<path id="Vector_2" d="M20.8571 31.6841H8V72.2856H20.8571V31.6841Z" stroke="#868587" stroke-width="4" stroke-linecap="round" stroke-linejoin="round"/>
<path id="Vector_3" d="M14.4286 21.5338C17.9789 21.5338 20.8571 18.5042 20.8571 14.7669C20.8571 11.0297 17.9789 8 14.4286 8C10.8782 8 8 11.0297 8 14.7669C8 18.5042 10.8782 21.5338 14.4286 21.5338Z" stroke="#868587" stroke-width="4" stroke-linecap="round" stroke-linejoin="round"/>
</g>
</g>
</svg>
