<svg width="220" height="260" viewBox="0 0 220 260" fill="none" xmlns="http://www.w3.org/2000/svg">
<g id="ingles">
<g id="Group 174">
<g id="Group 119">
<rect id="Rectangle 139" x="20" y="15" width="180" height="230" rx="16" fill="#F2F7FF"/>
<g id="Group 25">
<path id="INGL&#195;&#138;S" d="M67.0809 195V177.48H68.9049V195H67.0809ZM74.4157 195V177.48H77.4637L87.0637 193.344H87.3517V177.48H89.1037V195H86.0317L76.4317 179.136H76.1437V195H74.4157ZM102.228 195.408C100.788 195.408 99.5079 195.168 98.3879 194.688C97.2839 194.208 96.3479 193.552 95.5799 192.72C94.8279 191.872 94.2599 190.904 93.8759 189.816C93.4919 188.728 93.2999 187.568 93.2999 186.336V185.904C93.2999 184.784 93.4839 183.696 93.8519 182.64C94.2359 181.584 94.7879 180.632 95.5079 179.784C96.2439 178.936 97.1399 178.264 98.1959 177.768C99.2519 177.272 100.468 177.024 101.844 177.024C103.268 177.024 104.532 177.296 105.636 177.84C106.74 178.368 107.628 179.112 108.3 180.072C108.972 181.032 109.372 182.144 109.5 183.408H107.652C107.524 182.384 107.18 181.52 106.62 180.816C106.076 180.112 105.388 179.584 104.556 179.232C103.724 178.88 102.82 178.704 101.844 178.704C100.468 178.704 99.2759 179.024 98.2679 179.664C97.2759 180.304 96.5079 181.184 95.9639 182.304C95.4199 183.424 95.1479 184.704 95.1479 186.144C95.1479 187.664 95.4279 189 95.9879 190.152C96.5479 191.288 97.3559 192.176 98.4119 192.816C99.4679 193.456 100.74 193.776 102.228 193.776C103.348 193.776 104.364 193.592 105.276 193.224C106.204 192.856 106.972 192.36 107.58 191.736V188.304H101.58V186.768H110.868V188.304H109.308V192.288C108.556 193.264 107.58 194.032 106.38 194.592C105.18 195.136 103.796 195.408 102.228 195.408ZM114.517 195V177.48H116.341V193.344H124.093V195H114.517ZM127.455 195V177.48H137.343V179.136H129.279V185.28H136.791V186.912H129.279V193.344H137.607V195H127.455ZM128.415 175.968L131.343 172.248H133.623L136.575 175.968H134.895L132.663 173.184H132.255L130.071 175.968H128.415ZM147.321 195.408C145.849 195.408 144.609 195.176 143.601 194.712C142.593 194.232 141.825 193.576 141.297 192.744C140.785 191.912 140.529 190.96 140.529 189.888H142.353C142.353 190.56 142.513 191.192 142.833 191.784C143.169 192.36 143.697 192.832 144.417 193.2C145.153 193.552 146.121 193.728 147.321 193.728C148.985 193.728 150.217 193.384 151.017 192.696C151.833 191.992 152.241 191.136 152.241 190.128C152.241 189.28 151.905 188.576 151.233 188.016C150.577 187.44 149.585 187.096 148.257 186.984L146.241 186.792C144.737 186.664 143.537 186.2 142.641 185.4C141.761 184.584 141.321 183.512 141.321 182.184C141.321 181.176 141.561 180.288 142.041 179.52C142.521 178.736 143.201 178.128 144.081 177.696C144.977 177.248 146.049 177.024 147.297 177.024C148.561 177.024 149.641 177.256 150.537 177.72C151.449 178.168 152.145 178.792 152.625 179.592C153.105 180.392 153.345 181.32 153.345 182.376H151.521C151.521 181.736 151.377 181.136 151.089 180.576C150.801 180.016 150.345 179.568 149.721 179.232C149.097 178.88 148.289 178.704 147.297 178.704C146.337 178.704 145.553 178.864 144.945 179.184C144.337 179.504 143.881 179.928 143.577 180.456C143.289 180.984 143.145 181.56 143.145 182.184C143.145 182.984 143.417 183.656 143.961 184.2C144.521 184.728 145.337 185.032 146.409 185.112L148.425 185.304C150.201 185.448 151.585 185.952 152.577 186.816C153.569 187.664 154.065 188.768 154.065 190.128C154.065 191.152 153.785 192.064 153.225 192.864C152.681 193.664 151.905 194.288 150.897 194.736C149.889 195.184 148.697 195.408 147.321 195.408Z" fill="#0C2759"/>
</g>
<g id="Group 113">
<path id="Vector" d="M110.685 48.0045L110.673 48.9135L110.685 48.0045C81.9069 47.6278 58.5378 71.0785 59.0069 99.8474C59.4621 127.748 82.4865 150.209 110.389 149.999C118.441 149.938 126.043 148 132.795 144.62L145.811 144.592C150.498 144.582 154.29 140.774 154.279 136.086L154.254 124.34C158.48 116.975 160.932 108.462 160.999 99.3821C161.203 71.4195 138.647 48.3711 110.685 48.0045Z" fill="#103D8D" stroke="#0C2759" stroke-width="2"/>
<path id="Vector_2" d="M105.298 49.22C79.6075 51.6159 59.5763 73.4401 60.0068 99.8311C60.4249 125.468 80.2844 146.423 105.298 148.779V49.22H105.298Z" fill="#103D8D"/>
<path id="Vector_3" d="M157.895 113.37C159.229 108.933 159.963 104.238 159.998 99.3756C160.036 94.2549 159.294 89.3028 157.885 84.6317H131.586L148.788 67.5171C146.664 64.9051 144.28 62.5116 141.68 60.3725L124.442 77.5235V51.1327C120.073 49.8091 115.454 49.0681 110.672 49.0054C105.41 48.9364 100.334 49.6806 95.5581 51.119V77.5239L78.2893 60.3423C75.6871 62.4792 73.3054 64.8739 71.1816 67.4868L88.4135 84.6317H62.0953C60.6566 89.435 59.9206 94.5418 60.0068 99.8317C60.0834 104.53 60.813 109.071 62.1078 113.37H88.4137L71.2102 130.486C73.3366 133.098 75.7207 135.49 78.3215 137.627L95.5581 120.478V146.864C100.253 148.288 105.232 149.038 110.381 148.999C115.27 148.962 119.987 148.217 124.442 146.871V120.478L147.48 143.4C150.808 142.633 153.288 139.65 153.28 136.09L153.277 134.952L131.586 113.37H157.895V113.37V113.37Z" fill="#E3E3E3"/>
<path id="Vector_4" d="M106.193 148.853V49.1454C102.523 49.4222 98.9636 50.0927 95.5581 51.1183V77.5231L78.2893 60.3415C75.6871 62.4784 73.3054 64.8731 71.1816 67.486L88.4135 84.6309H62.0953C60.6566 89.4342 59.9206 94.5411 60.0068 99.8309C60.0834 104.529 60.813 109.071 62.1078 113.369H88.4137L71.2102 130.486C73.3366 133.097 75.7207 135.49 78.3215 137.627L95.5581 120.477V146.864C98.9673 147.898 102.527 148.574 106.193 148.853Z" fill="white"/>
<path id="Vector_5" d="M159.339 90.8948H118.147V49.6671C115.71 49.2647 113.215 49.0378 110.673 49.0044C107.666 48.9649 104.719 49.1923 101.855 49.662V90.8946H60.6558C60.1827 93.7975 59.9579 96.7836 60.0078 99.8309C60.0482 102.304 60.271 104.732 60.6603 107.105H101.854V148.332C104.629 148.791 107.478 149.02 110.382 148.998C113.025 148.978 115.618 148.75 118.147 148.332V107.105H159.342C159.755 104.587 159.98 102.005 159.999 99.375C160.02 96.4879 159.794 93.6545 159.339 90.8948Z" fill="#AA315E"/>
<path id="Vector_6" d="M110.001 49.0005C107.227 49.0007 104.505 49.2278 101.854 49.6624V90.895H60.6558C60.1827 93.7979 59.9579 96.784 60.0078 99.8313C60.0482 102.304 60.271 104.732 60.6603 107.105H101.854V148.333C104.507 148.771 107.229 149 110.001 149L110.001 49.0005Z" fill="#DF3F7C"/>
</g>
</g>
</g>
</g>
</svg>
