<svg width="150" height="200" viewBox="0 0 180 230" fill="none" xmlns="http://www.w3.org/2000/svg">
<rect width="180" height="230" rx="16" fill="#F2F7FF"/>
<path d="M47.0809 180V162.48H48.9049V180H47.0809ZM54.4157 180V162.48H57.4637L67.0637 178.344H67.3517V162.48H69.1037V180H66.0317L56.4317 164.136H56.1437V180H54.4157ZM82.2279 180.408C80.7879 180.408 79.5079 180.168 78.3879 179.688C77.2839 179.208 76.3479 178.552 75.5799 177.72C74.8279 176.872 74.2599 175.904 73.8759 174.816C73.4919 173.728 73.2999 172.568 73.2999 171.336V170.904C73.2999 169.784 73.4839 168.696 73.8519 167.64C74.2359 166.584 74.7879 165.632 75.5079 164.784C76.2439 163.936 77.1399 163.264 78.1959 162.768C79.2519 162.272 80.4679 162.024 81.8439 162.024C83.2679 162.024 84.5319 162.296 85.6359 162.84C86.7399 163.368 87.6279 164.112 88.2999 165.072C88.9719 166.032 89.3719 167.144 89.4999 168.408H87.6519C87.5239 167.384 87.1799 166.52 86.6199 165.816C86.0759 165.112 85.3879 164.584 84.5559 164.232C83.7239 163.88 82.8199 163.704 81.8439 163.704C80.4679 163.704 79.2759 164.024 78.2679 164.664C77.2759 165.304 76.5079 166.184 75.9639 167.304C75.4199 168.424 75.1479 169.704 75.1479 171.144C75.1479 172.664 75.4279 174 75.9879 175.152C76.5479 176.288 77.3559 177.176 78.4119 177.816C79.4679 178.456 80.7399 178.776 82.2279 178.776C83.3479 178.776 84.3639 178.592 85.2759 178.224C86.2039 177.856 86.9719 177.36 87.5799 176.736V173.304H81.5799V171.768H90.8679V173.304H89.3079V177.288C88.5559 178.264 87.5799 179.032 86.3799 179.592C85.1799 180.136 83.7959 180.408 82.2279 180.408ZM94.5173 180V162.48H96.3413V178.344H104.093V180H94.5173ZM107.455 180V162.48H117.343V164.136H109.279V170.28H116.791V171.912H109.279V178.344H117.607V180H107.455ZM108.415 160.968L111.343 157.248H113.623L116.575 160.968H114.895L112.663 158.184H112.255L110.071 160.968H108.415ZM127.321 180.408C125.849 180.408 124.609 180.176 123.601 179.712C122.593 179.232 121.825 178.576 121.297 177.744C120.785 176.912 120.529 175.96 120.529 174.888H122.353C122.353 175.56 122.513 176.192 122.833 176.784C123.169 177.36 123.697 177.832 124.417 178.2C125.153 178.552 126.121 178.728 127.321 178.728C128.985 178.728 130.217 178.384 131.017 177.696C131.833 176.992 132.241 176.136 132.241 175.128C132.241 174.28 131.905 173.576 131.233 173.016C130.577 172.44 129.585 172.096 128.257 171.984L126.241 171.792C124.737 171.664 123.537 171.2 122.641 170.4C121.761 169.584 121.321 168.512 121.321 167.184C121.321 166.176 121.561 165.288 122.041 164.52C122.521 163.736 123.201 163.128 124.081 162.696C124.977 162.248 126.049 162.024 127.297 162.024C128.561 162.024 129.641 162.256 130.537 162.72C131.449 163.168 132.145 163.792 132.625 164.592C133.105 165.392 133.345 166.32 133.345 167.376H131.521C131.521 166.736 131.377 166.136 131.089 165.576C130.801 165.016 130.345 164.568 129.721 164.232C129.097 163.88 128.289 163.704 127.297 163.704C126.337 163.704 125.553 163.864 124.945 164.184C124.337 164.504 123.881 164.928 123.577 165.456C123.289 165.984 123.145 166.56 123.145 167.184C123.145 167.984 123.417 168.656 123.961 169.2C124.521 169.728 125.337 170.032 126.409 170.112L128.425 170.304C130.201 170.448 131.585 170.952 132.577 171.816C133.569 172.664 134.065 173.768 134.065 175.128C134.065 176.152 133.785 177.064 133.225 177.864C132.681 178.664 131.905 179.288 130.897 179.736C129.889 180.184 128.697 180.408 127.321 180.408Z" fill="#0C2759"/>
<path d="M39.0069 84.8474L40.0068 84.8311L39.0069 84.8474C39.4621 112.748 62.4865 135.209 90.3887 134.999C98.4412 134.938 106.043 133 112.795 129.62L125.811 129.592C130.498 129.582 134.29 125.774 134.279 121.086L134.254 109.34C138.48 101.975 140.932 93.4624 140.999 84.3821C141.203 56.4195 118.647 33.3711 90.6846 33.0045L90.6715 34.0044L90.6846 33.0045C61.9069 32.6278 38.5378 56.0785 39.0069 84.8474Z" fill="#103D8D" stroke="#0C2759" stroke-width="2"/>
<path d="M85.2983 34.22C59.6075 36.6159 39.5763 58.4401 40.0068 84.8311C40.4249 110.468 60.2844 131.423 85.2981 133.779V34.22H85.2983Z" fill="#103D8D"/>
<path d="M137.895 98.3699C139.229 93.9328 139.963 89.2379 139.998 84.3756C140.036 79.2549 139.294 74.3028 137.885 69.6317H111.586L128.788 52.5171C126.664 49.9051 124.28 47.5116 121.68 45.3725L104.442 62.5235V36.1327C100.073 34.8091 95.4537 34.0681 90.6719 34.0054C85.4104 33.9364 80.3336 34.6806 75.5581 36.119V62.5239L58.2893 45.3423C55.6871 47.4792 53.3054 49.8739 51.1816 52.4868L68.4135 69.6317H42.0953C40.6566 74.435 39.9206 79.5418 40.0068 84.8317C40.0834 89.5301 40.813 94.0715 42.1078 98.3697H68.4137L51.2102 115.486C53.3366 118.098 55.7207 120.49 58.3215 122.627L75.5581 105.478V131.864C80.2527 133.288 85.2322 134.038 90.3814 133.999C95.2697 133.962 99.9865 133.217 104.442 131.871V105.478L127.48 128.4C130.808 127.633 133.288 124.65 133.28 121.09L133.277 119.952L111.586 98.3701H137.895V98.3699Z" fill="#E3E3E3"/>
<path d="M86.1927 133.853V34.1454C82.5228 34.4222 78.9636 35.0927 75.5581 36.1183V62.5231L58.2893 45.3415C55.6871 47.4784 53.3054 49.8731 51.1816 52.486L68.4135 69.6309H42.0953C40.6566 74.4342 39.9206 79.5411 40.0068 84.8309C40.0834 89.5293 40.813 94.0707 42.1078 98.3689H68.4137L51.2102 115.486C53.3366 118.097 55.7207 120.49 58.3215 122.627L75.5581 105.477V131.864C78.9673 132.898 82.5271 133.574 86.1927 133.853Z" fill="white"/>
<path d="M139.339 75.8947H98.1474V34.6671C95.7102 34.2647 93.2146 34.0378 90.6727 34.0044C87.6657 33.9649 84.719 34.1923 81.8546 34.662V75.8946H40.6558C40.1827 78.7975 39.9579 81.7836 40.0078 84.8309C40.0482 87.3035 40.271 89.732 40.6603 92.1051H81.8542V133.332C84.6289 133.791 87.4783 134.02 90.3818 133.998C93.0252 133.978 95.618 133.75 98.1472 133.332V92.1055H139.342C139.755 89.5869 139.98 87.0055 139.999 84.375C140.02 81.4879 139.794 78.6545 139.339 75.8947Z" fill="#AA315E"/>
<path d="M90.001 34.0005C87.2266 34.0007 84.5054 34.2278 81.8544 34.6624V75.895H40.6558C40.1827 78.7979 39.9579 81.784 40.0078 84.8313C40.0482 87.3039 40.271 89.7324 40.6603 92.1055H81.8542V133.333C84.5074 133.771 87.229 134 90.0006 134L90.001 34.0005Z" fill="#DF3F7C"/>
</svg>
