<svg width="80" height="80" viewBox="0 0 80 80" fill="none" xmlns="http://www.w3.org/2000/svg">
<g id="insta">
<path id="Vector" d="M56.2143 8H24.0714C15.1954 8 8 15.1954 8 24.0714V56.2143C8 65.0903 15.1954 72.2857 24.0714 72.2857H56.2143C65.0903 72.2857 72.2857 65.0903 72.2857 56.2143V24.0714C72.2857 15.1954 65.0903 8 56.2143 8Z" stroke="#868587" stroke-width="4" stroke-linecap="round" stroke-linejoin="round"/>
<path id="Vector_2" d="M53.0005 38.118C53.3972 40.793 52.9403 43.5251 51.6947 45.9255C50.4492 48.3259 48.4785 50.2725 46.0629 51.4883C43.6473 52.7042 40.9098 53.1274 38.2398 52.6977C35.5699 52.2681 33.1033 51.0075 31.1911 49.0953C29.2788 47.183 28.0182 44.7165 27.5886 42.0465C27.159 39.3765 27.5822 36.639 28.798 34.2234C30.0138 31.8078 31.9604 29.8371 34.3608 28.5916C36.7613 27.3461 39.4933 26.8891 42.1684 27.2858C44.8971 27.6904 47.4233 28.9619 49.3738 30.9125C51.3244 32.8631 52.5959 35.3893 53.0005 38.118Z" stroke="#868587" stroke-width="4" stroke-linecap="round" stroke-linejoin="round"/>
</g>
</svg>
