<svg width="150" height="200" viewBox="0 0 180 230" fill="none" xmlns="http://www.w3.org/2000/svg">
<rect width="180" height="230" rx="16" fill="#F2F7FF"/>
<path d="M42 27H41V28V132.044V133.044H42H138.242H139.242V132.044V28V27H138.242H42Z" fill="#F7DF1E" stroke="#0C2759" stroke-width="2"/>
<mask id="path-3-outside-1" maskUnits="userSpaceOnUse" x="65.3055" y="73.7659" width="32" height="53" fill="black">
<rect fill="white" x="65.3055" y="73.7659" width="32" height="53"/>
<path d="M67.3057 114.946L74.6708 110.128C76.0917 112.851 77.3842 115.155 80.4846 115.155C83.4565 115.155 85.3302 113.899 85.3302 109.01V75.7659H94.3745V109.149C94.3745 119.275 88.8835 123.885 80.8723 123.885C73.6372 123.885 69.4374 119.834 67.3055 114.945"/>
</mask>
<path d="M67.3057 114.946L74.6708 110.128C76.0917 112.851 77.3842 115.155 80.4846 115.155C83.4565 115.155 85.3302 113.899 85.3302 109.01V75.7659H94.3745V109.149C94.3745 119.275 88.8835 123.885 80.8723 123.885C73.6372 123.885 69.4374 119.834 67.3055 114.945" fill="#22A6B3"/>
<path d="M74.6708 110.128L76.444 109.203L75.423 107.246L73.5759 108.454L74.6708 110.128ZM85.3302 75.7659V73.7659H83.3302V75.7659H85.3302ZM94.3745 75.7659H96.3745V73.7659H94.3745V75.7659ZM68.4007 116.62L75.7658 111.801L73.5759 108.454L66.2107 113.273L68.4007 116.62ZM72.8976 111.053C73.5842 112.369 74.387 113.894 75.5118 115.055C76.737 116.319 78.3386 117.155 80.4846 117.155V113.155C79.5302 113.155 78.9354 112.84 78.3841 112.271C77.7322 111.598 77.1784 110.61 76.444 109.203L72.8976 111.053ZM80.4846 117.155C82.2082 117.155 84.1092 116.795 85.5027 115.26C86.8429 113.784 87.3302 111.631 87.3302 109.01H83.3302C83.3302 111.278 82.8807 112.198 82.541 112.572C82.2548 112.887 81.733 113.155 80.4846 113.155V117.155ZM87.3302 109.01V75.7659H83.3302V109.01H87.3302ZM85.3302 77.7659H94.3745V73.7659H85.3302V77.7659ZM92.3745 75.7659V109.149H96.3745V75.7659H92.3745ZM92.3745 109.149C92.3745 113.861 91.1021 116.976 89.2005 118.913C87.3012 120.848 84.5008 121.885 80.8723 121.885V125.885C85.255 125.885 89.2057 124.617 92.0548 121.715C94.9015 118.816 96.3745 114.563 96.3745 109.149H92.3745ZM80.8723 121.885C74.5905 121.885 71.0209 118.462 69.1388 114.146L65.4723 115.745C67.8538 121.206 72.684 125.885 80.8723 125.885V121.885Z" fill="#0C2759" mask="url(#path-3-outside-1)"/>
<mask id="path-5-outside-2" maskUnits="userSpaceOnUse" x="97.2867" y="73.2072" width="36" height="53" fill="black">
<rect fill="white" x="97.2867" y="73.2072" width="36" height="53"/>
<path d="M99.2867 113.899L106.651 109.289C108.59 112.712 111.109 115.226 115.566 115.226C119.314 115.226 121.704 113.2 121.704 110.407C121.704 107.054 119.249 105.867 115.114 103.912L112.854 102.864C106.328 99.8612 102 96.0898 102 88.1279C102 80.7946 107.168 75.2072 115.244 75.2072C120.993 75.2072 125.128 77.3724 128.099 83.0296L121.058 87.9181C119.507 84.9152 117.828 83.7282 115.244 83.7282C112.595 83.7282 110.915 85.544 110.915 87.9181C110.915 90.8515 112.595 92.0391 116.471 93.8551L118.732 94.9026C126.42 98.4647 130.748 102.096 130.748 110.267C130.748 119.067 124.353 123.886 115.76 123.886C107.362 123.886 101.935 119.556 99.2869 113.899"/>
</mask>
<path d="M99.2867 113.899L106.651 109.289C108.59 112.712 111.109 115.226 115.566 115.226C119.314 115.226 121.704 113.2 121.704 110.407C121.704 107.054 119.249 105.867 115.114 103.912L112.854 102.864C106.328 99.8612 102 96.0898 102 88.1279C102 80.7946 107.168 75.2072 115.244 75.2072C120.993 75.2072 125.128 77.3724 128.099 83.0296L121.058 87.9181C119.507 84.9152 117.828 83.7282 115.244 83.7282C112.595 83.7282 110.915 85.544 110.915 87.9181C110.915 90.8515 112.595 92.0391 116.471 93.8551L118.732 94.9026C126.42 98.4647 130.748 102.096 130.748 110.267C130.748 119.067 124.353 123.886 115.76 123.886C107.362 123.886 101.935 119.556 99.2869 113.899" fill="#22A6B3"/>
<path d="M106.651 109.289L108.391 108.304L107.361 106.485L105.59 107.594L106.651 109.289ZM115.114 103.912L115.969 102.104L115.962 102.101L115.956 102.098L115.114 103.912ZM112.854 102.864L113.695 101.049L113.69 101.047L112.854 102.864ZM128.099 83.0296L129.24 84.6725L130.692 83.6645L129.87 82.0996L128.099 83.0296ZM121.058 87.9181L119.281 88.8357L120.326 90.8606L122.198 89.5611L121.058 87.9181ZM116.471 93.8551L115.622 95.6661L115.63 95.6697L116.471 93.8551ZM118.732 94.9026L119.573 93.0879L119.573 93.0879L118.732 94.9026ZM100.348 115.594L107.712 110.985L105.59 107.594L98.2256 112.204L100.348 115.594ZM104.911 110.275C105.95 112.109 107.231 113.86 108.976 115.15C110.761 116.469 112.924 117.226 115.566 117.226V113.226C113.751 113.226 112.427 112.726 111.353 111.933C110.239 111.109 109.291 109.892 108.391 108.304L104.911 110.275ZM115.566 117.226C117.786 117.226 119.795 116.626 121.292 115.424C122.821 114.196 123.704 112.423 123.704 110.407H119.704C119.704 111.184 119.391 111.82 118.788 112.304C118.154 112.813 117.094 113.226 115.566 113.226V117.226ZM123.704 110.407C123.704 108.101 122.799 106.423 121.254 105.111C119.878 103.942 117.952 103.041 115.969 102.104L114.259 105.72C116.412 106.738 117.78 107.408 118.665 108.16C119.381 108.768 119.704 109.36 119.704 110.407H123.704ZM115.956 102.098L113.695 101.049L112.012 104.678L114.273 105.726L115.956 102.098ZM113.69 101.047C110.533 99.5944 108.141 98.0556 106.526 96.0871C104.958 94.1762 104 91.7079 104 88.1279H99.9997C99.9997 92.5098 101.205 95.9081 103.433 98.6241C105.614 101.282 108.649 103.131 112.018 104.681L113.69 101.047ZM104 88.1279C104 84.9393 105.117 82.2324 107.011 80.3281C108.9 78.4292 111.683 77.2072 115.244 77.2072V73.2072C110.729 73.2072 106.889 74.7788 104.175 77.507C101.467 80.2297 99.9997 83.9832 99.9997 88.1279H104ZM115.244 77.2072C117.866 77.2072 119.962 77.6996 121.7 78.7211C123.433 79.74 124.975 81.3821 126.329 83.9596L129.87 82.0996C128.252 79.0199 126.241 76.7508 123.727 75.2728C121.217 73.7974 118.371 73.2072 115.244 73.2072V77.2072ZM126.959 81.3867L119.917 86.2752L122.198 89.5611L129.24 84.6725L126.959 81.3867ZM122.835 87.0005C121.985 85.3542 120.998 84.0007 119.704 83.0722C118.365 82.1113 116.87 81.7282 115.244 81.7282V85.7282C116.202 85.7282 116.838 85.9385 117.372 86.322C117.952 86.7377 118.58 87.4792 119.281 88.8357L122.835 87.0005ZM115.244 81.7282C113.447 81.7282 111.838 82.3535 110.672 83.5183C109.512 84.6782 108.915 86.2507 108.915 87.9181H112.915C112.915 87.2114 113.158 86.6889 113.5 86.3474C113.837 86.0107 114.392 85.7282 115.244 85.7282V81.7282ZM108.915 87.9181C108.915 89.8599 109.509 91.4237 110.836 92.7307C112.017 93.8936 113.71 94.7699 115.622 95.6661L117.319 92.044C115.356 91.1242 114.271 90.4988 113.643 89.8805C113.161 89.4065 112.915 88.9098 112.915 87.9181H108.915ZM115.63 95.6697L117.891 96.7173L119.573 93.0879L117.312 92.0404L115.63 95.6697ZM117.891 96.7173C121.676 98.4708 124.354 100.123 126.107 102.161C127.789 104.116 128.748 106.58 128.748 110.267H132.748C132.748 105.783 131.543 102.346 129.139 99.552C126.806 96.8406 123.476 94.8965 119.573 93.0879L117.891 96.7173ZM128.748 110.267C128.748 114.145 127.36 116.974 125.17 118.862C122.943 120.782 119.699 121.886 115.76 121.886V125.886C120.414 125.886 124.664 124.581 127.782 121.891C130.939 119.17 132.748 115.19 132.748 110.267H128.748ZM115.76 121.886C108.177 121.886 103.434 118.041 101.098 113.051L97.4755 114.747C100.436 121.071 106.547 125.886 115.76 125.886V121.886Z" fill="#0C2759" mask="url(#path-5-outside-2)"/>
<path d="M19.9433 183.408C18.7913 183.408 17.7673 183.176 16.8713 182.712C15.9753 182.232 15.2713 181.536 14.7593 180.624C14.2633 179.712 14.0153 178.592 14.0153 177.264V176.64H15.8393V177.576C15.8393 178.888 16.2073 179.912 16.9433 180.648C17.6953 181.368 18.6953 181.728 19.9433 181.728C21.2073 181.728 22.2073 181.368 22.9433 180.648C23.6953 179.912 24.0713 178.888 24.0713 177.576V167.136H16.3433V165.48H25.8953V177.264C25.8953 178.592 25.6393 179.712 25.1273 180.624C24.6313 181.536 23.9353 182.232 23.0393 182.712C22.1433 183.176 21.1113 183.408 19.9433 183.408ZM28.2607 183L34.7168 165.48H37.9808L44.6528 183H42.7808L40.6688 177.432H32.1008L30.0848 183H28.2607ZM32.7248 175.776H40.0448L36.7568 167.136H35.8688L32.7248 175.776ZM51.3478 183L45.0838 165.48H46.9558L52.5718 181.344H53.4358L58.6678 165.48H60.5158L54.6358 183H51.3478ZM61.1436 183L67.5996 165.48H70.8636L77.5356 183H75.6636L73.5516 177.432H64.9836L62.9676 183H61.1436ZM65.6076 175.776H72.9276L69.6396 167.136H68.7516L65.6076 175.776ZM86.5161 183.408C85.0441 183.408 83.8041 183.176 82.7961 182.712C81.7881 182.232 81.0201 181.576 80.4921 180.744C79.9801 179.912 79.7241 178.96 79.7241 177.888H81.5481C81.5481 178.56 81.7081 179.192 82.0281 179.784C82.3641 180.36 82.8921 180.832 83.6121 181.2C84.3481 181.552 85.3161 181.728 86.5161 181.728C88.1801 181.728 89.4121 181.384 90.2121 180.696C91.0281 179.992 91.4361 179.136 91.4361 178.128C91.4361 177.28 91.1001 176.576 90.4281 176.016C89.7721 175.44 88.7801 175.096 87.4521 174.984L85.4361 174.792C83.9321 174.664 82.7321 174.2 81.8361 173.4C80.9561 172.584 80.5161 171.512 80.5161 170.184C80.5161 169.176 80.7561 168.288 81.2361 167.52C81.7161 166.736 82.3961 166.128 83.2761 165.696C84.1721 165.248 85.2441 165.024 86.4921 165.024C87.7561 165.024 88.8361 165.256 89.7321 165.72C90.6441 166.168 91.3401 166.792 91.8201 167.592C92.3001 168.392 92.5401 169.32 92.5401 170.376H90.7161C90.7161 169.736 90.5721 169.136 90.2841 168.576C89.9961 168.016 89.5401 167.568 88.9161 167.232C88.2921 166.88 87.4841 166.704 86.4921 166.704C85.5321 166.704 84.7481 166.864 84.1401 167.184C83.5321 167.504 83.0761 167.928 82.7721 168.456C82.4841 168.984 82.3401 169.56 82.3401 170.184C82.3401 170.984 82.6121 171.656 83.1561 172.2C83.7161 172.728 84.5321 173.032 85.6041 173.112L87.6201 173.304C89.3961 173.448 90.7801 173.952 91.7721 174.816C92.7641 175.664 93.2601 176.768 93.2601 178.128C93.2601 179.152 92.9801 180.064 92.4201 180.864C91.8761 181.664 91.1001 182.288 90.0921 182.736C89.0841 183.184 87.8921 183.408 86.5161 183.408ZM105.098 183.408C103.53 183.408 102.186 183.136 101.066 182.592C99.9624 182.032 99.0584 181.304 98.3544 180.408C97.6664 179.512 97.1624 178.544 96.8424 177.504C96.5224 176.448 96.3624 175.424 96.3624 174.432V173.976C96.3624 172.904 96.5224 171.84 96.8424 170.784C97.1784 169.728 97.6904 168.768 98.3784 167.904C99.0824 167.024 99.9784 166.328 101.066 165.816C102.154 165.288 103.442 165.024 104.93 165.024C106.434 165.024 107.73 165.288 108.818 165.816C109.922 166.344 110.802 167.088 111.458 168.048C112.114 169.008 112.514 170.128 112.658 171.408H110.81C110.666 170.368 110.322 169.504 109.778 168.816C109.25 168.112 108.562 167.584 107.714 167.232C106.882 166.88 105.954 166.704 104.93 166.704C103.458 166.704 102.218 167.048 101.21 167.736C100.218 168.408 99.4664 169.312 98.9544 170.448C98.4584 171.584 98.2104 172.84 98.2104 174.216C98.2104 175.192 98.3544 176.128 98.6424 177.024C98.9304 177.92 99.3544 178.728 99.9144 179.448C100.49 180.152 101.21 180.712 102.074 181.128C102.938 181.528 103.946 181.728 105.098 181.728C106.698 181.728 108.042 181.328 109.13 180.528C110.218 179.712 110.89 178.544 111.146 177.024H112.994C112.818 178.224 112.402 179.312 111.746 180.288C111.09 181.248 110.202 182.008 109.082 182.568C107.978 183.128 106.65 183.408 105.098 183.408ZM116.689 183V165.408H122.161C124.097 165.408 125.593 165.864 126.649 166.776C127.705 167.688 128.233 169 128.233 170.712V171.048C128.233 172.392 127.897 173.496 127.225 174.36C126.569 175.208 125.625 175.792 124.393 176.112L129.793 183H127.561L122.425 176.352C122.345 176.352 122.257 176.352 122.161 176.352H118.513V183H116.689ZM122.473 167.016H118.513V174.72H122.473C123.769 174.72 124.737 174.352 125.377 173.616C126.033 172.88 126.361 171.968 126.361 170.88C126.361 169.776 126.033 168.856 125.377 168.12C124.737 167.384 123.769 167.016 122.473 167.016ZM133.214 183V165.48H135.038V183H133.214ZM140.549 183V165.408H145.661C147.069 165.408 148.229 165.64 149.141 166.104C150.069 166.568 150.757 167.208 151.205 168.024C151.669 168.84 151.901 169.776 151.901 170.832V171.168C151.901 172.224 151.669 173.16 151.205 173.976C150.757 174.792 150.069 175.432 149.141 175.896C148.229 176.36 147.069 176.592 145.661 176.592H142.373V183H140.549ZM145.973 167.016H142.373V174.984H145.973C146.917 174.984 147.685 174.808 148.277 174.456C148.869 174.104 149.309 173.624 149.597 173.016C149.885 172.408 150.029 171.736 150.029 171C150.029 169.88 149.701 168.936 149.045 168.168C148.405 167.4 147.381 167.016 145.973 167.016ZM159.003 183V167.136H153.531V165.48H166.299V167.136H160.827V183H159.003Z" fill="#0C2759"/>
</svg>
