<svg width="220" height="260" viewBox="0 0 220 260" fill="none" xmlns="http://www.w3.org/2000/svg">
<g id="javascript" clip-path="url(#clip0)">
<g id="Group 174">
<g id="Group 110">
<rect id="Rectangle 139" x="20" y="15" width="180" height="230" rx="16" fill="#F2F7FF"/>
<g id="Group">
<path id="Vector" d="M62 44H61V45V149.044V150.044H62H158.242H159.242V149.044V45V44H158.242H62Z" fill="#F7DF1E" stroke="#0C2759" stroke-width="2"/>
<g id="Vector_2">
<mask id="path-3-outside-1" maskUnits="userSpaceOnUse" x="85.3055" y="90.7659" width="32" height="53" fill="black">
<rect fill="white" x="85.3055" y="90.7659" width="32" height="53"/>
<path d="M87.3057 131.946L94.6708 127.128C96.0917 129.851 97.3842 132.155 100.485 132.155C103.457 132.155 105.33 130.899 105.33 126.01V92.7659H114.375V126.149C114.375 136.275 108.884 140.885 100.872 140.885C93.6372 140.885 89.4374 136.834 87.3055 131.945"/>
</mask>
<path d="M87.3057 131.946L94.6708 127.128C96.0917 129.851 97.3842 132.155 100.485 132.155C103.457 132.155 105.33 130.899 105.33 126.01V92.7659H114.375V126.149C114.375 136.275 108.884 140.885 100.872 140.885C93.6372 140.885 89.4374 136.834 87.3055 131.945" fill="#22A6B3"/>
<path d="M94.6708 127.128L96.444 126.203L95.423 124.246L93.5759 125.454L94.6708 127.128ZM105.33 92.7659V90.7659H103.33V92.7659H105.33ZM114.375 92.7659H116.375V90.7659H114.375V92.7659ZM88.4007 133.62L95.7658 128.801L93.5759 125.454L86.2107 130.273L88.4007 133.62ZM92.8976 128.053C93.5842 129.369 94.387 130.894 95.5118 132.055C96.737 133.319 98.3386 134.155 100.485 134.155V130.155C99.5302 130.155 98.9354 129.84 98.3841 129.271C97.7322 128.598 97.1784 127.61 96.444 126.203L92.8976 128.053ZM100.485 134.155C102.208 134.155 104.109 133.795 105.503 132.26C106.843 130.784 107.33 128.631 107.33 126.01H103.33C103.33 128.278 102.881 129.198 102.541 129.572C102.255 129.887 101.733 130.155 100.485 130.155V134.155ZM107.33 126.01V92.7659H103.33V126.01H107.33ZM105.33 94.7659H114.375V90.7659H105.33V94.7659ZM112.375 92.7659V126.149H116.375V92.7659H112.375ZM112.375 126.149C112.375 130.861 111.102 133.976 109.2 135.913C107.301 137.848 104.501 138.885 100.872 138.885V142.885C105.255 142.885 109.206 141.617 112.055 138.715C114.901 135.816 116.375 131.563 116.375 126.149H112.375ZM100.872 138.885C94.5905 138.885 91.0209 135.462 89.1388 131.146L85.4723 132.745C87.8538 138.206 92.684 142.885 100.872 142.885V138.885Z" fill="#0C2759" mask="url(#path-3-outside-1)"/>
</g>
<g id="Vector_3">
<mask id="path-5-outside-2" maskUnits="userSpaceOnUse" x="117.287" y="90.2072" width="36" height="53" fill="black">
<rect fill="white" x="117.287" y="90.2072" width="36" height="53"/>
<path d="M119.287 130.899L126.651 126.289C128.59 129.712 131.109 132.226 135.566 132.226C139.314 132.226 141.704 130.2 141.704 127.407C141.704 124.054 139.249 122.867 135.114 120.912L132.854 119.864C126.328 116.861 122 113.09 122 105.128C122 97.7946 127.168 92.2072 135.244 92.2072C140.993 92.2072 145.128 94.3724 148.099 100.03L141.058 104.918C139.507 101.915 137.828 100.728 135.244 100.728C132.595 100.728 130.915 102.544 130.915 104.918C130.915 107.852 132.595 109.039 136.471 110.855L138.732 111.903C146.42 115.465 150.748 119.096 150.748 127.267C150.748 136.067 144.353 140.886 135.76 140.886C127.362 140.886 121.935 136.556 119.287 130.899"/>
</mask>
<path d="M119.287 130.899L126.651 126.289C128.59 129.712 131.109 132.226 135.566 132.226C139.314 132.226 141.704 130.2 141.704 127.407C141.704 124.054 139.249 122.867 135.114 120.912L132.854 119.864C126.328 116.861 122 113.09 122 105.128C122 97.7946 127.168 92.2072 135.244 92.2072C140.993 92.2072 145.128 94.3724 148.099 100.03L141.058 104.918C139.507 101.915 137.828 100.728 135.244 100.728C132.595 100.728 130.915 102.544 130.915 104.918C130.915 107.852 132.595 109.039 136.471 110.855L138.732 111.903C146.42 115.465 150.748 119.096 150.748 127.267C150.748 136.067 144.353 140.886 135.76 140.886C127.362 140.886 121.935 136.556 119.287 130.899" fill="#22A6B3"/>
<path d="M126.651 126.289L128.391 125.304L127.361 123.485L125.59 124.594L126.651 126.289ZM135.114 120.912L135.969 119.104L135.962 119.101L135.956 119.098L135.114 120.912ZM132.854 119.864L133.695 118.049L133.69 118.047L132.854 119.864ZM148.099 100.03L149.24 101.672L150.692 100.664L149.87 99.0996L148.099 100.03ZM141.058 104.918L139.281 105.836L140.326 107.861L142.198 106.561L141.058 104.918ZM136.471 110.855L135.622 112.666L135.63 112.67L136.471 110.855ZM138.732 111.903L139.573 110.088L139.573 110.088L138.732 111.903ZM120.348 132.594L127.712 127.985L125.59 124.594L118.226 129.204L120.348 132.594ZM124.911 127.275C125.95 129.109 127.231 130.86 128.976 132.15C130.761 133.469 132.924 134.226 135.566 134.226V130.226C133.751 130.226 132.427 129.726 131.353 128.933C130.239 128.109 129.291 126.892 128.391 125.304L124.911 127.275ZM135.566 134.226C137.786 134.226 139.795 133.626 141.292 132.424C142.821 131.196 143.704 129.423 143.704 127.407H139.704C139.704 128.184 139.391 128.82 138.788 129.304C138.154 129.813 137.094 130.226 135.566 130.226V134.226ZM143.704 127.407C143.704 125.101 142.799 123.423 141.254 122.111C139.878 120.942 137.952 120.041 135.969 119.104L134.259 122.72C136.412 123.738 137.78 124.408 138.665 125.16C139.381 125.768 139.704 126.36 139.704 127.407H143.704ZM135.956 119.098L133.695 118.049L132.012 121.678L134.273 122.726L135.956 119.098ZM133.69 118.047C130.533 116.594 128.141 115.056 126.526 113.087C124.958 111.176 124 108.708 124 105.128H120C120 109.51 121.205 112.908 123.433 115.624C125.614 118.282 128.649 120.131 132.018 121.681L133.69 118.047ZM124 105.128C124 101.939 125.117 99.2324 127.011 97.3281C128.9 95.4292 131.683 94.2072 135.244 94.2072V90.2072C130.729 90.2072 126.889 91.7788 124.175 94.507C121.467 97.2297 120 100.983 120 105.128H124ZM135.244 94.2072C137.866 94.2072 139.962 94.6996 141.7 95.7211C143.433 96.74 144.975 98.3821 146.329 100.96L149.87 99.0996C148.252 96.0199 146.241 93.7508 143.727 92.2728C141.217 90.7974 138.371 90.2072 135.244 90.2072V94.2072ZM146.959 98.3867L139.917 103.275L142.198 106.561L149.24 101.672L146.959 98.3867ZM142.835 104.001C141.985 102.354 140.998 101.001 139.704 100.072C138.365 99.1113 136.87 98.7282 135.244 98.7282V102.728C136.202 102.728 136.838 102.939 137.372 103.322C137.952 103.738 138.58 104.479 139.281 105.836L142.835 104.001ZM135.244 98.7282C133.447 98.7282 131.838 99.3535 130.672 100.518C129.512 101.678 128.915 103.251 128.915 104.918H132.915C132.915 104.211 133.158 103.689 133.5 103.347C133.837 103.011 134.392 102.728 135.244 102.728V98.7282ZM128.915 104.918C128.915 106.86 129.509 108.424 130.836 109.731C132.017 110.894 133.71 111.77 135.622 112.666L137.319 109.044C135.356 108.124 134.271 107.499 133.643 106.881C133.161 106.406 132.915 105.91 132.915 104.918H128.915ZM135.63 112.67L137.891 113.717L139.573 110.088L137.312 109.04L135.63 112.67ZM137.891 113.717C141.676 115.471 144.354 117.123 146.107 119.161C147.789 121.116 148.748 123.58 148.748 127.267H152.748C152.748 122.783 151.543 119.346 149.139 116.552C146.806 113.841 143.476 111.896 139.573 110.088L137.891 113.717ZM148.748 127.267C148.748 131.145 147.36 133.974 145.17 135.862C142.943 137.782 139.699 138.886 135.76 138.886V142.886C140.414 142.886 144.664 141.581 147.782 138.891C150.939 136.17 152.748 132.19 152.748 127.267H148.748ZM135.76 138.886C128.177 138.886 123.434 135.041 121.098 130.051L117.476 131.747C120.436 138.071 126.547 142.886 135.76 142.886V138.886Z" fill="#0C2759" mask="url(#path-5-outside-2)"/>
</g>
</g>
<path id="JAVASCRIPT" d="M39.9433 198.408C38.7913 198.408 37.7673 198.176 36.8713 197.712C35.9753 197.232 35.2713 196.536 34.7593 195.624C34.2633 194.712 34.0153 193.592 34.0153 192.264V191.64H35.8393V192.576C35.8393 193.888 36.2073 194.912 36.9433 195.648C37.6953 196.368 38.6953 196.728 39.9433 196.728C41.2073 196.728 42.2073 196.368 42.9433 195.648C43.6953 194.912 44.0713 193.888 44.0713 192.576V182.136H36.3433V180.48H45.8953V192.264C45.8953 193.592 45.6393 194.712 45.1273 195.624C44.6313 196.536 43.9353 197.232 43.0393 197.712C42.1433 198.176 41.1113 198.408 39.9433 198.408ZM48.2607 198L54.7168 180.48H57.9808L64.6528 198H62.7808L60.6688 192.432H52.1008L50.0848 198H48.2607ZM52.7248 190.776H60.0448L56.7568 182.136H55.8688L52.7248 190.776ZM71.3478 198L65.0838 180.48H66.9558L72.5718 196.344H73.4358L78.6678 180.48H80.5158L74.6358 198H71.3478ZM81.1436 198L87.5996 180.48H90.8636L97.5356 198H95.6636L93.5516 192.432H84.9836L82.9676 198H81.1436ZM85.6076 190.776H92.9276L89.6396 182.136H88.7516L85.6076 190.776ZM106.516 198.408C105.044 198.408 103.804 198.176 102.796 197.712C101.788 197.232 101.02 196.576 100.492 195.744C99.9801 194.912 99.7241 193.96 99.7241 192.888H101.548C101.548 193.56 101.708 194.192 102.028 194.784C102.364 195.36 102.892 195.832 103.612 196.2C104.348 196.552 105.316 196.728 106.516 196.728C108.18 196.728 109.412 196.384 110.212 195.696C111.028 194.992 111.436 194.136 111.436 193.128C111.436 192.28 111.1 191.576 110.428 191.016C109.772 190.44 108.78 190.096 107.452 189.984L105.436 189.792C103.932 189.664 102.732 189.2 101.836 188.4C100.956 187.584 100.516 186.512 100.516 185.184C100.516 184.176 100.756 183.288 101.236 182.52C101.716 181.736 102.396 181.128 103.276 180.696C104.172 180.248 105.244 180.024 106.492 180.024C107.756 180.024 108.836 180.256 109.732 180.72C110.644 181.168 111.34 181.792 111.82 182.592C112.3 183.392 112.54 184.32 112.54 185.376H110.716C110.716 184.736 110.572 184.136 110.284 183.576C109.996 183.016 109.54 182.568 108.916 182.232C108.292 181.88 107.484 181.704 106.492 181.704C105.532 181.704 104.748 181.864 104.14 182.184C103.532 182.504 103.076 182.928 102.772 183.456C102.484 183.984 102.34 184.56 102.34 185.184C102.34 185.984 102.612 186.656 103.156 187.2C103.716 187.728 104.532 188.032 105.604 188.112L107.62 188.304C109.396 188.448 110.78 188.952 111.772 189.816C112.764 190.664 113.26 191.768 113.26 193.128C113.26 194.152 112.98 195.064 112.42 195.864C111.876 196.664 111.1 197.288 110.092 197.736C109.084 198.184 107.892 198.408 106.516 198.408ZM125.098 198.408C123.53 198.408 122.186 198.136 121.066 197.592C119.962 197.032 119.058 196.304 118.354 195.408C117.666 194.512 117.162 193.544 116.842 192.504C116.522 191.448 116.362 190.424 116.362 189.432V188.976C116.362 187.904 116.522 186.84 116.842 185.784C117.178 184.728 117.69 183.768 118.378 182.904C119.082 182.024 119.978 181.328 121.066 180.816C122.154 180.288 123.442 180.024 124.93 180.024C126.434 180.024 127.73 180.288 128.818 180.816C129.922 181.344 130.802 182.088 131.458 183.048C132.114 184.008 132.514 185.128 132.658 186.408H130.81C130.666 185.368 130.322 184.504 129.778 183.816C129.25 183.112 128.562 182.584 127.714 182.232C126.882 181.88 125.954 181.704 124.93 181.704C123.458 181.704 122.218 182.048 121.21 182.736C120.218 183.408 119.466 184.312 118.954 185.448C118.458 186.584 118.21 187.84 118.21 189.216C118.21 190.192 118.354 191.128 118.642 192.024C118.93 192.92 119.354 193.728 119.914 194.448C120.49 195.152 121.21 195.712 122.074 196.128C122.938 196.528 123.946 196.728 125.098 196.728C126.698 196.728 128.042 196.328 129.13 195.528C130.218 194.712 130.89 193.544 131.146 192.024H132.994C132.818 193.224 132.402 194.312 131.746 195.288C131.09 196.248 130.202 197.008 129.082 197.568C127.978 198.128 126.65 198.408 125.098 198.408ZM136.689 198V180.408H142.161C144.097 180.408 145.593 180.864 146.649 181.776C147.705 182.688 148.233 184 148.233 185.712V186.048C148.233 187.392 147.897 188.496 147.225 189.36C146.569 190.208 145.625 190.792 144.393 191.112L149.793 198H147.561L142.425 191.352C142.345 191.352 142.257 191.352 142.161 191.352H138.513V198H136.689ZM142.473 182.016H138.513V189.72H142.473C143.769 189.72 144.737 189.352 145.377 188.616C146.033 187.88 146.361 186.968 146.361 185.88C146.361 184.776 146.033 183.856 145.377 183.12C144.737 182.384 143.769 182.016 142.473 182.016ZM153.214 198V180.48H155.038V198H153.214ZM160.549 198V180.408H165.661C167.069 180.408 168.229 180.64 169.141 181.104C170.069 181.568 170.757 182.208 171.205 183.024C171.669 183.84 171.901 184.776 171.901 185.832V186.168C171.901 187.224 171.669 188.16 171.205 188.976C170.757 189.792 170.069 190.432 169.141 190.896C168.229 191.36 167.069 191.592 165.661 191.592H162.373V198H160.549ZM165.973 182.016H162.373V189.984H165.973C166.917 189.984 167.685 189.808 168.277 189.456C168.869 189.104 169.309 188.624 169.597 188.016C169.885 187.408 170.029 186.736 170.029 186C170.029 184.88 169.701 183.936 169.045 183.168C168.405 182.4 167.381 182.016 165.973 182.016ZM179.003 198V182.136H173.531V180.48H186.299V182.136H180.827V198H179.003Z" fill="#0C2759"/>
</g>
</g>
</g>
<defs>
<clipPath id="clip0">
<rect width="220" height="260" fill="white"/>
</clipPath>
</defs>
</svg>
