<svg width="120" height="120" viewBox="0 0 120 120" fill="none" xmlns="http://www.w3.org/2000/svg">
<g id="logo">
<g id="Group 147">
<g id="Group 62">
<g id="Group 61">
<g id="Group 60">
<g id="Group 55" filter="url(#filter0_d)">
<g id="Group 39">
<path id="Vector" d="M80.732 23.8911H38.869C37.8856 23.8911 37.0896 24.5634 37.0896 25.3939V49.1613C37.0896 49.9918 37.8856 50.664 38.869 50.664H80.732C81.7154 50.664 82.5114 49.9918 82.5114 49.1613V25.4334C82.5582 24.5635 81.7154 23.8911 80.732 23.8911Z" fill="#DEDEDF"/>
<path id="Vector_2" d="M80.0295 25.9475H39.6182V48.6867H80.0295V25.9475Z" fill="#2D3436"/>
<path id="Vector_3" d="M88.7392 59.3643L82.7454 51.02C82.605 50.8223 82.3708 50.7036 82.0899 50.7036H37.5109C37.23 50.7036 36.9958 50.8222 36.8553 51.02L30.9084 59.3643C30.5805 59.7993 30.9552 60.3529 31.564 60.3529H88.0836C88.6924 60.3529 89.0669 59.7993 88.7392 59.3643Z" fill="#BDBDBE"/>
<g id="Group">
<path id="Vector_4" d="M83.0732 54.6581H36.5745L38.2133 52.1667H81.4342L83.0732 54.6581Z" fill="white"/>
<path id="Vector_5" d="M64.4831 58.6921H55.1646L55.5392 55.647H64.1085L64.4831 58.6921Z" fill="white"/>
</g>
<path id="Vector_6" d="M90.2255 18H74.7259C73.3211 18 72.1973 18.9491 72.1973 20.1355V28.0448C72.1973 29.2312 73.3211 30.1803 74.7259 30.1803H74.96V33.8977L79.3617 30.1803H90.2255C91.6303 30.1803 92.7541 29.2312 92.7541 28.0448V20.1355C92.7541 18.9491 91.6303 18 90.2255 18Z" fill="url(#paint0_linear)"/>
<g id="Group 38">
<g id="Group_2">
<path id="Vector_7" d="M76.966 25.4263C77.9229 25.4263 78.6986 24.7711 78.6986 23.963C78.6986 23.1549 77.9229 22.4998 76.966 22.4998C76.0091 22.4998 75.2334 23.1549 75.2334 23.963C75.2334 24.7711 76.0091 25.4263 76.966 25.4263Z" fill="#FCFCFD"/>
<path id="Vector_8" d="M82.7255 25.4263C83.6824 25.4263 84.4582 24.7711 84.4582 23.963C84.4582 23.1549 83.6824 22.4998 82.7255 22.4998C81.7686 22.4998 80.9929 23.1549 80.9929 23.963C80.9929 24.7711 81.7686 25.4263 82.7255 25.4263Z" fill="#FCFCFD"/>
<path id="Vector_9" d="M88.4853 25.4263C89.4422 25.4263 90.2179 24.7711 90.2179 23.963C90.2179 23.1549 89.4422 22.4998 88.4853 22.4998C87.5284 22.4998 86.7527 23.1549 86.7527 23.963C86.7527 24.7711 87.5284 25.4263 88.4853 25.4263Z" fill="#FCFCFD"/>
</g>
</g>
</g>
</g>
<g id="Group 58">
<g id="ANDERAMA" filter="url(#filter1_d)">
<path d="M16.9152 84.3209C16.9472 84.4809 16.8832 84.6009 16.7232 84.6809C16.5632 84.7609 16.2272 84.8009 15.7152 84.8009C15.1552 84.8009 14.6432 84.7849 14.1792 84.7529L13.3872 80.9129H10.1472L9.45122 84.2969C9.40322 84.4889 9.30722 84.6249 9.16322 84.7049C9.03522 84.7689 8.72322 84.8009 8.22722 84.8009C7.66722 84.8009 7.10722 84.7689 6.54722 84.7049L10.5552 68.4089C10.6192 68.0729 10.9792 67.9049 11.6352 67.9049C12.1792 67.9049 12.6032 67.9369 12.9072 68.0009L16.9152 84.3209ZM12.8832 78.5129L12.4032 76.2569C12.1632 75.1049 11.9552 73.5929 11.7792 71.7209C11.5552 73.7529 11.3392 75.2649 11.1312 76.2569L10.6512 78.5129H12.8832ZM28.1118 68.4329C28.1118 68.2569 28.1518 68.1449 28.2318 68.0969C28.3278 68.0329 28.5918 67.9929 29.0238 67.9769C29.4558 67.9609 30.0398 67.9529 30.7758 67.9529V84.2729C30.7758 84.4169 30.7358 84.5369 30.6558 84.6329C30.5758 84.7129 30.4558 84.7529 30.2958 84.7529H28.2318L25.6878 78.3209C25.2718 77.2489 24.7918 75.4729 24.2478 72.9929C24.4558 75.0409 24.5598 76.8809 24.5598 78.5129V84.2729C24.5598 84.4489 24.5198 84.5689 24.4398 84.6329C24.3598 84.6809 24.0958 84.7129 23.6478 84.7289C23.2158 84.7449 22.6318 84.7529 21.8958 84.7529V68.4329C21.8958 68.1129 22.0558 67.9529 22.3758 67.9529H24.4878L27.0078 74.2649C27.4078 75.2729 27.8798 76.9689 28.4238 79.3529C28.2158 77.4169 28.1118 75.6409 28.1118 74.0249V68.4329ZM36.1739 68.4329C36.1739 68.2729 36.2219 68.1529 36.3179 68.0729C36.4139 67.9929 36.5899 67.9529 36.8459 67.9529H39.1499C40.2859 67.9529 41.1819 68.1609 41.8379 68.5769C42.5099 68.9929 43.0139 69.7529 43.3499 70.8569C43.6859 71.9449 43.8539 73.4969 43.8539 75.5129C43.8539 78.7449 43.4939 81.0969 42.7739 82.5689C42.0539 84.0249 40.8859 84.7529 39.2699 84.7529H36.1739V68.4329ZM39.3419 82.2329C39.6459 82.2329 39.9019 82.0649 40.1099 81.7289C40.3179 81.3769 40.4859 80.6889 40.6139 79.6649C40.7419 78.6249 40.8059 77.1449 40.8059 75.2249C40.8059 73.8489 40.7419 72.8169 40.6139 72.1289C40.5019 71.4249 40.3419 70.9609 40.1339 70.7369C39.9259 70.4969 39.6539 70.3769 39.3179 70.3769H38.8379V82.2329H39.3419ZM51.7098 82.3769H55.1178C55.1178 83.0169 55.1098 83.5289 55.0938 83.9129C55.0778 84.2969 55.0378 84.5369 54.9738 84.6329C54.9258 84.7129 54.8218 84.7529 54.6618 84.7529H49.0458V68.4329C49.0458 68.3529 49.0778 68.2569 49.1418 68.1449C49.2058 68.0169 49.3338 67.9529 49.5258 67.9529H55.2858C55.2858 68.5609 55.2778 69.0569 55.2618 69.4409C55.2458 69.8249 55.2058 70.0729 55.1418 70.1849C55.0778 70.2809 54.9658 70.3289 54.8058 70.3289H51.7098V74.4329H54.6378C54.6378 75.0249 54.6298 75.5209 54.6138 75.9209C54.5978 76.3049 54.5578 76.5609 54.4938 76.6889C54.4458 76.8169 54.3498 76.8809 54.2058 76.8809H51.7098V82.3769ZM66.2005 77.4089C66.7125 78.0969 67.1685 79.0009 67.5685 80.1209C67.9845 81.2409 68.2165 82.6089 68.2645 84.2249C68.2645 84.4009 68.2325 84.5289 68.1685 84.6089C68.1205 84.6889 68.0005 84.7449 67.8085 84.7769C67.6165 84.8089 67.3045 84.8249 66.8725 84.8249C66.4405 84.8249 65.9205 84.8009 65.3125 84.7529C65.2805 83.0889 65.1125 81.7369 64.8085 80.6969C64.5045 79.6409 64.1525 78.8249 63.7525 78.2489C63.6565 78.2649 63.5125 78.2729 63.3205 78.2729H63.1285V84.2729C63.1285 84.4489 63.0805 84.5689 62.9845 84.6329C62.9045 84.6809 62.6485 84.7129 62.2165 84.7289C61.7845 84.7449 61.2005 84.7529 60.4645 84.7529V68.4329C60.4645 68.3529 60.4965 68.2569 60.5605 68.1449C60.6245 68.0169 60.7525 67.9529 60.9445 67.9529H63.2005C64.2725 67.9529 65.1445 68.0969 65.8165 68.3849C66.4885 68.6729 67.0005 69.1769 67.3525 69.8969C67.7045 70.6169 67.8805 71.6169 67.8805 72.8969C67.8805 75.0249 67.3205 76.5289 66.2005 77.4089ZM63.1285 75.8009H63.6325C64.0485 75.8009 64.3605 75.5849 64.5685 75.1529C64.7765 74.7209 64.8805 73.9209 64.8805 72.7529C64.8805 71.8889 64.7925 71.2569 64.6165 70.8569C64.4565 70.4569 64.1845 70.2569 63.8005 70.2569H63.1285V75.8009ZM83.1262 84.3209C83.1582 84.4809 83.0942 84.6009 82.9342 84.6809C82.7742 84.7609 82.4382 84.8009 81.9262 84.8009C81.3662 84.8009 80.8542 84.7849 80.3902 84.7529L79.5982 80.9129H76.3582L75.6622 84.2969C75.6142 84.4889 75.5182 84.6249 75.3742 84.7049C75.2462 84.7689 74.9342 84.8009 74.4382 84.8009C73.8782 84.8009 73.3182 84.7689 72.7582 84.7049L76.7662 68.4089C76.8302 68.0729 77.1902 67.9049 77.8462 67.9049C78.3902 67.9049 78.8142 67.9369 79.1182 68.0009L83.1262 84.3209ZM79.0942 78.5129L78.6142 76.2569C78.3742 75.1049 78.1662 73.5929 77.9902 71.7209C77.7662 73.7529 77.5502 75.2649 77.3422 76.2569L76.8622 78.5129H79.0942ZM98.1147 67.9529V84.2729C98.1147 84.4489 98.0747 84.5689 97.9947 84.6329C97.9147 84.6809 97.6507 84.7129 97.2027 84.7289C96.7547 84.7449 96.1467 84.7529 95.3787 84.7529L95.4987 80.1449C95.5307 79.0089 95.5947 77.9129 95.6907 76.8569C95.8027 75.7849 95.9067 74.9129 96.0027 74.2409C96.0987 73.5689 96.1627 73.1449 96.1947 72.9689L96.1227 72.9209C95.5307 75.2729 95.1227 76.7609 94.8987 77.3849L93.7467 80.5769C93.7147 80.6889 93.6267 80.7449 93.4827 80.7449H92.3787L91.2507 77.3849C91.0267 76.7129 90.6347 75.2249 90.0747 72.9209L90.0027 72.9689C90.0347 73.1449 90.0987 73.5689 90.1947 74.2409C90.3067 74.8969 90.4107 75.7529 90.5067 76.8089C90.6187 77.8649 90.6747 78.9689 90.6747 80.1209L90.7467 84.2729C90.7467 84.4489 90.6987 84.5689 90.6027 84.6329C90.5067 84.6809 90.2427 84.7129 89.8107 84.7289C89.3787 84.7449 88.8107 84.7529 88.1067 84.7529V68.4329C88.1067 68.2249 88.1467 68.0969 88.2267 68.0489C88.3067 67.9849 88.4267 67.9529 88.5867 67.9529H90.6027L92.5227 73.9049C92.7307 74.5129 92.8827 75.0409 92.9787 75.4889C93.0907 75.9369 93.1547 76.2169 93.1707 76.3289C93.1867 76.2169 93.2427 75.9369 93.3387 75.4889C93.4347 75.0409 93.5707 74.5289 93.7467 73.9529L95.4027 68.4329C95.4667 68.2409 95.5227 68.1129 95.5707 68.0489C95.6347 67.9849 95.7387 67.9529 95.8827 67.9529H98.1147ZM113.44 84.3209C113.472 84.4809 113.408 84.6009 113.248 84.6809C113.088 84.7609 112.752 84.8009 112.24 84.8009C111.68 84.8009 111.168 84.7849 110.704 84.7529L109.912 80.9129H106.672L105.976 84.2969C105.928 84.4889 105.832 84.6249 105.688 84.7049C105.56 84.7689 105.248 84.8009 104.752 84.8009C104.192 84.8009 103.632 84.7689 103.072 84.7049L107.08 68.4089C107.144 68.0729 107.504 67.9049 108.16 67.9049C108.704 67.9049 109.128 67.9369 109.432 68.0009L113.44 84.3209ZM109.408 78.5129L108.928 76.2569C108.688 75.1049 108.48 73.5929 108.304 71.7209C108.08 73.7529 107.864 75.2649 107.656 76.2569L107.176 78.5129H109.408Z" fill="#2DC7ED"/>
</g>
</g>
</g>
</g>
</g>
</g>
</g>
<defs>
<filter id="filter0_d" x="26.7869" y="18" width="69.9673" height="50.3529" filterUnits="userSpaceOnUse" color-interpolation-filters="sRGB">
<feFlood flood-opacity="0" result="BackgroundImageFix"/>
<feColorMatrix in="SourceAlpha" type="matrix" values="0 0 0 0 0 0 0 0 0 0 0 0 0 0 0 0 0 0 127 0"/>
<feOffset dy="4"/>
<feGaussianBlur stdDeviation="2"/>
<feColorMatrix type="matrix" values="0 0 0 0 0 0 0 0 0 0 0 0 0 0 0 0 0 0 0.25 0"/>
<feBlend mode="normal" in2="BackgroundImageFix" result="effect1_dropShadow"/>
<feBlend mode="normal" in="SourceGraphic" in2="effect1_dropShadow" result="shape"/>
</filter>
<filter id="filter1_d" x="5.54712" y="67.905" width="110.901" height="20.92" filterUnits="userSpaceOnUse" color-interpolation-filters="sRGB">
<feFlood flood-opacity="0" result="BackgroundImageFix"/>
<feColorMatrix in="SourceAlpha" type="matrix" values="0 0 0 0 0 0 0 0 0 0 0 0 0 0 0 0 0 0 127 0"/>
<feOffset dx="1" dy="2"/>
<feGaussianBlur stdDeviation="1"/>
<feColorMatrix type="matrix" values="0 0 0 0 0.32549 0 0 0 0 0.545098 0 0 0 0 0.941176 0 0 0 0.44 0"/>
<feBlend mode="color-dodge" in2="BackgroundImageFix" result="effect1_dropShadow"/>
<feBlend mode="normal" in="SourceGraphic" in2="effect1_dropShadow" result="shape"/>
</filter>
<linearGradient id="paint0_linear" x1="82.4757" y1="18" x2="82.5354" y2="33.1109" gradientUnits="userSpaceOnUse">
<stop stop-color="#538BF0"/>
<stop offset="1" stop-color="#2DC7ED"/>
</linearGradient>
</defs>
</svg>
