<svg width="112" height="72" viewBox="0 0 112 72" fill="none" xmlns="http://www.w3.org/2000/svg">
<g filter="url(#filter0_d)">
<path d="M75.732 5.89111H33.869C32.8856 5.89111 32.0896 6.56337 32.0896 7.3939V31.1613C32.0896 31.9918 32.8856 32.664 33.869 32.664H75.732C76.7154 32.664 77.5114 31.9918 77.5114 31.1613V7.43344C77.5582 6.56349 76.7154 5.89111 75.732 5.89111Z" fill="#DEDEDF"/>
<path d="M75.0295 7.94751H34.6182V30.6867H75.0295V7.94751Z" fill="#2D3436"/>
<path d="M83.7392 41.3643L77.7454 33.02C77.605 32.8223 77.3708 32.7036 77.0899 32.7036H32.5109C32.23 32.7036 31.9958 32.8222 31.8553 33.02L25.9084 41.3643C25.5805 41.7993 25.9552 42.3529 26.564 42.3529H83.0836C83.6924 42.3529 84.0669 41.7993 83.7392 41.3643Z" fill="#BDBDBE"/>
<path d="M78.0732 36.6581H31.5745L33.2133 34.1667H76.4342L78.0732 36.6581Z" fill="white"/>
<path d="M59.4831 40.6921H50.1646L50.5392 37.647H59.1085L59.4831 40.6921Z" fill="white"/>
<path d="M85.2255 0H69.7259C68.3211 0 67.1973 0.949141 67.1973 2.13551V10.0448C67.1973 11.2312 68.3211 12.1803 69.7259 12.1803H69.96V15.8977L74.3617 12.1803H85.2255C86.6303 12.1803 87.7541 11.2312 87.7541 10.0448V2.13551C87.7541 0.949141 86.6303 0 85.2255 0Z" fill="url(#paint0_linear)"/>
<path d="M71.966 7.42625C72.9229 7.42625 73.6986 6.77114 73.6986 5.96301C73.6986 5.15488 72.9229 4.49976 71.966 4.49976C71.0091 4.49976 70.2334 5.15488 70.2334 5.96301C70.2334 6.77114 71.0091 7.42625 71.966 7.42625Z" fill="#FCFCFD"/>
<path d="M77.7255 7.42625C78.6824 7.42625 79.4582 6.77114 79.4582 5.96301C79.4582 5.15488 78.6824 4.49976 77.7255 4.49976C76.7686 4.49976 75.9929 5.15488 75.9929 5.96301C75.9929 6.77114 76.7686 7.42625 77.7255 7.42625Z" fill="#FCFCFD"/>
<path d="M83.4853 7.42625C84.4422 7.42625 85.2179 6.77114 85.2179 5.96301C85.2179 5.15488 84.4422 4.49976 83.4853 4.49976C82.5284 4.49976 81.7527 5.15488 81.7527 5.96301C81.7527 6.77114 82.5284 7.42625 83.4853 7.42625Z" fill="#FCFCFD"/>
</g>
<g filter="url(#filter1_d)">
<path d="M11.9152 66.3209C11.9472 66.4809 11.8832 66.6009 11.7232 66.6809C11.5632 66.7609 11.2272 66.8009 10.7152 66.8009C10.1552 66.8009 9.64322 66.7849 9.17922 66.7529L8.38722 62.9129H5.14722L4.45122 66.2969C4.40322 66.4889 4.30722 66.6249 4.16322 66.7049C4.03522 66.7689 3.72322 66.8009 3.22722 66.8009C2.66722 66.8009 2.10722 66.7689 1.54722 66.7049L5.55522 50.4089C5.61922 50.0729 5.97922 49.9049 6.63522 49.9049C7.17922 49.9049 7.60322 49.9369 7.90722 50.0009L11.9152 66.3209ZM7.88322 60.5129L7.40322 58.2569C7.16322 57.1049 6.95522 55.5929 6.77922 53.7209C6.55522 55.7529 6.33922 57.2649 6.13122 58.2569L5.65122 60.5129H7.88322ZM23.1118 50.4329C23.1118 50.2569 23.1518 50.1449 23.2318 50.0969C23.3278 50.0329 23.5918 49.9929 24.0238 49.9769C24.4558 49.9609 25.0398 49.9529 25.7758 49.9529V66.2729C25.7758 66.4169 25.7358 66.5369 25.6558 66.6329C25.5758 66.7129 25.4558 66.7529 25.2958 66.7529H23.2318L20.6878 60.3209C20.2718 59.2489 19.7918 57.4729 19.2478 54.9929C19.4558 57.0409 19.5598 58.8809 19.5598 60.5129V66.2729C19.5598 66.4489 19.5198 66.5689 19.4398 66.6329C19.3598 66.6809 19.0958 66.7129 18.6478 66.7289C18.2158 66.7449 17.6318 66.7529 16.8958 66.7529V50.4329C16.8958 50.1129 17.0558 49.9529 17.3758 49.9529H19.4878L22.0078 56.2649C22.4078 57.2729 22.8798 58.9689 23.4238 61.3529C23.2158 59.4169 23.1118 57.6409 23.1118 56.0249V50.4329ZM31.1739 50.4329C31.1739 50.2729 31.2219 50.1529 31.3179 50.0729C31.4139 49.9929 31.5899 49.9529 31.8459 49.9529H34.1499C35.2859 49.9529 36.1819 50.1609 36.8379 50.5769C37.5099 50.9929 38.0139 51.7529 38.3499 52.8569C38.6859 53.9449 38.8539 55.4969 38.8539 57.5129C38.8539 60.7449 38.4939 63.0969 37.7739 64.5689C37.0539 66.0249 35.8859 66.7529 34.2699 66.7529H31.1739V50.4329ZM34.3419 64.2329C34.6459 64.2329 34.9019 64.0649 35.1099 63.7289C35.3179 63.3769 35.4859 62.6889 35.6139 61.6649C35.7419 60.6249 35.8059 59.1449 35.8059 57.2249C35.8059 55.8489 35.7419 54.8169 35.6139 54.1289C35.5019 53.4249 35.3419 52.9609 35.1339 52.7369C34.9259 52.4969 34.6539 52.3769 34.3179 52.3769H33.8379V64.2329H34.3419ZM46.7098 64.3769H50.1178C50.1178 65.0169 50.1098 65.5289 50.0938 65.9129C50.0778 66.2969 50.0378 66.5369 49.9738 66.6329C49.9258 66.7129 49.8218 66.7529 49.6618 66.7529H44.0458V50.4329C44.0458 50.3529 44.0778 50.2569 44.1418 50.1449C44.2058 50.0169 44.3338 49.9529 44.5258 49.9529H50.2858C50.2858 50.5609 50.2778 51.0569 50.2618 51.4409C50.2458 51.8249 50.2058 52.0729 50.1418 52.1849C50.0778 52.2809 49.9658 52.3289 49.8058 52.3289H46.7098V56.4329H49.6378C49.6378 57.0249 49.6298 57.5209 49.6138 57.9209C49.5978 58.3049 49.5578 58.5609 49.4938 58.6889C49.4458 58.8169 49.3498 58.8809 49.2058 58.8809H46.7098V64.3769ZM61.2005 59.4089C61.7125 60.0969 62.1685 61.0009 62.5685 62.1209C62.9845 63.2409 63.2165 64.6089 63.2645 66.2249C63.2645 66.4009 63.2325 66.5289 63.1685 66.6089C63.1205 66.6889 63.0005 66.7449 62.8085 66.7769C62.6165 66.8089 62.3045 66.8249 61.8725 66.8249C61.4405 66.8249 60.9205 66.8009 60.3125 66.7529C60.2805 65.0889 60.1125 63.7369 59.8085 62.6969C59.5045 61.6409 59.1525 60.8249 58.7525 60.2489C58.6565 60.2649 58.5125 60.2729 58.3205 60.2729H58.1285V66.2729C58.1285 66.4489 58.0805 66.5689 57.9845 66.6329C57.9045 66.6809 57.6485 66.7129 57.2165 66.7289C56.7845 66.7449 56.2005 66.7529 55.4645 66.7529V50.4329C55.4645 50.3529 55.4965 50.2569 55.5605 50.1449C55.6245 50.0169 55.7525 49.9529 55.9445 49.9529H58.2005C59.2725 49.9529 60.1445 50.0969 60.8165 50.3849C61.4885 50.6729 62.0005 51.1769 62.3525 51.8969C62.7045 52.6169 62.8805 53.6169 62.8805 54.8969C62.8805 57.0249 62.3205 58.5289 61.2005 59.4089ZM58.1285 57.8009H58.6325C59.0485 57.8009 59.3605 57.5849 59.5685 57.1529C59.7765 56.7209 59.8805 55.9209 59.8805 54.7529C59.8805 53.8889 59.7925 53.2569 59.6165 52.8569C59.4565 52.4569 59.1845 52.2569 58.8005 52.2569H58.1285V57.8009ZM78.1262 66.3209C78.1582 66.4809 78.0942 66.6009 77.9342 66.6809C77.7742 66.7609 77.4382 66.8009 76.9262 66.8009C76.3662 66.8009 75.8542 66.7849 75.3902 66.7529L74.5982 62.9129H71.3582L70.6622 66.2969C70.6142 66.4889 70.5182 66.6249 70.3742 66.7049C70.2462 66.7689 69.9342 66.8009 69.4382 66.8009C68.8782 66.8009 68.3182 66.7689 67.7582 66.7049L71.7662 50.4089C71.8302 50.0729 72.1902 49.9049 72.8462 49.9049C73.3902 49.9049 73.8142 49.9369 74.1182 50.0009L78.1262 66.3209ZM74.0942 60.5129L73.6142 58.2569C73.3742 57.1049 73.1662 55.5929 72.9902 53.7209C72.7662 55.7529 72.5502 57.2649 72.3422 58.2569L71.8622 60.5129H74.0942ZM93.1147 49.9529V66.2729C93.1147 66.4489 93.0747 66.5689 92.9947 66.6329C92.9147 66.6809 92.6507 66.7129 92.2027 66.7289C91.7547 66.7449 91.1467 66.7529 90.3787 66.7529L90.4987 62.1449C90.5307 61.0089 90.5947 59.9129 90.6907 58.8569C90.8027 57.7849 90.9067 56.9129 91.0027 56.2409C91.0987 55.5689 91.1627 55.1449 91.1947 54.9689L91.1227 54.9209C90.5307 57.2729 90.1227 58.7609 89.8987 59.3849L88.7467 62.5769C88.7147 62.6889 88.6267 62.7449 88.4827 62.7449H87.3787L86.2507 59.3849C86.0267 58.7129 85.6347 57.2249 85.0747 54.9209L85.0027 54.9689C85.0347 55.1449 85.0987 55.5689 85.1947 56.2409C85.3067 56.8969 85.4107 57.7529 85.5067 58.8089C85.6187 59.8649 85.6747 60.9689 85.6747 62.1209L85.7467 66.2729C85.7467 66.4489 85.6987 66.5689 85.6027 66.6329C85.5067 66.6809 85.2427 66.7129 84.8107 66.7289C84.3787 66.7449 83.8107 66.7529 83.1067 66.7529V50.4329C83.1067 50.2249 83.1467 50.0969 83.2267 50.0489C83.3067 49.9849 83.4267 49.9529 83.5867 49.9529H85.6027L87.5227 55.9049C87.7307 56.5129 87.8827 57.0409 87.9787 57.4889C88.0907 57.9369 88.1547 58.2169 88.1707 58.3289C88.1867 58.2169 88.2427 57.9369 88.3387 57.4889C88.4347 57.0409 88.5707 56.5289 88.7467 55.9529L90.4027 50.4329C90.4667 50.2409 90.5227 50.1129 90.5707 50.0489C90.6347 49.9849 90.7387 49.9529 90.8827 49.9529H93.1147ZM108.44 66.3209C108.472 66.4809 108.408 66.6009 108.248 66.6809C108.088 66.7609 107.752 66.8009 107.24 66.8009C106.68 66.8009 106.168 66.7849 105.704 66.7529L104.912 62.9129H101.672L100.976 66.2969C100.928 66.4889 100.832 66.6249 100.688 66.7049C100.56 66.7689 100.248 66.8009 99.7522 66.8009C99.1922 66.8009 98.6322 66.7689 98.0722 66.7049L102.08 50.4089C102.144 50.0729 102.504 49.9049 103.16 49.9049C103.704 49.9049 104.128 49.9369 104.432 50.0009L108.44 66.3209ZM104.408 60.5129L103.928 58.2569C103.688 57.1049 103.48 55.5929 103.304 53.7209C103.08 55.7529 102.864 57.2649 102.656 58.2569L102.176 60.5129H104.408Z" fill="#538BF0"/>
</g>
<defs>
<filter id="filter0_d" x="21.7869" y="0" width="69.9673" height="50.3529" filterUnits="userSpaceOnUse" color-interpolation-filters="sRGB">
<feFlood flood-opacity="0" result="BackgroundImageFix"/>
<feColorMatrix in="SourceAlpha" type="matrix" values="0 0 0 0 0 0 0 0 0 0 0 0 0 0 0 0 0 0 127 0"/>
<feOffset dy="4"/>
<feGaussianBlur stdDeviation="2"/>
<feColorMatrix type="matrix" values="0 0 0 0 0 0 0 0 0 0 0 0 0 0 0 0 0 0 0.25 0"/>
<feBlend mode="normal" in2="BackgroundImageFix" result="effect1_dropShadow"/>
<feBlend mode="normal" in="SourceGraphic" in2="effect1_dropShadow" result="shape"/>
</filter>
<filter id="filter1_d" x="0.547119" y="49.905" width="110.901" height="20.92" filterUnits="userSpaceOnUse" color-interpolation-filters="sRGB">
<feFlood flood-opacity="0" result="BackgroundImageFix"/>
<feColorMatrix in="SourceAlpha" type="matrix" values="0 0 0 0 0 0 0 0 0 0 0 0 0 0 0 0 0 0 127 0"/>
<feOffset dx="1" dy="2"/>
<feGaussianBlur stdDeviation="1"/>
<feColorMatrix type="matrix" values="0 0 0 0 0.32549 0 0 0 0 0.545098 0 0 0 0 0.941176 0 0 0 0.44 0"/>
<feBlend mode="color-dodge" in2="BackgroundImageFix" result="effect1_dropShadow"/>
<feBlend mode="normal" in="SourceGraphic" in2="effect1_dropShadow" result="shape"/>
</filter>
<linearGradient id="paint0_linear" x1="77.4757" y1="-4.59809e-09" x2="77.5354" y2="15.1109" gradientUnits="userSpaceOnUse">
<stop stop-color="#538BF0"/>
<stop offset="1" stop-color="#2DC7ED"/>
</linearGradient>
</defs>
</svg>
