<svg width="190" height="230" viewBox="0 0 220 260" fill="none" xmlns="http://www.w3.org/2000/svg">
<g id="nodejs" clip-path="url(#clip0)">
<g id="Group 174">
<g id="Group 103">
<rect id="Rectangle 139" x="19" y="15" width="180" height="230" rx="16" fill="#F2F7FF"/>
<g id="Group 22">
<path id="NODEJS" d="M59.5212 192V174.48H62.5692L72.1692 190.344H72.4572V174.48H74.2092V192H71.1372L61.5372 176.136H61.2492V192H59.5212ZM87.3574 192.408C85.8374 192.408 84.5174 192.136 83.3974 191.592C82.2774 191.048 81.3414 190.328 80.5894 189.432C79.8534 188.536 79.3014 187.56 78.9334 186.504C78.5814 185.448 78.4054 184.416 78.4054 183.408V182.976C78.4054 181.904 78.5894 180.84 78.9574 179.784C79.3414 178.712 79.9094 177.744 80.6614 176.88C81.4134 176.016 82.3494 175.328 83.4694 174.816C84.5894 174.288 85.8854 174.024 87.3574 174.024C88.8454 174.024 90.1414 174.288 91.2454 174.816C92.3654 175.328 93.3014 176.016 94.0534 176.88C94.8054 177.744 95.3654 178.712 95.7334 179.784C96.1174 180.84 96.3094 181.904 96.3094 182.976V183.432C96.3094 184.44 96.1254 185.472 95.7574 186.528C95.4054 187.568 94.8614 188.536 94.1254 189.432C93.3894 190.328 92.4534 191.048 91.3174 191.592C90.1974 192.136 88.8774 192.408 87.3574 192.408ZM87.3574 190.728C88.4774 190.728 89.4774 190.528 90.3574 190.128C91.2374 189.712 91.9814 189.152 92.5894 188.448C93.1974 187.728 93.6614 186.92 93.9814 186.024C94.3014 185.128 94.4614 184.192 94.4614 183.216C94.4614 181.856 94.1734 180.608 93.5974 179.472C93.0374 178.336 92.2214 177.424 91.1494 176.736C90.0934 176.048 88.8294 175.704 87.3574 175.704C85.9014 175.704 84.6374 176.048 83.5654 176.736C82.5094 177.424 81.6934 178.336 81.1174 179.472C80.5414 180.608 80.2534 181.856 80.2534 183.216C80.2534 184.192 80.4134 185.128 80.7334 186.024C81.0534 186.92 81.5174 187.728 82.1254 188.448C82.7494 189.152 83.5014 189.712 84.3814 190.128C85.2614 190.528 86.2534 190.728 87.3574 190.728ZM100.49 192.096V174.408H106.418C107.986 174.408 109.346 174.648 110.498 175.128C111.666 175.608 112.626 176.264 113.378 177.096C114.146 177.912 114.714 178.832 115.082 179.856C115.45 180.88 115.634 181.92 115.634 182.976V183.432C115.634 184.472 115.45 185.504 115.082 186.528C114.714 187.552 114.154 188.488 113.402 189.336C112.65 190.168 111.69 190.84 110.522 191.352C109.37 191.848 108.002 192.096 106.418 192.096H100.49ZM106.61 176.088H102.314V190.416H106.61C108.178 190.416 109.49 190.088 110.546 189.432C111.618 188.76 112.426 187.88 112.97 186.792C113.514 185.704 113.786 184.512 113.786 183.216C113.786 181.872 113.506 180.664 112.946 179.592C112.402 178.504 111.594 177.648 110.522 177.024C109.466 176.4 108.162 176.088 106.61 176.088ZM119.568 192V174.48H129.456V176.136H121.392V182.28H128.904V183.912H121.392V190.344H129.72V192H119.568ZM138.088 192.408C136.936 192.408 135.912 192.176 135.016 191.712C134.12 191.232 133.416 190.536 132.904 189.624C132.408 188.712 132.16 187.592 132.16 186.264V185.64H133.984V186.576C133.984 187.888 134.352 188.912 135.088 189.648C135.84 190.368 136.84 190.728 138.088 190.728C139.352 190.728 140.352 190.368 141.088 189.648C141.84 188.912 142.216 187.888 142.216 186.576V176.136H134.488V174.48H144.04V186.264C144.04 187.592 143.784 188.712 143.272 189.624C142.776 190.536 142.08 191.232 141.184 191.712C140.288 192.176 139.256 192.408 138.088 192.408ZM154.832 192.408C153.36 192.408 152.12 192.176 151.112 191.712C150.104 191.232 149.336 190.576 148.808 189.744C148.296 188.912 148.04 187.96 148.04 186.888H149.864C149.864 187.56 150.024 188.192 150.344 188.784C150.68 189.36 151.208 189.832 151.928 190.2C152.664 190.552 153.632 190.728 154.832 190.728C156.496 190.728 157.728 190.384 158.528 189.696C159.344 188.992 159.752 188.136 159.752 187.128C159.752 186.28 159.416 185.576 158.744 185.016C158.088 184.44 157.096 184.096 155.768 183.984L153.752 183.792C152.248 183.664 151.048 183.2 150.152 182.4C149.272 181.584 148.832 180.512 148.832 179.184C148.832 178.176 149.072 177.288 149.552 176.52C150.032 175.736 150.712 175.128 151.592 174.696C152.488 174.248 153.56 174.024 154.808 174.024C156.072 174.024 157.152 174.256 158.048 174.72C158.96 175.168 159.656 175.792 160.136 176.592C160.616 177.392 160.856 178.32 160.856 179.376H159.032C159.032 178.736 158.888 178.136 158.6 177.576C158.312 177.016 157.856 176.568 157.232 176.232C156.608 175.88 155.8 175.704 154.808 175.704C153.848 175.704 153.064 175.864 152.456 176.184C151.848 176.504 151.392 176.928 151.088 177.456C150.8 177.984 150.656 178.56 150.656 179.184C150.656 179.984 150.928 180.656 151.472 181.2C152.032 181.728 152.848 182.032 153.92 182.112L155.936 182.304C157.712 182.448 159.096 182.952 160.088 183.816C161.08 184.664 161.576 185.768 161.576 187.128C161.576 188.152 161.296 189.064 160.736 189.864C160.192 190.664 159.416 191.288 158.408 191.736C157.4 192.184 156.208 192.408 154.832 192.408Z" fill="#0C2759"/>
<g id="Group">
<path id="Vector" d="M105.483 148.643L105.501 148.655L105.52 148.666C106.801 149.409 108.211 149.851 109.739 149.851C111.121 149.851 112.603 149.533 113.901 148.887L113.944 148.866L113.985 148.84L149.289 126.802C149.289 126.802 149.29 126.802 149.29 126.801C151.906 125.174 153.477 122.168 153.477 118.988V75.0055C153.477 71.8257 151.906 68.8201 149.29 67.1922C149.29 67.192 149.289 67.1919 149.289 67.1917L113.985 45.1535L113.978 45.1496L113.972 45.1457C111.442 43.6181 108.035 43.6181 105.505 45.1457L105.499 45.1496L105.493 45.1535L70.1882 67.1917C70.188 67.1918 70.1878 67.1919 70.1876 67.192C67.5713 68.8198 66 71.8255 66 75.0055V118.988C66 122.168 67.5715 125.174 70.1882 126.802L70.1918 126.804L79.4829 132.529L79.5109 132.546L79.5401 132.561C81.8337 133.774 83.4412 134.41 84.7688 134.736C86.1029 135.063 87.1106 135.062 88.1262 135.062H88.1481C91.6984 135.062 94.6056 133.88 96.6107 131.584C98.5988 129.307 99.5894 126.062 99.5894 122.137V78.7264C99.5894 77.5235 98.6278 76.5815 97.5276 76.5815H93.0148C91.7228 76.5815 90.953 77.7302 90.953 78.7264V122.137C90.953 123.5 90.2814 124.824 89.1439 125.516C88.0546 126.178 86.33 126.379 83.963 125.089L74.3423 119.094L74.332 119.087C74.3292 119.082 74.326 119.076 74.3224 119.068C74.3111 119.044 74.3003 119.013 74.2927 118.978C74.285 118.943 74.2825 118.913 74.2825 118.893V74.9101C74.2825 74.8902 74.285 74.8603 74.2927 74.8252C74.3003 74.7903 74.3111 74.759 74.3224 74.7345C74.326 74.7268 74.3292 74.7206 74.332 74.7157L74.3413 74.71L109.633 52.7749C109.641 52.7758 109.651 52.7773 109.661 52.7798C109.672 52.7826 109.682 52.7861 109.691 52.7899L144.959 74.71L144.985 74.7262L144.993 74.7302C145.001 74.7529 145.018 74.8088 145.018 74.9101V118.893C145.018 118.994 145.001 119.05 144.993 119.073L144.984 119.077L144.957 119.094L109.667 141.123C109.666 141.123 109.666 141.123 109.665 141.123C109.658 141.122 109.649 141.121 109.64 141.118C109.63 141.116 109.622 141.113 109.614 141.11L100.653 135.332C100.258 135.058 99.4299 134.705 98.6605 135.229C97.4356 135.984 96.7501 136.385 96.0876 136.703C95.4221 137.023 94.7616 137.27 93.5614 137.701C93.4256 137.75 93.1865 137.838 92.9627 137.974C92.7618 138.096 92.3809 138.37 92.2473 138.875C92.0971 139.441 92.3458 139.924 92.6135 140.24C92.8741 140.548 93.2559 140.834 93.7283 141.115L105.483 148.643ZM118.744 101.187L118.746 101.187C124.549 101.808 127.481 102.56 128.956 103.371C129.658 103.757 129.959 104.119 130.112 104.43C130.274 104.761 130.329 105.153 130.329 105.727C130.329 106.677 130.153 107.424 129.834 108.019C129.518 108.608 129.031 109.109 128.31 109.522C126.822 110.376 124.39 110.833 120.711 110.833C116.056 110.833 113.476 110.206 111.975 109.144C110.559 108.142 109.93 106.621 109.587 104.215C109.545 103.081 108.619 102.341 107.615 102.341H103.014C101.722 102.341 100.952 103.49 100.952 104.486C100.952 107.881 101.786 111.713 104.775 114.688C107.762 117.661 112.73 119.607 120.622 119.607C126.363 119.607 131.006 118.391 134.249 115.974C137.533 113.527 139.272 109.929 139.32 105.451V105.44C139.32 103.288 138.983 101.457 138.252 99.9042C137.516 98.34 136.405 97.1143 134.948 96.1413C132.092 94.2345 127.873 93.2858 122.442 92.5242L122.441 92.524C116.915 91.7552 114.041 91.1725 112.54 90.4927C111.826 90.169 111.542 89.8737 111.402 89.6275C111.253 89.3639 111.181 89.0048 111.181 88.3625C111.181 87.3634 111.388 86.3814 112.325 85.6011C113.319 84.774 115.311 84.0197 119.295 84.0197C122.888 84.0197 125.143 84.4544 126.616 85.3808C128.019 86.2635 128.872 87.7003 129.374 90.1763C129.546 91.0786 130.364 91.8431 131.329 91.8431H135.93C136.624 91.8431 137.14 91.3909 137.371 91.1415L137.438 91.0701L137.489 90.9874C137.746 90.5713 137.904 90.1053 137.904 89.6028V89.5642L137.901 89.5257C137.532 84.748 135.872 81.106 132.685 78.6924C129.537 76.3088 125.056 75.2458 119.295 75.2458C114.116 75.2458 109.85 76.4194 106.853 78.7067C103.823 81.0202 102.191 84.4004 102.191 88.5533C102.191 90.7491 102.589 92.6121 103.391 94.1813C104.196 95.7563 105.38 96.9798 106.864 97.9336C109.788 99.8118 113.912 100.661 118.744 101.187Z" fill="#65CA4F" stroke="#0C2759" stroke-width="2"/>
</g>
</g>
</g>
</g>
</g>
<defs>
<clipPath id="clip0">
<rect width="220" height="260" fill="white"/>
</clipPath>
</defs>
</svg>
