<svg width="220" height="260" viewBox="0 0 220 260" fill="none" xmlns="http://www.w3.org/2000/svg">
<g id="react" clip-path="url(#clip0)">
<g id="Group 174">
<g id="Group 105">
<rect id="Rectangle 139" x="20" y="15" width="180" height="230" rx="16" fill="#F2F7FF"/>
<g id="Group 20">
<path id="REACT" d="M71.9899 195V177.408H77.4619C79.3979 177.408 80.8939 177.864 81.9499 178.776C83.0059 179.688 83.5339 181 83.5339 182.712V183.048C83.5339 184.392 83.1979 185.496 82.5259 186.36C81.8699 187.208 80.9259 187.792 79.6939 188.112L85.0939 195H82.8619L77.7259 188.352C77.6459 188.352 77.5579 188.352 77.4619 188.352H73.8139V195H71.9899ZM77.7739 179.016H73.8139V186.72H77.7739C79.0699 186.72 80.0379 186.352 80.6779 185.616C81.3339 184.88 81.6619 183.968 81.6619 182.88C81.6619 181.776 81.3339 180.856 80.6779 180.12C80.0379 179.384 79.0699 179.016 77.7739 179.016ZM88.4665 195V177.48H98.3545V179.136H90.2905V185.28H97.8025V186.912H90.2905V193.344H98.6185V195H88.4665ZM100.983 195L107.439 177.48H110.703L117.375 195H115.503L113.391 189.432H104.823L102.807 195H100.983ZM105.447 187.776H112.767L109.479 179.136H108.591L105.447 187.776ZM127.852 195.408C126.284 195.408 124.94 195.136 123.82 194.592C122.716 194.032 121.812 193.304 121.108 192.408C120.42 191.512 119.916 190.544 119.596 189.504C119.276 188.448 119.116 187.424 119.116 186.432V185.976C119.116 184.904 119.276 183.84 119.596 182.784C119.932 181.728 120.444 180.768 121.132 179.904C121.836 179.024 122.732 178.328 123.82 177.816C124.908 177.288 126.196 177.024 127.684 177.024C129.188 177.024 130.484 177.288 131.572 177.816C132.676 178.344 133.556 179.088 134.212 180.048C134.868 181.008 135.268 182.128 135.412 183.408H133.564C133.42 182.368 133.076 181.504 132.532 180.816C132.004 180.112 131.316 179.584 130.468 179.232C129.636 178.88 128.708 178.704 127.684 178.704C126.212 178.704 124.972 179.048 123.964 179.736C122.972 180.408 122.22 181.312 121.708 182.448C121.212 183.584 120.964 184.84 120.964 186.216C120.964 187.192 121.108 188.128 121.396 189.024C121.684 189.92 122.108 190.728 122.668 191.448C123.244 192.152 123.964 192.712 124.828 193.128C125.692 193.528 126.7 193.728 127.852 193.728C129.452 193.728 130.796 193.328 131.884 192.528C132.972 191.712 133.644 190.544 133.9 189.024H135.748C135.572 190.224 135.156 191.312 134.5 192.288C133.844 193.248 132.956 194.008 131.836 194.568C130.732 195.128 129.404 195.408 127.852 195.408ZM142.781 195V179.136H137.309V177.48H150.077V179.136H144.605V195H142.781Z" fill="#0C2759"/>
<g id="Group 14">
<g id="Group 112">
<path id="Vector" d="M56 98.554C56 107.684 63.9678 115.893 75.9734 120.574C74.8668 127.062 74.7937 132.98 75.824 137.86C76.8972 142.944 79.1921 146.996 82.864 149.3L83.3955 148.453L82.8641 149.3C86.6256 151.66 91.2455 151.977 96.1131 150.546C100.75 149.183 105.659 146.225 110.42 141.848C115.032 146.039 119.704 149.022 124.112 150.475C128.752 152.005 133.173 151.859 136.858 149.538C140.628 147.164 142.984 142.888 144.091 137.562C145.155 132.439 145.088 126.242 143.949 119.538C156.388 114.887 163.797 107.83 163.797 98.554C163.797 89.5909 155.771 82.1395 143.979 77.5365C145.21 70.5727 145.28 64.4573 144.172 59.4774C143.019 54.293 140.572 50.2816 136.78 47.9028L136.248 48.7499L136.78 47.9027C133.071 45.5761 128.608 45.481 123.922 47.0867C119.468 48.6128 114.738 51.6937 110.06 55.9963C100.155 46.7113 90.2541 43.5352 82.7865 48.2382C79.0986 50.5606 76.8242 54.6762 75.7738 59.8391C74.764 64.8027 74.8615 70.831 75.976 77.4422C70.2744 79.6963 65.3994 82.6573 61.8912 86.1243C58.2243 89.7482 56 93.9813 56 98.554Z" fill="white" stroke="#0C2759" stroke-width="2"/>
</g>
<path id="Vector_2" d="M136.661 81.989L136.762 81.54C136.932 80.7859 137.088 80.0425 137.226 79.3126M136.661 81.989L137.226 79.3126M136.661 81.989L137.1 82.1269M136.661 81.989L137.1 82.1269M137.226 79.3126C138.364 73.3056 138.555 67.9101 137.84 63.6379C137.123 59.3512 135.512 56.2844 133.133 54.7915C130.867 53.37 127.818 53.3601 124.267 54.7061C120.72 56.0503 116.747 58.7226 112.729 62.5271C111.957 63.2578 111.182 64.0321 110.407 64.8444L110.047 65.2221L109.685 64.8456C109.168 64.3083 108.654 63.7899 108.141 63.2947C103.929 59.2256 99.7361 56.3592 95.9927 54.905C92.2425 53.4482 89.0238 53.4354 86.6589 54.9248L86.3925 54.5017M137.226 79.3126L86.3925 54.5017M86.3925 54.5017L86.6589 54.9248C84.3833 56.358 82.839 59.2521 82.1328 63.2968C81.4289 67.3287 81.5748 72.4204 82.5985 78.1121L82.5985 78.1121C82.796 79.2105 83.027 80.333 83.2885 81.4751L83.3921 81.9275L82.9487 82.0645C81.754 82.4334 80.602 82.8263 79.5009 83.2438M86.3925 54.5017L79.5009 83.2438M137.1 82.1269C138.133 82.451 139.134 82.7935 140.099 83.155C145.131 85.0394 149.244 87.4475 152.09 90.1223C154.939 92.7996 156.48 95.704 156.48 98.5957C156.48 101.615 154.831 104.666 151.791 107.468C148.755 110.268 144.374 112.778 139.031 114.703L139.031 114.703C138.468 114.906 137.89 115.102 137.3 115.292L136.864 115.432L136.966 115.879C137.177 116.801 137.364 117.705 137.525 118.589C138.581 124.391 138.697 129.65 137.937 133.833C137.174 138.031 135.548 141.061 133.2 142.539C130.94 143.963 127.926 144.013 124.427 142.738C120.931 141.463 117.019 138.886 113.057 135.177M137.1 82.1269L79.5009 83.2438M110.522 133.381C111.255 134.138 111.987 134.859 112.715 135.541M110.522 133.381L140.275 82.6867C150.423 86.4871 156.98 92.4401 156.98 98.5957C156.98 105.015 149.972 111.291 139.201 115.174C138.632 115.379 138.048 115.576 137.454 115.768C137.666 116.696 137.855 117.607 138.017 118.5C140.143 130.185 138.506 139.789 133.466 142.963C128.587 146.035 120.7 143.017 112.715 135.541M110.522 133.381C110.527 133.376 110.532 133.371 110.537 133.365L110.175 133.021L109.813 133.366C109.819 133.371 109.824 133.376 109.829 133.382C109.29 133.94 108.751 134.476 108.215 134.986C99.9707 142.826 91.5046 146.079 86.46 142.914C81.5762 139.849 80.0416 130.909 82.0067 119.65L110.522 133.381ZM112.715 135.541L113.057 135.177M112.715 135.541L113.057 135.176C113.057 135.176 113.057 135.177 113.057 135.177M113.057 135.177C112.221 134.394 111.38 133.559 110.537 132.675L110.174 132.296L109.813 132.676C109.163 133.36 108.515 134.011 107.87 134.624C103.78 138.513 99.6592 141.241 95.964 142.608C92.2618 143.977 89.0641 143.957 86.7258 142.49C84.4528 141.064 82.893 138.224 82.1566 134.264C81.4222 130.314 81.5234 125.327 82.4993 119.736L82.0501 119.657L82.4993 119.736C82.7049 118.557 82.95 117.347 83.232 116.112L83.335 115.662L82.8936 115.524C82.0267 115.253 81.1868 114.969 80.3785 114.668C75.2439 112.759 71.0125 110.239 68.0736 107.435C65.1306 104.628 63.5234 101.578 63.5234 98.5957C63.5234 95.7103 65.0179 92.8205 67.7894 90.1616C70.5593 87.5043 74.5703 85.1139 79.5009 83.2438" fill="#53C1DE" stroke="#0C2759"/>
<path id="Vector_3" d="M139.144 86.3471C138.236 86.0069 137.294 85.6849 136.326 85.3799L135.835 85.2255L135.694 85.7202C134.545 89.7661 133.01 94.0452 131.143 98.4205L131.058 98.619L131.144 98.8168C133.101 103.3 134.698 107.634 135.88 111.705L136.024 112.2L136.514 112.042C137.056 111.867 137.588 111.686 138.108 111.499L138.108 111.499L139.144 86.3471ZM139.144 86.3471C139.144 86.3471 139.144 86.3471 139.144 86.3471L138.968 86.8153L139.144 86.3471ZM85.5534 77.4504C85.7397 78.4866 85.9579 79.5455 86.2039 80.6223L86.3172 81.1181L86.811 80.9964C90.675 80.0441 94.8815 79.332 99.2793 78.8886L99.5175 78.8646L99.6481 78.664C102.214 74.724 104.899 71.1113 107.613 67.9408L107.908 67.596L107.593 67.2689C107.118 66.7755 106.644 66.2977 106.171 65.8406C102.479 62.2743 98.8617 59.7599 95.7466 58.3868C92.669 57.0302 89.9328 56.7266 88.137 57.8576C87.287 58.3928 86.6065 59.2991 86.0855 60.461C85.5628 61.6265 85.185 63.0832 84.9601 64.7706C84.5101 68.1461 84.664 72.5057 85.5534 77.4504ZM85.5534 77.4504L86.028 77.365L85.5534 77.4504C85.5534 77.4504 85.5534 77.4504 85.5534 77.4504ZM112.588 129.566L112.299 129.909L112.609 130.233C113.406 131.067 114.201 131.857 114.991 132.596C118.435 135.82 121.774 138.064 124.652 139.265C127.498 140.454 130.026 140.674 131.721 139.606C133.302 138.611 134.459 136.235 135.024 132.922C135.66 129.196 135.519 124.463 134.572 119.258C134.424 118.444 134.252 117.611 134.059 116.764L133.945 116.265L133.449 116.39C129.585 117.362 125.319 118.075 120.798 118.511L120.555 118.535L120.424 118.741C117.851 122.792 115.218 126.436 112.588 129.566ZM88.1999 139.554L88.1999 139.554C89.7975 140.556 92.2974 140.456 95.2348 139.328L95.0555 138.861L95.2348 139.328C98.5348 138.06 102.242 135.556 105.918 132.06L105.918 132.06C106.518 131.489 107.121 130.884 107.726 130.249L108.037 129.922L107.743 129.579C105.015 126.395 102.306 122.754 99.7165 118.791L99.5837 118.587L99.3418 118.566C94.8092 118.166 90.5742 117.504 86.7531 116.584L86.2612 116.466L86.1487 116.959C85.8829 118.125 85.652 119.266 85.4579 120.378C84.6112 125.229 84.4937 129.486 84.9716 132.783C85.2106 134.431 85.6005 135.854 86.1329 136.995C86.6639 138.134 87.3508 139.021 88.1999 139.554ZM81.3281 111.473L81.3282 111.473C82.0825 111.753 82.8653 112.019 83.6723 112.272L84.1631 112.425L84.3027 111.93C85.4838 107.743 87.0408 103.343 88.9189 98.8962L89.0011 98.7015L88.9188 98.5069C87.0648 94.1254 85.5297 89.795 84.3602 85.6563L84.2209 85.1633L83.7314 85.3146C82.601 85.664 81.5105 86.0363 80.4676 86.4319C76.1732 88.0607 72.7151 90.0817 70.3208 92.1861C67.9456 94.2738 66.5371 96.5172 66.5371 98.5954C66.5371 100.551 67.8351 102.831 70.2032 105.037L70.5234 104.693L70.2032 105.037C72.8576 107.51 76.7037 109.754 81.3281 111.473ZM123.785 82.6419L122.765 82.5015L123.286 83.3902C124.255 85.0434 125.206 86.743 126.133 88.4839C127.079 90.2623 127.978 92.0315 128.827 93.7859L129.325 94.8143L129.743 93.7508C130.936 90.7115 131.95 87.7445 132.765 84.9043L132.908 84.4061L132.405 84.2812C129.689 83.6069 126.799 83.0564 123.785 82.6419ZM110.428 70.4128L110.047 69.9644L109.666 70.4121C107.774 72.6325 105.895 75.0784 104.061 77.7091L103.477 78.5462L104.496 78.4944C106.314 78.402 108.152 78.3542 110.002 78.3542C111.869 78.3542 113.721 78.4031 115.55 78.4971L116.564 78.5492L115.987 77.7138C114.155 75.0586 112.291 72.609 110.428 70.4128ZM93.8551 88.5134L93.9133 88.4036V88.4033C94.8228 86.6916 95.7619 85.0166 96.7243 83.3834L97.2476 82.4954L96.2263 82.6341C93.2319 83.0407 90.3562 83.5774 87.6572 84.2345L87.152 84.3575L87.2946 84.8574C88.1159 87.7366 89.1208 90.7166 90.2948 93.7455L90.7148 94.8289L91.2128 93.7791C92.0486 92.0172 92.9299 90.2586 93.8551 88.5134ZM96.3191 114.869L97.327 114.991L96.8095 114.118C95.8012 112.416 94.8189 110.67 93.8708 108.889L93.775 108.709C92.8792 107.019 92.0262 105.32 91.217 103.62L90.7185 102.572L90.2993 103.654C89.1006 106.748 88.0736 109.791 87.2392 112.722L87.096 113.225L87.6049 113.345C90.3053 113.984 93.2255 114.494 96.3191 114.869ZM109.777 127.087L110.162 127.538L110.542 127.083C112.393 124.866 114.25 122.378 116.088 119.662L116.648 118.834L115.649 118.882C113.794 118.972 111.909 119.019 110.002 119.019C108.145 119.019 106.318 118.979 104.526 118.903L103.517 118.86L104.095 119.689C105.956 122.357 107.863 124.84 109.777 127.087ZM129.779 103.491L129.354 102.436L128.864 103.462C128.008 105.258 127.102 107.06 126.149 108.859C125.205 110.638 124.246 112.368 123.274 114.044L122.764 114.922L123.771 114.79C126.886 114.384 129.846 113.836 132.591 113.155L133.097 113.029L132.95 112.529C132.105 109.646 131.04 106.618 129.779 103.491ZM123.555 107.146L123.555 107.146C125.027 104.369 126.382 101.589 127.607 98.8418L127.699 98.6361L127.606 98.4311C126.377 95.7313 125.02 92.9793 123.542 90.2022C122.08 87.4548 120.557 84.8139 118.998 82.3091L118.865 82.0959L118.615 82.0751C115.807 81.8422 112.924 81.7208 110.002 81.7208H110.002C107.092 81.7208 104.213 81.8412 101.405 82.0722L101.156 82.0927L101.023 82.3046C99.4385 84.8284 97.9053 87.4785 96.4487 90.2265L96.4487 90.2265C94.996 92.9671 93.6548 95.7388 92.4366 98.4983L92.3474 98.7005L92.4368 98.9026C93.5469 101.411 94.7616 103.931 96.0736 106.436H96.0702L96.4613 107.171C97.9263 109.924 99.4731 112.587 101.072 115.126L101.207 115.341L101.46 115.359C104.211 115.553 107.067 115.652 110.002 115.652C112.95 115.652 115.844 115.54 118.645 115.322L118.899 115.302L119.032 115.085C120.569 112.579 122.082 109.925 123.555 107.146ZM133.243 81.0412L133.74 81.166L133.852 80.6656C134.007 79.9736 134.15 79.2896 134.278 78.6171C135.273 73.3608 135.468 68.7065 135.007 65.0998C134.777 63.2967 134.381 61.7401 133.83 60.4962C133.28 59.2563 132.56 58.2921 131.659 57.7272C129.961 56.6616 127.391 56.9363 124.502 58.1878C121.576 59.455 118.173 61.7839 114.676 65.0946L114.676 65.0946C113.952 65.7808 113.225 66.5073 112.498 67.2683L112.186 67.5947L112.479 67.9382C115.148 71.0668 117.81 74.6846 120.381 78.6685L120.512 78.8703L120.751 78.8947C125.161 79.3448 129.37 80.0691 133.243 81.0412Z" fill="white" stroke="#0C2759"/>
<path id="Vector_4" d="M110.39 89.5C114.709 89.5 118.28 93.3221 118.28 98.1274C118.28 102.933 114.709 106.755 110.39 106.755C106.071 106.755 102.5 102.933 102.5 98.1274C102.5 93.3221 106.071 89.5 110.39 89.5Z" fill="#53C1DE" stroke="#0C2759"/>
</g>
</g>
</g>
</g>
</g>
<defs>
<clipPath id="clip0">
<rect width="220" height="260" fill="white"/>
</clipPath>
</defs>
</svg>
