<svg width="210" height="200" viewBox="0 0 240 230" fill="none" xmlns="http://www.w3.org/2000/svg">
<rect x="30" width="180" height="230" rx="16" fill="#F2F7FF"/>
<path d="M81.9899 180V162.408H87.4619C89.3979 162.408 90.8939 162.864 91.9499 163.776C93.0059 164.688 93.5339 166 93.5339 167.712V168.048C93.5339 169.392 93.1979 170.496 92.5259 171.36C91.8699 172.208 90.9259 172.792 89.6939 173.112L95.0939 180H92.8619L87.7259 173.352C87.6459 173.352 87.5579 173.352 87.4619 173.352H83.8139V180H81.9899ZM87.7739 164.016H83.8139V171.72H87.7739C89.0699 171.72 90.0379 171.352 90.6779 170.616C91.3339 169.88 91.6619 168.968 91.6619 167.88C91.6619 166.776 91.3339 165.856 90.6779 165.12C90.0379 164.384 89.0699 164.016 87.7739 164.016ZM98.4665 180V162.48H108.354V164.136H100.29V170.28H107.802V171.912H100.29V178.344H108.618V180H98.4665ZM110.983 180L117.439 162.48H120.703L127.375 180H125.503L123.391 174.432H114.823L112.807 180H110.983ZM115.447 172.776H122.767L119.479 164.136H118.591L115.447 172.776ZM137.852 180.408C136.284 180.408 134.94 180.136 133.82 179.592C132.716 179.032 131.812 178.304 131.108 177.408C130.42 176.512 129.916 175.544 129.596 174.504C129.276 173.448 129.116 172.424 129.116 171.432V170.976C129.116 169.904 129.276 168.84 129.596 167.784C129.932 166.728 130.444 165.768 131.132 164.904C131.836 164.024 132.732 163.328 133.82 162.816C134.908 162.288 136.196 162.024 137.684 162.024C139.188 162.024 140.484 162.288 141.572 162.816C142.676 163.344 143.556 164.088 144.212 165.048C144.868 166.008 145.268 167.128 145.412 168.408H143.564C143.42 167.368 143.076 166.504 142.532 165.816C142.004 165.112 141.316 164.584 140.468 164.232C139.636 163.88 138.708 163.704 137.684 163.704C136.212 163.704 134.972 164.048 133.964 164.736C132.972 165.408 132.22 166.312 131.708 167.448C131.212 168.584 130.964 169.84 130.964 171.216C130.964 172.192 131.108 173.128 131.396 174.024C131.684 174.92 132.108 175.728 132.668 176.448C133.244 177.152 133.964 177.712 134.828 178.128C135.692 178.528 136.7 178.728 137.852 178.728C139.452 178.728 140.796 178.328 141.884 177.528C142.972 176.712 143.644 175.544 143.9 174.024H145.748C145.572 175.224 145.156 176.312 144.5 177.288C143.844 178.248 142.956 179.008 141.836 179.568C140.732 180.128 139.404 180.408 137.852 180.408ZM152.781 180V164.136H147.309V162.48H160.077V164.136H154.605V180H152.781Z" fill="#0C2759"/>
<mask id="path-3-outside-1" maskUnits="userSpaceOnUse" x="65" y="30" width="110" height="108" fill="black">
<rect fill="white" x="65" y="30" width="110" height="108"/>
<path d="M67 83.554C67 92.2459 74.8018 100.36 87.1019 104.934C84.6457 118.386 86.6617 129.228 93.3955 133.453C100.317 137.796 110.629 134.79 120.416 125.483C129.956 134.414 139.598 137.929 146.325 133.692C153.24 129.337 155.343 117.759 152.819 103.887C165.63 99.2792 172.797 92.3603 172.797 83.554C172.797 75.0637 164.98 67.7184 152.846 63.174C155.563 48.7285 153.261 38.1492 146.248 33.7499C139.488 29.5086 129.734 33.2053 120.053 42.3703C109.983 32.6424 100.325 29.6723 93.3193 34.0844C86.5651 38.3377 84.6378 49.3772 87.1019 63.0785C75.2171 67.5864 67 75.0976 67 83.554Z"/>
</mask>
<path d="M67 83.554C67 92.2459 74.8018 100.36 87.1019 104.934C84.6457 118.386 86.6617 129.228 93.3955 133.453C100.317 137.796 110.629 134.79 120.416 125.483C129.956 134.414 139.598 137.929 146.325 133.692C153.24 129.337 155.343 117.759 152.819 103.887C165.63 99.2792 172.797 92.3603 172.797 83.554C172.797 75.0637 164.98 67.7184 152.846 63.174C155.563 48.7285 153.261 38.1492 146.248 33.7499C139.488 29.5086 129.734 33.2053 120.053 42.3703C109.983 32.6424 100.325 29.6723 93.3193 34.0844C86.5651 38.3377 84.6378 49.3772 87.1019 63.0785C75.2171 67.5864 67 75.0976 67 83.554Z" fill="white"/>
<path d="M67 83.554C67 92.2459 74.8018 100.36 87.1019 104.934C84.6457 118.386 86.6617 129.228 93.3955 133.453C100.317 137.796 110.629 134.79 120.416 125.483C129.956 134.414 139.598 137.929 146.325 133.692C153.24 129.337 155.343 117.759 152.819 103.887C165.63 99.2792 172.797 92.3603 172.797 83.554C172.797 75.0637 164.98 67.7184 152.846 63.174C155.563 48.7285 153.261 38.1492 146.248 33.7499C139.488 29.5086 129.734 33.2053 120.053 42.3703C109.983 32.6424 100.325 29.6723 93.3193 34.0844C86.5651 38.3377 84.6378 49.3772 87.1019 63.0785C75.2171 67.5864 67 75.0976 67 83.554Z" stroke="#0C2759" stroke-width="4" mask="url(#path-3-outside-1)"/>
<mask id="path-4-inside-2" fill="white">
<path d="M150.275 67.6867C149.3 67.3218 148.29 66.9764 147.25 66.6499C147.421 65.891 147.578 65.1419 147.717 64.4056C150.007 52.3151 148.51 42.5749 143.398 39.368C138.497 36.293 130.481 39.4992 122.385 47.164C121.606 47.901 120.826 48.6814 120.045 49.4992C119.525 48.9581 119.006 48.4352 118.488 47.935C110.004 39.7393 101.499 36.2856 96.3925 39.5017C91.4956 42.5856 90.0455 51.7423 92.1064 63.2006C92.3054 64.3074 92.538 65.4376 92.8011 66.5867C91.5975 66.9584 90.4355 67.3547 89.3237 67.7763C79.3763 71.5492 73.0234 77.4622 73.0234 83.5957C73.0234 89.9303 79.8432 96.284 90.2042 100.137C91.0218 100.441 91.8703 100.728 92.7446 101.001C92.4608 102.244 92.2139 103.462 92.0067 104.65C90.0416 115.909 91.5762 124.849 96.46 127.914C101.505 131.079 109.971 127.826 118.215 119.986C118.866 119.367 119.52 118.709 120.175 118.021C121.024 118.91 121.872 119.752 122.715 120.541C130.7 128.017 138.587 131.035 143.466 127.963C148.506 124.789 150.143 115.185 148.017 103.5C147.855 102.607 147.666 101.696 147.454 100.768C148.048 100.576 148.632 100.379 149.201 100.174C159.972 96.2913 166.98 90.0149 166.98 83.5957C166.98 77.4401 160.423 71.4871 150.275 67.6867Z"/>
</mask>
<path d="M150.275 67.6867C149.3 67.3218 148.29 66.9764 147.25 66.6499C147.421 65.891 147.578 65.1419 147.717 64.4056C150.007 52.3151 148.51 42.5749 143.398 39.368C138.497 36.293 130.481 39.4992 122.385 47.164C121.606 47.901 120.826 48.6814 120.045 49.4992C119.525 48.9581 119.006 48.4352 118.488 47.935C110.004 39.7393 101.499 36.2856 96.3925 39.5017C91.4956 42.5856 90.0455 51.7423 92.1064 63.2006C92.3054 64.3074 92.538 65.4376 92.8011 66.5867C91.5975 66.9584 90.4355 67.3547 89.3237 67.7763C79.3763 71.5492 73.0234 77.4622 73.0234 83.5957C73.0234 89.9303 79.8432 96.284 90.2042 100.137C91.0218 100.441 91.8703 100.728 92.7446 101.001C92.4608 102.244 92.2139 103.462 92.0067 104.65C90.0416 115.909 91.5762 124.849 96.46 127.914C101.505 131.079 109.971 127.826 118.215 119.986C118.866 119.367 119.52 118.709 120.175 118.021C121.024 118.91 121.872 119.752 122.715 120.541C130.7 128.017 138.587 131.035 143.466 127.963C148.506 124.789 150.143 115.185 148.017 103.5C147.855 102.607 147.666 101.696 147.454 100.768C148.048 100.576 148.632 100.379 149.201 100.174C159.972 96.2913 166.98 90.0149 166.98 83.5957C166.98 77.4401 160.423 71.4871 150.275 67.6867Z" fill="#53C1DE" stroke="#0C2759" stroke-width="2" mask="url(#path-4-inside-2)"/>
<mask id="path-5-outside-3" maskUnits="userSpaceOnUse" x="76.0371" y="40.5671" width="88" height="86" fill="black">
<rect fill="white" x="76.0371" y="40.5671" width="88" height="86"/>
<path d="M147.939 96.0287C147.425 96.2138 146.898 96.3926 146.361 96.566C145.171 92.4707 143.567 88.1159 141.603 83.6167C143.477 79.2247 145.02 74.9256 146.175 70.8569C147.137 71.1594 148.069 71.4786 148.968 71.8153C157.663 75.0715 162.966 79.8859 162.966 83.5954C162.966 87.5468 157.239 92.6763 147.939 96.0287ZM144.08 104.347C145.02 109.514 145.154 114.186 144.531 117.838C143.972 121.119 142.846 123.307 141.455 124.183C138.494 126.048 132.162 123.624 125.333 117.231C124.55 116.498 123.761 115.716 122.97 114.888C125.618 111.738 128.264 108.076 130.846 104.009C135.388 103.57 139.68 102.854 143.571 101.875C143.763 102.716 143.933 103.541 144.08 104.347ZM105.055 123.861C102.163 124.973 99.8584 125.004 98.4656 124.131C95.502 122.271 94.2699 115.093 95.9505 105.464C96.143 104.361 96.3721 103.228 96.6362 102.07C100.485 102.996 104.745 103.663 109.298 104.064C111.898 108.044 114.62 111.702 117.363 114.905C116.764 115.534 116.167 116.133 115.573 116.698C111.928 120.165 108.275 122.624 105.055 123.861ZM91.5024 96.0045C86.9209 94.301 83.1374 92.087 80.544 89.671C78.2137 87.4999 77.0371 85.3444 77.0371 83.5954C77.0371 79.8735 82.1378 75.1261 90.6449 71.8994C91.6771 71.5079 92.7577 71.1389 93.879 70.7923C95.0547 74.9529 96.597 79.3029 98.4583 83.7017C96.573 88.1658 95.0088 92.5851 93.8215 96.7945C93.0221 96.5445 92.2476 96.2814 91.5024 96.0045ZM96.0455 62.3619C94.2797 52.5447 95.4524 45.139 98.4034 43.2807C101.547 41.301 108.497 44.1236 115.823 51.2002C116.292 51.6525 116.762 52.1259 117.233 52.6157C114.503 55.8045 111.806 59.435 109.229 63.3911C104.81 63.8367 100.58 64.5524 96.6914 65.5109C96.4469 64.4409 96.2303 63.3897 96.0455 62.3619ZM136.574 73.249C135.645 71.502 134.69 69.7963 133.717 68.1372C136.715 68.5495 139.587 69.0968 142.284 69.7665C141.475 72.5899 140.465 75.5418 139.277 78.5681C138.425 76.8078 137.523 75.033 136.574 73.249ZM120.047 55.7363C121.898 57.9183 123.752 60.3545 125.576 62.9978C123.738 62.9033 121.878 62.8542 120.002 62.8542C118.144 62.8542 116.297 62.9022 114.471 62.995C116.296 60.3764 118.166 57.9434 120.047 55.7363ZM103.413 73.2792C102.485 75.0311 101.6 76.7963 100.761 78.5648C99.5922 75.5491 98.5922 72.5837 97.7754 69.7203C100.456 69.0677 103.315 68.534 106.294 68.1296C105.307 69.804 104.345 71.5222 103.413 73.2789V73.2792ZM106.379 99.3728C103.302 98.9993 100.4 98.4931 97.7201 97.8585C98.5499 94.944 99.5719 91.9152 100.766 88.8346C101.607 90.6018 102.495 92.3677 103.429 94.1234H103.429C104.381 95.9121 105.367 97.6642 106.379 99.3728ZM120.158 111.762C118.255 109.529 116.358 107.059 114.505 104.403C116.304 104.479 118.138 104.519 120.002 104.519C121.917 104.519 123.81 104.472 125.674 104.381C123.844 107.086 121.997 109.56 120.158 111.762ZM139.315 88.6776C140.571 91.7915 141.63 94.8045 142.47 97.6693C139.746 98.3454 136.805 98.8899 133.706 99.2946C134.681 97.6131 135.644 95.8781 136.59 94.0934C137.547 92.2879 138.456 90.4795 139.315 88.6776ZM133.113 91.912C131.645 94.6824 130.137 97.3271 128.606 99.8235C125.818 100.04 122.938 100.152 120.002 100.152C117.078 100.152 114.234 100.053 111.495 99.8599C109.903 97.3307 108.362 94.6782 106.903 91.9358H106.903C105.447 89.2009 104.108 86.4428 102.894 83.7002C104.108 80.9513 105.444 78.1902 106.891 75.4602L106.89 75.4607C108.341 72.7234 109.869 70.0838 111.446 67.5705C114.241 67.3407 117.106 67.2208 120.002 67.2208H120.002C122.911 67.2208 125.78 67.3416 128.573 67.5734C130.127 70.0683 131.644 72.6994 133.1 75.437C134.574 78.2055 135.927 80.9482 137.151 83.6382C135.931 86.3744 134.58 89.1448 133.113 91.912ZM141.393 43.1508C144.54 45.1246 145.763 53.0853 143.787 63.5241C143.66 64.1902 143.518 64.8687 143.364 65.5562C139.466 64.5777 135.233 63.8496 130.802 63.3973C128.22 59.3977 125.544 55.7616 122.859 52.6137C123.581 51.8581 124.302 51.1376 125.02 50.4577C131.956 43.8905 138.44 41.2977 141.393 43.1508Z"/>
</mask>
<path d="M147.939 96.0287C147.425 96.2138 146.898 96.3926 146.361 96.566C145.171 92.4707 143.567 88.1159 141.603 83.6167C143.477 79.2247 145.02 74.9256 146.175 70.8569C147.137 71.1594 148.069 71.4786 148.968 71.8153C157.663 75.0715 162.966 79.8859 162.966 83.5954C162.966 87.5468 157.239 92.6763 147.939 96.0287ZM144.08 104.347C145.02 109.514 145.154 114.186 144.531 117.838C143.972 121.119 142.846 123.307 141.455 124.183C138.494 126.048 132.162 123.624 125.333 117.231C124.55 116.498 123.761 115.716 122.97 114.888C125.618 111.738 128.264 108.076 130.846 104.009C135.388 103.57 139.68 102.854 143.571 101.875C143.763 102.716 143.933 103.541 144.08 104.347ZM105.055 123.861C102.163 124.973 99.8584 125.004 98.4656 124.131C95.502 122.271 94.2699 115.093 95.9505 105.464C96.143 104.361 96.3721 103.228 96.6362 102.07C100.485 102.996 104.745 103.663 109.298 104.064C111.898 108.044 114.62 111.702 117.363 114.905C116.764 115.534 116.167 116.133 115.573 116.698C111.928 120.165 108.275 122.624 105.055 123.861ZM91.5024 96.0045C86.9209 94.301 83.1374 92.087 80.544 89.671C78.2137 87.4999 77.0371 85.3444 77.0371 83.5954C77.0371 79.8735 82.1378 75.1261 90.6449 71.8994C91.6771 71.5079 92.7577 71.1389 93.879 70.7923C95.0547 74.9529 96.597 79.3029 98.4583 83.7017C96.573 88.1658 95.0088 92.5851 93.8215 96.7945C93.0221 96.5445 92.2476 96.2814 91.5024 96.0045ZM96.0455 62.3619C94.2797 52.5447 95.4524 45.139 98.4034 43.2807C101.547 41.301 108.497 44.1236 115.823 51.2002C116.292 51.6525 116.762 52.1259 117.233 52.6157C114.503 55.8045 111.806 59.435 109.229 63.3911C104.81 63.8367 100.58 64.5524 96.6914 65.5109C96.4469 64.4409 96.2303 63.3897 96.0455 62.3619ZM136.574 73.249C135.645 71.502 134.69 69.7963 133.717 68.1372C136.715 68.5495 139.587 69.0968 142.284 69.7665C141.475 72.5899 140.465 75.5418 139.277 78.5681C138.425 76.8078 137.523 75.033 136.574 73.249ZM120.047 55.7363C121.898 57.9183 123.752 60.3545 125.576 62.9978C123.738 62.9033 121.878 62.8542 120.002 62.8542C118.144 62.8542 116.297 62.9022 114.471 62.995C116.296 60.3764 118.166 57.9434 120.047 55.7363ZM103.413 73.2792C102.485 75.0311 101.6 76.7963 100.761 78.5648C99.5922 75.5491 98.5922 72.5837 97.7754 69.7203C100.456 69.0677 103.315 68.534 106.294 68.1296C105.307 69.804 104.345 71.5222 103.413 73.2789V73.2792ZM106.379 99.3728C103.302 98.9993 100.4 98.4931 97.7201 97.8585C98.5499 94.944 99.5719 91.9152 100.766 88.8346C101.607 90.6018 102.495 92.3677 103.429 94.1234H103.429C104.381 95.9121 105.367 97.6642 106.379 99.3728ZM120.158 111.762C118.255 109.529 116.358 107.059 114.505 104.403C116.304 104.479 118.138 104.519 120.002 104.519C121.917 104.519 123.81 104.472 125.674 104.381C123.844 107.086 121.997 109.56 120.158 111.762ZM139.315 88.6776C140.571 91.7915 141.63 94.8045 142.47 97.6693C139.746 98.3454 136.805 98.8899 133.706 99.2946C134.681 97.6131 135.644 95.8781 136.59 94.0934C137.547 92.2879 138.456 90.4795 139.315 88.6776ZM133.113 91.912C131.645 94.6824 130.137 97.3271 128.606 99.8235C125.818 100.04 122.938 100.152 120.002 100.152C117.078 100.152 114.234 100.053 111.495 99.8599C109.903 97.3307 108.362 94.6782 106.903 91.9358H106.903C105.447 89.2009 104.108 86.4428 102.894 83.7002C104.108 80.9513 105.444 78.1902 106.891 75.4602L106.89 75.4607C108.341 72.7234 109.869 70.0838 111.446 67.5705C114.241 67.3407 117.106 67.2208 120.002 67.2208H120.002C122.911 67.2208 125.78 67.3416 128.573 67.5734C130.127 70.0683 131.644 72.6994 133.1 75.437C134.574 78.2055 135.927 80.9482 137.151 83.6382C135.931 86.3744 134.58 89.1448 133.113 91.912ZM141.393 43.1508C144.54 45.1246 145.763 53.0853 143.787 63.5241C143.66 64.1902 143.518 64.8687 143.364 65.5562C139.466 64.5777 135.233 63.8496 130.802 63.3973C128.22 59.3977 125.544 55.7616 122.859 52.6137C123.581 51.8581 124.302 51.1376 125.02 50.4577C131.956 43.8905 138.44 41.2977 141.393 43.1508Z" fill="white"/>
<path d="M147.939 96.0287C147.425 96.2138 146.898 96.3926 146.361 96.566C145.171 92.4707 143.567 88.1159 141.603 83.6167C143.477 79.2247 145.02 74.9256 146.175 70.8569C147.137 71.1594 148.069 71.4786 148.968 71.8153C157.663 75.0715 162.966 79.8859 162.966 83.5954C162.966 87.5468 157.239 92.6763 147.939 96.0287ZM144.08 104.347C145.02 109.514 145.154 114.186 144.531 117.838C143.972 121.119 142.846 123.307 141.455 124.183C138.494 126.048 132.162 123.624 125.333 117.231C124.55 116.498 123.761 115.716 122.97 114.888C125.618 111.738 128.264 108.076 130.846 104.009C135.388 103.57 139.68 102.854 143.571 101.875C143.763 102.716 143.933 103.541 144.08 104.347ZM105.055 123.861C102.163 124.973 99.8584 125.004 98.4656 124.131C95.502 122.271 94.2699 115.093 95.9505 105.464C96.143 104.361 96.3721 103.228 96.6362 102.07C100.485 102.996 104.745 103.663 109.298 104.064C111.898 108.044 114.62 111.702 117.363 114.905C116.764 115.534 116.167 116.133 115.573 116.698C111.928 120.165 108.275 122.624 105.055 123.861ZM91.5024 96.0045C86.9209 94.301 83.1374 92.087 80.544 89.671C78.2137 87.4999 77.0371 85.3444 77.0371 83.5954C77.0371 79.8735 82.1378 75.1261 90.6449 71.8994C91.6771 71.5079 92.7577 71.1389 93.879 70.7923C95.0547 74.9529 96.597 79.3029 98.4583 83.7017C96.573 88.1658 95.0088 92.5851 93.8215 96.7945C93.0221 96.5445 92.2476 96.2814 91.5024 96.0045ZM96.0455 62.3619C94.2797 52.5447 95.4524 45.139 98.4034 43.2807C101.547 41.301 108.497 44.1236 115.823 51.2002C116.292 51.6525 116.762 52.1259 117.233 52.6157C114.503 55.8045 111.806 59.435 109.229 63.3911C104.81 63.8367 100.58 64.5524 96.6914 65.5109C96.4469 64.4409 96.2303 63.3897 96.0455 62.3619ZM136.574 73.249C135.645 71.502 134.69 69.7963 133.717 68.1372C136.715 68.5495 139.587 69.0968 142.284 69.7665C141.475 72.5899 140.465 75.5418 139.277 78.5681C138.425 76.8078 137.523 75.033 136.574 73.249ZM120.047 55.7363C121.898 57.9183 123.752 60.3545 125.576 62.9978C123.738 62.9033 121.878 62.8542 120.002 62.8542C118.144 62.8542 116.297 62.9022 114.471 62.995C116.296 60.3764 118.166 57.9434 120.047 55.7363ZM103.413 73.2792C102.485 75.0311 101.6 76.7963 100.761 78.5648C99.5922 75.5491 98.5922 72.5837 97.7754 69.7203C100.456 69.0677 103.315 68.534 106.294 68.1296C105.307 69.804 104.345 71.5222 103.413 73.2789V73.2792ZM106.379 99.3728C103.302 98.9993 100.4 98.4931 97.7201 97.8585C98.5499 94.944 99.5719 91.9152 100.766 88.8346C101.607 90.6018 102.495 92.3677 103.429 94.1234H103.429C104.381 95.9121 105.367 97.6642 106.379 99.3728ZM120.158 111.762C118.255 109.529 116.358 107.059 114.505 104.403C116.304 104.479 118.138 104.519 120.002 104.519C121.917 104.519 123.81 104.472 125.674 104.381C123.844 107.086 121.997 109.56 120.158 111.762ZM139.315 88.6776C140.571 91.7915 141.63 94.8045 142.47 97.6693C139.746 98.3454 136.805 98.8899 133.706 99.2946C134.681 97.6131 135.644 95.8781 136.59 94.0934C137.547 92.2879 138.456 90.4795 139.315 88.6776ZM133.113 91.912C131.645 94.6824 130.137 97.3271 128.606 99.8235C125.818 100.04 122.938 100.152 120.002 100.152C117.078 100.152 114.234 100.053 111.495 99.8599C109.903 97.3307 108.362 94.6782 106.903 91.9358H106.903C105.447 89.2009 104.108 86.4428 102.894 83.7002C104.108 80.9513 105.444 78.1902 106.891 75.4602L106.89 75.4607C108.341 72.7234 109.869 70.0838 111.446 67.5705C114.241 67.3407 117.106 67.2208 120.002 67.2208H120.002C122.911 67.2208 125.78 67.3416 128.573 67.5734C130.127 70.0683 131.644 72.6994 133.1 75.437C134.574 78.2055 135.927 80.9482 137.151 83.6382C135.931 86.3744 134.58 89.1448 133.113 91.912ZM141.393 43.1508C144.54 45.1246 145.763 53.0853 143.787 63.5241C143.66 64.1902 143.518 64.8687 143.364 65.5562C139.466 64.5777 135.233 63.8496 130.802 63.3973C128.22 59.3977 125.544 55.7616 122.859 52.6137C123.581 51.8581 124.302 51.1376 125.02 50.4577C131.956 43.8905 138.44 41.2977 141.393 43.1508Z" stroke="#0C2759" stroke-width="2" mask="url(#path-5-outside-3)"/>
<mask id="path-6-inside-4" fill="white">
<path d="M120.39 74C125.024 74 128.78 78.0864 128.78 83.1274C128.78 88.1683 125.024 92.2549 120.39 92.2549C115.756 92.2549 112 88.1683 112 83.1274C112 78.0864 115.756 74 120.39 74Z"/>
</mask>
<path d="M120.39 74C125.024 74 128.78 78.0864 128.78 83.1274C128.78 88.1683 125.024 92.2549 120.39 92.2549C115.756 92.2549 112 88.1683 112 83.1274C112 78.0864 115.756 74 120.39 74Z" fill="#53C1DE" stroke="#0C2759" stroke-width="2" mask="url(#path-6-inside-4)"/>
</svg>
