<svg width="680" height="680" viewBox="0 0 680 680" fill="none" xmlns="http://www.w3.org/2000/svg">
<g id="rocket">
<g id="Group 147">
<g id="undraw_To_the_stars_qhyy 1">
<g id="Group" opacity="0.7">
<path id="Vector" opacity="0.7" d="M425.713 312.863C425.77 295.652 421.671 278.683 413.769 263.415C410.018 256.244 406.596 251.787 403.933 249.053C402.929 247.982 401.618 247.254 400.182 246.969C398.746 246.684 397.258 246.857 395.924 247.464C394.859 247.842 393.896 248.466 393.114 249.286C389.552 252.995 386.334 257.897 383.524 263.118C375.211 278.743 370.896 296.203 370.969 313.923V324.561H364.182V200.94C364.182 175.028 358.414 149.463 347.117 126.766C341.763 116.022 336.881 109.346 333.122 105.242C332.211 104.199 331.09 103.363 329.832 102.79C328.574 102.217 327.21 101.921 325.829 101.921C324.449 101.921 323.084 102.217 321.826 102.79C320.569 103.363 319.447 104.199 318.537 105.242C313.45 110.802 308.862 118.148 304.851 125.961C292.97 149.124 286.935 175.41 286.935 202.091V324.561H281.069V313.414C281.142 295.694 276.827 278.234 268.514 262.609C265.704 257.396 262.486 252.493 258.924 248.778C257.899 247.692 256.557 246.962 255.092 246.693C253.627 246.423 252.115 246.629 250.774 247.28L251.02 247.414C250.16 247.797 249.382 248.344 248.73 249.025C246.095 251.759 242.674 256.216 238.894 263.386C230.992 278.655 226.894 295.623 226.95 312.835V497.66H247.887L245.603 512.855V558.285H262.718V512.855L260.434 497.66H281.069V329.344H286.935V496.905H303.656L301.253 512.848V558.285H318.375V512.855L315.972 496.912H338.504L336.101 512.855V558.285H353.222V512.855L350.82 496.912H364.168V329.344H370.955V497.915H376.456V497.66H394.646L392.362 512.855V558.285H409.484V512.855L407.2 497.66H425.713V312.863Z" fill="url(#paint0_linear)"/>
</g>
<path id="Vector_2" d="M266.125 503.997H249.917L252.812 484.21H263.231L266.125 503.997Z" fill="#535461"/>
<g id="Group_2" opacity="0.1">
<path id="Vector_3" opacity="0.1" d="M252.004 492.066H264.039L263.231 486.534H252.812L252.004 492.066Z" fill="black"/>
</g>
<path id="Vector_4" d="M405.065 503.997H388.856L391.751 484.21H402.17L405.065 503.997Z" fill="#535461"/>
<g id="Group_3" opacity="0.1">
<path id="Vector_5" opacity="0.1" d="M390.943 492.066H402.978L402.17 486.534H391.751L390.943 492.066Z" fill="black"/>
</g>
<path id="Vector_6" d="M318.811 503.997H302.595L305.49 484.21H315.916L318.811 503.997Z" fill="#535461"/>
<g id="Group_4" opacity="0.1">
<path id="Vector_7" opacity="0.1" d="M304.682 492.066H316.724L315.916 486.534H305.49L304.682 492.066Z" fill="black"/>
</g>
<path id="Vector_8" d="M351.803 503.997H335.595L338.489 484.21H348.909L351.803 503.997Z" fill="#535461"/>
<g id="Group_5" opacity="0.1">
<path id="Vector_9" opacity="0.1" d="M337.682 492.066H349.724L348.909 486.534H338.489L337.682 492.066Z" fill="black"/>
</g>
<path id="Vector_10" d="M381.908 320.641H266.125V325.296H381.908V320.641Z" fill="white"/>
<path id="Vector_11" d="M399.809 247.082C399.198 246.403 398.451 245.86 397.618 245.489C396.785 245.117 395.884 244.926 394.972 244.926C394.061 244.926 393.16 245.117 392.327 245.489C391.493 245.86 390.747 246.403 390.135 247.082C386.763 250.692 383.721 255.467 381.058 260.546C373.178 275.821 369.102 292.789 369.178 309.995V489.205H420.416V309.253C420.48 292.519 416.601 276.007 409.097 261.069C405.542 254.09 402.304 249.745 399.809 247.082Z" fill="#0C2759"/>
<path id="Vector_12" d="M252.882 247.082C253.494 246.403 254.24 245.86 255.073 245.489C255.906 245.117 256.808 244.926 257.719 244.926C258.63 244.926 259.532 245.117 260.365 245.489C261.198 245.86 261.944 246.403 262.556 247.082C265.928 250.692 268.971 255.467 271.633 260.546C279.513 275.821 283.589 292.789 283.514 309.995V489.205H232.262V309.253C232.197 292.519 236.076 276.007 243.58 261.069C247.128 254.09 250.367 249.745 252.882 247.082Z" fill="#0C2759"/>
<path id="Vector_13" d="M232.55 313.075L244.704 313.132V328.207H232.55V313.075Z" fill="white"/>
<path id="Vector_14" d="M271.338 313.075L283.493 313.132V328.207H271.338V313.075Z" fill="white"/>
<path id="Vector_15" d="M369.171 313.075L381.332 313.132V328.207H369.171V313.075Z" fill="white"/>
<path id="Vector_16" d="M407.959 313.075L420.121 313.132V328.207H407.959V313.075Z" fill="white"/>
<g id="Group_6" opacity="0.1">
<path id="Vector_17" opacity="0.1" d="M271.612 260.313C268.957 255.234 265.907 250.459 262.535 246.849C261.582 245.791 260.311 245.075 258.916 244.811C257.52 244.547 256.077 244.749 254.807 245.387C255.539 245.754 256.2 246.249 256.76 246.849C260.132 250.459 263.174 255.234 265.837 260.313C273.717 275.588 277.793 292.556 277.717 309.762V488.957H283.507V309.783C283.582 292.568 279.5 275.593 271.612 260.313Z" fill="black"/>
</g>
<g id="Group_7" opacity="0.1">
<path id="Vector_18" opacity="0.1" d="M385.667 260.808C388.322 255.729 391.372 250.953 394.744 247.344C395.375 246.66 396.138 246.113 396.985 245.733C395.733 245.182 394.34 245.04 393.003 245.329C391.666 245.618 390.454 246.323 389.538 247.344C386.166 250.953 383.124 255.729 380.461 260.808C372.581 276.082 368.505 293.05 368.58 310.257V489.452H373.793V310.285C373.711 293.069 377.785 276.091 385.667 260.808Z" fill="black"/>
</g>
<path id="Vector_19" d="M266.125 503.997H249.917V548.232H266.125V503.997Z" fill="url(#paint1_linear)"/>
<path id="Vector_20" d="M318.804 503.997H302.595V548.232H318.804V503.997Z" fill="url(#paint2_linear)"/>
<path id="Vector_21" d="M351.803 503.997H335.595V548.232H351.803V503.997Z" fill="url(#paint3_linear)"/>
<path id="Vector_22" d="M405.065 503.997H388.856V548.232H405.065V503.997Z" fill="url(#paint4_linear)"/>
<path id="Vector_23" d="M332.764 106.577C331.917 105.565 330.86 104.752 329.668 104.194C328.475 103.635 327.176 103.346 325.861 103.346C324.546 103.346 323.246 103.635 322.054 104.194C320.862 104.752 319.805 105.565 318.958 106.577C314.146 111.988 309.825 119.144 306.003 126.759C294.762 149.322 289.043 174.929 289.043 200.897V488.47H362.173V199.739C362.173 174.506 356.714 149.583 346.014 127.536C340.948 117.074 336.326 110.575 332.764 106.577Z" fill="#DBDBDB"/>
<path id="Vector_24" d="M336.452 138.521H313.752C309.484 138.521 306.024 142 306.024 146.292V148.333C306.024 152.625 309.484 156.104 313.752 156.104H336.452C340.72 156.104 344.18 152.625 344.18 148.333V146.292C344.18 142 340.72 138.521 336.452 138.521Z" fill="url(#paint5_linear)"/>
<g id="Group_8" opacity="0.7">
<path id="Vector_25" opacity="0.7" d="M495.97 543.4C493.57 528.852 485.806 515.748 474.225 506.698C462.645 497.649 448.098 493.32 433.484 494.574C418.871 495.828 405.264 502.573 395.376 513.464C385.487 524.355 380.044 538.593 380.13 553.34C380.13 553.629 380.13 553.912 380.13 554.201C377.974 554.53 375.839 554.99 373.737 555.579C371.046 544.802 365.089 535.134 356.691 527.912C348.292 520.69 337.869 516.272 326.863 515.27C315.857 514.269 304.814 516.732 295.263 522.32C285.711 527.908 278.124 536.344 273.551 546.459C268.838 544.631 263.888 543.494 258.854 543.083C258.051 538.499 256.704 534.028 254.842 529.767C253.968 516.321 248.085 503.701 238.365 494.424C228.646 485.147 215.805 479.896 202.406 479.717C189.006 479.539 176.031 484.447 166.071 493.462C156.111 502.477 149.898 514.936 148.67 528.354C145.912 534.228 144.15 540.524 143.457 546.982C131.262 552.084 121.384 561.556 115.739 573.564C110.094 585.571 109.083 599.258 112.903 611.972H539.768C541.993 604.556 542.592 596.743 541.525 589.072C540.458 581.401 537.75 574.054 533.587 567.536C529.425 561.018 523.906 555.486 517.412 551.319C510.917 547.152 503.602 544.451 495.97 543.4Z" fill="url(#paint6_linear)"/>
</g>
<path id="Vector_26" d="M206.597 585.22C234.856 585.22 257.765 562.186 257.765 533.772C257.765 505.358 234.856 482.324 206.597 482.324C178.338 482.324 155.429 505.358 155.429 533.772C155.429 562.186 178.338 585.22 206.597 585.22Z" fill="url(#paint7_linear)"/>
<path id="Vector_27" d="M206.344 609.4C237.288 609.4 262.373 584.178 262.373 553.064C262.373 521.95 237.288 496.728 206.344 496.728C175.4 496.728 150.314 521.95 150.314 553.064C150.314 584.178 175.4 609.4 206.344 609.4Z" fill="url(#paint8_linear)"/>
<path id="Vector_28" d="M436.863 604.773C436.863 606.313 436.795 607.837 436.659 609.344C436.664 609.365 436.664 609.387 436.659 609.407H334.731C334.59 607.882 334.52 606.335 334.52 604.78C334.511 592.469 338.898 580.564 346.881 571.23C354.865 561.896 365.915 555.753 378.023 553.919C380.553 553.536 383.108 553.343 385.667 553.34C386.974 553.34 388.273 553.389 389.559 553.481C398.73 554.186 407.543 557.362 415.072 562.675C422.601 567.987 428.567 575.241 432.345 583.673C432.556 584.139 432.76 584.612 432.949 585.086C435.533 591.324 436.863 598.015 436.863 604.773Z" fill="url(#paint9_linear)"/>
<path id="Vector_29" d="M533.571 594.481C533.577 599.536 532.838 604.563 531.379 609.4H433.441C431.073 601.489 430.623 593.123 432.128 585.001C432.212 584.556 432.296 584.104 432.394 583.666C434.86 572.163 441.171 561.858 450.275 554.466C459.38 547.073 470.729 543.041 482.431 543.04C484.04 543.04 485.621 543.111 487.188 543.266C487.89 543.323 488.593 543.408 489.295 543.499C501.559 545.177 512.802 551.267 520.943 560.64C529.084 570.014 533.57 582.037 533.571 594.481Z" fill="url(#paint10_linear)"/>
<path id="Vector_30" d="M219.25 609.407C219.419 608.871 219.566 608.334 219.714 607.79C222.043 599.03 222.03 589.808 219.677 581.055C217.323 572.302 212.712 564.329 206.31 557.943C199.908 551.557 191.943 546.985 183.219 544.688C174.495 542.391 165.323 542.451 156.63 544.863C154.595 545.424 152.598 546.118 150.651 546.939C138.933 551.841 129.442 560.943 124.019 572.481C118.595 584.019 117.626 597.171 121.298 609.386H219.25V609.407Z" fill="url(#paint11_linear)"/>
<g id="Group_9" opacity="0.7">
<path id="Vector_31" opacity="0.7" d="M514.124 503.594C519.308 503.594 523.51 499.369 523.51 494.157C523.51 488.944 519.308 484.719 514.124 484.719C508.94 484.719 504.738 488.944 504.738 494.157C504.738 499.369 508.94 503.594 514.124 503.594Z" fill="url(#paint12_linear)"/>
</g>
<path id="bolinha-azul-2" class="bolinha-azul-2" d="M514.124 502.902C518.928 502.902 522.822 498.986 522.822 494.157C522.822 489.327 518.928 485.411 514.124 485.411C509.32 485.411 505.426 489.327 505.426 494.157C505.426 498.986 509.32 502.902 514.124 502.902Z" fill="url(#paint13_linear)"/>
<g id="Group_10" opacity="0.7">
<path id="Vector_32" opacity="0.7" d="M557.107 595.512C562.76 595.512 567.343 590.904 567.343 585.22C567.343 579.536 562.76 574.928 557.107 574.928C551.454 574.928 546.871 579.536 546.871 585.22C546.871 590.904 551.454 595.512 557.107 595.512Z" fill="url(#paint14_linear)"/>
</g>
<g id="Group_11" opacity="0.7">
<path id="Vector_34" opacity="0.7" d="M119.099 537.876C125.311 537.876 130.347 532.813 130.347 526.567C130.347 520.32 125.311 515.257 119.099 515.257C112.887 515.257 107.851 520.32 107.851 526.567C107.851 532.813 112.887 537.876 119.099 537.876Z" fill="url(#paint16_linear)"/>
</g>
<path id="bolinha-azul-1" class="bolinha-azul-1" d="M119.099 537.368C125.032 537.368 129.841 532.532 129.841 526.567C129.841 520.601 125.032 515.766 119.099 515.766C113.166 515.766 108.357 520.601 108.357 526.567C108.357 532.532 113.166 537.368 119.099 537.368Z" fill="url(#paint17_linear)"/>
<g id="Group_12" opacity="0.4">
<path id="Vector_35" opacity="0.4" d="M542.852 80.341C540.359 77.0283 537.235 74.2476 533.662 72.1607C529.564 69.7927 524.979 68.403 520.262 68.099C515.545 67.7949 510.821 68.5846 506.455 70.4072C502.09 72.2298 498.199 75.0364 495.083 78.6106C491.968 82.1848 489.71 86.4309 488.485 91.0214C487.26 95.6118 487.101 100.424 488.019 105.086C488.937 109.749 490.908 114.136 493.78 117.911C496.652 121.686 500.348 124.747 504.583 126.858C508.818 128.969 513.479 130.074 518.206 130.086C518.859 130.086 519.513 130.086 520.159 130.023C525.72 129.67 531.083 127.809 535.677 124.638C540.271 121.467 543.925 117.104 546.251 112.013C548.577 106.921 549.488 101.291 548.887 95.7208C548.286 90.1506 546.195 84.848 542.838 80.3763L542.852 80.341Z" fill="url(#paint18_linear)"/>
</g>
<path id="Vector_36" d="M547.383 99.0256C547.384 106.481 544.56 113.657 539.486 119.094C534.411 124.531 527.468 127.82 520.068 128.292C519.456 128.335 518.838 128.356 518.22 128.356C513.748 128.353 509.337 127.317 505.327 125.326C501.317 123.335 497.816 120.444 495.095 116.876C492.374 113.308 490.505 109.159 489.633 104.749C488.761 100.338 488.91 95.7858 490.068 91.4427C491.225 87.0995 493.36 83.0822 496.309 79.7012C499.257 76.3203 502.939 73.6664 507.07 71.9446C511.201 70.2228 515.67 69.4793 520.133 69.7716C524.595 70.0639 528.931 71.3841 532.805 73.6302C536.184 75.6031 539.138 78.2326 541.496 81.3654C545.325 86.4472 547.393 92.6502 547.383 99.0256Z" fill="#0C2759"/>
<path id="Vector_37" opacity="0.5" d="M511.04 80.4258C509.533 81.0793 508.079 81.8492 506.691 82.7287C505.764 83.2457 504.968 83.9709 504.365 84.8479C504.071 85.2878 503.909 85.8036 503.899 86.3337C503.889 86.8637 504.032 87.3853 504.309 87.836C505.012 88.8109 506.417 88.9663 507.59 89.0299C508.668 89.2601 509.788 89.1983 510.835 88.8508C511.882 88.5033 512.818 87.8825 513.548 87.0519L516.056 84.7632C516.927 83.972 517.883 82.877 517.503 81.7609C517.215 80.9062 516.26 80.4894 515.396 80.3481C513.24 79.9215 511.003 80.3168 509.122 81.4572" fill="#D7D7D7"/>
<path id="Vector_38" opacity="0.05" d="M500.564 112.144C501.41 112.144 502.096 111.454 502.096 110.604C502.096 109.753 501.41 109.064 500.564 109.064C499.719 109.064 499.033 109.753 499.033 110.604C499.033 111.454 499.719 112.144 500.564 112.144Z" fill="#F55F44"/>
<path id="Vector_39" opacity="0.5" d="M531.779 106.485C534.887 106.485 537.407 103.952 537.407 100.827C537.407 97.7019 534.887 95.1686 531.779 95.1686C528.671 95.1686 526.152 97.7019 526.152 100.827C526.152 103.952 528.671 106.485 531.779 106.485Z" fill="#D7D7D7"/>
<path id="Vector_40" opacity="0.5" d="M541.503 81.3583C541.481 82.8368 541.037 84.2777 540.224 85.5099C539.411 86.7421 538.263 87.7136 536.917 88.3089C535.571 88.9043 534.083 89.0985 532.63 88.8685C531.177 88.6384 529.821 87.9938 528.722 87.0112C527.623 86.0286 526.828 84.7494 526.431 83.3256C526.034 81.9019 526.052 80.3934 526.483 78.9796C526.913 77.5658 527.739 76.3062 528.861 75.3503C529.983 74.3945 531.354 73.7827 532.812 73.5878C536.194 75.5711 539.149 78.2128 541.503 81.3583Z" fill="#D7D7D7"/>
<path id="Vector_41" opacity="0.5" d="M542.065 115.916C539.556 119.505 536.276 122.481 532.469 124.624C528.661 126.766 524.423 128.02 520.068 128.292C520.033 127.89 520.011 127.48 520.011 127.07C520.012 124.496 520.724 121.973 522.068 119.782C523.412 117.591 525.334 115.819 527.621 114.662C529.908 113.505 532.469 113.01 535.02 113.232C537.57 113.453 540.009 114.382 542.065 115.916Z" fill="#D7D7D7"/>
<path id="bolinha-preta-5" class="bolinha-preta-5" d="M522.822 315.117C524.801 315.117 526.405 313.504 526.405 311.514C526.405 309.524 524.801 307.911 522.822 307.911C520.843 307.911 519.239 309.524 519.239 311.514C519.239 313.504 520.843 315.117 522.822 315.117Z" fill="#535461"/>
<path id="bolinha-preta-2" class="bolinha-preta-2" d="M45.0769 409.776C47.0557 409.776 48.66 408.163 48.66 406.173C48.66 404.183 47.0557 402.57 45.0769 402.57C43.098 402.57 41.4938 404.183 41.4938 406.173C41.4938 408.163 43.098 409.776 45.0769 409.776Z" fill="#535461"/>
<path id="bolinha-preta-6" class="bolinha-preta-6" d="M661.227 430.262C663.206 430.262 664.81 428.649 664.81 426.659C664.81 424.669 663.206 423.056 661.227 423.056C659.248 423.056 657.644 424.669 657.644 426.659C657.644 428.649 659.248 430.262 661.227 430.262Z" fill="#535461"/>
<path id="bolinha-preta-3" class="bolinha-preta-3" d="M217.852 259.55C219.831 259.55 221.435 257.937 221.435 255.948C221.435 253.958 219.831 252.345 217.852 252.345C215.873 252.345 214.269 253.958 214.269 255.948C214.269 257.937 215.873 259.55 217.852 259.55Z" fill="#535461"/>
<path id="bolinha-preta-4" class="bolinha-preta-4" d="M206.084 176.717C208.063 176.717 209.667 175.104 209.667 173.114C209.667 171.124 208.063 169.511 206.084 169.511C204.105 169.511 202.501 171.124 202.501 173.114C202.501 175.104 204.105 176.717 206.084 176.717Z" fill="#535461"/>
<path id="bolinha-preta-1" class="bolinha-preta-1" d="M104.767 340.837C106.746 340.837 108.35 339.224 108.35 337.234C108.35 335.245 106.746 333.632 104.767 333.632C102.788 333.632 101.184 335.245 101.184 337.234C101.184 339.224 102.788 340.837 104.767 340.837Z" fill="#535461"/>
<path id="Vector_42" d="M611.605 341.466H608.415V338.266H607.116V341.466H603.926V342.78H607.116V345.98H608.415V342.78H611.605V341.466Z" fill="#535461"/>
<path id="Vector_43" d="M665 230.559H661.81V227.359H660.511V230.559H657.321V231.873H660.511V235.073H661.81V231.873H665V230.559Z" fill="#535461"/>
<path id="Vector_44" d="M437.629 168.6H434.439V165.393H433.139V168.6H429.949V169.907H433.139V173.114H434.439V169.907H437.629V168.6Z" fill="#535461"/>
<path id="Vector_45" d="M576.807 323.459H573.617V320.259H572.317V323.459H569.135V324.773H572.317V327.973H573.617V324.773H576.807V323.459Z" fill="#535461"/>
<path id="Vector_46" d="M460.139 429.958H456.956V426.758H455.656V429.958H452.467V431.272H455.656V434.472H456.956V431.272H460.139V429.958Z" fill="#535461"/>
<path id="Vector_47" d="M133.684 210.271H130.495V207.071H129.195V210.271H126.005V211.578H129.195V214.785H130.495V211.578H133.684V210.271Z" fill="#535461"/>
<path id="Vector_48" d="M22.679 251.949H19.4894V248.749H18.1896V251.949H15V253.256H18.1896V256.463H19.4894V253.256H22.679V251.949Z" fill="#535461"/>
<path id="Vector_49" d="M177.686 383.144H174.497V379.937H173.197V383.144H170.014V384.451H173.197V387.658H174.497V384.451H177.686V383.144Z" fill="#535461"/>
<path id="bolinha-azul-3" class="bolinha-azul-3" d="M557.107 594.997C562.477 594.997 566.83 590.619 566.83 585.22C566.83 579.82 562.477 575.443 557.107 575.443C551.737 575.443 547.383 579.82 547.383 585.22C547.383 590.619 551.737 594.997 557.107 594.997Z" fill="url(#paint19_linear)"/>
<g id="Group_13" opacity="0.4">
<path id="Vector_50" opacity="0.4" d="M203.962 314.057C202.775 312.478 201.287 311.153 199.585 310.158C197.633 309.015 195.446 308.341 193.192 308.186C190.939 308.031 188.681 308.401 186.592 309.266C184.504 310.131 182.642 311.468 181.151 313.174C179.66 314.88 178.58 316.908 177.995 319.101C177.41 321.295 177.336 323.594 177.778 325.821C178.22 328.048 179.166 330.143 180.543 331.943C181.921 333.742 183.692 335.199 185.72 336.198C187.748 337.198 189.978 337.715 192.236 337.708C192.545 337.708 192.862 337.708 193.164 337.708C195.811 337.537 198.363 336.65 200.55 335.139C202.736 333.629 204.475 331.551 205.582 329.127C206.689 326.703 207.123 324.023 206.838 321.371C206.553 318.719 205.559 316.194 203.962 314.064V314.057Z" fill="url(#paint20_linear)"/>
</g>
<path id="Vector_51" d="M206.119 322.958C206.119 326.509 204.774 329.927 202.356 332.516C199.939 335.105 196.632 336.671 193.108 336.895C192.82 336.895 192.524 336.895 192.229 336.895C190.1 336.893 188 336.399 186.09 335.45C184.181 334.502 182.515 333.125 181.219 331.425C179.924 329.726 179.035 327.75 178.62 325.65C178.205 323.55 178.276 321.382 178.827 319.314C179.378 317.246 180.395 315.333 181.799 313.723C183.203 312.113 184.956 310.849 186.923 310.029C188.89 309.209 191.018 308.855 193.143 308.993C195.268 309.132 197.333 309.76 199.178 310.829C200.786 311.768 202.192 313.019 203.316 314.509C205.147 316.94 206.132 319.909 206.119 322.958Z" fill="#0C2759"/>
<path id="Vector_52" opacity="0.5" d="M188.808 314.099C188.078 314.408 187.373 314.774 186.7 315.194C186.259 315.437 185.879 315.777 185.59 316.19C185.456 316.401 185.385 316.647 185.385 316.897C185.385 317.147 185.456 317.392 185.59 317.603C185.794 317.805 186.039 317.96 186.309 318.057C186.578 318.155 186.865 318.193 187.15 318.168C187.659 318.273 188.187 318.242 188.68 318.077C189.173 317.912 189.615 317.619 189.96 317.229L191.154 316.141C191.569 315.76 192.026 315.244 191.857 314.728C191.763 314.533 191.62 314.366 191.443 314.242C191.266 314.118 191.06 314.042 190.845 314.022C189.819 313.82 188.755 314.009 187.859 314.552" fill="#D7D7D7"/>
<path id="Vector_53" opacity="0.1" d="M183.82 329.202C184.223 329.202 184.55 328.874 184.55 328.468C184.55 328.062 184.223 327.733 183.82 327.733C183.416 327.733 183.089 328.062 183.089 328.468C183.089 328.874 183.416 329.202 183.82 329.202Z" fill="#F55F44"/>
<path id="Vector_54" opacity="0.5" d="M198.686 326.511C200.168 326.511 201.37 325.303 201.37 323.813C201.37 322.322 200.168 321.114 198.686 321.114C197.204 321.114 196.002 322.322 196.002 323.813C196.002 325.303 197.204 326.511 198.686 326.511Z" fill="#D7D7D7"/>
<path id="Vector_55" opacity="0.5" d="M203.316 314.573C203.307 315.276 203.097 315.963 202.712 316.55C202.326 317.137 201.781 317.601 201.141 317.885C200.501 318.17 199.793 318.264 199.101 318.156C198.41 318.048 197.763 317.742 197.24 317.275C196.716 316.808 196.336 316.2 196.146 315.523C195.957 314.846 195.964 314.128 196.168 313.455C196.372 312.781 196.765 312.181 197.298 311.726C197.832 311.271 198.484 310.979 199.178 310.885C200.786 311.827 202.193 313.08 203.316 314.573Z" fill="#D7D7D7"/>
<path id="Vector_56" opacity="0.5" d="M203.59 331.004C202.395 332.714 200.834 334.132 199.021 335.153C197.207 336.174 195.189 336.772 193.114 336.902C193.114 336.712 193.114 336.514 193.114 336.316C193.111 335.084 193.448 333.876 194.09 332.827C194.732 331.778 195.652 330.93 196.747 330.378C197.842 329.826 199.069 329.592 200.289 329.703C201.509 329.813 202.674 330.264 203.653 331.004H203.59Z" fill="#D7D7D7"/>
<g id="Group_14" opacity="0.1">
<path id="Vector_57" opacity="0.1" d="M361.78 210.73H289.415V213.556H361.78V210.73Z" fill="black"/>
</g>
<path id="Vector_58" d="M319.208 504H303V548.235H319.208V504Z" fill="url(#paint21_linear)"/>
<path id="Vector_59" d="M352.208 505H336V549.235H352.208V505Z" fill="url(#paint22_linear)"/>
<path id="Vector_60" d="M405.208 504H389V548.235H405.208V504Z" fill="url(#paint23_linear)"/>
<path id="Vector_61" d="M373.407 567.729C373.415 575.865 371.501 583.886 367.822 591.132C364.143 598.379 358.804 604.642 352.246 609.407H292.226C285.122 604.245 279.455 597.334 275.769 589.338C272.083 581.342 270.5 572.529 271.173 563.741C271.846 554.954 274.752 546.488 279.613 539.154C284.473 531.819 291.125 525.863 298.931 521.855C306.738 517.847 315.437 515.921 324.196 516.263C332.954 516.604 341.479 519.202 348.953 523.806C356.427 528.41 362.6 534.867 366.881 542.558C371.161 550.249 373.406 558.916 373.4 567.729H373.407Z" fill="url(#paint24_linear)"/>
<path id="Vector_62" d="M431.228 609.4C459.487 609.4 482.396 586.366 482.396 557.952C482.396 529.539 459.487 506.505 431.228 506.505C402.969 506.505 380.06 529.539 380.06 557.952C380.06 586.366 402.969 609.4 431.228 609.4Z" fill="url(#paint25_linear)"/>
<path id="Vector_63" d="M434.046 609.4C464.99 609.4 490.075 584.178 490.075 553.064C490.075 521.95 464.99 496.728 434.046 496.728C403.101 496.728 378.016 521.95 378.016 553.064C378.016 584.178 403.101 609.4 434.046 609.4Z" fill="url(#paint26_linear)"/>
</g>
</g>
</g>
<defs>
<linearGradient id="paint0_linear" x1="326.335" y1="558.285" x2="326.335" y2="101.943" gradientUnits="userSpaceOnUse">
<stop stop-color="#808080" stop-opacity="0.25"/>
<stop offset="0.54" stop-color="#808080" stop-opacity="0.12"/>
<stop offset="1" stop-color="#808080" stop-opacity="0.1"/>
</linearGradient>
<linearGradient id="paint1_linear" x1="258.018" y1="503.997" x2="258.018" y2="548.239" gradientUnits="userSpaceOnUse">
<stop stop-color="#E0E0E0"/>
<stop offset="0.31" stop-color="#FCCC63"/>
<stop offset="0.77" stop-color="#F55F44"/>
</linearGradient>
<linearGradient id="paint2_linear" x1="7124.46" y1="27806.1" x2="7124.46" y2="30576.6" gradientUnits="userSpaceOnUse">
<stop stop-color="#E0E0E0"/>
<stop offset="0.31" stop-color="#FCCC63"/>
<stop offset="0.77" stop-color="#F55F44"/>
</linearGradient>
<linearGradient id="paint3_linear" x1="7918.76" y1="27806.1" x2="7918.76" y2="30576.6" gradientUnits="userSpaceOnUse">
<stop stop-color="#E0E0E0"/>
<stop offset="0.31" stop-color="#FCCC63"/>
<stop offset="0.77" stop-color="#F55F44"/>
</linearGradient>
<linearGradient id="paint4_linear" x1="9200.78" y1="27806.1" x2="9200.78" y2="30576.6" gradientUnits="userSpaceOnUse">
<stop stop-color="#E0E0E0"/>
<stop offset="0.31" stop-color="#FCCC63"/>
<stop offset="0.77" stop-color="#F55F44"/>
</linearGradient>
<linearGradient id="paint5_linear" x1="325.102" y1="138.521" x2="325.141" y2="155.233" gradientUnits="userSpaceOnUse">
<stop stop-color="#538BF0"/>
<stop offset="1" stop-color="#2DC7ED"/>
</linearGradient>
<linearGradient id="paint6_linear" x1="250568" y1="110923" x2="250568" y2="86155.9" gradientUnits="userSpaceOnUse">
<stop stop-color="#808080" stop-opacity="0.25"/>
<stop offset="0.54" stop-color="#808080" stop-opacity="0.12"/>
<stop offset="1" stop-color="#808080" stop-opacity="0.1"/>
</linearGradient>
<linearGradient id="paint7_linear" x1="206.597" y1="482.324" x2="206.597" y2="585.22" gradientUnits="userSpaceOnUse">
<stop stop-color="#F2F2F2"/>
<stop offset="0.31" stop-color="#E6E6E6"/>
<stop offset="0.77" stop-color="#CCCCCC"/>
</linearGradient>
<linearGradient id="paint8_linear" x1="30669.7" y1="68878.8" x2="30669.7" y2="86850.1" gradientUnits="userSpaceOnUse">
<stop stop-color="#F2F2F2"/>
<stop offset="0.31" stop-color="#E6E6E6"/>
<stop offset="0.77" stop-color="#CCCCCC"/>
</linearGradient>
<linearGradient id="paint9_linear" x1="68395.5" y1="42715.2" x2="68395.5" y2="47166.5" gradientUnits="userSpaceOnUse">
<stop stop-color="#F2F2F2"/>
<stop offset="0.31" stop-color="#E6E6E6"/>
<stop offset="0.77" stop-color="#CCCCCC"/>
</linearGradient>
<linearGradient id="paint10_linear" x1="82557.8" y1="49477.8" x2="82557.8" y2="55713" gradientUnits="userSpaceOnUse">
<stop stop-color="#F2F2F2"/>
<stop offset="0.31" stop-color="#E6E6E6"/>
<stop offset="0.77" stop-color="#CCCCCC"/>
</linearGradient>
<linearGradient id="paint11_linear" x1="36800.1" y1="49506.3" x2="36800.1" y2="55745.2" gradientUnits="userSpaceOnUse">
<stop stop-color="#F2F2F2"/>
<stop offset="0.31" stop-color="#E6E6E6"/>
<stop offset="0.77" stop-color="#CCCCCC"/>
</linearGradient>
<linearGradient id="paint12_linear" x1="13841.3" y1="12123.8" x2="13841.3" y2="11619.5" gradientUnits="userSpaceOnUse">
<stop stop-color="#808080" stop-opacity="0.25"/>
<stop offset="0.54" stop-color="#808080" stop-opacity="0.12"/>
<stop offset="1" stop-color="#808080" stop-opacity="0.1"/>
</linearGradient>
<linearGradient id="paint13_linear" x1="514.124" y1="485.411" x2="514.209" y2="502.036" gradientUnits="userSpaceOnUse">
<stop stop-color="#538BF0"/>
<stop offset="1" stop-color="#2DC7ED"/>
</linearGradient>
<linearGradient id="paint14_linear" x1="16343.9" y1="15946.6" x2="16343.9" y2="15347" gradientUnits="userSpaceOnUse">
<stop stop-color="#808080" stop-opacity="0.25"/>
<stop offset="0.54" stop-color="#808080" stop-opacity="0.12"/>
<stop offset="1" stop-color="#808080" stop-opacity="0.1"/>
</linearGradient>
<linearGradient id="paint15_linear" x1="557.107" y1="575.443" x2="557.107" y2="594.997" gradientUnits="userSpaceOnUse">
<stop stop-color="#F2F2F2"/>
<stop offset="0.31" stop-color="#E0E0E0"/>
<stop offset="0.77" stop-color="#B3B3B3"/>
</linearGradient>
<linearGradient id="paint16_linear" x1="3441.11" y1="15560.7" x2="3441.11" y2="14836.4" gradientUnits="userSpaceOnUse">
<stop stop-color="#808080" stop-opacity="0.25"/>
<stop offset="0.54" stop-color="#808080" stop-opacity="0.12"/>
<stop offset="1" stop-color="#808080" stop-opacity="0.1"/>
</linearGradient>
<linearGradient id="paint17_linear" x1="119.099" y1="515.766" x2="119.205" y2="536.298" gradientUnits="userSpaceOnUse">
<stop stop-color="#538BF0"/>
<stop offset="1" stop-color="#2DC7ED"/>
</linearGradient>
<linearGradient id="paint18_linear" x1="53103.6" y1="9548.81" x2="53103.6" y2="4098.25" gradientUnits="userSpaceOnUse">
<stop stop-color="#808080" stop-opacity="0.25"/>
<stop offset="0.54" stop-color="#808080" stop-opacity="0.12"/>
<stop offset="1" stop-color="#808080" stop-opacity="0.1"/>
</linearGradient>
<linearGradient id="paint19_linear" x1="557.107" y1="575.443" x2="557.202" y2="594.029" gradientUnits="userSpaceOnUse">
<stop stop-color="#538BF0"/>
<stop offset="1" stop-color="#2DC7ED"/>
</linearGradient>
<linearGradient id="paint20_linear" x1="11645.3" y1="13513.6" x2="11645.3" y2="12276.9" gradientUnits="userSpaceOnUse">
<stop stop-color="#808080" stop-opacity="0.25"/>
<stop offset="0.54" stop-color="#808080" stop-opacity="0.12"/>
<stop offset="1" stop-color="#808080" stop-opacity="0.1"/>
</linearGradient>
<linearGradient id="paint21_linear" x1="311.101" y1="504" x2="311.101" y2="548.243" gradientUnits="userSpaceOnUse">
<stop stop-color="#E0E0E0"/>
<stop offset="0.31" stop-color="#FCCC63"/>
<stop offset="0.77" stop-color="#F55F44"/>
</linearGradient>
<linearGradient id="paint22_linear" x1="344.101" y1="505" x2="344.101" y2="549.243" gradientUnits="userSpaceOnUse">
<stop stop-color="#E0E0E0"/>
<stop offset="0.31" stop-color="#FCCC63"/>
<stop offset="0.77" stop-color="#F55F44"/>
</linearGradient>
<linearGradient id="paint23_linear" x1="397.101" y1="504" x2="397.101" y2="548.243" gradientUnits="userSpaceOnUse">
<stop stop-color="#E0E0E0"/>
<stop offset="0.31" stop-color="#FCCC63"/>
<stop offset="0.77" stop-color="#F55F44"/>
</linearGradient>
<linearGradient id="paint24_linear" x1="59113.7" y1="65701.6" x2="59113.7" y2="77985.9" gradientUnits="userSpaceOnUse">
<stop stop-color="#F2F2F2"/>
<stop offset="0.31" stop-color="#E6E6E6"/>
<stop offset="0.77" stop-color="#CCCCCC"/>
</linearGradient>
<linearGradient id="paint25_linear" x1="61007.9" y1="64379.1" x2="61007.9" y2="79366.9" gradientUnits="userSpaceOnUse">
<stop stop-color="#F2F2F2"/>
<stop offset="0.31" stop-color="#E6E6E6"/>
<stop offset="0.77" stop-color="#CCCCCC"/>
</linearGradient>
<linearGradient id="paint26_linear" x1="67215.8" y1="68878.8" x2="67215.8" y2="86850.1" gradientUnits="userSpaceOnUse">
<stop stop-color="#F2F2F2"/>
<stop offset="0.31" stop-color="#E6E6E6"/>
<stop offset="0.77" stop-color="#CCCCCC"/>
</linearGradient>
</defs>
</svg>
