<svg width="150" height="200" viewBox="0 0 180 230" fill="none" xmlns="http://www.w3.org/2000/svg">
<rect width="180" height="230" rx="16" fill="#F2F7FF"/>
<mask id="path-2-outside-1" maskUnits="userSpaceOnUse" x="24" y="28" width="132" height="108" fill="black">
<rect fill="white" x="24" y="28" width="132" height="108"/>
<path d="M136.003 89.7058C131.576 89.7331 127.742 90.8979 124.527 92.6323C123.34 90.0583 122.153 87.8091 121.955 86.1295C121.732 84.1787 121.46 82.9863 121.732 80.6564C122.004 78.326 123.241 75.0204 123.241 74.7495C123.216 74.5056 122.969 73.3135 120.421 73.2864C117.874 73.2593 115.672 73.8283 115.425 74.5598C115.178 75.2914 114.683 76.9713 114.362 78.7053C113.916 81.2522 109.267 90.2748 106.62 95.0163C105.754 93.1739 105.012 91.5482 104.864 90.2474C104.641 88.2968 104.369 87.1044 104.641 84.7745C104.914 82.4441 106.15 79.1388 106.15 78.8679C106.125 78.624 105.878 77.4319 103.331 77.4048C100.783 77.3777 98.5821 77.9467 98.3347 78.6782C98.0874 79.4098 97.8153 81.1438 97.2712 82.8237C96.7516 84.5036 90.5683 99.5683 88.9606 103.497C88.1444 105.502 87.4274 107.101 86.9077 108.184C86.3883 109.268 86.883 108.266 86.8335 108.374C86.3883 109.295 86.141 109.81 86.141 109.81V109.837C85.7947 110.515 85.4237 111.165 85.2504 111.165C85.1267 111.165 84.8794 109.349 85.2998 106.857C86.215 101.627 88.441 93.4722 88.4165 93.1742C88.4165 93.0387 88.8367 91.6024 86.9817 90.8711C85.1762 90.1396 84.5334 91.3588 84.3847 91.3588C84.2363 91.3588 84.1126 91.7923 84.1126 91.7923C84.1126 91.7923 86.116 82.6075 80.279 82.6075C76.6185 82.6075 71.5729 86.9697 69.0748 90.9527C67.4919 91.901 64.1282 93.9057 60.5666 96.0465C59.2063 96.8593 57.7965 97.7264 56.4609 98.5121L56.1891 98.1864C49.1154 89.9225 36.0315 84.0701 36.5756 72.9612C36.7735 68.9241 38.0596 58.2759 61.7048 45.3788C81.0709 34.8119 96.5787 37.711 99.2744 44.1595C103.108 53.3717 90.9887 70.4956 70.8561 72.9612C63.1888 73.9095 59.1571 70.6582 58.1432 69.4389C57.0797 68.1655 56.9313 68.1113 56.5356 68.3551C55.8925 68.7345 56.2883 69.8724 56.5356 70.5498C57.1292 72.2568 59.6025 75.2914 63.8072 76.8087C67.4922 78.1363 76.4953 78.8679 87.3779 74.2618C99.5714 69.0867 109.094 54.7265 106.299 42.7235C103.455 30.5038 84.9541 26.4938 67.4677 33.2946C57.0547 37.3588 45.7764 43.6989 37.6639 52.017C28.0179 61.8795 26.4845 70.4956 27.1275 74.0721C29.3785 86.8337 45.4301 95.1518 51.8608 101.302C51.5392 101.492 51.2424 101.681 50.9704 101.844C47.755 103.578 35.5121 110.596 32.4452 118.02C28.9825 126.419 32.9893 132.461 35.6605 133.274C43.9214 135.794 52.3802 131.269 56.9558 123.818C61.5065 116.367 60.9626 106.694 58.8603 102.278L58.7858 102.115L61.3086 100.489C62.9412 99.4328 64.5489 98.4574 65.9585 97.6172C65.1672 99.9744 64.5981 102.765 64.3016 106.829C63.9553 111.598 65.7361 117.776 68.0858 120.214C69.1246 121.271 70.3612 121.298 71.1279 121.298C73.8486 121.298 75.0853 118.832 76.4456 115.879C78.1274 112.275 79.6114 108.103 79.6114 108.103C79.6114 108.103 77.7565 119.401 82.8268 119.401C84.6818 119.401 86.5367 116.773 87.3777 115.418V115.446C87.3777 115.446 87.4271 115.364 87.5261 115.175C87.6298 115.006 87.7288 114.835 87.8229 114.66V114.606C88.5649 113.197 90.222 109.973 92.6953 104.635C95.8857 97.7529 98.9528 89.1368 98.9528 89.1368C98.9528 89.1368 99.2496 91.2502 100.165 94.7183C100.709 96.7778 101.896 99.0264 102.811 101.221C102.069 102.359 101.624 103.01 101.624 103.01L101.648 103.037C101.055 103.904 100.387 104.825 99.6948 105.746C97.172 109.052 94.1546 112.818 93.7588 113.902C93.2889 115.175 93.3878 116.123 94.303 116.882C94.9708 117.424 96.158 117.532 97.4194 117.424C99.6948 117.261 101.278 116.638 102.069 116.259C103.306 115.771 104.716 115.04 106.076 113.956C108.549 111.951 110.058 109.106 109.91 105.313C109.835 103.227 109.217 101.167 108.45 99.2166C108.673 98.8643 108.896 98.5118 109.118 98.1328C113.026 91.8736 116.043 84.9918 116.043 84.9918C116.043 84.9918 116.34 87.1052 117.255 90.5733C117.725 92.3345 118.665 94.2585 119.506 96.1551C115.846 99.4336 113.545 103.227 112.754 105.72C111.295 110.326 112.432 112.412 114.584 112.9C115.549 113.116 116.934 112.629 117.972 112.141C119.259 111.68 120.817 110.894 122.252 109.73C124.725 107.725 127.099 104.934 126.976 101.168C126.901 99.4336 126.481 97.7266 125.912 96.1009C129.028 94.692 133.06 93.8792 138.18 94.5565C149.186 95.9655 151.363 103.498 150.942 106.641C150.522 109.784 148.222 111.518 147.455 112.06C146.688 112.575 146.441 112.764 146.515 113.144C146.614 113.713 146.96 113.685 147.628 113.577C148.543 113.414 153.415 111.003 153.613 105.205C153.91 97.7532 147.455 89.6248 136.003 89.7058ZM51.1188 121.054C47.483 125.417 42.3632 127.069 40.1867 125.66C37.837 124.17 38.7519 117.749 43.2289 113.116C45.9495 110.298 49.4864 107.697 51.8113 106.098C52.3307 105.746 53.1222 105.231 54.062 104.608C54.2104 104.5 54.3094 104.445 54.3094 104.445C54.4825 104.337 54.6803 104.201 54.8782 104.066C56.5353 110.677 54.9524 116.475 51.1188 121.054ZM77.707 101.248C76.4456 104.635 73.7744 113.332 72.1667 112.845C70.7814 112.438 69.9408 105.854 71.8944 99.3515C72.8838 96.0728 74.9861 92.1714 76.2227 90.6538C78.2264 88.2153 80.4027 87.4025 80.947 88.405C81.5901 89.7058 78.4984 99.1348 77.707 101.248ZM99.6453 112.736C99.1012 113.035 98.6066 113.251 98.384 113.089C98.2108 112.98 98.6063 112.574 98.6063 112.574C98.6063 112.574 101.352 109.35 102.44 107.86C103.058 106.993 103.8 105.99 104.592 104.852V105.177C104.592 109.079 101.179 111.68 99.6453 112.736ZM116.563 108.51C116.167 108.184 116.217 107.182 117.552 104.039C118.072 102.793 119.259 100.706 121.311 98.7283C121.559 99.5412 121.707 100.327 121.682 101.058C121.658 105.936 118.492 107.751 116.563 108.51Z"/>
</mask>
<path d="M136.003 89.7058C131.576 89.7331 127.742 90.8979 124.527 92.6323C123.34 90.0583 122.153 87.8091 121.955 86.1295C121.732 84.1787 121.46 82.9863 121.732 80.6564C122.004 78.326 123.241 75.0204 123.241 74.7495C123.216 74.5056 122.969 73.3135 120.421 73.2864C117.874 73.2593 115.672 73.8283 115.425 74.5598C115.178 75.2914 114.683 76.9713 114.362 78.7053C113.916 81.2522 109.267 90.2748 106.62 95.0163C105.754 93.1739 105.012 91.5482 104.864 90.2474C104.641 88.2968 104.369 87.1044 104.641 84.7745C104.914 82.4441 106.15 79.1388 106.15 78.8679C106.125 78.624 105.878 77.4319 103.331 77.4048C100.783 77.3777 98.5821 77.9467 98.3347 78.6782C98.0874 79.4098 97.8153 81.1438 97.2712 82.8237C96.7516 84.5036 90.5683 99.5683 88.9606 103.497C88.1444 105.502 87.4274 107.101 86.9077 108.184C86.3883 109.268 86.883 108.266 86.8335 108.374C86.3883 109.295 86.141 109.81 86.141 109.81V109.837C85.7947 110.515 85.4237 111.165 85.2504 111.165C85.1267 111.165 84.8794 109.349 85.2998 106.857C86.215 101.627 88.441 93.4722 88.4165 93.1742C88.4165 93.0387 88.8367 91.6024 86.9817 90.8711C85.1762 90.1396 84.5334 91.3588 84.3847 91.3588C84.2363 91.3588 84.1126 91.7923 84.1126 91.7923C84.1126 91.7923 86.116 82.6075 80.279 82.6075C76.6185 82.6075 71.5729 86.9697 69.0748 90.9527C67.4919 91.901 64.1282 93.9057 60.5666 96.0465C59.2063 96.8593 57.7965 97.7264 56.4609 98.5121L56.1891 98.1864C49.1154 89.9225 36.0315 84.0701 36.5756 72.9612C36.7735 68.9241 38.0596 58.2759 61.7048 45.3788C81.0709 34.8119 96.5787 37.711 99.2744 44.1595C103.108 53.3717 90.9887 70.4956 70.8561 72.9612C63.1888 73.9095 59.1571 70.6582 58.1432 69.4389C57.0797 68.1655 56.9313 68.1113 56.5356 68.3551C55.8925 68.7345 56.2883 69.8724 56.5356 70.5498C57.1292 72.2568 59.6025 75.2914 63.8072 76.8087C67.4922 78.1363 76.4953 78.8679 87.3779 74.2618C99.5714 69.0867 109.094 54.7265 106.299 42.7235C103.455 30.5038 84.9541 26.4938 67.4677 33.2946C57.0547 37.3588 45.7764 43.6989 37.6639 52.017C28.0179 61.8795 26.4845 70.4956 27.1275 74.0721C29.3785 86.8337 45.4301 95.1518 51.8608 101.302C51.5392 101.492 51.2424 101.681 50.9704 101.844C47.755 103.578 35.5121 110.596 32.4452 118.02C28.9825 126.419 32.9893 132.461 35.6605 133.274C43.9214 135.794 52.3802 131.269 56.9558 123.818C61.5065 116.367 60.9626 106.694 58.8603 102.278L58.7858 102.115L61.3086 100.489C62.9412 99.4328 64.5489 98.4574 65.9585 97.6172C65.1672 99.9744 64.5981 102.765 64.3016 106.829C63.9553 111.598 65.7361 117.776 68.0858 120.214C69.1246 121.271 70.3612 121.298 71.1279 121.298C73.8486 121.298 75.0853 118.832 76.4456 115.879C78.1274 112.275 79.6114 108.103 79.6114 108.103C79.6114 108.103 77.7565 119.401 82.8268 119.401C84.6818 119.401 86.5367 116.773 87.3777 115.418V115.446C87.3777 115.446 87.4271 115.364 87.5261 115.175C87.6298 115.006 87.7288 114.835 87.8229 114.66V114.606C88.5649 113.197 90.222 109.973 92.6953 104.635C95.8857 97.7529 98.9528 89.1368 98.9528 89.1368C98.9528 89.1368 99.2496 91.2502 100.165 94.7183C100.709 96.7778 101.896 99.0264 102.811 101.221C102.069 102.359 101.624 103.01 101.624 103.01L101.648 103.037C101.055 103.904 100.387 104.825 99.6948 105.746C97.172 109.052 94.1546 112.818 93.7588 113.902C93.2889 115.175 93.3878 116.123 94.303 116.882C94.9708 117.424 96.158 117.532 97.4194 117.424C99.6948 117.261 101.278 116.638 102.069 116.259C103.306 115.771 104.716 115.04 106.076 113.956C108.549 111.951 110.058 109.106 109.91 105.313C109.835 103.227 109.217 101.167 108.45 99.2166C108.673 98.8643 108.896 98.5118 109.118 98.1328C113.026 91.8736 116.043 84.9918 116.043 84.9918C116.043 84.9918 116.34 87.1052 117.255 90.5733C117.725 92.3345 118.665 94.2585 119.506 96.1551C115.846 99.4336 113.545 103.227 112.754 105.72C111.295 110.326 112.432 112.412 114.584 112.9C115.549 113.116 116.934 112.629 117.972 112.141C119.259 111.68 120.817 110.894 122.252 109.73C124.725 107.725 127.099 104.934 126.976 101.168C126.901 99.4336 126.481 97.7266 125.912 96.1009C129.028 94.692 133.06 93.8792 138.18 94.5565C149.186 95.9655 151.363 103.498 150.942 106.641C150.522 109.784 148.222 111.518 147.455 112.06C146.688 112.575 146.441 112.764 146.515 113.144C146.614 113.713 146.96 113.685 147.628 113.577C148.543 113.414 153.415 111.003 153.613 105.205C153.91 97.7532 147.455 89.6248 136.003 89.7058ZM51.1188 121.054C47.483 125.417 42.3632 127.069 40.1867 125.66C37.837 124.17 38.7519 117.749 43.2289 113.116C45.9495 110.298 49.4864 107.697 51.8113 106.098C52.3307 105.746 53.1222 105.231 54.062 104.608C54.2104 104.5 54.3094 104.445 54.3094 104.445C54.4825 104.337 54.6803 104.201 54.8782 104.066C56.5353 110.677 54.9524 116.475 51.1188 121.054ZM77.707 101.248C76.4456 104.635 73.7744 113.332 72.1667 112.845C70.7814 112.438 69.9408 105.854 71.8944 99.3515C72.8838 96.0728 74.9861 92.1714 76.2227 90.6538C78.2264 88.2153 80.4027 87.4025 80.947 88.405C81.5901 89.7058 78.4984 99.1348 77.707 101.248ZM99.6453 112.736C99.1012 113.035 98.6066 113.251 98.384 113.089C98.2108 112.98 98.6063 112.574 98.6063 112.574C98.6063 112.574 101.352 109.35 102.44 107.86C103.058 106.993 103.8 105.99 104.592 104.852V105.177C104.592 109.079 101.179 111.68 99.6453 112.736ZM116.563 108.51C116.167 108.184 116.217 107.182 117.552 104.039C118.072 102.793 119.259 100.706 121.311 98.7283C121.559 99.5412 121.707 100.327 121.682 101.058C121.658 105.936 118.492 107.751 116.563 108.51Z" fill="#F78FB3"/>
<path d="M136.003 89.7058C131.576 89.7331 127.742 90.8979 124.527 92.6323C123.34 90.0583 122.153 87.8091 121.955 86.1295C121.732 84.1787 121.46 82.9863 121.732 80.6564C122.004 78.326 123.241 75.0204 123.241 74.7495C123.216 74.5056 122.969 73.3135 120.421 73.2864C117.874 73.2593 115.672 73.8283 115.425 74.5598C115.178 75.2914 114.683 76.9713 114.362 78.7053C113.916 81.2522 109.267 90.2748 106.62 95.0163C105.754 93.1739 105.012 91.5482 104.864 90.2474C104.641 88.2968 104.369 87.1044 104.641 84.7745C104.914 82.4441 106.15 79.1388 106.15 78.8679C106.125 78.624 105.878 77.4319 103.331 77.4048C100.783 77.3777 98.5821 77.9467 98.3347 78.6782C98.0874 79.4098 97.8153 81.1438 97.2712 82.8237C96.7516 84.5036 90.5683 99.5683 88.9606 103.497C88.1444 105.502 87.4274 107.101 86.9077 108.184C86.3883 109.268 86.883 108.266 86.8335 108.374C86.3883 109.295 86.141 109.81 86.141 109.81V109.837C85.7947 110.515 85.4237 111.165 85.2504 111.165C85.1267 111.165 84.8794 109.349 85.2998 106.857C86.215 101.627 88.441 93.4722 88.4165 93.1742C88.4165 93.0387 88.8367 91.6024 86.9817 90.8711C85.1762 90.1396 84.5334 91.3588 84.3847 91.3588C84.2363 91.3588 84.1126 91.7923 84.1126 91.7923C84.1126 91.7923 86.116 82.6075 80.279 82.6075C76.6185 82.6075 71.5729 86.9697 69.0748 90.9527C67.4919 91.901 64.1282 93.9057 60.5666 96.0465C59.2063 96.8593 57.7965 97.7264 56.4609 98.5121L56.1891 98.1864C49.1154 89.9225 36.0315 84.0701 36.5756 72.9612C36.7735 68.9241 38.0596 58.2759 61.7048 45.3788C81.0709 34.8119 96.5787 37.711 99.2744 44.1595C103.108 53.3717 90.9887 70.4956 70.8561 72.9612C63.1888 73.9095 59.1571 70.6582 58.1432 69.4389C57.0797 68.1655 56.9313 68.1113 56.5356 68.3551C55.8925 68.7345 56.2883 69.8724 56.5356 70.5498C57.1292 72.2568 59.6025 75.2914 63.8072 76.8087C67.4922 78.1363 76.4953 78.8679 87.3779 74.2618C99.5714 69.0867 109.094 54.7265 106.299 42.7235C103.455 30.5038 84.9541 26.4938 67.4677 33.2946C57.0547 37.3588 45.7764 43.6989 37.6639 52.017C28.0179 61.8795 26.4845 70.4956 27.1275 74.0721C29.3785 86.8337 45.4301 95.1518 51.8608 101.302C51.5392 101.492 51.2424 101.681 50.9704 101.844C47.755 103.578 35.5121 110.596 32.4452 118.02C28.9825 126.419 32.9893 132.461 35.6605 133.274C43.9214 135.794 52.3802 131.269 56.9558 123.818C61.5065 116.367 60.9626 106.694 58.8603 102.278L58.7858 102.115L61.3086 100.489C62.9412 99.4328 64.5489 98.4574 65.9585 97.6172C65.1672 99.9744 64.5981 102.765 64.3016 106.829C63.9553 111.598 65.7361 117.776 68.0858 120.214C69.1246 121.271 70.3612 121.298 71.1279 121.298C73.8486 121.298 75.0853 118.832 76.4456 115.879C78.1274 112.275 79.6114 108.103 79.6114 108.103C79.6114 108.103 77.7565 119.401 82.8268 119.401C84.6818 119.401 86.5367 116.773 87.3777 115.418V115.446C87.3777 115.446 87.4271 115.364 87.5261 115.175C87.6298 115.006 87.7288 114.835 87.8229 114.66V114.606C88.5649 113.197 90.222 109.973 92.6953 104.635C95.8857 97.7529 98.9528 89.1368 98.9528 89.1368C98.9528 89.1368 99.2496 91.2502 100.165 94.7183C100.709 96.7778 101.896 99.0264 102.811 101.221C102.069 102.359 101.624 103.01 101.624 103.01L101.648 103.037C101.055 103.904 100.387 104.825 99.6948 105.746C97.172 109.052 94.1546 112.818 93.7588 113.902C93.2889 115.175 93.3878 116.123 94.303 116.882C94.9708 117.424 96.158 117.532 97.4194 117.424C99.6948 117.261 101.278 116.638 102.069 116.259C103.306 115.771 104.716 115.04 106.076 113.956C108.549 111.951 110.058 109.106 109.91 105.313C109.835 103.227 109.217 101.167 108.45 99.2166C108.673 98.8643 108.896 98.5118 109.118 98.1328C113.026 91.8736 116.043 84.9918 116.043 84.9918C116.043 84.9918 116.34 87.1052 117.255 90.5733C117.725 92.3345 118.665 94.2585 119.506 96.1551C115.846 99.4336 113.545 103.227 112.754 105.72C111.295 110.326 112.432 112.412 114.584 112.9C115.549 113.116 116.934 112.629 117.972 112.141C119.259 111.68 120.817 110.894 122.252 109.73C124.725 107.725 127.099 104.934 126.976 101.168C126.901 99.4336 126.481 97.7266 125.912 96.1009C129.028 94.692 133.06 93.8792 138.18 94.5565C149.186 95.9655 151.363 103.498 150.942 106.641C150.522 109.784 148.222 111.518 147.455 112.06C146.688 112.575 146.441 112.764 146.515 113.144C146.614 113.713 146.96 113.685 147.628 113.577C148.543 113.414 153.415 111.003 153.613 105.205C153.91 97.7532 147.455 89.6248 136.003 89.7058ZM51.1188 121.054C47.483 125.417 42.3632 127.069 40.1867 125.66C37.837 124.17 38.7519 117.749 43.2289 113.116C45.9495 110.298 49.4864 107.697 51.8113 106.098C52.3307 105.746 53.1222 105.231 54.062 104.608C54.2104 104.5 54.3094 104.445 54.3094 104.445C54.4825 104.337 54.6803 104.201 54.8782 104.066C56.5353 110.677 54.9524 116.475 51.1188 121.054ZM77.707 101.248C76.4456 104.635 73.7744 113.332 72.1667 112.845C70.7814 112.438 69.9408 105.854 71.8944 99.3515C72.8838 96.0728 74.9861 92.1714 76.2227 90.6538C78.2264 88.2153 80.4027 87.4025 80.947 88.405C81.5901 89.7058 78.4984 99.1348 77.707 101.248ZM99.6453 112.736C99.1012 113.035 98.6066 113.251 98.384 113.089C98.2108 112.98 98.6063 112.574 98.6063 112.574C98.6063 112.574 101.352 109.35 102.44 107.86C103.058 106.993 103.8 105.99 104.592 104.852V105.177C104.592 109.079 101.179 111.68 99.6453 112.736ZM116.563 108.51C116.167 108.184 116.217 107.182 117.552 104.039C118.072 102.793 119.259 100.706 121.311 98.7283C121.559 99.5412 121.707 100.327 121.682 101.058C121.658 105.936 118.492 107.751 116.563 108.51Z" stroke="#0C2759" stroke-width="4" mask="url(#path-2-outside-1)"/>
<path d="M64.4262 182.408C62.9542 182.408 61.7142 182.176 60.7062 181.712C59.6982 181.232 58.9302 180.576 58.4022 179.744C57.8902 178.912 57.6342 177.96 57.6342 176.888H59.4582C59.4582 177.56 59.6182 178.192 59.9382 178.784C60.2742 179.36 60.8022 179.832 61.5222 180.2C62.2582 180.552 63.2262 180.728 64.4262 180.728C66.0902 180.728 67.3222 180.384 68.1222 179.696C68.9382 178.992 69.3462 178.136 69.3462 177.128C69.3462 176.28 69.0102 175.576 68.3382 175.016C67.6822 174.44 66.6902 174.096 65.3622 173.984L63.3462 173.792C61.8422 173.664 60.6422 173.2 59.7462 172.4C58.8662 171.584 58.4262 170.512 58.4262 169.184C58.4262 168.176 58.6662 167.288 59.1462 166.52C59.6262 165.736 60.3062 165.128 61.1862 164.696C62.0822 164.248 63.1542 164.024 64.4022 164.024C65.6662 164.024 66.7462 164.256 67.6422 164.72C68.5542 165.168 69.2502 165.792 69.7302 166.592C70.2102 167.392 70.4502 168.32 70.4502 169.376H68.6262C68.6262 168.736 68.4822 168.136 68.1942 167.576C67.9062 167.016 67.4502 166.568 66.8262 166.232C66.2022 165.88 65.3942 165.704 64.4022 165.704C63.4422 165.704 62.6582 165.864 62.0502 166.184C61.4422 166.504 60.9862 166.928 60.6822 167.456C60.3942 167.984 60.2502 168.56 60.2502 169.184C60.2502 169.984 60.5222 170.656 61.0662 171.2C61.6262 171.728 62.4422 172.032 63.5142 172.112L65.5302 172.304C67.3062 172.448 68.6902 172.952 69.6822 173.816C70.6742 174.664 71.1702 175.768 71.1702 177.128C71.1702 178.152 70.8902 179.064 70.3302 179.864C69.7862 180.664 69.0102 181.288 68.0022 181.736C66.9942 182.184 65.8022 182.408 64.4262 182.408ZM73.4365 182L79.8925 164.48H83.1565L89.8285 182H87.9565L85.8445 176.432H77.2765L75.2605 182H73.4365ZM77.9005 174.776H85.2205L81.9325 166.136H81.0445L77.9005 174.776ZM98.809 182.408C97.337 182.408 96.097 182.176 95.089 181.712C94.081 181.232 93.313 180.576 92.785 179.744C92.273 178.912 92.017 177.96 92.017 176.888H93.841C93.841 177.56 94.001 178.192 94.321 178.784C94.657 179.36 95.185 179.832 95.905 180.2C96.641 180.552 97.609 180.728 98.809 180.728C100.473 180.728 101.705 180.384 102.505 179.696C103.321 178.992 103.729 178.136 103.729 177.128C103.729 176.28 103.393 175.576 102.721 175.016C102.065 174.44 101.073 174.096 99.745 173.984L97.729 173.792C96.225 173.664 95.025 173.2 94.129 172.4C93.249 171.584 92.809 170.512 92.809 169.184C92.809 168.176 93.049 167.288 93.529 166.52C94.009 165.736 94.689 165.128 95.569 164.696C96.465 164.248 97.537 164.024 98.785 164.024C100.049 164.024 101.129 164.256 102.025 164.72C102.937 165.168 103.633 165.792 104.113 166.592C104.593 167.392 104.833 168.32 104.833 169.376H103.009C103.009 168.736 102.865 168.136 102.577 167.576C102.289 167.016 101.833 166.568 101.209 166.232C100.585 165.88 99.777 165.704 98.785 165.704C97.825 165.704 97.041 165.864 96.433 166.184C95.825 166.504 95.369 166.928 95.065 167.456C94.777 167.984 94.633 168.56 94.633 169.184C94.633 169.984 94.905 170.656 95.449 171.2C96.009 171.728 96.825 172.032 97.897 172.112L99.913 172.304C101.689 172.448 103.073 172.952 104.065 173.816C105.057 174.664 105.553 175.768 105.553 177.128C105.553 178.152 105.273 179.064 104.713 179.864C104.169 180.664 103.393 181.288 102.385 181.736C101.377 182.184 100.185 182.408 98.809 182.408ZM115.543 182.408C114.071 182.408 112.831 182.176 111.823 181.712C110.815 181.232 110.047 180.576 109.519 179.744C109.007 178.912 108.751 177.96 108.751 176.888H110.575C110.575 177.56 110.735 178.192 111.055 178.784C111.391 179.36 111.919 179.832 112.639 180.2C113.375 180.552 114.343 180.728 115.543 180.728C117.207 180.728 118.439 180.384 119.239 179.696C120.055 178.992 120.463 178.136 120.463 177.128C120.463 176.28 120.127 175.576 119.455 175.016C118.799 174.44 117.807 174.096 116.479 173.984L114.463 173.792C112.959 173.664 111.759 173.2 110.863 172.4C109.983 171.584 109.543 170.512 109.543 169.184C109.543 168.176 109.783 167.288 110.263 166.52C110.743 165.736 111.423 165.128 112.303 164.696C113.199 164.248 114.271 164.024 115.519 164.024C116.783 164.024 117.863 164.256 118.759 164.72C119.671 165.168 120.367 165.792 120.847 166.592C121.327 167.392 121.567 168.32 121.567 169.376H119.743C119.743 168.736 119.599 168.136 119.311 167.576C119.023 167.016 118.567 166.568 117.943 166.232C117.319 165.88 116.511 165.704 115.519 165.704C114.559 165.704 113.775 165.864 113.167 166.184C112.559 166.504 112.103 166.928 111.799 167.456C111.511 167.984 111.367 168.56 111.367 169.184C111.367 169.984 111.639 170.656 112.183 171.2C112.743 171.728 113.559 172.032 114.631 172.112L116.647 172.304C118.423 172.448 119.807 172.952 120.799 173.816C121.791 174.664 122.287 175.768 122.287 177.128C122.287 178.152 122.007 179.064 121.447 179.864C120.903 180.664 120.127 181.288 119.119 181.736C118.111 182.184 116.919 182.408 115.543 182.408Z" fill="#0C2759"/>
</svg>
