<svg width="220" height="260" viewBox="0 0 220 260" fill="none" xmlns="http://www.w3.org/2000/svg">
<g id="sass">
<g id="Group 174">
<g id="Group 109">
<rect id="Rectangle 139" x="20" y="15" width="180" height="230" rx="16" fill="#F2F7FF"/>
<g id="Vector">
<mask id="path-2-outside-1" maskUnits="userSpaceOnUse" x="44" y="43" width="132" height="108" fill="black">
<rect fill="white" x="44" y="43" width="132" height="108"/>
<path d="M156.003 104.706C151.576 104.733 147.742 105.898 144.527 107.632C143.34 105.058 142.153 102.809 141.955 101.13C141.732 99.1787 141.46 97.9863 141.732 95.6564C142.004 93.326 143.241 90.0204 143.241 89.7495C143.216 89.5056 142.969 88.3135 140.421 88.2864C137.874 88.2593 135.672 88.8283 135.425 89.5598C135.178 90.2914 134.683 91.9713 134.362 93.7053C133.916 96.2522 129.267 105.275 126.62 110.016C125.754 108.174 125.012 106.548 124.864 105.247C124.641 103.297 124.369 102.104 124.641 99.7745C124.914 97.4441 126.15 94.1388 126.15 93.8679C126.125 93.624 125.878 92.4319 123.331 92.4048C120.783 92.3777 118.582 92.9467 118.335 93.6782C118.087 94.4098 117.815 96.1438 117.271 97.8237C116.752 99.5036 110.568 114.568 108.961 118.497C108.144 120.502 107.427 122.101 106.908 123.184C106.388 124.268 106.883 123.266 106.834 123.374C106.388 124.295 106.141 124.81 106.141 124.81V124.837C105.795 125.515 105.424 126.165 105.25 126.165C105.127 126.165 104.879 124.349 105.3 121.857C106.215 116.627 108.441 108.472 108.416 108.174C108.416 108.039 108.837 106.602 106.982 105.871C105.176 105.14 104.533 106.359 104.385 106.359C104.236 106.359 104.113 106.792 104.113 106.792C104.113 106.792 106.116 97.6075 100.279 97.6075C96.6185 97.6075 91.5729 101.97 89.0748 105.953C87.4919 106.901 84.1282 108.906 80.5666 111.046C79.2063 111.859 77.7965 112.726 76.4609 113.512L76.1891 113.186C69.1154 104.923 56.0315 99.0701 56.5756 87.9612C56.7735 83.9241 58.0596 73.2759 81.7048 60.3788C101.071 49.8119 116.579 52.711 119.274 59.1595C123.108 68.3717 110.989 85.4956 90.8561 87.9612C83.1888 88.9095 79.1571 85.6582 78.1432 84.4389C77.0797 83.1655 76.9313 83.1113 76.5356 83.3551C75.8925 83.7345 76.2883 84.8724 76.5356 85.5498C77.1292 87.2568 79.6025 90.2914 83.8072 91.8087C87.4922 93.1363 96.4953 93.8679 107.378 89.2618C119.571 84.0867 129.094 69.7265 126.299 57.7235C123.455 45.5038 104.954 41.4938 87.4677 48.2946C77.0547 52.3588 65.7764 58.6989 57.6639 67.017C48.0179 76.8795 46.4845 85.4956 47.1275 89.0721C49.3785 101.834 65.4301 110.152 71.8608 116.302C71.5392 116.492 71.2424 116.681 70.9704 116.844C67.755 118.578 55.5121 125.596 52.4452 133.019C48.9825 141.419 52.9893 147.461 55.6605 148.274C63.9214 150.794 72.3802 146.269 76.9558 138.818C81.5065 131.367 80.9626 121.694 78.8603 117.278L78.7858 117.115L81.3086 115.489C82.9412 114.433 84.5489 113.457 85.9585 112.617C85.1672 114.974 84.5981 117.765 84.3016 121.829C83.9553 126.598 85.7361 132.776 88.0858 135.214C89.1246 136.271 90.3612 136.298 91.1279 136.298C93.8486 136.298 95.0853 133.832 96.4456 130.879C98.1274 127.275 99.6114 123.103 99.6114 123.103C99.6114 123.103 97.7564 134.401 102.827 134.401C104.682 134.401 106.537 131.773 107.378 130.418V130.445C107.378 130.445 107.427 130.364 107.526 130.175C107.63 130.006 107.729 129.835 107.823 129.66V129.606C108.565 128.197 110.222 124.973 112.695 119.635C115.886 112.753 118.953 104.137 118.953 104.137C118.953 104.137 119.25 106.25 120.165 109.718C120.709 111.778 121.896 114.026 122.811 116.221C122.069 117.359 121.624 118.01 121.624 118.01L121.648 118.037C121.055 118.904 120.387 119.825 119.695 120.746C117.172 124.052 114.155 127.818 113.759 128.902C113.289 130.175 113.388 131.123 114.303 131.882C114.971 132.424 116.158 132.532 117.419 132.424C119.695 132.261 121.278 131.638 122.069 131.259C123.306 130.771 124.716 130.04 126.076 128.956C128.549 126.951 130.058 124.106 129.91 120.313C129.835 118.227 129.217 116.167 128.45 114.217C128.673 113.864 128.896 113.512 129.118 113.133C133.026 106.874 136.043 99.9918 136.043 99.9918C136.043 99.9918 136.34 102.105 137.255 105.573C137.725 107.335 138.665 109.259 139.506 111.155C135.846 114.434 133.545 118.227 132.754 120.72C131.295 125.326 132.432 127.412 134.584 127.9C135.549 128.116 136.934 127.629 137.972 127.141C139.259 126.68 140.817 125.894 142.252 124.73C144.725 122.725 147.099 119.934 146.976 116.168C146.901 114.434 146.481 112.727 145.912 111.101C149.028 109.692 153.06 108.879 158.18 109.557C169.186 110.965 171.363 118.498 170.942 121.641C170.522 124.784 168.222 126.518 167.455 127.06C166.688 127.575 166.441 127.764 166.515 128.144C166.614 128.713 166.96 128.685 167.628 128.577C168.543 128.414 173.415 126.003 173.613 120.205C173.91 112.753 167.455 104.625 156.003 104.706V104.706ZM71.1188 136.054C67.483 140.417 62.3632 142.069 60.1867 140.66C57.837 139.17 58.7519 132.749 63.2289 128.116C65.9495 125.298 69.4864 122.697 71.8113 121.098C72.3307 120.746 73.1222 120.231 74.062 119.608C74.2104 119.5 74.3094 119.445 74.3094 119.445C74.4825 119.337 74.6803 119.201 74.8782 119.066C76.5353 125.677 74.9524 131.475 71.1188 136.054V136.054ZM97.707 116.248C96.4456 119.635 93.7744 128.332 92.1667 127.845C90.7814 127.438 89.9407 120.854 91.8944 114.352C92.8838 111.073 94.9861 107.171 96.2227 105.654C98.2264 103.215 100.403 102.402 100.947 103.405C101.59 104.706 98.4984 114.135 97.707 116.248ZM119.645 127.736C119.101 128.035 118.607 128.251 118.384 128.089C118.211 127.98 118.606 127.574 118.606 127.574C118.606 127.574 121.352 124.35 122.44 122.86C123.058 121.993 123.8 120.99 124.592 119.852V120.177C124.592 124.079 121.179 126.68 119.645 127.736ZM136.563 123.51C136.167 123.184 136.217 122.182 137.552 119.039C138.072 117.793 139.259 115.706 141.311 113.728C141.559 114.541 141.707 115.327 141.682 116.058C141.658 120.936 138.492 122.751 136.563 123.51Z"/>
</mask>
<path d="M156.003 104.706C151.576 104.733 147.742 105.898 144.527 107.632C143.34 105.058 142.153 102.809 141.955 101.13C141.732 99.1787 141.46 97.9863 141.732 95.6564C142.004 93.326 143.241 90.0204 143.241 89.7495C143.216 89.5056 142.969 88.3135 140.421 88.2864C137.874 88.2593 135.672 88.8283 135.425 89.5598C135.178 90.2914 134.683 91.9713 134.362 93.7053C133.916 96.2522 129.267 105.275 126.62 110.016C125.754 108.174 125.012 106.548 124.864 105.247C124.641 103.297 124.369 102.104 124.641 99.7745C124.914 97.4441 126.15 94.1388 126.15 93.8679C126.125 93.624 125.878 92.4319 123.331 92.4048C120.783 92.3777 118.582 92.9467 118.335 93.6782C118.087 94.4098 117.815 96.1438 117.271 97.8237C116.752 99.5036 110.568 114.568 108.961 118.497C108.144 120.502 107.427 122.101 106.908 123.184C106.388 124.268 106.883 123.266 106.834 123.374C106.388 124.295 106.141 124.81 106.141 124.81V124.837C105.795 125.515 105.424 126.165 105.25 126.165C105.127 126.165 104.879 124.349 105.3 121.857C106.215 116.627 108.441 108.472 108.416 108.174C108.416 108.039 108.837 106.602 106.982 105.871C105.176 105.14 104.533 106.359 104.385 106.359C104.236 106.359 104.113 106.792 104.113 106.792C104.113 106.792 106.116 97.6075 100.279 97.6075C96.6185 97.6075 91.5729 101.97 89.0748 105.953C87.4919 106.901 84.1282 108.906 80.5666 111.046C79.2063 111.859 77.7965 112.726 76.4609 113.512L76.1891 113.186C69.1154 104.923 56.0315 99.0701 56.5756 87.9612C56.7735 83.9241 58.0596 73.2759 81.7048 60.3788C101.071 49.8119 116.579 52.711 119.274 59.1595C123.108 68.3717 110.989 85.4956 90.8561 87.9612C83.1888 88.9095 79.1571 85.6582 78.1432 84.4389C77.0797 83.1655 76.9313 83.1113 76.5356 83.3551C75.8925 83.7345 76.2883 84.8724 76.5356 85.5498C77.1292 87.2568 79.6025 90.2914 83.8072 91.8087C87.4922 93.1363 96.4953 93.8679 107.378 89.2618C119.571 84.0867 129.094 69.7265 126.299 57.7235C123.455 45.5038 104.954 41.4938 87.4677 48.2946C77.0547 52.3588 65.7764 58.6989 57.6639 67.017C48.0179 76.8795 46.4845 85.4956 47.1275 89.0721C49.3785 101.834 65.4301 110.152 71.8608 116.302C71.5392 116.492 71.2424 116.681 70.9704 116.844C67.755 118.578 55.5121 125.596 52.4452 133.019C48.9825 141.419 52.9893 147.461 55.6605 148.274C63.9214 150.794 72.3802 146.269 76.9558 138.818C81.5065 131.367 80.9626 121.694 78.8603 117.278L78.7858 117.115L81.3086 115.489C82.9412 114.433 84.5489 113.457 85.9585 112.617C85.1672 114.974 84.5981 117.765 84.3016 121.829C83.9553 126.598 85.7361 132.776 88.0858 135.214C89.1246 136.271 90.3612 136.298 91.1279 136.298C93.8486 136.298 95.0853 133.832 96.4456 130.879C98.1274 127.275 99.6114 123.103 99.6114 123.103C99.6114 123.103 97.7564 134.401 102.827 134.401C104.682 134.401 106.537 131.773 107.378 130.418V130.445C107.378 130.445 107.427 130.364 107.526 130.175C107.63 130.006 107.729 129.835 107.823 129.66V129.606C108.565 128.197 110.222 124.973 112.695 119.635C115.886 112.753 118.953 104.137 118.953 104.137C118.953 104.137 119.25 106.25 120.165 109.718C120.709 111.778 121.896 114.026 122.811 116.221C122.069 117.359 121.624 118.01 121.624 118.01L121.648 118.037C121.055 118.904 120.387 119.825 119.695 120.746C117.172 124.052 114.155 127.818 113.759 128.902C113.289 130.175 113.388 131.123 114.303 131.882C114.971 132.424 116.158 132.532 117.419 132.424C119.695 132.261 121.278 131.638 122.069 131.259C123.306 130.771 124.716 130.04 126.076 128.956C128.549 126.951 130.058 124.106 129.91 120.313C129.835 118.227 129.217 116.167 128.45 114.217C128.673 113.864 128.896 113.512 129.118 113.133C133.026 106.874 136.043 99.9918 136.043 99.9918C136.043 99.9918 136.34 102.105 137.255 105.573C137.725 107.335 138.665 109.259 139.506 111.155C135.846 114.434 133.545 118.227 132.754 120.72C131.295 125.326 132.432 127.412 134.584 127.9C135.549 128.116 136.934 127.629 137.972 127.141C139.259 126.68 140.817 125.894 142.252 124.73C144.725 122.725 147.099 119.934 146.976 116.168C146.901 114.434 146.481 112.727 145.912 111.101C149.028 109.692 153.06 108.879 158.18 109.557C169.186 110.965 171.363 118.498 170.942 121.641C170.522 124.784 168.222 126.518 167.455 127.06C166.688 127.575 166.441 127.764 166.515 128.144C166.614 128.713 166.96 128.685 167.628 128.577C168.543 128.414 173.415 126.003 173.613 120.205C173.91 112.753 167.455 104.625 156.003 104.706V104.706ZM71.1188 136.054C67.483 140.417 62.3632 142.069 60.1867 140.66C57.837 139.17 58.7519 132.749 63.2289 128.116C65.9495 125.298 69.4864 122.697 71.8113 121.098C72.3307 120.746 73.1222 120.231 74.062 119.608C74.2104 119.5 74.3094 119.445 74.3094 119.445C74.4825 119.337 74.6803 119.201 74.8782 119.066C76.5353 125.677 74.9524 131.475 71.1188 136.054V136.054ZM97.707 116.248C96.4456 119.635 93.7744 128.332 92.1667 127.845C90.7814 127.438 89.9407 120.854 91.8944 114.352C92.8838 111.073 94.9861 107.171 96.2227 105.654C98.2264 103.215 100.403 102.402 100.947 103.405C101.59 104.706 98.4984 114.135 97.707 116.248ZM119.645 127.736C119.101 128.035 118.607 128.251 118.384 128.089C118.211 127.98 118.606 127.574 118.606 127.574C118.606 127.574 121.352 124.35 122.44 122.86C123.058 121.993 123.8 120.99 124.592 119.852V120.177C124.592 124.079 121.179 126.68 119.645 127.736ZM136.563 123.51C136.167 123.184 136.217 122.182 137.552 119.039C138.072 117.793 139.259 115.706 141.311 113.728C141.559 114.541 141.707 115.327 141.682 116.058C141.658 120.936 138.492 122.751 136.563 123.51Z" fill="#F78FB3"/>
<path d="M156.003 104.706C151.576 104.733 147.742 105.898 144.527 107.632C143.34 105.058 142.153 102.809 141.955 101.13C141.732 99.1787 141.46 97.9863 141.732 95.6564C142.004 93.326 143.241 90.0204 143.241 89.7495C143.216 89.5056 142.969 88.3135 140.421 88.2864C137.874 88.2593 135.672 88.8283 135.425 89.5598C135.178 90.2914 134.683 91.9713 134.362 93.7053C133.916 96.2522 129.267 105.275 126.62 110.016C125.754 108.174 125.012 106.548 124.864 105.247C124.641 103.297 124.369 102.104 124.641 99.7745C124.914 97.4441 126.15 94.1388 126.15 93.8679C126.125 93.624 125.878 92.4319 123.331 92.4048C120.783 92.3777 118.582 92.9467 118.335 93.6782C118.087 94.4098 117.815 96.1438 117.271 97.8237C116.752 99.5036 110.568 114.568 108.961 118.497C108.144 120.502 107.427 122.101 106.908 123.184C106.388 124.268 106.883 123.266 106.834 123.374C106.388 124.295 106.141 124.81 106.141 124.81V124.837C105.795 125.515 105.424 126.165 105.25 126.165C105.127 126.165 104.879 124.349 105.3 121.857C106.215 116.627 108.441 108.472 108.416 108.174C108.416 108.039 108.837 106.602 106.982 105.871C105.176 105.14 104.533 106.359 104.385 106.359C104.236 106.359 104.113 106.792 104.113 106.792C104.113 106.792 106.116 97.6075 100.279 97.6075C96.6185 97.6075 91.5729 101.97 89.0748 105.953C87.4919 106.901 84.1282 108.906 80.5666 111.046C79.2063 111.859 77.7965 112.726 76.4609 113.512L76.1891 113.186C69.1154 104.923 56.0315 99.0701 56.5756 87.9612C56.7735 83.9241 58.0596 73.2759 81.7048 60.3788C101.071 49.8119 116.579 52.711 119.274 59.1595C123.108 68.3717 110.989 85.4956 90.8561 87.9612C83.1888 88.9095 79.1571 85.6582 78.1432 84.4389C77.0797 83.1655 76.9313 83.1113 76.5356 83.3551C75.8925 83.7345 76.2883 84.8724 76.5356 85.5498C77.1292 87.2568 79.6025 90.2914 83.8072 91.8087C87.4922 93.1363 96.4953 93.8679 107.378 89.2618C119.571 84.0867 129.094 69.7265 126.299 57.7235C123.455 45.5038 104.954 41.4938 87.4677 48.2946C77.0547 52.3588 65.7764 58.6989 57.6639 67.017C48.0179 76.8795 46.4845 85.4956 47.1275 89.0721C49.3785 101.834 65.4301 110.152 71.8608 116.302C71.5392 116.492 71.2424 116.681 70.9704 116.844C67.755 118.578 55.5121 125.596 52.4452 133.019C48.9825 141.419 52.9893 147.461 55.6605 148.274C63.9214 150.794 72.3802 146.269 76.9558 138.818C81.5065 131.367 80.9626 121.694 78.8603 117.278L78.7858 117.115L81.3086 115.489C82.9412 114.433 84.5489 113.457 85.9585 112.617C85.1672 114.974 84.5981 117.765 84.3016 121.829C83.9553 126.598 85.7361 132.776 88.0858 135.214C89.1246 136.271 90.3612 136.298 91.1279 136.298C93.8486 136.298 95.0853 133.832 96.4456 130.879C98.1274 127.275 99.6114 123.103 99.6114 123.103C99.6114 123.103 97.7564 134.401 102.827 134.401C104.682 134.401 106.537 131.773 107.378 130.418V130.445C107.378 130.445 107.427 130.364 107.526 130.175C107.63 130.006 107.729 129.835 107.823 129.66V129.606C108.565 128.197 110.222 124.973 112.695 119.635C115.886 112.753 118.953 104.137 118.953 104.137C118.953 104.137 119.25 106.25 120.165 109.718C120.709 111.778 121.896 114.026 122.811 116.221C122.069 117.359 121.624 118.01 121.624 118.01L121.648 118.037C121.055 118.904 120.387 119.825 119.695 120.746C117.172 124.052 114.155 127.818 113.759 128.902C113.289 130.175 113.388 131.123 114.303 131.882C114.971 132.424 116.158 132.532 117.419 132.424C119.695 132.261 121.278 131.638 122.069 131.259C123.306 130.771 124.716 130.04 126.076 128.956C128.549 126.951 130.058 124.106 129.91 120.313C129.835 118.227 129.217 116.167 128.45 114.217C128.673 113.864 128.896 113.512 129.118 113.133C133.026 106.874 136.043 99.9918 136.043 99.9918C136.043 99.9918 136.34 102.105 137.255 105.573C137.725 107.335 138.665 109.259 139.506 111.155C135.846 114.434 133.545 118.227 132.754 120.72C131.295 125.326 132.432 127.412 134.584 127.9C135.549 128.116 136.934 127.629 137.972 127.141C139.259 126.68 140.817 125.894 142.252 124.73C144.725 122.725 147.099 119.934 146.976 116.168C146.901 114.434 146.481 112.727 145.912 111.101C149.028 109.692 153.06 108.879 158.18 109.557C169.186 110.965 171.363 118.498 170.942 121.641C170.522 124.784 168.222 126.518 167.455 127.06C166.688 127.575 166.441 127.764 166.515 128.144C166.614 128.713 166.96 128.685 167.628 128.577C168.543 128.414 173.415 126.003 173.613 120.205C173.91 112.753 167.455 104.625 156.003 104.706V104.706ZM71.1188 136.054C67.483 140.417 62.3632 142.069 60.1867 140.66C57.837 139.17 58.7519 132.749 63.2289 128.116C65.9495 125.298 69.4864 122.697 71.8113 121.098C72.3307 120.746 73.1222 120.231 74.062 119.608C74.2104 119.5 74.3094 119.445 74.3094 119.445C74.4825 119.337 74.6803 119.201 74.8782 119.066C76.5353 125.677 74.9524 131.475 71.1188 136.054V136.054ZM97.707 116.248C96.4456 119.635 93.7744 128.332 92.1667 127.845C90.7814 127.438 89.9407 120.854 91.8944 114.352C92.8838 111.073 94.9861 107.171 96.2227 105.654C98.2264 103.215 100.403 102.402 100.947 103.405C101.59 104.706 98.4984 114.135 97.707 116.248ZM119.645 127.736C119.101 128.035 118.607 128.251 118.384 128.089C118.211 127.98 118.606 127.574 118.606 127.574C118.606 127.574 121.352 124.35 122.44 122.86C123.058 121.993 123.8 120.99 124.592 119.852V120.177C124.592 124.079 121.179 126.68 119.645 127.736ZM136.563 123.51C136.167 123.184 136.217 122.182 137.552 119.039C138.072 117.793 139.259 115.706 141.311 113.728C141.559 114.541 141.707 115.327 141.682 116.058C141.658 120.936 138.492 122.751 136.563 123.51Z" stroke="#0C2759" stroke-width="4" mask="url(#path-2-outside-1)"/>
</g>
<path id="SASS" d="M84.4262 197.408C82.9542 197.408 81.7142 197.176 80.7062 196.712C79.6982 196.232 78.9302 195.576 78.4022 194.744C77.8902 193.912 77.6342 192.96 77.6342 191.888H79.4582C79.4582 192.56 79.6182 193.192 79.9382 193.784C80.2742 194.36 80.8022 194.832 81.5222 195.2C82.2582 195.552 83.2262 195.728 84.4262 195.728C86.0902 195.728 87.3222 195.384 88.1222 194.696C88.9382 193.992 89.3462 193.136 89.3462 192.128C89.3462 191.28 89.0102 190.576 88.3382 190.016C87.6822 189.44 86.6902 189.096 85.3622 188.984L83.3462 188.792C81.8422 188.664 80.6422 188.2 79.7462 187.4C78.8662 186.584 78.4262 185.512 78.4262 184.184C78.4262 183.176 78.6662 182.288 79.1462 181.52C79.6262 180.736 80.3062 180.128 81.1862 179.696C82.0822 179.248 83.1542 179.024 84.4022 179.024C85.6662 179.024 86.7462 179.256 87.6422 179.72C88.5542 180.168 89.2502 180.792 89.7302 181.592C90.2102 182.392 90.4502 183.32 90.4502 184.376H88.6262C88.6262 183.736 88.4822 183.136 88.1942 182.576C87.9062 182.016 87.4502 181.568 86.8262 181.232C86.2022 180.88 85.3942 180.704 84.4022 180.704C83.4422 180.704 82.6582 180.864 82.0502 181.184C81.4422 181.504 80.9862 181.928 80.6822 182.456C80.3942 182.984 80.2502 183.56 80.2502 184.184C80.2502 184.984 80.5222 185.656 81.0662 186.2C81.6262 186.728 82.4422 187.032 83.5142 187.112L85.5302 187.304C87.3062 187.448 88.6902 187.952 89.6822 188.816C90.6742 189.664 91.1702 190.768 91.1702 192.128C91.1702 193.152 90.8902 194.064 90.3302 194.864C89.7862 195.664 89.0102 196.288 88.0022 196.736C86.9942 197.184 85.8022 197.408 84.4262 197.408ZM93.4365 197L99.8925 179.48H103.157L109.829 197H107.957L105.845 191.432H97.2765L95.2605 197H93.4365ZM97.9005 189.776H105.221L101.933 181.136H101.045L97.9005 189.776ZM118.809 197.408C117.337 197.408 116.097 197.176 115.089 196.712C114.081 196.232 113.313 195.576 112.785 194.744C112.273 193.912 112.017 192.96 112.017 191.888H113.841C113.841 192.56 114.001 193.192 114.321 193.784C114.657 194.36 115.185 194.832 115.905 195.2C116.641 195.552 117.609 195.728 118.809 195.728C120.473 195.728 121.705 195.384 122.505 194.696C123.321 193.992 123.729 193.136 123.729 192.128C123.729 191.28 123.393 190.576 122.721 190.016C122.065 189.44 121.073 189.096 119.745 188.984L117.729 188.792C116.225 188.664 115.025 188.2 114.129 187.4C113.249 186.584 112.809 185.512 112.809 184.184C112.809 183.176 113.049 182.288 113.529 181.52C114.009 180.736 114.689 180.128 115.569 179.696C116.465 179.248 117.537 179.024 118.785 179.024C120.049 179.024 121.129 179.256 122.025 179.72C122.937 180.168 123.633 180.792 124.113 181.592C124.593 182.392 124.833 183.32 124.833 184.376H123.009C123.009 183.736 122.865 183.136 122.577 182.576C122.289 182.016 121.833 181.568 121.209 181.232C120.585 180.88 119.777 180.704 118.785 180.704C117.825 180.704 117.041 180.864 116.433 181.184C115.825 181.504 115.369 181.928 115.065 182.456C114.777 182.984 114.633 183.56 114.633 184.184C114.633 184.984 114.905 185.656 115.449 186.2C116.009 186.728 116.825 187.032 117.897 187.112L119.913 187.304C121.689 187.448 123.073 187.952 124.065 188.816C125.057 189.664 125.553 190.768 125.553 192.128C125.553 193.152 125.273 194.064 124.713 194.864C124.169 195.664 123.393 196.288 122.385 196.736C121.377 197.184 120.185 197.408 118.809 197.408ZM135.543 197.408C134.071 197.408 132.831 197.176 131.823 196.712C130.815 196.232 130.047 195.576 129.519 194.744C129.007 193.912 128.751 192.96 128.751 191.888H130.575C130.575 192.56 130.735 193.192 131.055 193.784C131.391 194.36 131.919 194.832 132.639 195.2C133.375 195.552 134.343 195.728 135.543 195.728C137.207 195.728 138.439 195.384 139.239 194.696C140.055 193.992 140.463 193.136 140.463 192.128C140.463 191.28 140.127 190.576 139.455 190.016C138.799 189.44 137.807 189.096 136.479 188.984L134.463 188.792C132.959 188.664 131.759 188.2 130.863 187.4C129.983 186.584 129.543 185.512 129.543 184.184C129.543 183.176 129.783 182.288 130.263 181.52C130.743 180.736 131.423 180.128 132.303 179.696C133.199 179.248 134.271 179.024 135.519 179.024C136.783 179.024 137.863 179.256 138.759 179.72C139.671 180.168 140.367 180.792 140.847 181.592C141.327 182.392 141.567 183.32 141.567 184.376H139.743C139.743 183.736 139.599 183.136 139.311 182.576C139.023 182.016 138.567 181.568 137.943 181.232C137.319 180.88 136.511 180.704 135.519 180.704C134.559 180.704 133.775 180.864 133.167 181.184C132.559 181.504 132.103 181.928 131.799 182.456C131.511 182.984 131.367 183.56 131.367 184.184C131.367 184.984 131.639 185.656 132.183 186.2C132.743 186.728 133.559 187.032 134.631 187.112L136.647 187.304C138.423 187.448 139.807 187.952 140.799 188.816C141.791 189.664 142.287 190.768 142.287 192.128C142.287 193.152 142.007 194.064 141.447 194.864C140.903 195.664 140.127 196.288 139.119 196.736C138.111 197.184 136.919 197.408 135.543 197.408Z" fill="#0C2759"/>
</g>
</g>
</g>
</svg>
