<svg width="120" height="120" viewBox="0 0 120 120" fill="none" xmlns="http://www.w3.org/2000/svg">
<g id="Whatsapp">
<g id="Group 168">
<rect id="Rectangle 885" x="10" y="10" width="100" height="100" rx="32.3077" fill="#F2F7FF"/>
<path id="Vector" d="M82.5141 37.1987C76.5017 31.1719 68.4947 27.8572 59.9854 27.8572C42.4217 27.8572 28.1296 42.1493 28.1296 59.713C28.1296 65.3237 29.5932 70.8052 32.377 75.641L27.8569 92.1429L44.7463 87.7089C49.3955 90.2488 54.6331 91.5833 59.9711 91.5833H59.9854C77.5349 91.5833 92.1426 77.2912 92.1426 59.7274C92.1426 51.2181 88.5266 43.2255 82.5141 37.1987V37.1987ZM59.9854 86.2166C55.2214 86.2166 50.5578 84.9394 46.4969 82.5287L45.5355 81.9548L35.5196 84.5807L38.1886 74.8087L37.5572 73.8042C34.9025 69.5855 33.5106 64.721 33.5106 59.713C33.5106 45.1196 45.392 33.2382 59.9998 33.2382C67.0741 33.2382 73.7179 35.9933 78.7115 41.0013C83.7051 46.0093 86.7759 52.6531 86.7616 59.7274C86.7616 74.3352 74.5789 86.2166 59.9854 86.2166V86.2166ZM74.5071 66.3856C73.7179 65.9838 69.8005 64.0609 69.0687 63.8026C68.3368 63.53 67.8059 63.4009 67.275 64.2044C66.7441 65.008 65.223 66.7873 64.7495 67.3326C64.2903 67.8636 63.8168 67.9353 63.0275 67.5335C58.3496 65.1945 55.2788 63.3578 52.1937 58.0629C51.3757 56.6566 53.0116 56.757 54.5326 53.715C54.7909 53.184 54.6618 52.7248 54.4609 52.3231C54.26 51.9213 52.6672 48.0039 52.0071 46.4111C51.3614 44.8613 50.7013 45.0766 50.2134 45.0479C49.7543 45.0192 49.2233 45.0192 48.6924 45.0192C48.1615 45.0192 47.3005 45.2201 46.5687 46.0093C45.8368 46.8129 43.7849 48.7357 43.7849 52.6531C43.7849 56.5705 46.6404 60.3588 47.0279 60.8897C47.4296 61.4206 52.6385 69.4563 60.6312 72.9146C65.6822 75.0957 67.6624 75.2822 70.1879 74.9092C71.7233 74.6796 74.8946 72.9863 75.5546 71.1209C76.2147 69.2555 76.2147 67.6627 76.0138 67.3326C75.8273 66.9739 75.2963 66.773 74.5071 66.3856Z" fill="url(#paint0_linear)"/>
</g>
</g>
<defs>
<linearGradient id="paint0_linear" x1="59.9998" y1="27.8572" x2="59.9998" y2="92.1429" gradientUnits="userSpaceOnUse">
<stop stop-color="#538BF0"/>
<stop offset="1" stop-color="#0C2759"/>
</linearGradient>
</defs>
</svg>
