<svg width="80" height="80" viewBox="0 0 80 80" fill="none" xmlns="http://www.w3.org/2000/svg">
<g id="wpp">
<path id="Vector" d="M62.6572 17.3415C56.6448 11.3147 48.6378 8 40.1285 8C22.5647 8 8.27264 22.2921 8.27264 39.8559C8.27264 45.4665 9.73629 50.948 12.5201 55.7838L8 72.2857L24.8893 67.8517C29.5386 70.3916 34.7761 71.7261 40.1142 71.7261H40.1285C57.6779 71.7261 72.2857 57.434 72.2857 39.8702C72.2857 31.361 68.6696 23.3683 62.6572 17.3415V17.3415ZM40.1285 66.3594C35.3645 66.3594 30.7009 65.0823 26.64 62.6716L25.6786 62.0976L15.6626 64.7235L18.3316 54.9515L17.7003 53.9471C15.0456 49.7283 13.6537 44.8638 13.6537 39.8559C13.6537 25.2624 25.5351 13.3811 40.1429 13.3811C47.2172 13.3811 53.861 16.1362 58.8546 21.1441C63.8482 26.1521 66.919 32.7959 66.9047 39.8702C66.9047 54.478 54.7219 66.3594 40.1285 66.3594V66.3594ZM54.6502 46.5284C53.861 46.1266 49.9436 44.2038 49.2117 43.9455C48.4799 43.6728 47.949 43.5437 47.418 44.3473C46.8871 45.1508 45.3661 46.9302 44.8925 47.4754C44.4334 48.0064 43.9598 48.0781 43.1706 47.6763C38.4927 45.3374 35.4219 43.5006 32.3367 38.2057C31.5188 36.7994 33.1547 36.8999 34.6757 33.8578C34.934 33.3268 34.8048 32.8677 34.604 32.4659C34.4031 32.0641 32.8103 28.1467 32.1502 26.5539C31.5045 25.0041 30.8444 25.2194 30.3565 25.1907C29.8973 25.162 29.3664 25.162 28.8355 25.162C28.3045 25.162 27.4436 25.3629 26.7117 26.1521C25.9799 26.9557 23.9279 28.8785 23.9279 32.7959C23.9279 36.7133 26.7835 40.5016 27.1709 41.0325C27.5727 41.5635 32.7816 49.5992 40.7742 53.0574C45.8253 55.2385 47.8055 55.4251 50.331 55.052C51.8664 54.8224 55.0376 53.1291 55.6977 51.2637C56.3578 49.3983 56.3578 47.8055 56.1569 47.4754C55.9703 47.1167 55.4394 46.9158 54.6502 46.5284Z" fill="#868587"/>
</g>
</svg>
