<svg width="404" height="107" viewBox="0 0 404 107" fill="none" xmlns="http://www.w3.org/2000/svg">
<path d="M76.137 64.36C74.477 64.36 72.867 64.14 71.307 63.7C69.767 63.24 68.527 62.65 67.587 61.93L69.237 58.27C70.137 58.93 71.207 59.46 72.447 59.86C73.687 60.26 74.927 60.46 76.167 60.46C77.547 60.46 78.567 60.26 79.227 59.86C79.887 59.44 80.217 58.89 80.217 58.21C80.217 57.71 80.017 57.3 79.617 56.98C79.237 56.64 78.737 56.37 78.117 56.17C77.517 55.97 76.697 55.75 75.657 55.51C74.057 55.13 72.747 54.75 71.727 54.37C70.707 53.99 69.827 53.38 69.087 52.54C68.367 51.7 68.007 50.58 68.007 49.18C68.007 47.96 68.337 46.86 68.997 45.88C69.657 44.88 70.647 44.09 71.967 43.51C73.307 42.93 74.937 42.64 76.857 42.64C78.197 42.64 79.507 42.8 80.787 43.12C82.067 43.44 83.187 43.9 84.147 44.5L82.647 48.19C80.707 47.09 78.767 46.54 76.827 46.54C75.467 46.54 74.457 46.76 73.797 47.2C73.157 47.64 72.837 48.22 72.837 48.94C72.837 49.66 73.207 50.2 73.947 50.56C74.707 50.9 75.857 51.24 77.397 51.58C78.997 51.96 80.307 52.34 81.327 52.72C82.347 53.1 83.217 53.7 83.937 54.52C84.677 55.34 85.047 56.45 85.047 57.85C85.047 59.05 84.707 60.15 84.027 61.15C83.367 62.13 82.367 62.91 81.027 63.49C79.687 64.07 78.057 64.36 76.137 64.36ZM109.199 64.36C107.019 64.36 105.049 63.89 103.289 62.95C101.549 62.01 100.179 60.72 99.1793 59.08C98.1993 57.42 97.7093 55.56 97.7093 53.5C97.7093 51.44 98.1993 49.59 99.1793 47.95C100.179 46.29 101.549 44.99 103.289 44.05C105.049 43.11 107.019 42.64 109.199 42.64C111.379 42.64 113.339 43.11 115.079 44.05C116.819 44.99 118.189 46.29 119.189 47.95C120.189 49.59 120.689 51.44 120.689 53.5C120.689 55.56 120.189 57.42 119.189 59.08C118.189 60.72 116.819 62.01 115.079 62.95C113.339 63.89 111.379 64.36 109.199 64.36ZM109.199 60.22C110.439 60.22 111.559 59.94 112.559 59.38C113.559 58.8 114.339 58 114.899 56.98C115.479 55.96 115.769 54.8 115.769 53.5C115.769 52.2 115.479 51.04 114.899 50.02C114.339 49 113.559 48.21 112.559 47.65C111.559 47.07 110.439 46.78 109.199 46.78C107.959 46.78 106.839 47.07 105.839 47.65C104.839 48.21 104.049 49 103.469 50.02C102.909 51.04 102.629 52.2 102.629 53.5C102.629 54.8 102.909 55.96 103.469 56.98C104.049 58 104.839 58.8 105.839 59.38C106.839 59.94 107.959 60.22 109.199 60.22ZM150.423 53.08C151.623 53.46 152.563 54.1 153.243 55C153.923 55.88 154.263 56.97 154.263 58.27C154.263 60.11 153.543 61.53 152.103 62.53C150.683 63.51 148.603 64 145.863 64H135.003V43H145.263C147.823 43 149.783 43.49 151.143 44.47C152.523 45.45 153.213 46.78 153.213 48.46C153.213 49.48 152.963 50.39 152.463 51.19C151.983 51.99 151.303 52.62 150.423 53.08ZM139.833 46.66V51.61H144.663C145.863 51.61 146.773 51.4 147.393 50.98C148.013 50.56 148.323 49.94 148.323 49.12C148.323 48.3 148.013 47.69 147.393 47.29C146.773 46.87 145.863 46.66 144.663 46.66H139.833ZM145.503 60.34C146.783 60.34 147.743 60.13 148.383 59.71C149.043 59.29 149.373 58.64 149.373 57.76C149.373 56.02 148.083 55.15 145.503 55.15H139.833V60.34H145.503ZM181.984 64L177.934 58.15H177.694H173.464V64H168.604V43H177.694C179.554 43 181.164 43.31 182.524 43.93C183.904 44.55 184.964 45.43 185.704 46.57C186.444 47.71 186.814 49.06 186.814 50.62C186.814 52.18 186.434 53.53 185.674 54.67C184.934 55.79 183.874 56.65 182.494 57.25L187.204 64H181.984ZM181.894 50.62C181.894 49.44 181.514 48.54 180.754 47.92C179.994 47.28 178.884 46.96 177.424 46.96H173.464V54.28H177.424C178.884 54.28 179.994 53.96 180.754 53.32C181.514 52.68 181.894 51.78 181.894 50.62ZM217.586 60.1V64H201.326V43H217.196V46.9H206.156V51.46H215.906V55.24H206.156V60.1H217.586ZM270.382 64L270.352 51.4L264.172 61.78H261.982L255.832 51.67V64H251.272V43H255.292L263.152 56.05L270.892 43H274.882L274.942 64H270.382ZM290.586 43H295.446V64H290.586V43ZM330.201 64L330.171 51.4L323.991 61.78H321.801L315.651 51.67V64H311.091V43H315.111L322.971 56.05L330.711 43H334.701L334.761 64H330.201Z" fill="#B185DB"/>
<rect x="4" y="4" width="396" height="99" stroke="url(#paint0_linear)" stroke-width="8"/>
<defs>
<linearGradient id="paint0_linear" x1="404" y1="0" x2="352.474" y2="198.496" gradientUnits="userSpaceOnUse">
<stop stop-color="#312EC8"/>
<stop offset="1" stop-color="#5D18CD" stop-opacity="0.6"/>
</linearGradient>
</defs>
</svg>
