<svg width="1410" height="414" viewBox="0 0 1410 414" fill="none" xmlns="http://www.w3.org/2000/svg">
<g filter="url(#filter0_ddddd)">
<rect x="82" width="1246" height="228" rx="33" fill="url(#paint0_linear)"/>
</g>
<path d="M301.835 107.92V128H297.355V99.6H301.035L317.115 120.12V99.64H321.635V128H317.715L301.835 107.92ZM349.62 128.2C347.593 128.2 345.74 127.8 344.06 127C342.406 126.2 340.98 125.12 339.78 123.76C338.58 122.373 337.646 120.827 336.98 119.12C336.34 117.387 336.02 115.613 336.02 113.8C336.02 111.907 336.366 110.107 337.06 108.4C337.753 106.667 338.713 105.133 339.94 103.8C341.166 102.44 342.606 101.373 344.26 100.6C345.94 99.8 347.753 99.4 349.7 99.4C351.726 99.4 353.566 99.8133 355.22 100.64C356.9 101.467 358.326 102.573 359.5 103.96C360.7 105.347 361.62 106.893 362.26 108.6C362.926 110.307 363.26 112.053 363.26 113.84C363.26 115.733 362.913 117.547 362.22 119.28C361.553 120.987 360.606 122.52 359.38 123.88C358.153 125.213 356.7 126.267 355.02 127.04C353.366 127.813 351.566 128.2 349.62 128.2ZM340.58 113.8C340.58 115.587 340.953 117.28 341.7 118.88C342.446 120.453 343.486 121.733 344.82 122.72C346.18 123.68 347.793 124.16 349.66 124.16C351.073 124.16 352.34 123.867 353.46 123.28C354.58 122.693 355.526 121.907 356.3 120.92C357.073 119.907 357.66 118.787 358.06 117.56C358.46 116.333 358.66 115.08 358.66 113.8C358.66 112.013 358.286 110.333 357.54 108.76C356.82 107.187 355.78 105.92 354.42 104.96C353.06 103.973 351.473 103.48 349.66 103.48C348.22 103.48 346.94 103.773 345.82 104.36C344.7 104.947 343.753 105.733 342.98 106.72C342.206 107.707 341.606 108.813 341.18 110.04C340.78 111.267 340.58 112.52 340.58 113.8ZM378.404 99.6L386.964 122.52L395.484 99.6H400.244L389.084 128H384.844L373.644 99.6H378.404ZM424.22 128.2C422.193 128.2 420.34 127.8 418.66 127C417.006 126.2 415.58 125.12 414.38 123.76C413.18 122.373 412.246 120.827 411.58 119.12C410.94 117.387 410.62 115.613 410.62 113.8C410.62 111.907 410.966 110.107 411.66 108.4C412.353 106.667 413.313 105.133 414.54 103.8C415.766 102.44 417.206 101.373 418.86 100.6C420.54 99.8 422.353 99.4 424.3 99.4C426.326 99.4 428.166 99.8133 429.82 100.64C431.5 101.467 432.926 102.573 434.1 103.96C435.3 105.347 436.22 106.893 436.86 108.6C437.526 110.307 437.86 112.053 437.86 113.84C437.86 115.733 437.513 117.547 436.82 119.28C436.153 120.987 435.206 122.52 433.98 123.88C432.753 125.213 431.3 126.267 429.62 127.04C427.966 127.813 426.166 128.2 424.22 128.2ZM415.18 113.8C415.18 115.587 415.553 117.28 416.3 118.88C417.046 120.453 418.086 121.733 419.42 122.72C420.78 123.68 422.393 124.16 424.26 124.16C425.673 124.16 426.94 123.867 428.06 123.28C429.18 122.693 430.126 121.907 430.9 120.92C431.673 119.907 432.26 118.787 432.66 117.56C433.06 116.333 433.26 115.08 433.26 113.8C433.26 112.013 432.886 110.333 432.14 108.76C431.42 107.187 430.38 105.92 429.02 104.96C427.66 103.973 426.073 103.48 424.26 103.48C422.82 103.48 421.54 103.773 420.42 104.36C419.3 104.947 418.353 105.733 417.58 106.72C416.806 107.707 416.206 108.813 415.78 110.04C415.38 111.267 415.18 112.52 415.18 113.8ZM469.059 106.28C468.712 105.88 468.139 105.467 467.339 105.04C466.565 104.587 465.659 104.2 464.619 103.88C463.579 103.56 462.499 103.4 461.379 103.4C459.485 103.4 458.085 103.747 457.179 104.44C456.299 105.133 455.859 106.093 455.859 107.32C455.859 108.227 456.112 108.947 456.619 109.48C457.125 109.987 457.899 110.427 458.939 110.8C459.979 111.147 461.285 111.507 462.859 111.88C464.779 112.333 466.432 112.88 467.819 113.52C469.232 114.133 470.312 114.96 471.059 116C471.832 117.04 472.219 118.413 472.219 120.12C472.219 122.067 471.752 123.64 470.819 124.84C469.885 126.04 468.619 126.92 467.019 127.48C465.445 128.013 463.712 128.28 461.819 128.28C459.659 128.28 457.565 127.947 455.539 127.28C453.512 126.613 451.699 125.667 450.099 124.44L452.139 120.6C452.592 121.053 453.312 121.573 454.299 122.16C455.285 122.72 456.432 123.213 457.739 123.64C459.072 124.04 460.459 124.24 461.899 124.24C463.659 124.24 465.019 123.933 465.979 123.32C466.939 122.68 467.419 121.773 467.419 120.6C467.419 119.64 467.099 118.88 466.459 118.32C465.845 117.733 464.952 117.253 463.779 116.88C462.632 116.48 461.245 116.067 459.619 115.64C457.752 115.16 456.192 114.613 454.939 114C453.685 113.387 452.739 112.613 452.099 111.68C451.485 110.747 451.179 109.533 451.179 108.04C451.179 106.173 451.632 104.6 452.539 103.32C453.445 102.013 454.672 101.04 456.219 100.4C457.792 99.7333 459.552 99.4 461.499 99.4C463.419 99.4 465.192 99.7067 466.819 100.32C468.445 100.933 469.872 101.693 471.099 102.6L469.059 106.28ZM506.195 128V99.6H518.115C519.395 99.6 520.568 99.8667 521.635 100.4C522.728 100.933 523.661 101.64 524.435 102.52C525.235 103.4 525.848 104.387 526.275 105.48C526.701 106.573 526.915 107.693 526.915 108.84C526.915 110.44 526.555 111.947 525.835 113.36C525.115 114.773 524.115 115.92 522.835 116.8C521.555 117.68 520.061 118.12 518.355 118.12H510.675V128H506.195ZM510.675 114.16H518.075C519.328 114.16 520.355 113.653 521.155 112.64C521.955 111.627 522.355 110.36 522.355 108.84C522.355 107.8 522.141 106.893 521.715 106.12C521.288 105.32 520.728 104.693 520.035 104.24C519.368 103.787 518.635 103.56 517.835 103.56H510.675V114.16ZM540.916 128V99.6H553.276C554.556 99.6 555.73 99.8667 556.796 100.4C557.863 100.933 558.783 101.64 559.556 102.52C560.356 103.4 560.97 104.387 561.396 105.48C561.85 106.573 562.076 107.693 562.076 108.84C562.076 110.12 561.836 111.333 561.356 112.48C560.903 113.6 560.263 114.573 559.436 115.4C558.61 116.227 557.636 116.827 556.516 117.2L563.196 128H558.156L551.996 118.12H545.396V128H540.916ZM545.396 114.16H553.236C554.063 114.16 554.796 113.92 555.436 113.44C556.076 112.933 556.583 112.28 556.956 111.48C557.33 110.68 557.516 109.8 557.516 108.84C557.516 107.853 557.303 106.973 556.876 106.2C556.45 105.4 555.89 104.76 555.196 104.28C554.503 103.8 553.77 103.56 552.996 103.56H545.396V114.16ZM588.884 128.2C586.857 128.2 585.004 127.8 583.324 127C581.67 126.2 580.244 125.12 579.044 123.76C577.844 122.373 576.91 120.827 576.244 119.12C575.604 117.387 575.284 115.613 575.284 113.8C575.284 111.907 575.63 110.107 576.324 108.4C577.017 106.667 577.977 105.133 579.204 103.8C580.43 102.44 581.87 101.373 583.524 100.6C585.204 99.8 587.017 99.4 588.964 99.4C590.99 99.4 592.83 99.8133 594.484 100.64C596.164 101.467 597.59 102.573 598.764 103.96C599.964 105.347 600.884 106.893 601.524 108.6C602.19 110.307 602.524 112.053 602.524 113.84C602.524 115.733 602.177 117.547 601.484 119.28C600.817 120.987 599.87 122.52 598.644 123.88C597.417 125.213 595.964 126.267 594.284 127.04C592.63 127.813 590.83 128.2 588.884 128.2ZM579.844 113.8C579.844 115.587 580.217 117.28 580.964 118.88C581.71 120.453 582.75 121.733 584.084 122.72C585.444 123.68 587.057 124.16 588.924 124.16C590.337 124.16 591.604 123.867 592.724 123.28C593.844 122.693 594.79 121.907 595.564 120.92C596.337 119.907 596.924 118.787 597.324 117.56C597.724 116.333 597.924 115.08 597.924 113.8C597.924 112.013 597.55 110.333 596.804 108.76C596.084 107.187 595.044 105.92 593.684 104.96C592.324 103.973 590.737 103.48 588.924 103.48C587.484 103.48 586.204 103.773 585.084 104.36C583.964 104.947 583.017 105.733 582.244 106.72C581.47 107.707 580.87 108.813 580.444 110.04C580.044 111.267 579.844 112.52 579.844 113.8ZM614.304 123C614.731 123.293 615.384 123.6 616.264 123.92C617.144 124.24 618.184 124.4 619.384 124.4C620.958 124.4 622.144 124.067 622.944 123.4C623.744 122.707 624.278 121.64 624.544 120.2C624.811 118.76 624.944 116.92 624.944 114.68V99.6H629.464V114.04C629.464 116.173 629.344 118.12 629.104 119.88C628.891 121.64 628.451 123.16 627.784 124.44C627.118 125.72 626.118 126.707 624.784 127.4C623.478 128.093 621.718 128.44 619.504 128.44C618.171 128.44 616.998 128.293 615.984 128C614.971 127.707 614.051 127.267 613.224 126.68L614.304 123ZM664.835 124.04V128H645.355V99.6H664.475V103.56H649.835V111.64H662.515V115.36H649.835V124.04H664.835ZM700.097 103.56H690.657V128H686.137V103.56H676.657V99.6H700.097V103.56ZM724.763 128.2C722.737 128.2 720.883 127.8 719.203 127C717.55 126.2 716.123 125.12 714.923 123.76C713.723 122.373 712.79 120.827 712.123 119.12C711.483 117.387 711.163 115.613 711.163 113.8C711.163 111.907 711.51 110.107 712.203 108.4C712.897 106.667 713.857 105.133 715.083 103.8C716.31 102.44 717.75 101.373 719.403 100.6C721.083 99.8 722.897 99.4 724.843 99.4C726.87 99.4 728.71 99.8133 730.363 100.64C732.043 101.467 733.47 102.573 734.643 103.96C735.843 105.347 736.763 106.893 737.403 108.6C738.07 110.307 738.403 112.053 738.403 113.84C738.403 115.733 738.057 117.547 737.363 119.28C736.697 120.987 735.75 122.52 734.523 123.88C733.297 125.213 731.843 126.267 730.163 127.04C728.51 127.813 726.71 128.2 724.763 128.2ZM715.723 113.8C715.723 115.587 716.097 117.28 716.843 118.88C717.59 120.453 718.63 121.733 719.963 122.72C721.323 123.68 722.937 124.16 724.803 124.16C726.217 124.16 727.483 123.867 728.603 123.28C729.723 122.693 730.67 121.907 731.443 120.92C732.217 119.907 732.803 118.787 733.203 117.56C733.603 116.333 733.803 115.08 733.803 113.8C733.803 112.013 733.43 110.333 732.683 108.76C731.963 107.187 730.923 105.92 729.563 104.96C728.203 103.973 726.617 103.48 724.803 103.48C723.363 103.48 722.083 103.773 720.963 104.36C719.843 104.947 718.897 105.733 718.123 106.72C717.35 107.707 716.75 108.813 716.323 110.04C715.923 111.267 715.723 112.52 715.723 113.8ZM769.602 106.28C769.256 105.88 768.682 105.467 767.882 105.04C767.109 104.587 766.202 104.2 765.162 103.88C764.122 103.56 763.042 103.4 761.922 103.4C760.029 103.4 758.629 103.747 757.722 104.44C756.842 105.133 756.402 106.093 756.402 107.32C756.402 108.227 756.656 108.947 757.162 109.48C757.669 109.987 758.442 110.427 759.482 110.8C760.522 111.147 761.829 111.507 763.402 111.88C765.322 112.333 766.976 112.88 768.362 113.52C769.776 114.133 770.856 114.96 771.602 116C772.376 117.04 772.762 118.413 772.762 120.12C772.762 122.067 772.296 123.64 771.362 124.84C770.429 126.04 769.162 126.92 767.562 127.48C765.989 128.013 764.256 128.28 762.362 128.28C760.202 128.28 758.109 127.947 756.082 127.28C754.056 126.613 752.242 125.667 750.642 124.44L752.682 120.6C753.136 121.053 753.856 121.573 754.842 122.16C755.829 122.72 756.976 123.213 758.282 123.64C759.616 124.04 761.002 124.24 762.442 124.24C764.202 124.24 765.562 123.933 766.522 123.32C767.482 122.68 767.962 121.773 767.962 120.6C767.962 119.64 767.642 118.88 767.002 118.32C766.389 117.733 765.496 117.253 764.322 116.88C763.176 116.48 761.789 116.067 760.162 115.64C758.296 115.16 756.736 114.613 755.482 114C754.229 113.387 753.282 112.613 752.642 111.68C752.029 110.747 751.722 109.533 751.722 108.04C751.722 106.173 752.176 104.6 753.082 103.32C753.989 102.013 755.216 101.04 756.762 100.4C758.336 99.7333 760.096 99.4 762.042 99.4C763.962 99.4 765.736 99.7067 767.362 100.32C768.989 100.933 770.416 101.693 771.642 102.6L769.602 106.28ZM826.218 124.04V128H806.738V99.6H825.858V103.56H811.218V111.64H823.898V115.36H811.218V124.04H826.218ZM864.52 128V107.76L856.16 123.12H853.52L845.12 107.76V128H840.64V99.6H845.44L854.84 116.96L864.24 99.6H869.04V128H864.52ZM927.247 120.68C927.247 122.2 926.847 123.507 926.047 124.6C925.247 125.693 924.181 126.533 922.847 127.12C921.541 127.707 920.087 128 918.487 128H904.927V99.6H919.567C920.901 99.6 922.047 99.96 923.007 100.68C923.967 101.373 924.714 102.28 925.247 103.4C925.781 104.52 926.047 105.667 926.047 106.84C926.047 108.227 925.687 109.533 924.967 110.76C924.274 111.96 923.274 112.853 921.967 113.44C923.567 113.92 924.847 114.8 925.807 116.08C926.767 117.333 927.247 118.867 927.247 120.68ZM909.407 103.48V111.84H917.647C918.767 111.84 919.701 111.453 920.447 110.68C921.194 109.88 921.567 108.88 921.567 107.68C921.567 106.453 921.221 105.453 920.527 104.68C919.834 103.88 918.954 103.48 917.887 103.48H909.407ZM922.647 119.84C922.647 118.667 922.274 117.64 921.527 116.76C920.807 115.88 919.887 115.44 918.767 115.44H909.407V124.12H918.487C919.661 124.12 920.647 123.707 921.447 122.88C922.247 122.027 922.647 121.013 922.647 119.84ZM941.72 128V99.6H954.08C955.36 99.6 956.533 99.8667 957.6 100.4C958.666 100.933 959.586 101.64 960.36 102.52C961.16 103.4 961.773 104.387 962.2 105.48C962.653 106.573 962.88 107.693 962.88 108.84C962.88 110.12 962.64 111.333 962.16 112.48C961.706 113.6 961.066 114.573 960.24 115.4C959.413 116.227 958.44 116.827 957.32 117.2L964 128H958.96L952.8 118.12H946.2V128H941.72ZM946.2 114.16H954.04C954.866 114.16 955.6 113.92 956.24 113.44C956.88 112.933 957.386 112.28 957.76 111.48C958.133 110.68 958.32 109.8 958.32 108.84C958.32 107.853 958.106 106.973 957.68 106.2C957.253 105.4 956.693 104.76 956 104.28C955.306 103.8 954.573 103.56 953.8 103.56H946.2V114.16ZM997.445 124.04V128H977.965V99.6H997.085V103.56H982.445V111.64H995.125V115.36H982.445V124.04H997.445ZM1013.67 99.6L1022.23 122.52L1030.75 99.6H1035.51L1024.35 128H1020.11L1008.91 99.6H1013.67ZM1068.26 124.04V128H1048.78V99.6H1067.9V103.56H1053.26V111.64H1065.94V115.36H1053.26V124.04H1068.26ZM1082.96 117.88V99.32H1087.36V117.88H1082.96ZM1082.96 128V122.52H1087.36V128H1082.96Z" fill="#F6F2FF"/>
<defs>
<filter id="filter0_ddddd" x="0" y="0" width="1410" height="414" filterUnits="userSpaceOnUse" color-interpolation-filters="sRGB">
<feFlood flood-opacity="0" result="BackgroundImageFix"/>
<feColorMatrix in="SourceAlpha" type="matrix" values="0 0 0 0 0 0 0 0 0 0 0 0 0 0 0 0 0 0 127 0"/>
<feOffset dy="3.57229"/>
<feGaussianBlur stdDeviation="1.40831"/>
<feColorMatrix type="matrix" values="0 0 0 0 0 0 0 0 0 0 0 0 0 0 0 0 0 0 0.0265887 0"/>
<feBlend mode="normal" in2="BackgroundImageFix" result="effect1_dropShadow"/>
<feColorMatrix in="SourceAlpha" type="matrix" values="0 0 0 0 0 0 0 0 0 0 0 0 0 0 0 0 0 0 127 0"/>
<feOffset dy="9.03458"/>
<feGaussianBlur stdDeviation="3.56171"/>
<feColorMatrix type="matrix" values="0 0 0 0 0 0 0 0 0 0 0 0 0 0 0 0 0 0 0.0354793 0"/>
<feBlend mode="normal" in2="effect1_dropShadow" result="effect2_dropShadow"/>
<feColorMatrix in="SourceAlpha" type="matrix" values="0 0 0 0 0 0 0 0 0 0 0 0 0 0 0 0 0 0 127 0"/>
<feOffset dy="18.4297"/>
<feGaussianBlur stdDeviation="7.26556"/>
<feColorMatrix type="matrix" values="0 0 0 0 0 0 0 0 0 0 0 0 0 0 0 0 0 0 0.0421796 0"/>
<feBlend mode="normal" in2="effect2_dropShadow" result="effect3_dropShadow"/>
<feColorMatrix in="SourceAlpha" type="matrix" values="0 0 0 0 0 0 0 0 0 0 0 0 0 0 0 0 0 0 127 0"/>
<feOffset dy="37.9617"/>
<feGaussianBlur stdDeviation="14.9657"/>
<feColorMatrix type="matrix" values="0 0 0 0 0 0 0 0 0 0 0 0 0 0 0 0 0 0 0.0499859 0"/>
<feBlend mode="normal" in2="effect3_dropShadow" result="effect4_dropShadow"/>
<feColorMatrix in="SourceAlpha" type="matrix" values="0 0 0 0 0 0 0 0 0 0 0 0 0 0 0 0 0 0 127 0"/>
<feOffset dy="104"/>
<feGaussianBlur stdDeviation="41"/>
<feColorMatrix type="matrix" values="0 0 0 0 0 0 0 0 0 0 0 0 0 0 0 0 0 0 0.07 0"/>
<feBlend mode="normal" in2="effect4_dropShadow" result="effect5_dropShadow"/>
<feBlend mode="normal" in="SourceGraphic" in2="effect5_dropShadow" result="shape"/>
</filter>
<linearGradient id="paint0_linear" x1="705" y1="0" x2="705" y2="399.5" gradientUnits="userSpaceOnUse">
<stop stop-color="#2D3436"/>
<stop offset="1" stop-color="#2D3436" stop-opacity="0"/>
</linearGradient>
</defs>
</svg>
