<svg width="100" height="100" viewBox="0 0 100 100" fill="none" xmlns="http://www.w3.org/2000/svg">
<circle opacity="0.6" cx="50" cy="50" r="50" fill="url(#paint0_linear)"/>
<ellipse cx="50" cy="48.9796" rx="37.7551" ry="36.7347" fill="url(#paint1_linear)"/>
<path d="M65.0517 42.2193H54.0123L58.0875 34.4586C58.4702 33.5498 57.3701 32.653 55.8682 32.653H42.0928C40.9449 32.653 39.9691 33.1851 39.8161 33.8966L36.7549 48.2461C36.5731 49.107 37.6445 49.8723 39.0316 49.8723H50.3867L45.9767 61.5014C45.6323 62.4102 46.742 63.2652 48.2056 63.2652C49.0092 63.2652 49.7745 63.0021 50.1954 62.5477L67.0319 44.3717C67.9216 43.4211 66.8215 42.2193 65.0517 42.2193Z" fill="#F6F2FF"/>
<defs>
<linearGradient id="paint0_linear" x1="100" y1="0" x2="1.01499" y2="100.995" gradientUnits="userSpaceOnUse">
<stop stop-color="#312EC8"/>
<stop offset="1" stop-color="#5D18CD" stop-opacity="0.6"/>
</linearGradient>
<linearGradient id="paint1_linear" x1="87.7551" y1="12.2449" x2="15.0987" y2="88.4357" gradientUnits="userSpaceOnUse">
<stop stop-color="#312EC8"/>
<stop offset="1" stop-color="#5D18CD" stop-opacity="0.6"/>
</linearGradient>
</defs>
</svg>
