<svg width="100" height="100" viewBox="0 0 100 100" fill="none" xmlns="http://www.w3.org/2000/svg">
<circle opacity="0.6" cx="50" cy="50" r="50" fill="url(#paint0_linear)"/>
<ellipse cx="50" cy="48.9796" rx="37.7551" ry="36.7347" fill="url(#paint1_linear)"/>
<path d="M63.5114 34.6976C60.5989 34.9101 54.8101 35.6836 51.2365 38.4961C50.9899 38.6901 50.8501 39.0352 50.8501 39.396V64.2594C50.8501 65.0486 51.5214 65.5474 52.0874 65.1812C55.7641 62.8019 61.0815 62.1528 63.7107 61.9751C64.6083 61.9143 65.3062 60.9891 65.3062 59.8801V36.7953C65.3067 35.5852 64.4903 34.6265 63.5114 34.6976ZM48.7636 38.4961C45.1905 35.6836 39.4017 34.9107 36.4892 34.6976C35.5102 34.6265 34.6939 35.5852 34.6939 36.7953V59.8808C34.6939 60.9905 35.3917 61.9157 36.2894 61.9758C38.9196 62.1535 44.2397 62.8033 47.9164 65.1839C48.4808 65.5495 49.1499 65.0514 49.1499 64.2642V39.3837C49.1499 39.0222 49.0107 38.6908 48.7636 38.4961Z" fill="#F6F2FF"/>
<defs>
<linearGradient id="paint0_linear" x1="100" y1="0" x2="1.01499" y2="100.995" gradientUnits="userSpaceOnUse">
<stop stop-color="#312EC8"/>
<stop offset="1" stop-color="#5D18CD" stop-opacity="0.6"/>
</linearGradient>
<linearGradient id="paint1_linear" x1="87.7551" y1="12.2449" x2="15.0987" y2="88.4357" gradientUnits="userSpaceOnUse">
<stop stop-color="#312EC8"/>
<stop offset="1" stop-color="#5D18CD" stop-opacity="0.6"/>
</linearGradient>
</defs>
</svg>
