<svg width="100" height="100" viewBox="0 0 100 100" fill="none" xmlns="http://www.w3.org/2000/svg">
<circle opacity="0.6" cx="50" cy="50" r="50" fill="url(#paint0_linear)"/>
<circle cx="50" cy="50" r="37.7551" fill="url(#paint1_linear)"/>
<path d="M43.8794 58.7463H53.0623C55.5971 58.7463 57.6537 55.8081 57.6537 52.1866H59.1842C62.5608 52.1866 65.3061 48.2644 65.3061 43.4402C65.3061 38.616 62.5608 34.6938 59.1842 34.6938H40.4358C39.7997 34.6938 39.288 35.425 39.288 36.3338V52.1866C39.288 55.8081 41.3445 58.7463 43.8794 58.7463ZM59.1842 39.067C60.8725 39.067 62.2451 41.0281 62.2451 43.4402C62.2451 45.8523 60.8725 47.8134 59.1842 47.8134H57.6537V39.067H59.1842ZM61.4655 65.3061H37.0066C34.73 65.3061 34.0891 60.9329 35.2848 60.9329H63.1826C64.3782 60.9329 63.7469 65.3061 61.4655 65.3061Z" fill="#F5F6FA" fill-opacity="0.95"/>
<defs>
<linearGradient id="paint0_linear" x1="100" y1="0" x2="1.01499" y2="100.995" gradientUnits="userSpaceOnUse">
<stop stop-color="#312EC8"/>
<stop offset="1" stop-color="#5D18CD" stop-opacity="0.6"/>
</linearGradient>
<linearGradient id="paint1_linear" x1="87.7551" y1="12.2449" x2="13.0113" y2="88.5062" gradientUnits="userSpaceOnUse">
<stop stop-color="#312EC8"/>
<stop offset="1" stop-color="#5D18CD" stop-opacity="0.6"/>
</linearGradient>
</defs>
</svg>
