<svg width="367" height="107" viewBox="0 0 367 107" fill="none" xmlns="http://www.w3.org/2000/svg">
<path d="M87.0197 64.36C84.8797 64.36 82.9397 63.9 81.1997 62.98C79.4797 62.04 78.1197 60.75 77.1197 59.11C76.1397 57.45 75.6497 55.58 75.6497 53.5C75.6497 51.42 76.1397 49.56 77.1197 47.92C78.1197 46.26 79.4797 44.97 81.1997 44.05C82.9397 43.11 84.8897 42.64 87.0497 42.64C88.8697 42.64 90.5097 42.96 91.9697 43.6C93.4497 44.24 94.6897 45.16 95.6897 46.36L92.5697 49.24C91.1497 47.6 89.3897 46.78 87.2897 46.78C85.9897 46.78 84.8297 47.07 83.8097 47.65C82.7897 48.21 81.9897 49 81.4097 50.02C80.8497 51.04 80.5697 52.2 80.5697 53.5C80.5697 54.8 80.8497 55.96 81.4097 56.98C81.9897 58 82.7897 58.8 83.8097 59.38C84.8297 59.94 85.9897 60.22 87.2897 60.22C89.3897 60.22 91.1497 59.39 92.5697 57.73L95.6897 60.61C94.6897 61.83 93.4497 62.76 91.9697 63.4C90.4897 64.04 88.8397 64.36 87.0197 64.36ZM119.364 64.36C117.184 64.36 115.214 63.89 113.454 62.95C111.714 62.01 110.344 60.72 109.344 59.08C108.364 57.42 107.874 55.56 107.874 53.5C107.874 51.44 108.364 49.59 109.344 47.95C110.344 46.29 111.714 44.99 113.454 44.05C115.214 43.11 117.184 42.64 119.364 42.64C121.544 42.64 123.504 43.11 125.244 44.05C126.984 44.99 128.354 46.29 129.354 47.95C130.354 49.59 130.854 51.44 130.854 53.5C130.854 55.56 130.354 57.42 129.354 59.08C128.354 60.72 126.984 62.01 125.244 62.95C123.504 63.89 121.544 64.36 119.364 64.36ZM119.364 60.22C120.604 60.22 121.724 59.94 122.724 59.38C123.724 58.8 124.504 58 125.064 56.98C125.644 55.96 125.934 54.8 125.934 53.5C125.934 52.2 125.644 51.04 125.064 50.02C124.504 49 123.724 48.21 122.724 47.65C121.724 47.07 120.604 46.78 119.364 46.78C118.124 46.78 117.004 47.07 116.004 47.65C115.004 48.21 114.214 49 113.634 50.02C113.074 51.04 112.794 52.2 112.794 53.5C112.794 54.8 113.074 55.96 113.634 56.98C114.214 58 115.004 58.8 116.004 59.38C117.004 59.94 118.124 60.22 119.364 60.22ZM164.427 43V64H160.437L149.967 51.25V64H145.167V43H149.187L159.627 55.75V43H164.427ZM184.407 46.96H177.687V43H195.987V46.96H189.267V64H184.407V46.96ZM222.039 59.5H212.289L210.429 64H205.449L214.809 43H219.609L228.999 64H223.899L222.039 59.5ZM220.509 55.81L217.179 47.77L213.849 55.81H220.509ZM245.134 46.96H238.414V43H256.714V46.96H249.994V64H245.134V46.96ZM279.868 64.36C277.688 64.36 275.718 63.89 273.958 62.95C272.218 62.01 270.848 60.72 269.848 59.08C268.868 57.42 268.378 55.56 268.378 53.5C268.378 51.44 268.868 49.59 269.848 47.95C270.848 46.29 272.218 44.99 273.958 44.05C275.718 43.11 277.688 42.64 279.868 42.64C282.048 42.64 284.008 43.11 285.748 44.05C287.488 44.99 288.858 46.29 289.858 47.95C290.858 49.59 291.358 51.44 291.358 53.5C291.358 55.56 290.858 57.42 289.858 59.08C288.858 60.72 287.488 62.01 285.748 62.95C284.008 63.89 282.048 64.36 279.868 64.36ZM279.868 60.22C281.108 60.22 282.228 59.94 283.228 59.38C284.228 58.8 285.008 58 285.568 56.98C286.148 55.96 286.438 54.8 286.438 53.5C286.438 52.2 286.148 51.04 285.568 50.02C285.008 49 284.228 48.21 283.228 47.65C282.228 47.07 281.108 46.78 279.868 46.78C278.628 46.78 277.508 47.07 276.508 47.65C275.508 48.21 274.718 49 274.138 50.02C273.578 51.04 273.298 52.2 273.298 53.5C273.298 54.8 273.578 55.96 274.138 56.98C274.718 58 275.508 58.8 276.508 59.38C277.508 59.94 278.628 60.22 279.868 60.22Z" fill="#B185DB"/>
<rect x="4" y="4" width="359" height="99" stroke="url(#paint0_linear)" stroke-width="8"/>
<defs>
<linearGradient id="paint0_linear" x1="367" y1="0" x2="311.028" y2="195.877" gradientUnits="userSpaceOnUse">
<stop stop-color="#312EC8"/>
<stop offset="1" stop-color="#5D18CD" stop-opacity="0.6"/>
</linearGradient>
</defs>
</svg>
