<svg width="100" height="100" viewBox="0 0 100 100" fill="none" xmlns="http://www.w3.org/2000/svg">
<circle opacity="0.6" cx="50" cy="50" r="50" fill="url(#paint0_linear)"/>
<circle cx="50" cy="50" r="37.7551" fill="url(#paint1_linear)"/>
<path d="M63.907 49.6037L58.1313 47.1304V39.7173C58.1313 38.6925 57.5753 37.7769 56.7323 37.4148L50.7533 34.8527C50.269 34.6409 49.7309 34.6409 49.2406 34.8527L43.2617 37.4148C42.4187 37.7769 41.8626 38.6925 41.8626 39.7173V47.1304L36.0869 49.6037C35.2499 49.9658 34.6938 50.8813 34.6938 51.9062V59.4286C34.6938 60.3578 35.1542 61.2118 35.8837 61.6286L41.8626 65.0448C42.4665 65.3932 43.184 65.3932 43.7878 65.0448L50 61.4919L56.2121 65.0448C56.816 65.3932 57.5335 65.3932 58.1373 65.0448L64.1163 61.6286C64.8457 61.2118 65.3061 60.3578 65.3061 59.4286V51.9062C65.3061 50.8813 64.7501 49.9658 63.907 49.6037ZM56.0985 47.1851L51.0164 49.3646V44.7049L56.0985 42.177V47.1851ZM43.9014 39.6217L50 37.0117L56.0985 39.6217V39.6627L50 42.4912L43.9014 39.6627V39.6217ZM48.9238 59.5106L43.8416 62.4143V57.0099L48.9238 54.359V59.5106ZM48.9238 51.8584L42.8252 54.6869L36.7267 51.8584V51.8174L42.8252 49.2074L48.9238 51.8174V51.8584ZM63.2732 59.5106L58.1911 62.4143V57.0099L63.2732 54.359V59.5106ZM63.2732 51.8584L57.1747 54.6869L51.0762 51.8584V51.8174L57.1747 49.2074L63.2732 51.8174V51.8584Z" fill="#F5F6FA" fill-opacity="0.9"/>
<defs>
<linearGradient id="paint0_linear" x1="100" y1="0" x2="1.01499" y2="100.995" gradientUnits="userSpaceOnUse">
<stop stop-color="#312EC8"/>
<stop offset="1" stop-color="#5D18CD" stop-opacity="0.6"/>
</linearGradient>
<linearGradient id="paint1_linear" x1="87.7551" y1="12.2449" x2="13.0113" y2="88.5062" gradientUnits="userSpaceOnUse">
<stop stop-color="#312EC8"/>
<stop offset="1" stop-color="#5D18CD" stop-opacity="0.6"/>
</linearGradient>
</defs>
</svg>
