<svg width="325" height="120" viewBox="0 0 325 120" fill="none" xmlns="http://www.w3.org/2000/svg">
<path d="M154.058 77.2C152.164 77.2 150.404 76.8133 148.778 76.04C147.178 75.2667 145.764 74.2 144.538 72.84C143.338 71.48 142.391 69.9333 141.698 68.2C141.031 66.4667 140.698 64.6267 140.698 62.68C140.698 60.76 141.031 58.9467 141.698 57.24C142.364 55.5067 143.311 53.9867 144.538 52.68C145.764 51.3467 147.191 50.3067 148.818 49.56C150.471 48.7867 152.271 48.4 154.218 48.4C156.911 48.4 159.178 48.9733 161.018 50.12C162.858 51.24 164.258 52.7333 165.218 54.6L161.778 57.08C161.004 55.5333 159.938 54.3733 158.578 53.6C157.218 52.8267 155.724 52.44 154.098 52.44C152.311 52.44 150.751 52.9333 149.418 53.92C148.084 54.88 147.058 56.1467 146.338 57.72C145.618 59.2933 145.258 60.9867 145.258 62.8C145.258 64.72 145.658 66.4667 146.458 68.04C147.258 69.5867 148.338 70.8267 149.698 71.76C151.084 72.6933 152.658 73.16 154.418 73.16C157.351 73.16 159.991 71.76 162.338 68.96V65.96H156.378V62.64H166.098V77H162.338V73.48C159.964 75.96 157.204 77.2 154.058 77.2ZM173.848 52.64V47.8H178.248V52.64H173.848ZM173.848 77V56.08H178.248V77H173.848ZM198.375 75.92C197.815 76.1867 197.042 76.4933 196.055 76.84C195.069 77.16 194.015 77.32 192.895 77.32C191.509 77.32 190.309 76.9467 189.295 76.2C188.309 75.4533 187.815 74.24 187.815 72.56V59.48H185.055V56.08H187.815V49.2H192.215V56.08H196.775V59.48H192.215V71.16C192.269 71.9067 192.495 72.4533 192.895 72.8C193.322 73.12 193.842 73.28 194.455 73.28C195.069 73.28 195.655 73.1733 196.215 72.96C196.775 72.7467 197.189 72.5733 197.455 72.44L198.375 75.92ZM223.383 77H218.983V65.28C218.983 63.3867 218.636 61.9733 217.943 61.04C217.249 60.1067 216.276 59.64 215.023 59.64C214.223 59.64 213.409 59.8533 212.583 60.28C211.783 60.7067 211.063 61.2933 210.423 62.04C209.783 62.76 209.316 63.6 209.023 64.56V77H204.623V47.8H209.023V60.28C209.823 58.84 210.916 57.72 212.303 56.92C213.689 56.12 215.183 55.72 216.783 55.72C218.516 55.72 219.863 56.12 220.823 56.92C221.783 57.6933 222.449 58.7333 222.823 60.04C223.196 61.32 223.383 62.72 223.383 64.24V77ZM231.49 68.88V56.08H235.89V68C235.89 71.76 237.223 73.64 239.89 73.64C241.143 73.64 242.33 73.2533 243.45 72.48C244.57 71.68 245.437 70.56 246.05 69.12V56.08H250.45V72.04C250.45 72.5467 250.543 72.9067 250.73 73.12C250.917 73.3333 251.223 73.4533 251.65 73.48V77C251.197 77.08 250.823 77.1333 250.53 77.16C250.237 77.1867 249.957 77.2 249.69 77.2C248.89 77.2 248.223 76.9867 247.69 76.56C247.157 76.1333 246.85 75.56 246.77 74.84L246.69 72.76C245.757 74.28 244.543 75.44 243.05 76.24C241.557 77.0133 239.917 77.4 238.13 77.4C235.943 77.4 234.29 76.68 233.17 75.24C232.05 73.8 231.49 71.68 231.49 68.88ZM270.545 77.4C268.945 77.4 267.492 77.0267 266.185 76.28C264.878 75.5067 263.865 74.48 263.145 73.2V77H259.265V47.8H263.665V60.04C264.492 58.7067 265.518 57.6533 266.745 56.88C267.998 56.1067 269.465 55.72 271.145 55.72C273.012 55.72 274.638 56.2267 276.025 57.24C277.412 58.2533 278.492 59.6 279.265 61.28C280.038 62.9333 280.425 64.72 280.425 66.64C280.425 68.6133 279.985 70.4133 279.105 72.04C278.252 73.6667 277.078 74.9733 275.585 75.96C274.092 76.92 272.412 77.4 270.545 77.4ZM269.385 73.64C270.665 73.64 271.798 73.32 272.785 72.68C273.772 72.0133 274.532 71.1467 275.065 70.08C275.625 69.0133 275.905 67.8667 275.905 66.64C275.905 65.3867 275.638 64.2133 275.105 63.12C274.598 62.0267 273.878 61.1467 272.945 60.48C272.012 59.8133 270.932 59.48 269.705 59.48C268.372 59.48 267.172 59.92 266.105 60.8C265.038 61.68 264.225 62.7467 263.665 64V69.52C263.878 70.32 264.292 71.0267 264.905 71.64C265.518 72.2533 266.225 72.7467 267.025 73.12C267.852 73.4667 268.638 73.64 269.385 73.64Z" fill="url(#paint0_linear)"/>
<circle opacity="0.6" cx="60" cy="60" r="60" fill="url(#paint1_linear)"/>
<circle cx="60" cy="60" r="45.3061" fill="url(#paint2_linear)"/>
<path d="M55.9575 66.4363C55.9575 68.2867 55.14 71.3148 53.205 71.3148C51.27 71.3148 50.4525 68.2867 50.4525 66.4363C50.4525 64.5858 51.27 61.5578 53.205 61.5578C55.14 61.5578 55.9575 64.5858 55.9575 66.4363ZM78 61.9651C78 64.7895 77.76 67.7821 76.6875 70.3763C73.845 77.1584 66.03 76.999 60.435 76.999C54.75 76.999 46.47 77.238 43.515 70.3763C42.42 67.8086 42 64.7895 42 61.9651C42 58.2553 43.0425 54.7491 45.1125 51.907C44.7225 50.5081 44.535 49.0384 44.535 47.5863C44.535 45.6827 44.9025 44.7265 45.63 43C49.0275 43 51.2025 43.7969 53.79 46.1874C55.965 45.5765 58.2 45.302 60.4425 45.302C62.4675 45.302 64.5075 45.5588 66.4725 46.1166C69.0225 43.7526 71.1975 43 74.5575 43C75.2925 44.7265 75.6525 45.6827 75.6525 47.5863C75.6525 49.0384 75.4575 50.4815 75.075 51.8539C77.1375 54.7226 78 58.2553 78 61.9651ZM73.1775 66.4363C73.1775 62.5494 71.175 59.123 67.665 59.123C66.2475 59.123 64.89 59.424 63.465 59.6542C62.3475 59.8578 61.23 59.9375 60.0825 59.9375C58.9425 59.9375 57.825 59.8578 56.7 59.6542C55.2975 59.424 53.925 59.123 52.5 59.123C48.99 59.123 46.9875 62.5494 46.9875 66.4363C46.9875 74.21 53.0175 75.4053 58.2675 75.4053H61.8825C67.155 75.4053 73.1775 74.2189 73.1775 66.4363ZM66.9825 61.5578C65.0475 61.5578 64.23 64.5858 64.23 66.4363C64.23 68.2867 65.0475 71.3148 66.9825 71.3148C68.9175 71.3148 69.735 68.2867 69.735 66.4363C69.735 64.5858 68.9175 61.5578 66.9825 61.5578Z" fill="#F6F2FF"/>
<defs>
<linearGradient id="paint0_linear" x1="298.665" y1="32" x2="259.064" y2="177.329" gradientUnits="userSpaceOnUse">
<stop offset="0.195918" stop-color="#1DCACA"/>
<stop offset="1" stop-color="#2824E6"/>
</linearGradient>
<linearGradient id="paint1_linear" x1="120" y1="0" x2="1.21799" y2="121.194" gradientUnits="userSpaceOnUse">
<stop stop-color="#312EC8"/>
<stop offset="1" stop-color="#5D18CD" stop-opacity="0.6"/>
</linearGradient>
<linearGradient id="paint2_linear" x1="105.306" y1="14.6938" x2="15.6136" y2="106.207" gradientUnits="userSpaceOnUse">
<stop stop-color="#312EC8"/>
<stop offset="1" stop-color="#5D18CD" stop-opacity="0.6"/>
</linearGradient>
</defs>
</svg>
