<svg width="416" height="120" viewBox="0 0 416 120" fill="none" xmlns="http://www.w3.org/2000/svg">
<circle opacity="0.6" cx="60" cy="60" r="60" fill="url(#paint0_linear)"/>
<circle cx="60" cy="60" r="45.3061" fill="url(#paint1_linear)"/>
<path d="M142.716 72V43.6H147.196V72H142.716ZM175.015 72H170.615V60.28C170.615 58.3067 170.295 56.88 169.655 56C169.042 55.0933 168.122 54.64 166.895 54.64C166.042 54.64 165.188 54.8533 164.335 55.28C163.508 55.7067 162.762 56.2933 162.095 57.04C161.428 57.7867 160.948 58.6267 160.655 59.56V72H156.255V51.08H160.255V55.28C161.055 53.8933 162.215 52.7867 163.735 51.96C165.255 51.1333 166.935 50.72 168.775 50.72C170.428 50.72 171.708 51.12 172.615 51.92C173.522 52.6933 174.148 53.72 174.495 55C174.842 56.28 175.015 57.6933 175.015 59.24V72ZM190.762 72.4C189.002 72.4 187.335 72.1067 185.762 71.52C184.189 70.9333 182.842 70.08 181.722 68.96L183.362 66C184.562 67.0667 185.762 67.84 186.962 68.32C188.162 68.8 189.375 69.04 190.602 69.04C191.829 69.04 192.829 68.8133 193.602 68.36C194.375 67.88 194.762 67.1867 194.762 66.28C194.762 65.64 194.562 65.1467 194.162 64.8C193.762 64.4533 193.175 64.1733 192.402 63.96C191.655 63.7467 190.749 63.48 189.682 63.16C188.189 62.7067 186.935 62.24 185.922 61.76C184.909 61.2533 184.149 60.64 183.642 59.92C183.135 59.2 182.882 58.28 182.882 57.16C182.882 55.1333 183.642 53.56 185.162 52.44C186.682 51.2933 188.669 50.72 191.122 50.72C192.642 50.72 194.042 50.96 195.322 51.44C196.629 51.8933 197.775 52.6133 198.762 53.6L196.882 56.52C195.069 54.8667 193.069 54.04 190.882 54.04C189.922 54.04 189.029 54.2267 188.202 54.6C187.402 54.9733 187.002 55.6667 187.002 56.68C187.002 57.5333 187.362 58.1467 188.082 58.52C188.802 58.8933 189.869 59.2933 191.282 59.72C192.882 60.2 194.255 60.68 195.402 61.16C196.575 61.6133 197.469 62.2133 198.082 62.96C198.722 63.68 199.042 64.68 199.042 65.96C199.042 67.9867 198.282 69.5733 196.762 70.72C195.242 71.84 193.242 72.4 190.762 72.4ZM217.771 70.92C217.211 71.1867 216.438 71.4933 215.451 71.84C214.465 72.16 213.411 72.32 212.291 72.32C210.905 72.32 209.705 71.9467 208.691 71.2C207.705 70.4533 207.211 69.24 207.211 67.56V54.48H204.451V51.08H207.211V44.2H211.611V51.08H216.171V54.48H211.611V66.16C211.665 66.9067 211.891 67.4533 212.291 67.8C212.718 68.12 213.238 68.28 213.851 68.28C214.465 68.28 215.051 68.1733 215.611 67.96C216.171 67.7467 216.585 67.5733 216.851 67.44L217.771 70.92ZM222.499 65.88C222.499 64.5467 222.872 63.3867 223.619 62.4C224.366 61.3867 225.406 60.6133 226.739 60.08C228.099 59.52 229.659 59.24 231.419 59.24C232.352 59.24 233.299 59.32 234.259 59.48C235.246 59.6133 236.112 59.8133 236.859 60.08V58.76C236.859 57.2933 236.419 56.1467 235.539 55.32C234.659 54.4933 233.392 54.08 231.739 54.08C230.592 54.08 229.486 54.28 228.419 54.68C227.352 55.08 226.246 55.6667 225.099 56.44L223.619 53.48C225.006 52.5733 226.392 51.8933 227.779 51.44C229.192 50.96 230.672 50.72 232.219 50.72C235.019 50.72 237.219 51.4667 238.819 52.96C240.446 54.4267 241.259 56.52 241.259 59.24V67.04C241.259 67.5467 241.339 67.9067 241.499 68.12C241.686 68.3333 241.992 68.4533 242.419 68.48V72C242.019 72.08 241.659 72.1333 241.339 72.16C241.019 72.1867 240.752 72.2 240.539 72.2C239.579 72.2 238.859 71.9733 238.379 71.52C237.926 71.04 237.659 70.5067 237.579 69.92L237.459 68.72C236.552 69.8933 235.392 70.8 233.979 71.44C232.566 72.08 231.139 72.4 229.699 72.4C228.312 72.4 227.072 72.12 225.979 71.56C224.886 70.9733 224.032 70.1867 223.419 69.2C222.806 68.2133 222.499 67.1067 222.499 65.88ZM235.819 67.16C236.512 66.4667 236.859 65.8133 236.859 65.2V62.8C235.286 62.2133 233.686 61.92 232.059 61.92C230.459 61.92 229.152 62.2533 228.139 62.92C227.152 63.56 226.659 64.4267 226.659 65.52C226.659 66.4267 227.019 67.2667 227.739 68.04C228.486 68.7867 229.552 69.16 230.939 69.16C231.872 69.16 232.779 68.9733 233.659 68.6C234.539 68.2267 235.259 67.7467 235.819 67.16ZM258.077 72.2C256.184 72.2 254.517 71.7067 253.077 70.72C251.664 69.7333 250.544 68.44 249.717 66.84C248.917 65.2133 248.517 63.4533 248.517 61.56C248.517 59.5867 248.93 57.7733 249.757 56.12C250.584 54.4667 251.717 53.16 253.157 52.2C254.624 51.2133 256.317 50.72 258.237 50.72C259.917 50.72 261.384 51.12 262.637 51.92C263.917 52.72 264.97 53.76 265.797 55.04V51.08H269.677V71.4C269.677 73.4267 269.184 75.1467 268.197 76.56C267.237 77.9733 265.917 79.0533 264.237 79.8C262.557 80.5467 260.664 80.92 258.557 80.92C256.237 80.92 254.304 80.52 252.757 79.72C251.237 78.92 249.957 77.8267 248.917 76.44L251.397 74.12C252.197 75.24 253.224 76.0933 254.477 76.68C255.757 77.2667 257.117 77.56 258.557 77.56C259.757 77.56 260.864 77.3333 261.877 76.88C262.917 76.4533 263.744 75.7867 264.357 74.88C264.97 73.9733 265.277 72.8133 265.277 71.4V68.2C264.53 69.4533 263.504 70.44 262.197 71.16C260.89 71.8533 259.517 72.2 258.077 72.2ZM259.517 68.64C260.397 68.64 261.237 68.4533 262.037 68.08C262.837 67.68 263.517 67.16 264.077 66.52C264.664 65.88 265.064 65.2 265.277 64.48V59C264.744 57.6667 263.904 56.5867 262.757 55.76C261.637 54.9067 260.45 54.48 259.197 54.48C257.917 54.48 256.81 54.8267 255.877 55.52C254.97 56.2133 254.264 57.12 253.757 58.24C253.25 59.3333 252.997 60.48 252.997 61.68C252.997 62.96 253.277 64.1333 253.837 65.2C254.424 66.24 255.21 67.08 256.197 67.72C257.184 68.3333 258.29 68.64 259.517 68.64ZM289.913 54.88C288.207 54.9333 286.687 55.3333 285.353 56.08C284.047 56.8 283.113 57.84 282.553 59.2V72H278.153V51.08H282.233V55.76C282.953 54.32 283.9 53.1733 285.073 52.32C286.247 51.44 287.487 50.96 288.793 50.88C289.033 50.88 289.247 50.88 289.433 50.88C289.62 50.88 289.78 50.8933 289.913 50.92V54.88ZM294.755 65.88C294.755 64.5467 295.128 63.3867 295.875 62.4C296.622 61.3867 297.662 60.6133 298.995 60.08C300.355 59.52 301.915 59.24 303.675 59.24C304.608 59.24 305.555 59.32 306.515 59.48C307.502 59.6133 308.368 59.8133 309.115 60.08V58.76C309.115 57.2933 308.675 56.1467 307.795 55.32C306.915 54.4933 305.648 54.08 303.995 54.08C302.848 54.08 301.742 54.28 300.675 54.68C299.608 55.08 298.502 55.6667 297.355 56.44L295.875 53.48C297.262 52.5733 298.648 51.8933 300.035 51.44C301.448 50.96 302.928 50.72 304.475 50.72C307.275 50.72 309.475 51.4667 311.075 52.96C312.702 54.4267 313.515 56.52 313.515 59.24V67.04C313.515 67.5467 313.595 67.9067 313.755 68.12C313.942 68.3333 314.248 68.4533 314.675 68.48V72C314.275 72.08 313.915 72.1333 313.595 72.16C313.275 72.1867 313.008 72.2 312.795 72.2C311.835 72.2 311.115 71.9733 310.635 71.52C310.182 71.04 309.915 70.5067 309.835 69.92L309.715 68.72C308.808 69.8933 307.648 70.8 306.235 71.44C304.822 72.08 303.395 72.4 301.955 72.4C300.568 72.4 299.328 72.12 298.235 71.56C297.142 70.9733 296.288 70.1867 295.675 69.2C295.062 68.2133 294.755 67.1067 294.755 65.88ZM308.075 67.16C308.768 66.4667 309.115 65.8133 309.115 65.2V62.8C307.542 62.2133 305.942 61.92 304.315 61.92C302.715 61.92 301.408 62.2533 300.395 62.92C299.408 63.56 298.915 64.4267 298.915 65.52C298.915 66.4267 299.275 67.2667 299.995 68.04C300.742 68.7867 301.808 69.16 303.195 69.16C304.128 69.16 305.035 68.9733 305.915 68.6C306.795 68.2267 307.515 67.7467 308.075 67.16ZM354.053 72H349.653V60.28C349.653 58.36 349.333 56.9467 348.693 56.04C348.053 55.1067 347.12 54.64 345.893 54.64C344.667 54.64 343.52 55.1067 342.453 56.04C341.413 56.9467 340.68 58.1333 340.253 59.6V72H335.853V60.28C335.853 58.3067 335.533 56.88 334.893 56C334.253 55.0933 333.333 54.64 332.133 54.64C330.907 54.64 329.76 55.0933 328.693 56C327.653 56.9067 326.907 58.0933 326.453 59.56V72H322.053V51.08H326.053V55.28C326.853 53.8133 327.933 52.6933 329.293 51.92C330.653 51.12 332.2 50.72 333.933 50.72C335.667 50.72 337.027 51.1733 338.013 52.08C339.027 52.9867 339.653 54.12 339.893 55.48C341.707 52.3067 344.333 50.72 347.773 50.72C349.427 50.72 350.707 51.12 351.613 51.92C352.52 52.6933 353.147 53.7333 353.493 55.04C353.867 56.32 354.053 57.72 354.053 59.24V72Z" fill="url(#paint2_linear)"/>
<path d="M60.004 50.7701C54.8962 50.7701 50.7761 54.891 50.7761 60C50.7761 65.109 54.8962 69.2299 60.004 69.2299C65.1119 69.2299 69.2319 65.109 69.2319 60C69.2319 54.891 65.1119 50.7701 60.004 50.7701ZM60.004 66.0007C56.7032 66.0007 54.0047 63.3096 54.0047 60C54.0047 56.6904 56.6951 53.9993 60.004 53.9993C63.3129 53.9993 66.0033 56.6904 66.0033 60C66.0033 63.3096 63.3049 66.0007 60.004 66.0007ZM71.7617 50.3925C71.7617 51.5894 70.798 52.5454 69.6094 52.5454C68.4127 52.5454 67.457 51.5814 67.457 50.3925C67.457 49.2036 68.4207 48.2397 69.6094 48.2397C70.798 48.2397 71.7617 49.2036 71.7617 50.3925ZM77.8735 52.5775C77.737 49.6936 77.0784 47.1391 74.9662 45.0345C72.862 42.9298 70.3081 42.2711 67.4249 42.1265C64.4533 41.9578 55.5467 41.9578 52.5751 42.1265C49.6999 42.2631 47.146 42.9218 45.0338 45.0264C42.9216 47.1311 42.2711 49.6856 42.1265 52.5695C41.9578 55.5417 41.9578 64.4503 42.1265 67.4225C42.263 70.3064 42.9216 72.8609 45.0338 74.9655C47.146 77.0702 49.6919 77.7289 52.5751 77.8735C55.5467 78.0422 64.4533 78.0422 67.4249 77.8735C70.3081 77.7369 72.862 77.0782 74.9662 74.9655C77.0704 72.8609 77.7289 70.3064 77.8735 67.4225C78.0422 64.4503 78.0422 55.5497 77.8735 52.5775ZM74.0346 70.6116C73.4081 72.1861 72.1954 73.3991 70.6133 74.0337C68.2441 74.9736 62.6222 74.7567 60.004 74.7567C57.3858 74.7567 51.7559 74.9655 49.3948 74.0337C47.8206 73.4071 46.6079 72.1941 45.9735 70.6116C45.0338 68.2419 45.2506 62.6188 45.2506 60C45.2506 57.3812 45.0418 51.7501 45.9735 49.3884C46.5999 47.8139 47.8126 46.6009 49.3948 45.9663C51.764 45.0264 57.3858 45.2433 60.004 45.2433C62.6222 45.2433 68.2521 45.0345 70.6133 45.9663C72.1874 46.5929 73.4001 47.8059 74.0346 49.3884C74.9742 51.7581 74.7574 57.3812 74.7574 60C74.7574 62.6188 74.9742 68.2499 74.0346 70.6116Z" fill="#F6F2FF"/>
<defs>
<linearGradient id="paint0_linear" x1="120" y1="0" x2="1.21799" y2="121.194" gradientUnits="userSpaceOnUse">
<stop stop-color="#312EC8"/>
<stop offset="1" stop-color="#5D18CD" stop-opacity="0.6"/>
</linearGradient>
<linearGradient id="paint1_linear" x1="105.306" y1="14.6938" x2="15.6136" y2="106.207" gradientUnits="userSpaceOnUse">
<stop stop-color="#312EC8"/>
<stop offset="1" stop-color="#5D18CD" stop-opacity="0.6"/>
</linearGradient>
<linearGradient id="paint2_linear" x1="377.36" y1="27" x2="349.333" y2="177.915" gradientUnits="userSpaceOnUse">
<stop offset="0.195918" stop-color="#1DCACA"/>
<stop offset="1" stop-color="#2824E6"/>
</linearGradient>
</defs>
</svg>
