<svg width="551" height="194" viewBox="0 0 551 194" fill="none" xmlns="http://www.w3.org/2000/svg">
<line x1="451" y1="191" x2="551" y2="191" stroke="url(#paint0_linear)" stroke-width="6"/>
<path d="M39.7011 53.2C37.6211 53.2 35.7278 52.8 34.0211 52C32.3411 51.2 30.8878 50.12 29.6611 48.76C28.4611 47.3733 27.5278 45.8267 26.8611 44.12C26.1944 42.3867 25.8611 40.6133 25.8611 38.8C25.8611 36.9067 26.2078 35.1067 26.9011 33.4C27.5944 31.6667 28.5678 30.1333 29.8211 28.8C31.0744 27.44 32.5411 26.3733 34.2211 25.6C35.9278 24.8 37.7944 24.4 39.8211 24.4C41.8744 24.4 43.7411 24.8133 45.4211 25.64C47.1278 26.4667 48.5811 27.5733 49.7811 28.96C51.0078 30.3467 51.9411 31.9067 52.5811 33.64C53.2478 35.3467 53.5811 37.0933 53.5811 38.88C53.5811 40.7467 53.2344 42.5467 52.5411 44.28C51.8478 45.9867 50.8744 47.52 49.6211 48.88C48.3944 50.2133 46.9278 51.2667 45.2211 52.04C43.5411 52.8133 41.7011 53.2 39.7011 53.2ZM31.4611 38.8C31.4611 40.4533 31.7811 42 32.4211 43.44C33.0878 44.88 34.0344 46.0533 35.2611 46.96C36.5144 47.8667 38.0078 48.32 39.7411 48.32C41.5278 48.32 43.0344 47.8533 44.2611 46.92C45.4878 45.9867 46.4211 44.7867 47.0611 43.32C47.7011 41.8533 48.0211 40.3467 48.0211 38.8C48.0211 37.1467 47.6878 35.6 47.0211 34.16C46.3544 32.72 45.3944 31.56 44.1411 30.68C42.9144 29.7733 41.4478 29.32 39.7411 29.32C37.9544 29.32 36.4478 29.7867 35.2211 30.72C33.9944 31.6533 33.0611 32.8533 32.4211 34.32C31.7811 35.76 31.4611 37.2533 31.4611 38.8ZM57.2555 23.8H62.6155V46.28C62.6155 47.2667 62.7755 47.92 63.0955 48.24C63.4155 48.56 63.8555 48.72 64.4155 48.72C64.8421 48.72 65.2821 48.6667 65.7355 48.56C66.1888 48.4533 66.5888 48.32 66.9355 48.16L67.6555 52.24C66.9355 52.5867 66.0955 52.8533 65.1355 53.04C64.1755 53.2267 63.3088 53.32 62.5355 53.32C60.8555 53.32 59.5488 52.88 58.6155 52C57.7088 51.0933 57.2555 49.8133 57.2555 48.16V23.8ZM68.5508 46.8C68.5508 45.44 68.9241 44.2533 69.6708 43.24C70.4441 42.2 71.5108 41.4 72.8708 40.84C74.2308 40.28 75.7908 40 77.5508 40C78.4308 40 79.3241 40.08 80.2308 40.24C81.1374 40.3733 81.9241 40.5733 82.5908 40.84V39.72C82.5908 38.3867 82.1908 37.36 81.3908 36.64C80.6174 35.92 79.4574 35.56 77.9108 35.56C76.7641 35.56 75.6708 35.76 74.6308 36.16C73.5908 36.56 72.4974 37.1467 71.3508 37.92L69.6308 34.4C71.0174 33.4933 72.4308 32.8133 73.8708 32.36C75.3374 31.9067 76.8708 31.68 78.4708 31.68C81.4574 31.68 83.7774 32.4267 85.4308 33.92C87.1108 35.4133 87.9508 37.5467 87.9508 40.32V47C87.9508 47.5867 88.0441 48 88.2308 48.24C88.4174 48.4533 88.7508 48.5867 89.2308 48.64V53C88.7508 53.1067 88.3108 53.1733 87.9108 53.2C87.5374 53.2533 87.2174 53.28 86.9508 53.28C85.8841 53.28 85.0708 53.04 84.5108 52.56C83.9508 52.08 83.6174 51.4933 83.5108 50.8L83.3908 49.72C82.4574 50.92 81.3108 51.84 79.9508 52.48C78.6174 53.0933 77.2441 53.4 75.8308 53.4C74.4174 53.4 73.1641 53.12 72.0708 52.56C70.9774 51.9733 70.1108 51.1867 69.4708 50.2C68.8574 49.1867 68.5508 48.0533 68.5508 46.8ZM81.5908 47.88C82.2574 47.24 82.5908 46.6267 82.5908 46.04V43.92C81.2041 43.36 79.8041 43.08 78.3908 43.08C76.9774 43.08 75.8308 43.3867 74.9508 44C74.0708 44.5867 73.6308 45.3733 73.6308 46.36C73.6308 47.16 73.9508 47.88 74.5908 48.52C75.2308 49.16 76.1508 49.48 77.3508 49.48C78.1508 49.48 78.9241 49.3333 79.6708 49.04C80.4441 48.7467 81.0841 48.36 81.5908 47.88ZM80.2308 29.6L76.7908 28.56L78.9508 23.8H83.9508L80.2308 29.6ZM93.4395 57.6L94.5195 52.84H92.8395V47.24H97.4795V52.84L95.8395 57.6H93.4395ZM144.426 53H139.066V41.24C139.066 39.5867 138.772 38.3733 138.186 37.6C137.626 36.8 136.839 36.4 135.826 36.4C134.759 36.4 133.759 36.8133 132.826 37.64C131.892 38.44 131.226 39.4933 130.826 40.8V53H125.466V41.24C125.466 39.56 125.172 38.3333 124.586 37.56C124.026 36.7867 123.239 36.4 122.226 36.4C121.186 36.4 120.186 36.8 119.226 37.6C118.292 38.4 117.626 39.4533 117.226 40.76V53H111.866V32.04H116.706V35.92C117.479 34.56 118.532 33.52 119.866 32.8C121.226 32.0533 122.772 31.68 124.506 31.68C126.239 31.68 127.586 32.1067 128.546 32.96C129.532 33.8133 130.159 34.8667 130.426 36.12C131.252 34.68 132.332 33.5867 133.666 32.84C134.999 32.0667 136.492 31.68 138.146 31.68C139.452 31.68 140.506 31.92 141.306 32.4C142.132 32.8533 142.772 33.48 143.226 34.28C143.679 35.0533 143.986 35.9333 144.146 36.92C144.332 37.9067 144.426 38.9067 144.426 39.92V53ZM158.812 53.4C156.546 53.4 154.586 52.9067 152.932 51.92C151.306 50.9333 150.039 49.6267 149.132 48C148.226 46.3467 147.772 44.56 147.772 42.64C147.772 40.6667 148.212 38.8533 149.092 37.2C149.999 35.52 151.279 34.1867 152.932 33.2C154.586 32.1867 156.559 31.68 158.852 31.68C161.146 31.68 163.106 32.1867 164.732 33.2C166.359 34.1867 167.599 35.5067 168.452 37.16C169.332 38.7867 169.772 40.5467 169.772 42.44C169.772 43.1333 169.732 43.7333 169.652 44.24H153.452C153.586 45.8667 154.186 47.1467 155.252 48.08C156.346 49.0133 157.599 49.48 159.012 49.48C160.079 49.48 161.079 49.2267 162.012 48.72C162.972 48.1867 163.626 47.4933 163.972 46.64L168.572 47.92C167.799 49.52 166.559 50.84 164.852 51.88C163.146 52.8933 161.132 53.4 158.812 53.4ZM153.332 40.84H164.292C164.132 39.2667 163.532 38 162.492 37.04C161.479 36.0533 160.239 35.56 158.772 35.56C157.332 35.56 156.092 36.0533 155.052 37.04C154.039 38 153.466 39.2667 153.332 40.84ZM192.407 53.4C190.14 53.4 188.18 52.8933 186.527 51.88C184.874 50.8667 183.594 49.5333 182.687 47.88C181.78 46.2267 181.327 44.44 181.327 42.52C181.327 40.5733 181.767 38.7733 182.647 37.12C183.554 35.4667 184.834 34.1467 186.487 33.16C188.14 32.1733 190.1 31.68 192.367 31.68C194.66 31.68 196.607 32.1733 198.207 33.16C199.834 34.1467 201.047 35.44 201.847 37.04L196.607 38.64C195.674 37.04 194.247 36.24 192.327 36.24C191.287 36.24 190.354 36.5067 189.527 37.04C188.7 37.5467 188.047 38.28 187.567 39.24C187.087 40.1733 186.847 41.2667 186.847 42.52C186.847 43.7467 187.087 44.84 187.567 45.8C188.074 46.7333 188.74 47.48 189.567 48.04C190.394 48.5733 191.314 48.84 192.327 48.84C193.287 48.84 194.167 48.6133 194.967 48.16C195.794 47.68 196.367 47.08 196.687 46.36L201.927 47.96C201.207 49.5333 200.007 50.84 198.327 51.88C196.674 52.8933 194.7 53.4 192.407 53.4ZM224.705 53H219.345V41.24C219.345 39.6133 219.025 38.4 218.385 37.6C217.772 36.8 216.918 36.4 215.825 36.4C215.158 36.4 214.465 36.5867 213.745 36.96C213.052 37.3333 212.412 37.8533 211.825 38.52C211.265 39.16 210.852 39.9067 210.585 40.76V53H205.225V23.8H210.585V35.92C211.358 34.5867 212.412 33.5467 213.745 32.8C215.078 32.0533 216.532 31.68 218.105 31.68C219.892 31.68 221.265 32.08 222.225 32.88C223.185 33.68 223.838 34.7067 224.185 35.96C224.532 37.2133 224.705 38.5333 224.705 39.92V53ZM227.926 46.8C227.926 45.44 228.299 44.2533 229.046 43.24C229.819 42.2 230.886 41.4 232.246 40.84C233.606 40.28 235.166 40 236.926 40C237.806 40 238.699 40.08 239.606 40.24C240.512 40.3733 241.299 40.5733 241.966 40.84V39.72C241.966 38.3867 241.566 37.36 240.766 36.64C239.992 35.92 238.832 35.56 237.286 35.56C236.139 35.56 235.046 35.76 234.006 36.16C232.966 36.56 231.872 37.1467 230.726 37.92L229.006 34.4C230.392 33.4933 231.806 32.8133 233.246 32.36C234.712 31.9067 236.246 31.68 237.846 31.68C240.832 31.68 243.152 32.4267 244.806 33.92C246.486 35.4133 247.326 37.5467 247.326 40.32V47C247.326 47.5867 247.419 48 247.606 48.24C247.792 48.4533 248.126 48.5867 248.606 48.64V53C248.126 53.1067 247.686 53.1733 247.286 53.2C246.912 53.2533 246.592 53.28 246.326 53.28C245.259 53.28 244.446 53.04 243.886 52.56C243.326 52.08 242.992 51.4933 242.886 50.8L242.766 49.72C241.832 50.92 240.686 51.84 239.326 52.48C237.992 53.0933 236.619 53.4 235.206 53.4C233.792 53.4 232.539 53.12 231.446 52.56C230.352 51.9733 229.486 51.1867 228.846 50.2C228.232 49.1867 227.926 48.0533 227.926 46.8ZM240.966 47.88C241.632 47.24 241.966 46.6267 241.966 46.04V43.92C240.579 43.36 239.179 43.08 237.766 43.08C236.352 43.08 235.206 43.3867 234.326 44C233.446 44.5867 233.006 45.3733 233.006 46.36C233.006 47.16 233.326 47.88 233.966 48.52C234.606 49.16 235.526 49.48 236.726 49.48C237.526 49.48 238.299 49.3333 239.046 49.04C239.819 48.7467 240.459 48.36 240.966 47.88ZM284.895 53H279.535V41.24C279.535 39.5867 279.241 38.3733 278.655 37.6C278.095 36.8 277.308 36.4 276.295 36.4C275.228 36.4 274.228 36.8133 273.295 37.64C272.361 38.44 271.695 39.4933 271.295 40.8V53H265.935V41.24C265.935 39.56 265.641 38.3333 265.055 37.56C264.495 36.7867 263.708 36.4 262.695 36.4C261.655 36.4 260.655 36.8 259.695 37.6C258.761 38.4 258.095 39.4533 257.695 40.76V53H252.335V32.04H257.175V35.92C257.948 34.56 259.001 33.52 260.335 32.8C261.695 32.0533 263.241 31.68 264.975 31.68C266.708 31.68 268.055 32.1067 269.015 32.96C270.001 33.8133 270.628 34.8667 270.895 36.12C271.721 34.68 272.801 33.5867 274.135 32.84C275.468 32.0667 276.961 31.68 278.615 31.68C279.921 31.68 280.975 31.92 281.775 32.4C282.601 32.8533 283.241 33.48 283.695 34.28C284.148 35.0533 284.455 35.9333 284.615 36.92C284.801 37.9067 284.895 38.9067 284.895 39.92V53ZM299.241 53.4C296.948 53.4 294.974 52.9067 293.321 51.92C291.694 50.9067 290.441 49.5733 289.561 47.92C288.681 46.2667 288.241 44.48 288.241 42.56C288.241 40.6133 288.681 38.8133 289.561 37.16C290.468 35.5067 291.734 34.1867 293.361 33.2C295.014 32.1867 296.974 31.68 299.241 31.68C301.508 31.68 303.454 32.1867 305.081 33.2C306.734 34.1867 308.001 35.5067 308.881 37.16C309.761 38.8133 310.201 40.6133 310.201 42.56C310.201 44.48 309.761 46.2667 308.881 47.92C308.001 49.5733 306.734 50.9067 305.081 51.92C303.454 52.9067 301.508 53.4 299.241 53.4ZM293.761 42.56C293.761 43.7867 294.001 44.88 294.481 45.84C294.961 46.7733 295.614 47.5067 296.441 48.04C297.268 48.5733 298.201 48.84 299.241 48.84C300.254 48.84 301.174 48.5733 302.001 48.04C302.828 47.48 303.481 46.7333 303.961 45.8C304.468 44.84 304.721 43.7467 304.721 42.52C304.721 41.32 304.468 40.2533 303.961 39.32C303.481 38.36 302.828 37.6133 302.001 37.08C301.174 36.52 300.254 36.24 299.241 36.24C298.201 36.24 297.268 36.52 296.441 37.08C295.614 37.6133 294.961 38.36 294.481 39.32C294.001 40.2533 293.761 41.3333 293.761 42.56Z" fill="url(#paint1_linear)"/>
<path d="M60.1207 77.92H66.8407L79.3687 112H72.5527L69.3847 103.504H57.4807L54.3607 112H47.5447L60.1207 77.92ZM68.1847 98.848L63.4807 84.784L58.5847 98.848H68.1847ZM105.859 112H99.4267V97.888C99.4267 95.872 99.0747 94.4 98.3707 93.472C97.6667 92.544 96.6907 92.08 95.4427 92.08C94.5787 92.08 93.6987 92.304 92.8027 92.752C91.9387 93.2 91.1547 93.824 90.4507 94.624C89.7467 95.392 89.2347 96.288 88.9147 97.312V112H82.4827V86.848H88.2907V91.504C89.2187 89.936 90.5627 88.704 92.3227 87.808C94.0827 86.88 96.0667 86.416 98.2747 86.416C99.8427 86.416 101.123 86.704 102.115 87.28C103.107 87.824 103.875 88.576 104.419 89.536C104.963 90.464 105.331 91.52 105.523 92.704C105.747 93.888 105.859 95.088 105.859 96.304V112ZM109.915 99.424C109.915 97.024 110.395 94.832 111.355 92.848C112.315 90.864 113.643 89.296 115.339 88.144C117.035 86.992 118.971 86.416 121.147 86.416C123.003 86.416 124.667 86.88 126.139 87.808C127.643 88.704 128.811 89.856 129.643 91.264V76.96H136.075V104.8C136.075 105.504 136.187 106 136.411 106.288C136.635 106.544 137.019 106.704 137.563 106.768V112C136.411 112.224 135.499 112.336 134.827 112.336C133.675 112.336 132.715 112.048 131.947 111.472C131.211 110.896 130.795 110.144 130.699 109.216L130.603 107.632C129.675 109.2 128.411 110.4 126.811 111.232C125.243 112.064 123.595 112.48 121.867 112.48C119.531 112.48 117.467 111.904 115.675 110.752C113.883 109.568 112.475 108 111.451 106.048C110.427 104.064 109.915 101.856 109.915 99.424ZM129.643 102.784V96.784C129.131 95.376 128.251 94.208 127.003 93.28C125.755 92.352 124.475 91.888 123.163 91.888C121.851 91.888 120.699 92.256 119.707 92.992C118.715 93.696 117.947 94.64 117.403 95.824C116.859 96.976 116.587 98.224 116.587 99.568C116.587 100.944 116.891 102.208 117.499 103.36C118.107 104.48 118.923 105.376 119.947 106.048C121.003 106.688 122.203 107.008 123.547 107.008C124.763 107.008 125.963 106.608 127.147 105.808C128.363 105.008 129.195 104 129.643 102.784ZM154.053 112.48C151.333 112.48 148.981 111.888 146.997 110.704C145.045 109.52 143.525 107.952 142.437 106C141.349 104.016 140.805 101.872 140.805 99.568C140.805 97.2 141.333 95.024 142.389 93.04C143.477 91.024 145.013 89.424 146.997 88.24C148.981 87.024 151.349 86.416 154.101 86.416C156.853 86.416 159.205 87.024 161.157 88.24C163.109 89.424 164.597 91.008 165.621 92.992C166.677 94.944 167.205 97.056 167.205 99.328C167.205 100.16 167.157 100.88 167.061 101.488H147.621C147.781 103.44 148.501 104.976 149.781 106.096C151.093 107.216 152.597 107.776 154.293 107.776C155.573 107.776 156.773 107.472 157.893 106.864C159.045 106.224 159.829 105.392 160.245 104.368L165.765 105.904C164.837 107.824 163.349 109.408 161.301 110.656C159.253 111.872 156.837 112.48 154.053 112.48ZM147.477 97.408H160.629C160.437 95.52 159.717 94 158.469 92.848C157.253 91.664 155.765 91.072 154.005 91.072C152.277 91.072 150.789 91.664 149.541 92.848C148.325 94 147.637 95.52 147.477 97.408ZM186.099 92.416C184.147 92.416 182.403 92.8 180.867 93.568C179.331 94.304 178.227 95.376 177.555 96.784V112H171.123V86.848H177.027V92.224C177.891 90.496 179.011 89.136 180.387 88.144C181.795 87.152 183.267 86.608 184.803 86.512C185.475 86.512 185.907 86.528 186.099 86.56V92.416ZM198.95 112.48C196.806 112.48 194.758 112.128 192.806 111.424C190.854 110.72 189.174 109.68 187.766 108.304L190.07 104.128C191.574 105.344 193.046 106.24 194.486 106.816C195.926 107.392 197.334 107.68 198.71 107.68C199.958 107.68 200.95 107.456 201.686 107.008C202.454 106.56 202.838 105.888 202.838 104.992C202.838 104.064 202.374 103.44 201.446 103.12C200.518 102.768 199.222 102.336 197.558 101.824C195.702 101.248 194.15 100.656 192.902 100.048C191.654 99.44 190.71 98.704 190.07 97.84C189.462 96.976 189.158 95.856 189.158 94.48C189.158 92.016 190.086 90.048 191.942 88.576C193.798 87.104 196.262 86.368 199.334 86.368C201.126 86.368 202.822 86.656 204.422 87.232C206.022 87.776 207.478 88.672 208.79 89.92L206.198 94C203.734 92.08 201.35 91.12 199.046 91.12C198.022 91.12 197.11 91.312 196.31 91.696C195.542 92.08 195.158 92.752 195.158 93.712C195.158 94.608 195.526 95.248 196.262 95.632C197.03 96.016 198.182 96.432 199.718 96.88C201.702 97.488 203.382 98.08 204.758 98.656C206.166 99.232 207.222 99.968 207.926 100.864C208.662 101.76 209.03 102.976 209.03 104.512C209.03 107.008 208.118 108.96 206.294 110.368C204.47 111.776 202.022 112.48 198.95 112.48ZM225.021 112.48C222.269 112.48 219.901 111.888 217.917 110.704C215.965 109.488 214.461 107.888 213.405 105.904C212.349 103.92 211.821 101.776 211.821 99.472C211.821 97.136 212.349 94.976 213.405 92.992C214.493 91.008 216.013 89.424 217.965 88.24C219.949 87.024 222.301 86.416 225.021 86.416C227.741 86.416 230.077 87.024 232.029 88.24C234.013 89.424 235.533 91.008 236.589 92.992C237.645 94.976 238.173 97.136 238.173 99.472C238.173 101.776 237.645 103.92 236.589 105.904C235.533 107.888 234.013 109.488 232.029 110.704C230.077 111.888 227.741 112.48 225.021 112.48ZM218.445 99.472C218.445 100.944 218.733 102.256 219.309 103.408C219.885 104.528 220.669 105.408 221.661 106.048C222.653 106.688 223.773 107.008 225.021 107.008C226.237 107.008 227.341 106.688 228.333 106.048C229.325 105.376 230.109 104.48 230.685 103.36C231.293 102.208 231.597 100.896 231.597 99.424C231.597 97.984 231.293 96.704 230.685 95.584C230.109 94.432 229.325 93.536 228.333 92.896C227.341 92.224 226.237 91.888 225.021 91.888C223.773 91.888 222.653 92.224 221.661 92.896C220.669 93.536 219.885 94.432 219.309 95.584C218.733 96.704 218.445 98 218.445 99.472ZM265.89 112H259.458V97.888C259.458 95.872 259.106 94.4 258.402 93.472C257.698 92.544 256.722 92.08 255.474 92.08C254.61 92.08 253.73 92.304 252.834 92.752C251.97 93.2 251.186 93.824 250.482 94.624C249.778 95.392 249.266 96.288 248.946 97.312V112H242.514V86.848H248.322V91.504C249.25 89.936 250.594 88.704 252.354 87.808C254.114 86.88 256.098 86.416 258.306 86.416C259.874 86.416 261.154 86.704 262.146 87.28C263.138 87.824 263.906 88.576 264.45 89.536C264.994 90.464 265.362 91.52 265.554 92.704C265.778 93.888 265.89 95.088 265.89 96.304V112ZM283.638 112V77.92H298.71C300.278 77.92 301.718 78.24 303.03 78.88C304.374 79.52 305.526 80.384 306.486 81.472C307.478 82.56 308.23 83.776 308.742 85.12C309.286 86.464 309.558 87.84 309.558 89.248C309.558 91.424 308.998 93.424 307.878 95.248C306.79 97.072 305.302 98.384 303.414 99.184L311.19 112H303.894L296.886 100.576H290.262V112H283.638ZM290.262 94.768H298.566C299.814 94.768 300.838 94.24 301.638 93.184C302.47 92.096 302.886 90.784 302.886 89.248C302.886 88.192 302.662 87.248 302.214 86.416C301.766 85.584 301.19 84.928 300.486 84.448C299.814 83.968 299.078 83.728 298.278 83.728H290.262V94.768ZM312.786 104.56C312.786 102.928 313.234 101.504 314.13 100.288C315.058 99.04 316.338 98.08 317.97 97.408C319.602 96.736 321.474 96.4 323.586 96.4C324.642 96.4 325.714 96.496 326.802 96.688C327.89 96.848 328.834 97.088 329.634 97.408V96.064C329.634 94.464 329.154 93.232 328.194 92.368C327.266 91.504 325.874 91.072 324.018 91.072C322.642 91.072 321.33 91.312 320.082 91.792C318.834 92.272 317.522 92.976 316.146 93.904L314.082 89.68C315.746 88.592 317.442 87.776 319.17 87.232C320.93 86.688 322.77 86.416 324.69 86.416C328.274 86.416 331.058 87.312 333.042 89.104C335.058 90.896 336.066 93.456 336.066 96.784V104.8C336.066 105.504 336.178 106 336.402 106.288C336.626 106.544 337.026 106.704 337.602 106.768V112C337.026 112.128 336.498 112.208 336.018 112.24C335.57 112.304 335.186 112.336 334.866 112.336C333.586 112.336 332.61 112.048 331.938 111.472C331.266 110.896 330.866 110.192 330.738 109.36L330.594 108.064C329.474 109.504 328.098 110.608 326.466 111.376C324.866 112.112 323.218 112.48 321.522 112.48C319.826 112.48 318.322 112.144 317.01 111.472C315.698 110.768 314.658 109.824 313.89 108.64C313.154 107.424 312.786 106.064 312.786 104.56ZM328.434 105.856C329.234 105.088 329.634 104.352 329.634 103.648V101.104C327.97 100.432 326.29 100.096 324.594 100.096C322.898 100.096 321.522 100.464 320.466 101.2C319.41 101.904 318.882 102.848 318.882 104.032C318.882 104.992 319.266 105.856 320.034 106.624C320.802 107.392 321.906 107.776 323.346 107.776C324.306 107.776 325.234 107.6 326.13 107.248C327.058 106.896 327.826 106.432 328.434 105.856ZM381.148 112H374.716V97.888C374.716 95.904 374.364 94.448 373.66 93.52C372.988 92.56 372.044 92.08 370.828 92.08C369.548 92.08 368.348 92.576 367.228 93.568C366.108 94.528 365.308 95.792 364.828 97.36V112H358.396V97.888C358.396 95.872 358.044 94.4 357.34 93.472C356.668 92.544 355.724 92.08 354.508 92.08C353.26 92.08 352.06 92.56 350.908 93.52C349.788 94.48 348.988 95.744 348.508 97.312V112H342.076V86.848H347.884V91.504C348.812 89.872 350.076 88.624 351.676 87.76C353.308 86.864 355.164 86.416 357.244 86.416C359.324 86.416 360.94 86.928 362.092 87.952C363.276 88.976 364.028 90.24 364.348 91.744C365.34 90.016 366.636 88.704 368.236 87.808C369.836 86.88 371.628 86.416 373.612 86.416C375.18 86.416 376.444 86.704 377.404 87.28C378.396 87.824 379.164 88.576 379.708 89.536C380.252 90.464 380.62 91.52 380.812 92.704C381.036 93.888 381.148 95.088 381.148 96.304V112ZM385.02 104.56C385.02 102.928 385.468 101.504 386.364 100.288C387.292 99.04 388.572 98.08 390.204 97.408C391.836 96.736 393.708 96.4 395.82 96.4C396.876 96.4 397.948 96.496 399.036 96.688C400.124 96.848 401.068 97.088 401.868 97.408V96.064C401.868 94.464 401.388 93.232 400.428 92.368C399.5 91.504 398.108 91.072 396.252 91.072C394.876 91.072 393.564 91.312 392.316 91.792C391.068 92.272 389.756 92.976 388.38 93.904L386.316 89.68C387.98 88.592 389.676 87.776 391.404 87.232C393.164 86.688 395.004 86.416 396.924 86.416C400.508 86.416 403.292 87.312 405.276 89.104C407.292 90.896 408.3 93.456 408.3 96.784V104.8C408.3 105.504 408.412 106 408.636 106.288C408.86 106.544 409.26 106.704 409.836 106.768V112C409.26 112.128 408.732 112.208 408.252 112.24C407.804 112.304 407.42 112.336 407.1 112.336C405.82 112.336 404.844 112.048 404.172 111.472C403.5 110.896 403.1 110.192 402.972 109.36L402.828 108.064C401.708 109.504 400.332 110.608 398.7 111.376C397.1 112.112 395.452 112.48 393.756 112.48C392.06 112.48 390.556 112.144 389.244 111.472C387.932 110.768 386.892 109.824 386.124 108.64C385.388 107.424 385.02 106.064 385.02 104.56ZM400.668 105.856C401.468 105.088 401.868 104.352 401.868 103.648V101.104C400.204 100.432 398.524 100.096 396.828 100.096C395.132 100.096 393.756 100.464 392.7 101.2C391.644 101.904 391.116 102.848 391.116 104.032C391.116 104.992 391.5 105.856 392.268 106.624C393.036 107.392 394.14 107.776 395.58 107.776C396.54 107.776 397.468 107.6 398.364 107.248C399.292 106.896 400.06 106.432 400.668 105.856ZM414.263 76.96H420.695V103.936C420.695 105.12 420.887 105.904 421.271 106.288C421.655 106.672 422.183 106.864 422.855 106.864C423.367 106.864 423.895 106.8 424.439 106.672C424.983 106.544 425.463 106.384 425.879 106.192L426.743 111.088C425.879 111.504 424.871 111.824 423.719 112.048C422.567 112.272 421.527 112.384 420.599 112.384C418.583 112.384 417.015 111.856 415.895 110.8C414.807 109.712 414.263 108.176 414.263 106.192V76.96ZM452.921 112H446.489V97.888C446.489 95.936 446.105 94.48 445.337 93.52C444.601 92.56 443.577 92.08 442.265 92.08C441.465 92.08 440.633 92.304 439.769 92.752C438.937 93.2 438.169 93.824 437.465 94.624C436.793 95.392 436.297 96.288 435.977 97.312V112H429.545V76.96H435.977V91.504C436.905 89.904 438.169 88.656 439.769 87.76C441.369 86.864 443.113 86.416 445.001 86.416C447.145 86.416 448.793 86.896 449.945 87.856C451.097 88.816 451.881 90.048 452.297 91.552C452.713 93.056 452.921 94.64 452.921 96.304V112ZM470.13 112.48C467.378 112.48 465.01 111.888 463.026 110.704C461.074 109.488 459.57 107.888 458.514 105.904C457.458 103.92 456.93 101.776 456.93 99.472C456.93 97.136 457.458 94.976 458.514 92.992C459.602 91.008 461.122 89.424 463.074 88.24C465.058 87.024 467.41 86.416 470.13 86.416C472.85 86.416 475.186 87.024 477.138 88.24C479.122 89.424 480.642 91.008 481.698 92.992C482.754 94.976 483.282 97.136 483.282 99.472C483.282 101.776 482.754 103.92 481.698 105.904C480.642 107.888 479.122 109.488 477.138 110.704C475.186 111.888 472.85 112.48 470.13 112.48ZM463.554 99.472C463.554 100.944 463.842 102.256 464.418 103.408C464.994 104.528 465.778 105.408 466.77 106.048C467.762 106.688 468.882 107.008 470.13 107.008C471.346 107.008 472.45 106.688 473.442 106.048C474.434 105.376 475.218 104.48 475.794 103.36C476.402 102.208 476.706 100.896 476.706 99.424C476.706 97.984 476.402 96.704 475.794 95.584C475.218 94.432 474.434 93.536 473.442 92.896C472.45 92.224 471.346 91.888 470.13 91.888C468.882 91.888 467.762 92.224 466.77 92.896C465.778 93.536 464.994 94.432 464.418 95.584C463.842 96.704 463.554 98 463.554 99.472Z" fill="url(#paint2_linear)"/>
<path d="M19.834 160V140.83H32.848V144.718H24.262V148.849H31.336V152.44H24.262V160H19.834ZM43.3451 149.524C42.3011 149.542 41.3561 149.713 40.5101 150.037C39.6641 150.361 39.0521 150.847 38.6741 151.495V160H34.3541V145.825H38.3231V148.687C38.8091 147.733 39.4391 146.986 40.2131 146.446C40.9871 145.906 41.7971 145.627 42.6431 145.609C43.0031 145.609 43.2371 145.618 43.3451 145.636V149.524ZM51.8092 160.27C50.1892 160.27 48.8122 159.928 47.6782 159.244C46.5622 158.56 45.7072 157.66 45.1132 156.544C44.5192 155.428 44.2222 154.222 44.2222 152.926C44.2222 151.612 44.5192 150.397 45.1132 149.281C45.7072 148.165 46.5712 147.265 47.7052 146.581C48.8392 145.897 50.2072 145.555 51.8092 145.555C53.4112 145.555 54.7792 145.897 55.9132 146.581C57.0472 147.265 57.9112 148.165 58.5052 149.281C59.0992 150.397 59.3962 151.612 59.3962 152.926C59.3962 154.222 59.0992 155.428 58.5052 156.544C57.9112 157.66 57.0472 158.56 55.9132 159.244C54.7792 159.928 53.4112 160.27 51.8092 160.27ZM48.6502 152.926C48.6502 154.024 48.9472 154.915 49.5412 155.599C50.1532 156.283 50.9092 156.625 51.8092 156.625C52.6912 156.625 53.4292 156.283 54.0232 155.599C54.6352 154.915 54.9412 154.024 54.9412 152.926C54.9412 151.828 54.6352 150.937 54.0232 150.253C53.4292 149.569 52.6912 149.227 51.8092 149.227C50.9092 149.227 50.1532 149.569 49.5412 150.253C48.9472 150.937 48.6502 151.828 48.6502 152.926ZM75.2007 160H70.8807V152.035C70.8807 151.099 70.7007 150.424 70.3407 150.01C69.9987 149.578 69.5397 149.362 68.9637 149.362C68.3697 149.362 67.7667 149.596 67.1547 150.064C66.5427 150.532 66.1107 151.135 65.8587 151.873V160H61.5387V145.825H65.4267V148.201C65.9487 147.373 66.6867 146.725 67.6407 146.257C68.5947 145.789 69.6927 145.555 70.9347 145.555C71.8527 145.555 72.5907 145.726 73.1487 146.068C73.7247 146.392 74.1567 146.824 74.4447 147.364C74.7507 147.886 74.9487 148.462 75.0387 149.092C75.1467 149.722 75.2007 150.334 75.2007 150.928V160ZM87.2246 159.244C86.6306 159.496 85.9466 159.73 85.1726 159.946C84.4166 160.162 83.6516 160.27 82.8776 160.27C82.1576 160.27 81.5006 160.153 80.9066 159.919C80.3126 159.667 79.8356 159.262 79.4756 158.704C79.1156 158.146 78.9356 157.408 78.9356 156.49V149.092H77.1266V145.825H78.9356V141.316H83.2556V145.825H86.1446V149.092H83.2556V155.005C83.2556 155.473 83.3726 155.815 83.6066 156.031C83.8406 156.229 84.1376 156.328 84.4976 156.328C84.8216 156.328 85.1546 156.274 85.4966 156.166C85.8386 156.058 86.1356 155.941 86.3876 155.815L87.2246 159.244ZM88.8809 154.519V150.631H97.1969V154.519H88.8809ZM106.917 160.27C105.315 160.27 103.947 159.937 102.813 159.271C101.679 158.605 100.806 157.723 100.194 156.625C99.6003 155.527 99.3033 154.339 99.3033 153.061C99.3033 151.693 99.6003 150.442 100.194 149.308C100.788 148.174 101.652 147.265 102.786 146.581C103.92 145.897 105.297 145.555 106.917 145.555C108.519 145.555 109.887 145.897 111.021 146.581C112.155 147.265 113.01 148.165 113.586 149.281C114.18 150.397 114.477 151.594 114.477 152.872C114.477 153.394 114.441 153.853 114.369 154.249H103.893C103.965 155.203 104.307 155.932 104.919 156.436C105.549 156.922 106.26 157.165 107.052 157.165C107.682 157.165 108.285 157.012 108.861 156.706C109.437 156.4 109.833 155.986 110.049 155.464L113.721 156.49C113.163 157.606 112.29 158.515 111.102 159.217C109.932 159.919 108.537 160.27 106.917 160.27ZM103.785 151.603H109.941C109.851 150.703 109.518 149.992 108.942 149.47C108.384 148.93 107.691 148.66 106.863 148.66C106.035 148.66 105.333 148.93 104.757 149.47C104.199 150.01 103.875 150.721 103.785 151.603ZM130.097 160H125.777V152.035C125.777 151.099 125.597 150.424 125.237 150.01C124.895 149.578 124.436 149.362 123.86 149.362C123.266 149.362 122.663 149.596 122.051 150.064C121.439 150.532 121.007 151.135 120.755 151.873V160H116.435V145.825H120.323V148.201C120.845 147.373 121.583 146.725 122.537 146.257C123.491 145.789 124.589 145.555 125.831 145.555C126.749 145.555 127.487 145.726 128.045 146.068C128.621 146.392 129.053 146.824 129.341 147.364C129.647 147.886 129.845 148.462 129.935 149.092C130.043 149.722 130.097 150.334 130.097 150.928V160ZM132.157 152.899C132.157 151.531 132.418 150.298 132.94 149.2C133.48 148.084 134.218 147.202 135.154 146.554C136.108 145.888 137.197 145.555 138.421 145.555C139.411 145.555 140.302 145.798 141.094 146.284C141.904 146.752 142.525 147.373 142.957 148.147V140.29H147.277V155.194C147.277 155.626 147.34 155.932 147.466 156.112C147.61 156.292 147.853 156.391 148.195 156.409V160C147.439 160.144 146.827 160.216 146.359 160.216C145.621 160.216 145.018 160.054 144.55 159.73C144.082 159.406 143.803 158.956 143.713 158.38L143.632 157.651C143.128 158.533 142.444 159.19 141.58 159.622C140.716 160.054 139.807 160.27 138.853 160.27C137.557 160.27 136.405 159.955 135.397 159.325C134.389 158.677 133.597 157.795 133.021 156.679C132.445 155.563 132.157 154.303 132.157 152.899ZM142.984 154.654V151.684C142.714 150.964 142.273 150.379 141.661 149.929C141.067 149.461 140.446 149.227 139.798 149.227C139.186 149.227 138.637 149.398 138.151 149.74C137.665 150.082 137.287 150.541 137.017 151.117C136.747 151.693 136.612 152.314 136.612 152.98C136.612 154.024 136.927 154.897 137.557 155.599C138.205 156.283 139.024 156.625 140.014 156.625C140.608 156.625 141.175 156.454 141.715 156.112C142.273 155.752 142.696 155.266 142.984 154.654ZM157.286 160V140.83H164.441C166.547 140.83 168.302 141.262 169.706 142.126C171.128 142.972 172.199 144.124 172.919 145.582C173.639 147.022 173.999 148.624 173.999 150.388C173.999 152.332 173.603 154.024 172.811 155.464C172.019 156.904 170.903 158.02 169.463 158.812C168.041 159.604 166.367 160 164.441 160H157.286ZM169.49 150.388C169.49 148.696 169.049 147.328 168.167 146.284C167.285 145.24 166.043 144.718 164.441 144.718H161.714V156.112H164.441C165.521 156.112 166.439 155.869 167.195 155.383C167.951 154.879 168.518 154.195 168.896 153.331C169.292 152.467 169.49 151.486 169.49 150.388ZM183.039 160.27C181.437 160.27 180.069 159.937 178.935 159.271C177.801 158.605 176.928 157.723 176.316 156.625C175.722 155.527 175.425 154.339 175.425 153.061C175.425 151.693 175.722 150.442 176.316 149.308C176.91 148.174 177.774 147.265 178.908 146.581C180.042 145.897 181.419 145.555 183.039 145.555C184.641 145.555 186.009 145.897 187.143 146.581C188.277 147.265 189.132 148.165 189.708 149.281C190.302 150.397 190.599 151.594 190.599 152.872C190.599 153.394 190.563 153.853 190.491 154.249H180.015C180.087 155.203 180.429 155.932 181.041 156.436C181.671 156.922 182.382 157.165 183.174 157.165C183.804 157.165 184.407 157.012 184.983 156.706C185.559 156.4 185.955 155.986 186.171 155.464L189.843 156.49C189.285 157.606 188.412 158.515 187.224 159.217C186.054 159.919 184.659 160.27 183.039 160.27ZM179.907 151.603H186.063C185.973 150.703 185.64 149.992 185.064 149.47C184.506 148.93 183.813 148.66 182.985 148.66C182.157 148.66 181.455 148.93 180.879 149.47C180.321 150.01 179.997 150.721 179.907 151.603ZM195.807 160L190.785 145.825H195.24L198.345 156.112L201.45 145.825H205.5L200.505 160H195.807ZM213.441 160.27C211.839 160.27 210.471 159.937 209.337 159.271C208.203 158.605 207.33 157.723 206.718 156.625C206.124 155.527 205.827 154.339 205.827 153.061C205.827 151.693 206.124 150.442 206.718 149.308C207.312 148.174 208.176 147.265 209.31 146.581C210.444 145.897 211.821 145.555 213.441 145.555C215.043 145.555 216.411 145.897 217.545 146.581C218.679 147.265 219.534 148.165 220.11 149.281C220.704 150.397 221.001 151.594 221.001 152.872C221.001 153.394 220.965 153.853 220.893 154.249H210.417C210.489 155.203 210.831 155.932 211.443 156.436C212.073 156.922 212.784 157.165 213.576 157.165C214.206 157.165 214.809 157.012 215.385 156.706C215.961 156.4 216.357 155.986 216.573 155.464L220.245 156.49C219.687 157.606 218.814 158.515 217.626 159.217C216.456 159.919 215.061 160.27 213.441 160.27ZM210.309 151.603H216.465C216.375 150.703 216.042 149.992 215.466 149.47C214.908 148.93 214.215 148.66 213.387 148.66C212.559 148.66 211.857 148.93 211.281 149.47C210.723 150.01 210.399 150.721 210.309 151.603ZM222.905 140.29H227.225V154.951C227.225 155.545 227.333 155.968 227.549 156.22C227.765 156.472 228.071 156.598 228.467 156.598C228.737 156.598 229.007 156.562 229.277 156.49C229.565 156.4 229.817 156.301 230.033 156.193L230.6 159.433C230.06 159.685 229.439 159.883 228.737 160.027C228.035 160.171 227.378 160.243 226.766 160.243C225.542 160.243 224.588 159.919 223.904 159.271C223.238 158.623 222.905 157.687 222.905 156.463V140.29ZM238.753 160.27C237.133 160.27 235.756 159.928 234.622 159.244C233.506 158.56 232.651 157.66 232.057 156.544C231.463 155.428 231.166 154.222 231.166 152.926C231.166 151.612 231.463 150.397 232.057 149.281C232.651 148.165 233.515 147.265 234.649 146.581C235.783 145.897 237.151 145.555 238.753 145.555C240.355 145.555 241.723 145.897 242.857 146.581C243.991 147.265 244.855 148.165 245.449 149.281C246.043 150.397 246.34 151.612 246.34 152.926C246.34 154.222 246.043 155.428 245.449 156.544C244.855 157.66 243.991 158.56 242.857 159.244C241.723 159.928 240.355 160.27 238.753 160.27ZM235.594 152.926C235.594 154.024 235.891 154.915 236.485 155.599C237.097 156.283 237.853 156.625 238.753 156.625C239.635 156.625 240.373 156.283 240.967 155.599C241.579 154.915 241.885 154.024 241.885 152.926C241.885 151.828 241.579 150.937 240.967 150.253C240.373 149.569 239.635 149.227 238.753 149.227C237.853 149.227 237.097 149.569 236.485 150.253C235.891 150.937 235.594 151.828 235.594 152.926ZM257.446 160.27C256.384 160.27 255.448 160.045 254.638 159.595C253.846 159.127 253.234 158.497 252.802 157.705V165.751H248.482V145.825H252.235V148.12C252.757 147.31 253.414 146.68 254.206 146.23C254.998 145.78 255.925 145.555 256.987 145.555C258.247 145.555 259.372 145.888 260.362 146.554C261.37 147.202 262.153 148.075 262.711 149.173C263.287 150.271 263.575 151.504 263.575 152.872C263.575 154.276 263.314 155.536 262.792 156.652C262.27 157.768 261.541 158.65 260.605 159.298C259.687 159.946 258.634 160.27 257.446 160.27ZM255.988 156.625C256.6 156.625 257.149 156.454 257.635 156.112C258.121 155.752 258.499 155.293 258.769 154.735C259.039 154.159 259.174 153.529 259.174 152.845C259.174 151.801 258.85 150.937 258.202 150.253C257.572 149.569 256.762 149.227 255.772 149.227C255.178 149.227 254.602 149.407 254.044 149.767C253.504 150.109 253.09 150.577 252.802 151.171V154.087C253.09 154.807 253.522 155.41 254.098 155.896C254.692 156.382 255.322 156.625 255.988 156.625ZM272.53 160.27C270.928 160.27 269.56 159.937 268.426 159.271C267.292 158.605 266.419 157.723 265.807 156.625C265.213 155.527 264.916 154.339 264.916 153.061C264.916 151.693 265.213 150.442 265.807 149.308C266.401 148.174 267.265 147.265 268.399 146.581C269.533 145.897 270.91 145.555 272.53 145.555C274.132 145.555 275.5 145.897 276.634 146.581C277.768 147.265 278.623 148.165 279.199 149.281C279.793 150.397 280.09 151.594 280.09 152.872C280.09 153.394 280.054 153.853 279.982 154.249H269.506C269.578 155.203 269.92 155.932 270.532 156.436C271.162 156.922 271.873 157.165 272.665 157.165C273.295 157.165 273.898 157.012 274.474 156.706C275.05 156.4 275.446 155.986 275.662 155.464L279.334 156.49C278.776 157.606 277.903 158.515 276.715 159.217C275.545 159.919 274.15 160.27 272.53 160.27ZM269.398 151.603H275.554C275.464 150.703 275.131 149.992 274.555 149.47C273.997 148.93 273.304 148.66 272.476 148.66C271.648 148.66 270.946 148.93 270.37 149.47C269.812 150.01 269.488 150.721 269.398 151.603ZM291.039 149.524C289.995 149.542 289.05 149.713 288.204 150.037C287.358 150.361 286.746 150.847 286.368 151.495V160H282.048V145.825H286.017V148.687C286.503 147.733 287.133 146.986 287.907 146.446C288.681 145.906 289.491 145.627 290.337 145.609C290.697 145.609 290.931 145.618 291.039 145.636V149.524ZM297.436 155.491C297.616 155.617 297.994 155.797 298.57 156.031C299.164 156.247 299.857 156.355 300.649 156.355C301.495 156.355 302.134 156.166 302.566 155.788C302.998 155.41 303.286 154.807 303.43 153.979C303.574 153.151 303.646 152.071 303.646 150.739V140.83H308.074V150.577C308.074 152.035 307.993 153.358 307.831 154.546C307.669 155.734 307.336 156.76 306.832 157.624C306.346 158.47 305.608 159.127 304.618 159.595C303.628 160.063 302.305 160.297 300.649 160.297C299.011 160.297 297.616 159.901 296.464 159.109L297.436 155.491ZM320.016 149.524C318.972 149.542 318.027 149.713 317.181 150.037C316.335 150.361 315.723 150.847 315.345 151.495V160H311.025V145.825H314.994V148.687C315.48 147.733 316.11 146.986 316.884 146.446C317.658 145.906 318.468 145.627 319.314 145.609C319.674 145.609 319.908 145.618 320.016 145.636V149.524ZM345.188 140.83L331.553 160H326.774L340.409 140.83H345.188ZM362.3 160.162C360.77 160.162 359.465 159.91 358.385 159.406C357.305 158.884 356.423 158.182 355.739 157.3C355.073 156.4 354.578 155.383 354.254 154.249C353.948 153.097 353.795 151.891 353.795 150.631V140.83H358.223V150.631C358.223 151.603 358.349 152.512 358.601 153.358C358.871 154.204 359.303 154.897 359.897 155.437C360.491 155.959 361.292 156.22 362.3 156.22C363.326 156.22 364.136 155.95 364.73 155.41C365.324 154.87 365.747 154.177 365.999 153.331C366.251 152.485 366.377 151.585 366.377 150.631V140.83H370.805V150.631C370.805 152.395 370.508 153.997 369.914 155.437C369.32 156.877 368.393 158.029 367.133 158.893C365.891 159.739 364.28 160.162 362.3 160.162ZM374.235 160V140.83H378.663V160H374.235ZM388.632 160V140.83H395.787C397.893 140.83 399.648 141.262 401.052 142.126C402.474 142.972 403.545 144.124 404.265 145.582C404.985 147.022 405.345 148.624 405.345 150.388C405.345 152.332 404.949 154.024 404.157 155.464C403.365 156.904 402.249 158.02 400.809 158.812C399.387 159.604 397.713 160 395.787 160H388.632ZM400.836 150.388C400.836 148.696 400.395 147.328 399.513 146.284C398.631 145.24 397.389 144.718 395.787 144.718H393.06V156.112H395.787C396.867 156.112 397.785 155.869 398.541 155.383C399.297 154.879 399.864 154.195 400.242 153.331C400.638 152.467 400.836 151.486 400.836 150.388ZM414.385 160.27C412.783 160.27 411.415 159.937 410.281 159.271C409.147 158.605 408.274 157.723 407.662 156.625C407.068 155.527 406.771 154.339 406.771 153.061C406.771 151.693 407.068 150.442 407.662 149.308C408.256 148.174 409.12 147.265 410.254 146.581C411.388 145.897 412.765 145.555 414.385 145.555C415.987 145.555 417.355 145.897 418.489 146.581C419.623 147.265 420.478 148.165 421.054 149.281C421.648 150.397 421.945 151.594 421.945 152.872C421.945 153.394 421.909 153.853 421.837 154.249H411.361C411.433 155.203 411.775 155.932 412.387 156.436C413.017 156.922 413.728 157.165 414.52 157.165C415.15 157.165 415.753 157.012 416.329 156.706C416.905 156.4 417.301 155.986 417.517 155.464L421.189 156.49C420.631 157.606 419.758 158.515 418.57 159.217C417.4 159.919 416.005 160.27 414.385 160.27ZM411.253 151.603H417.409C417.319 150.703 416.986 149.992 416.41 149.47C415.852 148.93 415.159 148.66 414.331 148.66C413.503 148.66 412.801 148.93 412.225 149.47C411.667 150.01 411.343 150.721 411.253 151.603ZM429.33 160.27C428.106 160.27 426.918 160.072 425.766 159.676C424.632 159.262 423.669 158.677 422.877 157.921L424.362 155.194C426.108 156.472 427.719 157.111 429.195 157.111C429.753 157.111 430.185 157.021 430.491 156.841C430.797 156.661 430.95 156.382 430.95 156.004C430.95 155.608 430.743 155.329 430.329 155.167C429.915 154.987 429.303 154.78 428.493 154.546C427.413 154.186 426.513 153.835 425.793 153.493C425.073 153.151 424.533 152.737 424.173 152.251C423.813 151.765 423.633 151.117 423.633 150.307C423.633 148.885 424.164 147.742 425.226 146.878C426.288 145.996 427.728 145.555 429.546 145.555C430.518 145.555 431.463 145.708 432.381 146.014C433.317 146.32 434.19 146.833 435 147.553L433.326 150.253C432.516 149.695 431.796 149.29 431.166 149.038C430.536 148.786 429.924 148.66 429.33 148.66C428.862 148.66 428.466 148.75 428.142 148.93C427.818 149.092 427.656 149.38 427.656 149.794C427.656 150.19 427.836 150.487 428.196 150.685C428.556 150.865 429.114 151.063 429.87 151.279C431.022 151.621 431.985 151.972 432.759 152.332C433.551 152.674 434.136 153.106 434.514 153.628C434.91 154.132 435.108 154.807 435.108 155.653C435.108 157.093 434.586 158.227 433.542 159.055C432.498 159.865 431.094 160.27 429.33 160.27ZM437.324 144.205V140.29H441.644V144.205H437.324ZM437.324 160V145.825H441.644V160H437.324ZM450.109 160.054C448.849 160.054 447.751 159.73 446.815 159.082C445.879 158.434 445.141 157.57 444.601 156.49C444.079 155.41 443.818 154.213 443.818 152.899C443.818 151.513 444.097 150.271 444.655 149.173C445.213 148.057 445.987 147.175 446.977 146.527C447.967 145.879 449.11 145.555 450.406 145.555C451.468 145.555 452.404 145.789 453.214 146.257C454.024 146.707 454.672 147.337 455.158 148.147V145.825H458.911V159.028C458.911 160.468 458.56 161.71 457.858 162.754C457.174 163.798 456.211 164.599 454.969 165.157C453.745 165.733 452.323 166.021 450.703 166.021C449.191 166.021 447.886 165.769 446.788 165.265C445.708 164.779 444.763 164.086 443.953 163.186L446.275 160.837C446.797 161.431 447.445 161.899 448.219 162.241C449.011 162.601 449.839 162.781 450.703 162.781C451.405 162.781 452.044 162.655 452.62 162.403C453.214 162.151 453.691 161.746 454.051 161.188C454.411 160.648 454.591 159.928 454.591 159.028V157.651C454.159 158.443 453.529 159.046 452.701 159.46C451.891 159.856 451.027 160.054 450.109 160.054ZM451.594 156.625C452.26 156.625 452.854 156.445 453.376 156.085C453.898 155.707 454.303 155.23 454.591 154.654V151.684C454.303 150.946 453.862 150.352 453.268 149.902C452.674 149.452 452.044 149.227 451.378 149.227C450.766 149.227 450.217 149.407 449.731 149.767C449.263 150.109 448.894 150.568 448.624 151.144C448.354 151.72 448.219 152.341 448.219 153.007C448.219 154.051 448.543 154.915 449.191 155.599C449.839 156.283 450.64 156.625 451.594 156.625ZM475.534 160H471.214V152.035C471.214 151.099 471.034 150.424 470.674 150.01C470.332 149.578 469.873 149.362 469.297 149.362C468.703 149.362 468.1 149.596 467.488 150.064C466.876 150.532 466.444 151.135 466.192 151.873V160H461.872V145.825H465.76V148.201C466.282 147.373 467.02 146.725 467.974 146.257C468.928 145.789 470.026 145.555 471.268 145.555C472.186 145.555 472.924 145.726 473.482 146.068C474.058 146.392 474.49 146.824 474.778 147.364C475.084 147.886 475.282 148.462 475.372 149.092C475.48 149.722 475.534 150.334 475.534 150.928V160ZM485.181 160.27C483.579 160.27 482.211 159.937 481.077 159.271C479.943 158.605 479.07 157.723 478.458 156.625C477.864 155.527 477.567 154.339 477.567 153.061C477.567 151.693 477.864 150.442 478.458 149.308C479.052 148.174 479.916 147.265 481.05 146.581C482.184 145.897 483.561 145.555 485.181 145.555C486.783 145.555 488.151 145.897 489.285 146.581C490.419 147.265 491.274 148.165 491.85 149.281C492.444 150.397 492.741 151.594 492.741 152.872C492.741 153.394 492.705 153.853 492.633 154.249H482.157C482.229 155.203 482.571 155.932 483.183 156.436C483.813 156.922 484.524 157.165 485.316 157.165C485.946 157.165 486.549 157.012 487.125 156.706C487.701 156.4 488.097 155.986 488.313 155.464L491.985 156.49C491.427 157.606 490.554 158.515 489.366 159.217C488.196 159.919 486.801 160.27 485.181 160.27ZM482.049 151.603H488.205C488.115 150.703 487.782 149.992 487.206 149.47C486.648 148.93 485.955 148.66 485.127 148.66C484.299 148.66 483.597 148.93 483.021 149.47C482.463 150.01 482.139 150.721 482.049 151.603ZM503.69 149.524C502.646 149.542 501.701 149.713 500.855 150.037C500.009 150.361 499.397 150.847 499.019 151.495V160H494.699V145.825H498.668V148.687C499.154 147.733 499.784 146.986 500.558 146.446C501.332 145.906 502.142 145.627 502.988 145.609C503.348 145.609 503.582 145.618 503.69 145.636V149.524ZM510.088 155.491C510.268 155.617 510.646 155.797 511.222 156.031C511.816 156.247 512.509 156.355 513.301 156.355C514.147 156.355 514.786 156.166 515.218 155.788C515.65 155.41 515.938 154.807 516.082 153.979C516.226 153.151 516.298 152.071 516.298 150.739V140.83H520.726V150.577C520.726 152.035 520.645 153.358 520.483 154.546C520.321 155.734 519.988 156.76 519.484 157.624C518.998 158.47 518.26 159.127 517.27 159.595C516.28 160.063 514.957 160.297 513.301 160.297C511.663 160.297 510.268 159.901 509.116 159.109L510.088 155.491ZM532.667 149.524C531.623 149.542 530.678 149.713 529.832 150.037C528.986 150.361 528.374 150.847 527.996 151.495V160H523.676V145.825H527.645V148.687C528.131 147.733 528.761 146.986 529.535 146.446C530.309 145.906 531.119 145.627 531.965 145.609C532.325 145.609 532.559 145.618 532.667 145.636V149.524Z" fill="#353B48" fill-opacity="0.9"/>
<line x1="27" y1="3" x2="127" y2="3" stroke="url(#paint3_linear)" stroke-width="6"/>
<defs>
<linearGradient id="paint0_linear" x1="710.638" y1="227.405" x2="709.814" y2="231.969" gradientUnits="userSpaceOnUse">
<stop stop-color="#312EC8" stop-opacity="0.6"/>
<stop offset="1" stop-color="#5D18CD" stop-opacity="0.6"/>
</linearGradient>
<linearGradient id="paint1_linear" x1="336" y1="32" x2="-2.07791e-06" y2="32" gradientUnits="userSpaceOnUse">
<stop stop-color="#6448CF"/>
<stop offset="1" stop-color="#674AD0" stop-opacity="0.6"/>
</linearGradient>
<linearGradient id="paint2_linear" x1="266" y1="67" x2="266" y2="172" gradientUnits="userSpaceOnUse">
<stop stop-color="#4A3ACC"/>
<stop offset="1" stop-color="#4A3ACC" stop-opacity="0"/>
</linearGradient>
<linearGradient id="paint3_linear" x1="286.638" y1="39.4051" x2="285.814" y2="43.9687" gradientUnits="userSpaceOnUse">
<stop stop-color="#312EC8" stop-opacity="0.6"/>
<stop offset="1" stop-color="#5D18CD" stop-opacity="0.6"/>
</linearGradient>
</defs>
</svg>
