<svg width="406" height="120" viewBox="0 0 406 120" fill="none" xmlns="http://www.w3.org/2000/svg">
<circle opacity="0.6" cx="60" cy="60" r="60" fill="url(#paint0_linear)"/>
<circle cx="60" cy="60" r="45.3061" fill="url(#paint1_linear)"/>
<path d="M50.0582 78H42.5946V53.9646H50.0582V78ZM46.3224 50.686C43.9358 50.686 42 48.7092 42 46.3225C42 45.1761 42.4554 44.0767 43.266 43.266C44.0766 42.4554 45.176 42 46.3224 42C47.4688 42 48.5682 42.4554 49.3788 43.266C50.1894 44.0767 50.6448 45.1761 50.6448 46.3225C50.6448 48.7092 48.7082 50.686 46.3224 50.686ZM77.992 78H70.5445V66.2997C70.5445 63.5113 70.4882 59.9353 66.664 59.9353C62.7836 59.9353 62.1889 62.9648 62.1889 66.0988V78H54.7334V53.9646H61.8916V57.2433H61.9961C62.9925 55.3549 65.4265 53.3619 69.0579 53.3619C76.6114 53.3619 78 58.3362 78 64.797V78H77.992Z" fill="#F6F2FF"/>
<path d="M149.141 77V48.6H153.621V73.04H168.861V77H149.141ZM175.14 52.64V47.8H179.54V52.64H175.14ZM175.14 77V56.08H179.54V77H175.14ZM206.788 77H202.388V65.28C202.388 63.3067 202.068 61.88 201.428 61C200.814 60.0933 199.894 59.64 198.668 59.64C197.814 59.64 196.961 59.8533 196.108 60.28C195.281 60.7067 194.534 61.2933 193.868 62.04C193.201 62.7867 192.721 63.6267 192.428 64.56V77H188.028V56.08H192.028V60.28C192.828 58.8933 193.988 57.7867 195.508 56.96C197.028 56.1333 198.708 55.72 200.548 55.72C202.201 55.72 203.481 56.12 204.388 56.92C205.294 57.6933 205.921 58.72 206.268 60C206.614 61.28 206.788 62.6933 206.788 64.24V77ZM229.655 77L222.935 67.36L219.495 70.64V77H215.095V47.8H219.495V66.2L229.175 56.12H233.895L225.775 64.88L234.335 77H229.655ZM248.595 77.4C246.435 77.4 244.542 76.9067 242.915 75.92C241.288 74.9333 240.022 73.6267 239.115 72C238.208 70.3467 237.755 68.5467 237.755 66.6C237.755 64.6267 238.208 62.8133 239.115 61.16C240.022 59.5067 241.288 58.1867 242.915 57.2C244.542 56.2133 246.448 55.72 248.635 55.72C250.822 55.72 252.715 56.2267 254.315 57.24C255.915 58.2267 257.142 59.5333 257.995 61.16C258.875 62.7867 259.315 64.5333 259.315 66.4C259.315 67.0667 259.275 67.6 259.195 68H242.435C242.515 69.2267 242.848 70.3067 243.435 71.24C244.048 72.1467 244.808 72.8667 245.715 73.4C246.648 73.9067 247.662 74.16 248.755 74.16C249.928 74.16 251.035 73.8667 252.075 73.28C253.115 72.6933 253.835 71.92 254.235 70.96L257.995 72.04C257.275 73.6133 256.075 74.9067 254.395 75.92C252.742 76.9067 250.808 77.4 248.595 77.4ZM242.315 65.08H254.955C254.848 63.88 254.502 62.8267 253.915 61.92C253.328 60.9867 252.568 60.2667 251.635 59.76C250.728 59.2267 249.715 58.96 248.595 58.96C247.502 58.96 246.488 59.2267 245.555 59.76C244.648 60.2667 243.902 60.9867 243.315 61.92C242.728 62.8267 242.395 63.88 242.315 65.08ZM264.784 66.56C264.784 64.56 265.184 62.7467 265.984 61.12C266.811 59.4667 267.931 58.16 269.344 57.2C270.757 56.2133 272.384 55.72 274.224 55.72C275.824 55.72 277.264 56.1333 278.544 56.96C279.851 57.7867 280.864 58.8133 281.584 60.04V47.8H285.984V72.04C285.984 72.5467 286.077 72.9067 286.264 73.12C286.451 73.3333 286.757 73.4533 287.184 73.48V77C286.357 77.1333 285.717 77.2 285.264 77.2C284.437 77.2 283.731 76.9733 283.144 76.52C282.584 76.04 282.291 75.4533 282.264 74.76L282.224 73.2C281.424 74.5333 280.344 75.5733 278.984 76.32C277.624 77.04 276.211 77.4 274.744 77.4C272.824 77.4 271.104 76.9067 269.584 75.92C268.091 74.9333 266.917 73.6267 266.064 72C265.211 70.3467 264.784 68.5333 264.784 66.56ZM281.584 69.48V64C281.264 63.1467 280.784 62.3867 280.144 61.72C279.504 61.0267 278.771 60.48 277.944 60.08C277.144 59.68 276.344 59.48 275.544 59.48C274.291 59.48 273.197 59.8267 272.264 60.52C271.357 61.1867 270.637 62.0667 270.104 63.16C269.597 64.2533 269.344 65.4133 269.344 66.64C269.344 67.92 269.624 69.0933 270.184 70.16C270.771 71.2267 271.557 72.08 272.544 72.72C273.531 73.3333 274.637 73.64 275.864 73.64C276.611 73.64 277.384 73.4667 278.184 73.12C279.011 72.7467 279.731 72.2533 280.344 71.64C280.957 71 281.371 70.28 281.584 69.48ZM295.294 77V48.6H299.774V77H295.294ZM327.592 77H323.192V65.28C323.192 63.3067 322.872 61.88 322.232 61C321.619 60.0933 320.699 59.64 319.472 59.64C318.619 59.64 317.766 59.8533 316.912 60.28C316.086 60.7067 315.339 61.2933 314.672 62.04C314.006 62.7867 313.526 63.6267 313.232 64.56V77H308.832V56.08H312.832V60.28C313.632 58.8933 314.792 57.7867 316.312 56.96C317.832 56.1333 319.512 55.72 321.352 55.72C323.006 55.72 324.286 56.12 325.192 56.92C326.099 57.6933 326.726 58.72 327.072 60C327.419 61.28 327.592 62.6933 327.592 64.24V77Z" fill="url(#paint2_linear)"/>
<defs>
<linearGradient id="paint0_linear" x1="120" y1="0" x2="1.21799" y2="121.194" gradientUnits="userSpaceOnUse">
<stop stop-color="#312EC8"/>
<stop offset="1" stop-color="#5D18CD" stop-opacity="0.6"/>
</linearGradient>
<linearGradient id="paint1_linear" x1="105.306" y1="14.6938" x2="15.6136" y2="106.207" gradientUnits="userSpaceOnUse">
<stop stop-color="#312EC8"/>
<stop offset="1" stop-color="#5D18CD" stop-opacity="0.6"/>
</linearGradient>
<linearGradient id="paint2_linear" x1="367.36" y1="32" x2="339.333" y2="182.915" gradientUnits="userSpaceOnUse">
<stop offset="0.195918" stop-color="#1DCACA"/>
<stop offset="1" stop-color="#2824E6"/>
</linearGradient>
</defs>
</svg>
