<svg width="122" height="87" viewBox="0 0 122 87" fill="none" xmlns="http://www.w3.org/2000/svg">
<g filter="url(#filter0_d)">
<path d="M84.4192 6.95483H37.1296C36.0187 6.95483 35.1195 7.74847 35.1195 8.72896V36.7876C35.1195 37.7681 36.0187 38.5618 37.1296 38.5618H84.4192C85.5301 38.5618 86.4293 37.7681 86.4293 36.7876V8.77563C86.4822 7.74861 85.5301 6.95483 84.4192 6.95483Z" fill="#DEDEDF"/>
<path d="M83.6259 9.38257H37.976V36.2274H83.6259V9.38257Z" fill="#2D3436"/>
<path d="M93.4647 48.8328L86.694 38.9819C86.5353 38.7486 86.2707 38.6084 85.9534 38.6084H35.5957C35.2784 38.6084 35.0138 38.7484 34.8551 38.9819L28.1373 48.8328C27.7669 49.3464 28.1902 50 28.8778 50H92.7241C93.4118 50 93.8349 49.3464 93.4647 48.8328Z" fill="#BDBDBE"/>
<path d="M87.0642 43.2771H34.5378L36.3891 40.3359H85.2127L87.0642 43.2771Z" fill="white"/>
<path d="M66.0642 48.0393H55.5377L55.9609 44.4443H65.641L66.0642 48.0393Z" fill="white"/>
<path d="M95.1436 0H77.6348C76.0479 0 74.7784 1.12051 74.7784 2.52109V11.8585C74.7784 13.259 76.0479 14.3796 77.6348 14.3796H77.8992V18.7681L82.8715 14.3796H95.1436C96.7305 14.3796 98 13.259 98 11.8585V2.52109C98 1.12051 96.7305 0 95.1436 0Z" fill="url(#paint0_linear)"/>
<path d="M80.1652 8.76715C81.2461 8.76715 82.1224 7.99375 82.1224 7.0397C82.1224 6.08566 81.2461 5.31226 80.1652 5.31226C79.0842 5.31226 78.2079 6.08566 78.2079 7.0397C78.2079 7.99375 79.0842 8.76715 80.1652 8.76715Z" fill="#FCFCFD"/>
<path d="M86.6714 8.76715C87.7523 8.76715 88.6286 7.99375 88.6286 7.0397C88.6286 6.08566 87.7523 5.31226 86.6714 5.31226C85.5904 5.31226 84.7142 6.08566 84.7142 7.0397C84.7142 7.99375 85.5904 8.76715 86.6714 8.76715Z" fill="#FCFCFD"/>
<path d="M93.1777 8.76715C94.2587 8.76715 95.135 7.99375 95.135 7.0397C95.135 6.08566 94.2587 5.31226 93.1777 5.31226C92.0968 5.31226 91.2205 6.08566 91.2205 7.0397C91.2205 7.99375 92.0968 8.76715 93.1777 8.76715Z" fill="#FCFCFD"/>
</g>
<g filter="url(#filter1_d)">
<path d="M17.9152 79.568C17.9472 79.728 17.8832 79.848 17.7232 79.928C17.5632 80.008 17.2272 80.048 16.7152 80.048C16.1552 80.048 15.6432 80.032 15.1792 80L14.3872 76.16H11.1472L10.4512 79.544C10.4032 79.736 10.3072 79.872 10.1632 79.952C10.0352 80.016 9.72322 80.048 9.22722 80.048C8.66722 80.048 8.10722 80.016 7.54722 79.952L11.5552 63.656C11.6192 63.32 11.9792 63.152 12.6352 63.152C13.1792 63.152 13.6032 63.184 13.9072 63.248L17.9152 79.568ZM13.8832 73.76L13.4032 71.504C13.1632 70.352 12.9552 68.84 12.7792 66.968C12.5552 69 12.3392 70.512 12.1312 71.504L11.6512 73.76H13.8832ZM29.1118 63.68C29.1118 63.504 29.1518 63.392 29.2318 63.344C29.3278 63.28 29.5918 63.24 30.0238 63.224C30.4558 63.208 31.0398 63.2 31.7758 63.2V79.52C31.7758 79.664 31.7358 79.784 31.6558 79.88C31.5758 79.96 31.4558 80 31.2958 80H29.2318L26.6878 73.568C26.2718 72.496 25.7918 70.72 25.2478 68.24C25.4558 70.288 25.5598 72.128 25.5598 73.76V79.52C25.5598 79.696 25.5198 79.816 25.4398 79.88C25.3598 79.928 25.0958 79.96 24.6478 79.976C24.2158 79.992 23.6318 80 22.8958 80V63.68C22.8958 63.36 23.0558 63.2 23.3758 63.2H25.4878L28.0078 69.512C28.4078 70.52 28.8798 72.216 29.4238 74.6C29.2158 72.664 29.1118 70.888 29.1118 69.272V63.68ZM37.1739 63.68C37.1739 63.52 37.2219 63.4 37.3179 63.32C37.4139 63.24 37.5899 63.2 37.8459 63.2H40.1499C41.2859 63.2 42.1819 63.408 42.8379 63.824C43.5099 64.24 44.0139 65 44.3499 66.104C44.6859 67.192 44.8539 68.744 44.8539 70.76C44.8539 73.992 44.4939 76.344 43.7739 77.816C43.0539 79.272 41.8859 80 40.2699 80H37.1739V63.68ZM40.3419 77.48C40.6459 77.48 40.9019 77.312 41.1099 76.976C41.3179 76.624 41.4859 75.936 41.6139 74.912C41.7419 73.872 41.8059 72.392 41.8059 70.472C41.8059 69.096 41.7419 68.064 41.6139 67.376C41.5019 66.672 41.3419 66.208 41.1339 65.984C40.9259 65.744 40.6539 65.624 40.3179 65.624H39.8379V77.48H40.3419ZM52.7098 77.624H56.1178C56.1178 78.264 56.1098 78.776 56.0938 79.16C56.0778 79.544 56.0378 79.784 55.9738 79.88C55.9258 79.96 55.8218 80 55.6618 80H50.0458V63.68C50.0458 63.6 50.0778 63.504 50.1418 63.392C50.2058 63.264 50.3338 63.2 50.5258 63.2H56.2858C56.2858 63.808 56.2778 64.304 56.2618 64.688C56.2458 65.072 56.2058 65.32 56.1418 65.432C56.0778 65.528 55.9658 65.576 55.8058 65.576H52.7098V69.68H55.6378C55.6378 70.272 55.6298 70.768 55.6138 71.168C55.5978 71.552 55.5578 71.808 55.4938 71.936C55.4458 72.064 55.3498 72.128 55.2058 72.128H52.7098V77.624ZM67.2005 72.656C67.7125 73.344 68.1685 74.248 68.5685 75.368C68.9845 76.488 69.2165 77.856 69.2645 79.472C69.2645 79.648 69.2325 79.776 69.1685 79.856C69.1205 79.936 69.0005 79.992 68.8085 80.024C68.6165 80.056 68.3045 80.072 67.8725 80.072C67.4405 80.072 66.9205 80.048 66.3125 80C66.2805 78.336 66.1125 76.984 65.8085 75.944C65.5045 74.888 65.1525 74.072 64.7525 73.496C64.6565 73.512 64.5125 73.52 64.3205 73.52H64.1285V79.52C64.1285 79.696 64.0805 79.816 63.9845 79.88C63.9045 79.928 63.6485 79.96 63.2165 79.976C62.7845 79.992 62.2005 80 61.4645 80V63.68C61.4645 63.6 61.4965 63.504 61.5605 63.392C61.6245 63.264 61.7525 63.2 61.9445 63.2H64.2005C65.2725 63.2 66.1445 63.344 66.8165 63.632C67.4885 63.92 68.0005 64.424 68.3525 65.144C68.7045 65.864 68.8805 66.864 68.8805 68.144C68.8805 70.272 68.3205 71.776 67.2005 72.656ZM64.1285 71.048H64.6325C65.0485 71.048 65.3605 70.832 65.5685 70.4C65.7765 69.968 65.8805 69.168 65.8805 68C65.8805 67.136 65.7925 66.504 65.6165 66.104C65.4565 65.704 65.1845 65.504 64.8005 65.504H64.1285V71.048ZM84.1262 79.568C84.1582 79.728 84.0942 79.848 83.9342 79.928C83.7742 80.008 83.4382 80.048 82.9262 80.048C82.3662 80.048 81.8542 80.032 81.3902 80L80.5982 76.16H77.3582L76.6622 79.544C76.6142 79.736 76.5182 79.872 76.3742 79.952C76.2462 80.016 75.9342 80.048 75.4382 80.048C74.8782 80.048 74.3182 80.016 73.7582 79.952L77.7662 63.656C77.8302 63.32 78.1902 63.152 78.8462 63.152C79.3902 63.152 79.8142 63.184 80.1182 63.248L84.1262 79.568ZM80.0942 73.76L79.6142 71.504C79.3742 70.352 79.1662 68.84 78.9902 66.968C78.7662 69 78.5502 70.512 78.3422 71.504L77.8622 73.76H80.0942ZM99.1147 63.2V79.52C99.1147 79.696 99.0747 79.816 98.9947 79.88C98.9147 79.928 98.6507 79.96 98.2027 79.976C97.7547 79.992 97.1467 80 96.3787 80L96.4987 75.392C96.5307 74.256 96.5947 73.16 96.6907 72.104C96.8027 71.032 96.9067 70.16 97.0027 69.488C97.0987 68.816 97.1627 68.392 97.1947 68.216L97.1227 68.168C96.5307 70.52 96.1227 72.008 95.8987 72.632L94.7467 75.824C94.7147 75.936 94.6267 75.992 94.4827 75.992H93.3787L92.2507 72.632C92.0267 71.96 91.6347 70.472 91.0747 68.168L91.0027 68.216C91.0347 68.392 91.0987 68.816 91.1947 69.488C91.3067 70.144 91.4107 71 91.5067 72.056C91.6187 73.112 91.6747 74.216 91.6747 75.368L91.7467 79.52C91.7467 79.696 91.6987 79.816 91.6027 79.88C91.5067 79.928 91.2427 79.96 90.8107 79.976C90.3787 79.992 89.8107 80 89.1067 80V63.68C89.1067 63.472 89.1467 63.344 89.2267 63.296C89.3067 63.232 89.4267 63.2 89.5867 63.2H91.6027L93.5227 69.152C93.7307 69.76 93.8827 70.288 93.9787 70.736C94.0907 71.184 94.1547 71.464 94.1707 71.576C94.1867 71.464 94.2427 71.184 94.3387 70.736C94.4347 70.288 94.5707 69.776 94.7467 69.2L96.4027 63.68C96.4667 63.488 96.5227 63.36 96.5707 63.296C96.6347 63.232 96.7387 63.2 96.8827 63.2H99.1147ZM114.44 79.568C114.472 79.728 114.408 79.848 114.248 79.928C114.088 80.008 113.752 80.048 113.24 80.048C112.68 80.048 112.168 80.032 111.704 80L110.912 76.16H107.672L106.976 79.544C106.928 79.736 106.832 79.872 106.688 79.952C106.56 80.016 106.248 80.048 105.752 80.048C105.192 80.048 104.632 80.016 104.072 79.952L108.08 63.656C108.144 63.32 108.504 63.152 109.16 63.152C109.704 63.152 110.128 63.184 110.432 63.248L114.44 79.568ZM110.408 73.76L109.928 71.504C109.688 70.352 109.48 68.84 109.304 66.968C109.08 69 108.864 70.512 108.656 71.504L108.176 73.76H110.408Z" fill="url(#paint1_linear)"/>
</g>
<defs>
<filter id="filter0_d" x="24" y="0" width="78" height="58" filterUnits="userSpaceOnUse" color-interpolation-filters="sRGB">
<feFlood flood-opacity="0" result="BackgroundImageFix"/>
<feColorMatrix in="SourceAlpha" type="matrix" values="0 0 0 0 0 0 0 0 0 0 0 0 0 0 0 0 0 0 127 0"/>
<feOffset dy="4"/>
<feGaussianBlur stdDeviation="2"/>
<feColorMatrix type="matrix" values="0 0 0 0 0 0 0 0 0 0 0 0 0 0 0 0 0 0 0.25 0"/>
<feBlend mode="normal" in2="BackgroundImageFix" result="effect1_dropShadow"/>
<feBlend mode="normal" in="SourceGraphic" in2="effect1_dropShadow" result="shape"/>
</filter>
<filter id="filter1_d" x="4.54724" y="63.1521" width="112.901" height="22.92" filterUnits="userSpaceOnUse" color-interpolation-filters="sRGB">
<feFlood flood-opacity="0" result="BackgroundImageFix"/>
<feColorMatrix in="SourceAlpha" type="matrix" values="0 0 0 0 0 0 0 0 0 0 0 0 0 0 0 0 0 0 127 0"/>
<feOffset dy="3"/>
<feGaussianBlur stdDeviation="1.5"/>
<feColorMatrix type="matrix" values="0 0 0 0 0.176471 0 0 0 0 0.203922 0 0 0 0 0.211765 0 0 0 1 0"/>
<feBlend mode="normal" in2="BackgroundImageFix" result="effect1_dropShadow"/>
<feBlend mode="normal" in="SourceGraphic" in2="effect1_dropShadow" result="shape"/>
</filter>
<linearGradient id="paint0_linear" x1="95.3295" y1="1.87681" x2="73.5115" y2="28.9855" gradientUnits="userSpaceOnUse">
<stop stop-color="#1DCACA"/>
<stop offset="1" stop-color="#2824E6"/>
</linearGradient>
<linearGradient id="paint1_linear" x1="107.97" y1="68.8" x2="100.949" y2="114.559" gradientUnits="userSpaceOnUse">
<stop offset="0.195918" stop-color="#1DCACA"/>
<stop offset="1" stop-color="#2824E6"/>
</linearGradient>
</defs>
</svg>
