<svg width="482" height="107" viewBox="0 0 482 107" fill="none" xmlns="http://www.w3.org/2000/svg">
<path d="M140.364 43C142.264 43 143.914 43.32 145.314 43.96C146.714 44.58 147.794 45.48 148.554 46.66C149.314 47.82 149.694 49.19 149.694 50.77C149.694 52.35 149.314 53.72 148.554 54.88C147.794 56.04 146.714 56.94 145.314 57.58C143.914 58.2 142.264 58.51 140.364 58.51H136.704V64H130.764V43H140.364ZM140.004 53.83C141.224 53.83 142.144 53.57 142.764 53.05C143.384 52.51 143.694 51.75 143.694 50.77C143.694 49.79 143.384 49.03 142.764 48.49C142.144 47.95 141.224 47.68 140.004 47.68H136.704V53.83H140.004ZM170.958 49.69C171.538 48.95 172.288 48.4 173.208 48.04C174.148 47.66 175.218 47.47 176.418 47.47V52.6C175.898 52.54 175.468 52.51 175.128 52.51C173.908 52.51 172.948 52.84 172.248 53.5C171.568 54.16 171.228 55.17 171.228 56.53V64H165.528V47.74H170.958V49.69ZM199.845 64.27C198.105 64.27 196.535 63.91 195.135 63.19C193.735 62.47 192.635 61.47 191.835 60.19C191.055 58.91 190.665 57.46 190.665 55.84C190.665 54.24 191.055 52.8 191.835 51.52C192.635 50.24 193.725 49.25 195.105 48.55C196.505 47.83 198.085 47.47 199.845 47.47C201.605 47.47 203.185 47.83 204.585 48.55C205.985 49.25 207.075 50.24 207.855 51.52C208.635 52.78 209.025 54.22 209.025 55.84C209.025 57.46 208.635 58.91 207.855 60.19C207.075 61.47 205.985 62.47 204.585 63.19C203.185 63.91 201.605 64.27 199.845 64.27ZM199.845 59.74C200.845 59.74 201.665 59.4 202.305 58.72C202.945 58.02 203.265 57.06 203.265 55.84C203.265 54.64 202.945 53.7 202.305 53.02C201.665 52.34 200.845 52 199.845 52C198.845 52 198.025 52.34 197.385 53.02C196.745 53.7 196.425 54.64 196.425 55.84C196.425 57.06 196.745 58.02 197.385 58.72C198.025 59.4 198.845 59.74 199.845 59.74ZM224.037 70.09C222.377 70.09 221.057 69.81 220.077 69.25L221.517 65.2C222.037 65.52 222.627 65.68 223.287 65.68C223.807 65.68 224.217 65.5 224.517 65.14C224.817 64.78 224.967 64.25 224.967 63.55V47.74H230.667V63.58C230.667 65.58 230.077 67.16 228.897 68.32C227.737 69.5 226.117 70.09 224.037 70.09ZM227.817 45.94C226.777 45.94 225.937 45.65 225.297 45.07C224.657 44.49 224.337 43.77 224.337 42.91C224.337 42.05 224.657 41.33 225.297 40.75C225.937 40.17 226.777 39.88 227.817 39.88C228.857 39.88 229.697 40.16 230.337 40.72C230.977 41.26 231.297 41.96 231.297 42.82C231.297 43.72 230.977 44.47 230.337 45.07C229.697 45.65 228.857 45.94 227.817 45.94ZM264.018 55.9C264.018 55.94 263.988 56.41 263.928 57.31H252.108C252.348 58.15 252.808 58.8 253.488 59.26C254.188 59.7 255.058 59.92 256.098 59.92C256.878 59.92 257.548 59.81 258.108 59.59C258.688 59.37 259.268 59.01 259.848 58.51L262.848 61.63C261.268 63.39 258.958 64.27 255.918 64.27C254.018 64.27 252.348 63.91 250.908 63.19C249.468 62.47 248.348 61.47 247.548 60.19C246.768 58.91 246.378 57.46 246.378 55.84C246.378 54.24 246.758 52.81 247.518 51.55C248.298 50.27 249.368 49.27 250.728 48.55C252.088 47.83 253.618 47.47 255.318 47.47C256.938 47.47 258.408 47.81 259.728 48.49C261.048 49.15 262.088 50.12 262.848 51.4C263.628 52.66 264.018 54.16 264.018 55.9ZM255.348 51.52C254.468 51.52 253.728 51.77 253.128 52.27C252.548 52.77 252.178 53.45 252.018 54.31H258.678C258.518 53.45 258.138 52.77 257.538 52.27C256.958 51.77 256.228 51.52 255.348 51.52ZM290.927 63.34C290.447 63.64 289.857 63.87 289.157 64.03C288.477 64.19 287.747 64.27 286.967 64.27C284.847 64.27 283.217 63.75 282.077 62.71C280.937 61.67 280.367 60.12 280.367 58.06V52.6H277.997V48.34H280.367V44.11H286.067V48.34H289.787V52.6H286.067V58C286.067 58.58 286.217 59.04 286.517 59.38C286.837 59.7 287.257 59.86 287.777 59.86C288.437 59.86 289.017 59.69 289.517 59.35L290.927 63.34ZM313.878 64.27C312.138 64.27 310.568 63.91 309.168 63.19C307.768 62.47 306.668 61.47 305.868 60.19C305.088 58.91 304.698 57.46 304.698 55.84C304.698 54.24 305.088 52.8 305.868 51.52C306.668 50.24 307.758 49.25 309.138 48.55C310.538 47.83 312.118 47.47 313.878 47.47C315.638 47.47 317.218 47.83 318.618 48.55C320.018 49.25 321.108 50.24 321.888 51.52C322.668 52.78 323.058 54.22 323.058 55.84C323.058 57.46 322.668 58.91 321.888 60.19C321.108 61.47 320.018 62.47 318.618 63.19C317.218 63.91 315.638 64.27 313.878 64.27ZM313.878 59.74C314.878 59.74 315.698 59.4 316.338 58.72C316.978 58.02 317.298 57.06 317.298 55.84C317.298 54.64 316.978 53.7 316.338 53.02C315.698 52.34 314.878 52 313.878 52C312.878 52 312.058 52.34 311.418 53.02C310.778 53.7 310.458 54.64 310.458 55.84C310.458 57.06 310.778 58.02 311.418 58.72C312.058 59.4 312.878 59.74 313.878 59.74ZM344.67 64.27C343.31 64.27 341.97 64.12 340.65 63.82C339.33 63.5 338.27 63.09 337.47 62.59L339.18 58.69C339.92 59.15 340.8 59.52 341.82 59.8C342.84 60.06 343.85 60.19 344.85 60.19C345.77 60.19 346.42 60.1 346.8 59.92C347.2 59.72 347.4 59.44 347.4 59.08C347.4 58.72 347.16 58.47 346.68 58.33C346.22 58.17 345.48 58.02 344.46 57.88C343.16 57.72 342.05 57.51 341.13 57.25C340.23 56.99 339.45 56.51 338.79 55.81C338.13 55.11 337.8 54.13 337.8 52.87C337.8 51.83 338.11 50.91 338.73 50.11C339.35 49.29 340.25 48.65 341.43 48.19C342.63 47.71 344.06 47.47 345.72 47.47C346.9 47.47 348.07 47.59 349.23 47.83C350.39 48.07 351.36 48.41 352.14 48.85L350.43 52.72C348.99 51.92 347.43 51.52 345.75 51.52C344.85 51.52 344.19 51.63 343.77 51.85C343.35 52.05 343.14 52.32 343.14 52.66C343.14 53.04 343.37 53.31 343.83 53.47C344.29 53.61 345.05 53.76 346.11 53.92C347.45 54.12 348.56 54.35 349.44 54.61C350.32 54.87 351.08 55.35 351.72 56.05C352.38 56.73 352.71 57.69 352.71 58.93C352.71 59.95 352.4 60.87 351.78 61.69C351.16 62.49 350.24 63.12 349.02 63.58C347.82 64.04 346.37 64.27 344.67 64.27Z" fill="#F6F2FF"/>
<rect x="5" y="5" width="472" height="97" stroke="#F6F2FF" stroke-width="10"/>
</svg>
