<svg width="593" height="479" viewBox="0 0 593 479" fill="none" xmlns="http://www.w3.org/2000/svg">
<g filter="url(#filter0_dd)">
<g clip-path="url(#clip0)">
<path d="M514.699 400.194C509.946 400.642 505.164 400.572 500.424 399.985C448.313 393.668 377.351 395.465 319.505 434.758C239.504 489.09 114.127 442.577 58.8215 417.272C16.5639 397.945 -5.37398 350.607 7.80318 306.173C7.9887 305.546 8.17938 304.919 8.38036 304.292C16.6721 277.886 33.0392 257.22 53.3074 246.265C70.9731 236.717 96.7657 216.78 108.242 178.47C112.983 162.651 119.487 147.77 127.933 134.799C150.551 100.06 197.901 48.3264 279.334 48.6485C293.612 48.7243 307.782 51.3539 321.288 56.4336C351.038 67.5463 377.908 90.139 398.397 121.46C411.471 141.437 431.065 160.007 459.114 161.521C498.043 163.634 535.194 183.504 563.063 218.865C563.867 219.882 564.661 220.904 565.454 221.938C615.076 286.744 580.61 393.877 514.699 400.194Z" fill="#6247AA"/>
<g opacity="0.7">
<path opacity="0.7" d="M146.985 393.838C150.913 393.838 154.097 390.347 154.097 386.041C154.097 381.735 150.913 378.245 146.985 378.245C143.058 378.245 139.874 381.735 139.874 386.041C139.874 390.347 143.058 393.838 146.985 393.838Z" fill="url(#paint0_linear)"/>
</g>
<path opacity="0.2" d="M146.985 393.487C150.737 393.487 153.777 390.154 153.777 386.041C153.777 381.929 150.737 378.595 146.985 378.595C143.234 378.595 140.193 381.929 140.193 386.041C140.193 390.154 143.234 393.487 146.985 393.487Z" fill="black"/>
<path d="M108.67 236.853C110.122 236.853 111.298 235.563 111.298 233.972C111.298 232.38 110.122 231.09 108.67 231.09C107.219 231.09 106.042 232.38 106.042 233.972C106.042 235.563 107.219 236.853 108.67 236.853Z" fill="white"/>
<path d="M296.253 404.08C297.704 404.08 298.881 402.79 298.881 401.199C298.881 399.608 297.704 398.318 296.253 398.318C294.801 398.318 293.624 399.608 293.624 401.199C293.624 402.79 294.801 404.08 296.253 404.08Z" fill="white"/>
<path d="M185.455 417.498C186.266 417.498 186.924 416.777 186.924 415.888C186.924 414.999 186.266 414.278 185.455 414.278C184.644 414.278 183.987 414.999 183.987 415.888C183.987 416.777 184.644 417.498 185.455 417.498Z" fill="white"/>
<path d="M510.633 339.534C511.444 339.534 512.101 338.813 512.101 337.924C512.101 337.035 511.444 336.314 510.633 336.314C509.822 336.314 509.164 337.035 509.164 337.924C509.164 338.813 509.822 339.534 510.633 339.534Z" fill="white"/>
<path d="M426.633 194.905C427.444 194.905 428.102 194.184 428.102 193.295C428.102 192.405 427.444 191.685 426.633 191.685C425.822 191.685 425.164 192.405 425.164 193.295C425.164 194.184 425.822 194.905 426.633 194.905Z" fill="white"/>
<path d="M545.676 265.524C546.487 265.524 547.144 264.804 547.144 263.914C547.144 263.025 546.487 262.304 545.676 262.304C544.864 262.304 544.207 263.025 544.207 263.914C544.207 264.804 544.864 265.524 545.676 265.524Z" fill="white"/>
<path d="M155.05 142.505C156.502 142.505 157.679 141.215 157.679 139.624C157.679 138.032 156.502 136.742 155.05 136.742C153.599 136.742 152.422 138.032 152.422 139.624C152.422 141.215 153.599 142.505 155.05 142.505Z" fill="white"/>
<path d="M82.8156 334.574H80.476V332.009H79.5226V334.574H77.183V335.619H79.5226V338.178H80.476V335.619H82.8156V334.574Z" fill="white"/>
<path d="M141.564 333.444H139.224V330.879H138.271V333.444H135.931V334.489H138.271V337.048H139.224V334.489H141.564V333.444Z" fill="white"/>
<path d="M225.564 385.42H223.224V382.855H222.271V385.42H219.931V386.465H222.271V389.024H223.224V386.465H225.564V385.42Z" fill="white"/>
<path d="M342.561 73.8457H341.494V72.6763H341.061V73.8457H339.994V74.3203H341.061V75.4898H341.494V74.3203H342.561V73.8457Z" fill="white"/>
<path d="M494.585 181.188H493.518V180.018H493.085V181.188H492.019V181.662H493.085V182.832H493.518V181.662H494.585V181.188Z" fill="white"/>
<path d="M404.917 251.242H403.85V250.073H403.417V251.242H402.35V251.717H403.417V252.886H403.85V251.717H404.917V251.242Z" fill="white"/>
<path d="M40.0581 295.309H38.9914V294.14H38.5585V295.309H37.4918V295.784H38.5585V296.953H38.9914V295.784H40.0581V295.309Z" fill="white"/>
<path d="M83.8617 391.352H82.795V390.183H82.3621V391.352H81.2953V391.827H82.3621V392.996H82.795V391.827H83.8617V391.352Z" fill="white"/>
<path d="M221.457 87.9698H220.39V86.8003H219.957V87.9698H218.89V88.4443H219.957V89.6138H220.39V88.4443H221.457V87.9698Z" fill="white"/>
<path d="M156.524 256.892H155.457V255.722H155.025V256.892H153.958V257.366H155.025V258.536H155.457V257.366H156.524V256.892Z" fill="white"/>
<path d="M170.438 208.306H169.372V207.136H168.939V208.306H167.872V208.78H168.939V209.95H169.372V208.78H170.438V208.306Z" fill="white"/>
<g opacity="0.7">
<path opacity="0.7" d="M389.549 320.427C392.828 320.427 395.486 317.513 395.486 313.919C395.486 310.325 392.828 307.411 389.549 307.411C386.27 307.411 383.613 310.325 383.613 313.919C383.613 317.513 386.27 320.427 389.549 320.427Z" fill="url(#paint1_linear)"/>
</g>
<path opacity="0.2" d="M389.549 319.947C392.586 319.947 395.048 317.248 395.048 313.919C395.048 310.59 392.586 307.891 389.549 307.891C386.512 307.891 384.051 310.59 384.051 313.919C384.051 317.248 386.512 319.947 389.549 319.947Z" fill="black"/>
<path opacity="0.2" d="M404.355 363.093C407.75 363.093 410.503 360.075 410.503 356.353C410.503 352.63 407.75 349.613 404.355 349.613C400.959 349.613 398.207 352.63 398.207 356.353C398.207 360.075 400.959 363.093 404.355 363.093Z" fill="black"/>
<g opacity="0.7">
<path opacity="0.7" d="M349.26 173.459C349.303 159.299 346.208 145.34 340.242 132.782C337.413 126.884 334.831 123.223 332.842 120.969C332.082 120.089 331.089 119.492 330.004 119.263C328.919 119.034 327.795 119.184 326.792 119.692C325.989 120.004 325.264 120.516 324.673 121.189C321.989 124.24 319.561 128.274 317.459 132.562C311.186 145.419 307.932 159.787 307.992 174.369V183.114H302.875V81.416C302.875 60.1058 298.525 39.0837 289.991 20.4401C285.951 11.6041 282.261 6.11275 279.432 2.73995C278.745 1.8816 277.899 1.19386 276.951 0.722702C276.002 0.25154 274.972 0.0078125 273.931 0.0078125C272.889 0.0078125 271.86 0.25154 270.911 0.722702C269.962 1.19386 269.116 1.8816 268.43 2.73995C264.596 7.31046 261.132 13.3555 258.123 19.7791C249.161 38.8295 244.611 60.4561 244.611 82.3877V183.075H240.189V173.905C240.245 159.334 236.992 144.976 230.722 132.127C228.604 127.839 226.177 123.805 223.508 120.754C222.732 119.851 221.713 119.245 220.601 119.023C219.488 118.801 218.339 118.976 217.324 119.522L217.509 119.63C216.862 119.945 216.276 120.394 215.783 120.952C213.799 123.212 211.217 126.867 208.388 132.765C202.422 145.323 199.327 159.283 199.369 173.442V325.416H215.159L213.417 337.907V375.268H226.332V337.907L224.605 325.41H240.169V186.995H244.59V324.811H257.2L255.392 337.907V375.268H268.306V337.907L266.497 324.794H283.503L281.684 337.907V375.268H294.598V337.907L292.79 324.794H302.859V187.012H307.977V325.636H312.125V325.427H325.843L324.122 337.907V375.268H337.036V337.907L335.31 325.41H349.26V173.459Z" fill="url(#paint2_linear)"/>
</g>
<path d="M228.893 330.642H216.664L218.849 314.365H226.708L228.893 330.642Z" fill="#1A1A1A"/>
<g opacity="0.1">
<path opacity="0.1" d="M218.241 320.828H227.316L226.708 316.28H218.849L218.241 320.828Z" fill="black"/>
</g>
<path d="M333.687 330.642H321.463L323.643 314.365H331.507L333.687 330.642Z" fill="#1A1A1A"/>
<g opacity="0.1">
<path opacity="0.1" d="M323.035 320.828H332.115L331.507 316.28H323.643L323.035 320.828Z" fill="black"/>
</g>
<path d="M268.625 330.642H256.402L258.581 314.365H266.446L268.625 330.642Z" fill="#1A1A1A"/>
<g opacity="0.1">
<path opacity="0.1" d="M257.973 320.828H267.054L266.446 316.28H258.581L257.973 320.828Z" fill="black"/>
</g>
<path d="M293.516 330.642H281.292L283.472 314.365H291.331L293.516 330.642Z" fill="#1A1A1A"/>
<g opacity="0.1">
<path opacity="0.1" d="M282.864 320.828H291.944L291.331 316.28H283.472L282.864 320.828Z" fill="black"/>
</g>
<path d="M316.222 179.854H228.893V183.685H316.222V179.854Z" fill="#535461"/>
<path d="M329.719 119.358C329.257 118.8 328.694 118.353 328.066 118.048C327.437 117.742 326.757 117.584 326.07 117.584C325.383 117.584 324.703 117.742 324.074 118.048C323.446 118.353 322.883 118.8 322.421 119.358C319.881 122.33 317.582 126.257 315.578 130.432C309.631 142.996 306.556 156.954 306.616 171.109V318.472H345.266V170.487C345.315 156.724 342.388 143.145 336.727 130.861C334.042 125.121 331.6 121.528 329.719 119.358Z" fill="#E0E0E0"/>
<path d="M218.885 119.358C219.347 118.8 219.91 118.353 220.538 118.048C221.166 117.742 221.846 117.584 222.534 117.584C223.221 117.584 223.901 117.742 224.529 118.048C225.158 118.353 225.721 118.8 226.182 119.358C228.728 122.33 231.021 126.257 233.031 130.432C238.975 142.997 242.05 156.955 241.993 171.109V318.472H203.343V170.487C203.294 156.724 206.22 143.145 211.882 130.861C214.561 125.121 217.004 121.528 218.885 119.358Z" fill="#E0E0E0"/>
<path d="M203.564 173.628L212.737 173.679V186.074H203.564V173.628Z" fill="#535461"/>
<path d="M232.82 173.628L241.993 173.679V186.074H232.82V173.628Z" fill="#535461"/>
<path d="M306.616 173.628L315.784 173.679V186.074H306.616V173.628Z" fill="#535461"/>
<path d="M335.872 173.628L345.04 173.679V186.074H335.872V173.628Z" fill="#535461"/>
<g opacity="0.1">
<path opacity="0.1" d="M233.031 130.24C231.021 126.065 228.728 122.138 226.182 119.167C225.464 118.293 224.503 117.702 223.448 117.484C222.393 117.267 221.303 117.435 220.344 117.963C220.896 118.265 221.395 118.673 221.817 119.167C224.358 122.138 226.656 126.065 228.661 130.24C234.608 142.803 237.683 156.762 237.623 170.917V318.269H241.993V170.922C242.051 156.766 238.976 142.806 233.031 130.24Z" fill="black"/>
</g>
<g opacity="0.1">
<path opacity="0.1" d="M319.072 130.647C321.076 126.472 323.375 122.545 325.915 119.573C326.39 119.011 326.966 118.561 327.606 118.251C326.661 117.798 325.611 117.682 324.603 117.919C323.595 118.157 322.68 118.735 321.989 119.573C319.443 122.545 317.144 126.472 315.14 130.647C309.196 143.212 306.121 157.17 306.178 171.324V318.699H310.11V171.335C310.048 157.177 313.124 143.214 319.072 130.647Z" fill="black"/>
</g>
<path d="M222.946 367.025H222.611C221.034 367.025 219.521 366.338 218.406 365.115C217.291 363.893 216.664 362.234 216.664 360.505V330.642H228.893V360.505C228.893 362.234 228.266 363.893 227.151 365.115C226.036 366.338 224.523 367.025 222.946 367.025Z" fill="url(#paint3_linear)"/>
<path d="M262.684 367.025H262.343C260.767 367.023 259.256 366.336 258.142 365.113C257.027 363.891 256.402 362.233 256.402 360.505V330.642H268.625V360.505C268.625 362.233 268 363.891 266.885 365.113C265.771 366.336 264.26 367.023 262.684 367.025Z" fill="url(#paint4_linear)"/>
<path d="M222.946 367.025H222.611C221.034 367.025 219.521 366.338 218.406 365.115C217.291 363.893 216.664 362.234 216.664 360.505V330.642H228.893V360.505C228.893 362.234 228.266 363.893 227.151 365.115C226.036 366.338 224.523 367.025 222.946 367.025Z" fill="url(#paint5_linear)"/>
<path d="M262.678 367H262.322C260.645 367 259.037 366.32 257.852 365.111C256.666 363.901 256 362.26 256 360.549V331H269V360.549C269 362.26 268.334 363.901 267.148 365.111C265.963 366.32 264.355 367 262.678 367Z" fill="url(#paint6_linear)"/>
<path d="M287.569 367.025H287.224C285.649 367.02 284.141 366.332 283.029 365.109C281.917 363.887 281.292 362.231 281.292 360.505V330.642H293.516V360.505C293.516 362.234 292.89 363.893 291.774 365.115C290.659 366.338 289.146 367.025 287.569 367.025Z" fill="url(#paint7_linear)"/>
<path d="M327.745 367.025H327.42C326.638 367.026 325.864 366.859 325.141 366.532C324.418 366.205 323.762 365.725 323.208 365.119C322.655 364.514 322.216 363.795 321.917 363.003C321.617 362.211 321.463 361.362 321.463 360.505V330.642H333.687V360.505C333.687 362.233 333.061 363.891 331.947 365.113C330.833 366.336 329.321 367.023 327.745 367.025Z" fill="url(#paint8_linear)"/>
<path d="M279.154 3.81338C278.515 2.98051 277.718 2.31089 276.819 1.8515C275.919 1.3921 274.939 1.15405 273.946 1.15405C272.954 1.15405 271.973 1.3921 271.074 1.8515C270.174 2.31089 269.377 2.98051 268.739 3.81338C265.131 8.26525 261.833 14.1465 258.947 20.4062C250.465 38.9594 246.157 60.021 246.157 81.3764V317.873H301.298V80.4273C301.298 59.6764 297.175 39.1854 289.115 21.0502C285.327 12.4459 281.839 7.09578 279.154 3.81338Z" fill="#B4B2B2"/>
<path d="M282.091 30.084H264.652C261.521 30.084 258.983 32.8663 258.983 36.2985V38.3267C258.983 41.7589 261.521 44.5413 264.652 44.5413H282.091C285.222 44.5413 287.76 41.7589 287.76 38.3267V36.2985C287.76 32.8663 285.222 30.084 282.091 30.084Z" fill="white"/>
<g opacity="0.1">
<path opacity="0.1" d="M301.035 89.4609H246.456V91.7829H301.035V89.4609Z" fill="black"/>
</g>
<path d="M396.192 175.888C394.761 173.828 392.971 172.1 390.925 170.804C388.575 169.318 385.945 168.445 383.238 168.251C380.531 168.058 377.819 168.55 375.313 169.689C372.807 170.827 370.574 172.583 368.785 174.819C366.997 177.055 365.701 179.712 364.999 182.585C364.297 185.458 364.207 188.469 364.736 191.386C365.264 194.303 366.398 197.047 368.049 199.407C369.699 201.767 371.823 203.68 374.256 204.996C376.688 206.313 379.364 206.999 382.077 207C382.453 207 382.829 207 383.195 206.955C386.383 206.735 389.458 205.572 392.091 203.589C394.725 201.607 396.82 198.88 398.153 195.697C399.487 192.515 400.009 188.996 399.665 185.514C399.32 182.032 398.122 178.717 396.197 175.922L396.192 175.888Z" fill="url(#paint9_linear)"/>
<path opacity="0.2" d="M398.794 187.572C398.794 192.233 397.173 196.719 394.263 200.117C391.353 203.515 387.371 205.571 383.128 205.865C382.783 205.865 382.427 205.905 382.072 205.905C379.505 205.906 376.972 205.26 374.67 204.017C372.367 202.773 370.356 200.966 368.793 198.734C367.23 196.502 366.157 193.906 365.656 191.146C365.155 188.386 365.24 185.537 365.904 182.819C366.568 180.101 367.795 177.587 369.487 175.472C371.18 173.357 373.294 171.697 375.666 170.621C378.038 169.545 380.603 169.082 383.165 169.267C385.726 169.453 388.214 170.282 390.436 171.691C392.372 172.923 394.065 174.567 395.414 176.527C397.611 179.705 398.799 183.584 398.794 187.572Z" fill="#1A1A1A"/>
<path opacity="0.1" d="M377.954 175.939C377.09 176.347 376.256 176.829 375.46 177.38C374.929 177.698 374.472 178.147 374.125 178.69C373.953 178.964 373.859 179.288 373.853 179.62C373.848 179.953 373.932 180.28 374.094 180.56C374.501 181.171 375.285 181.261 375.975 181.306C376.7 181.407 377.437 181.326 378.129 181.069C378.597 180.816 379.022 180.477 379.387 180.069L380.825 178.64C381.34 178.142 381.855 177.459 381.654 176.758C381.535 176.508 381.361 176.294 381.148 176.137C380.935 175.979 380.689 175.882 380.433 175.854C379.193 175.59 377.908 175.837 376.826 176.549" fill="black"/>
<g opacity="0.1">
<path opacity="0.1" d="M371.95 195.775C372.437 195.775 372.832 195.342 372.832 194.809C372.832 194.275 372.437 193.843 371.95 193.843C371.464 193.843 371.069 194.275 371.069 194.809C371.069 195.342 371.464 195.775 371.95 195.775Z" fill="black"/>
</g>
<g opacity="0.1">
<path opacity="0.1" d="M389.843 192.232C391.625 192.232 393.069 190.649 393.069 188.696C393.069 186.743 391.625 185.159 389.843 185.159C388.061 185.159 386.617 186.743 386.617 188.696C386.617 190.649 388.061 192.232 389.843 192.232Z" fill="black"/>
</g>
<g opacity="0.1">
<path opacity="0.1" d="M395.445 176.527C395.435 177.451 395.184 178.354 394.72 179.126C394.256 179.898 393.6 180.508 392.829 180.883C392.058 181.258 391.205 181.382 390.371 181.241C389.537 181.1 388.758 180.698 388.127 180.086C387.495 179.473 387.038 178.674 386.809 177.784C386.579 176.894 386.588 175.951 386.834 175.066C387.08 174.181 387.553 173.393 388.196 172.795C388.839 172.196 389.625 171.813 390.461 171.691C392.4 172.922 394.094 174.566 395.445 176.527Z" fill="black"/>
</g>
<g opacity="0.1">
<path opacity="0.1" d="M395.744 198.125C394.305 200.37 392.424 202.231 390.24 203.571C388.057 204.911 385.626 205.695 383.128 205.865C383.128 205.611 383.097 205.357 383.097 205.097C383.099 203.488 383.507 201.911 384.278 200.542C385.049 199.173 386.151 198.065 387.462 197.342C388.773 196.619 390.242 196.31 391.704 196.448C393.166 196.586 394.565 197.167 395.744 198.125Z" fill="black"/>
</g>
<path d="M167.753 280.547C166.756 279.1 165.505 277.887 164.074 276.976C162.432 275.92 160.589 275.294 158.69 275.146C156.791 274.999 154.887 275.334 153.125 276.125C151.363 276.917 149.792 278.143 148.534 279.71C147.275 281.276 146.364 283.14 145.87 285.156C145.377 287.172 145.314 289.285 145.688 291.332C146.061 293.378 146.861 295.303 148.024 296.955C149.187 298.608 150.683 299.943 152.394 300.858C154.105 301.773 155.986 302.243 157.89 302.23C158.153 302.23 158.405 302.23 158.673 302.202C160.894 302.038 163.033 301.22 164.865 299.835C166.697 298.45 168.154 296.548 169.082 294.331C170.011 292.114 170.377 289.663 170.141 287.237C169.905 284.811 169.077 282.5 167.743 280.547H167.753Z" fill="url(#paint10_linear)"/>
<path opacity="0.2" d="M169.567 288.699C169.567 291.951 168.436 295.081 166.406 297.451C164.375 299.822 161.598 301.256 158.637 301.461C158.395 301.461 158.122 301.461 157.9 301.461C156.111 301.461 154.346 301.009 152.741 300.141C151.136 299.273 149.735 298.013 148.646 296.456C147.557 294.9 146.809 293.09 146.46 291.166C146.111 289.242 146.17 287.255 146.633 285.361C147.096 283.466 147.951 281.713 149.131 280.238C150.31 278.763 151.784 277.605 153.437 276.854C155.09 276.104 156.878 275.779 158.664 275.907C160.449 276.035 162.184 276.612 163.734 277.592C165.087 278.455 166.268 279.608 167.207 280.982C168.744 283.201 169.573 285.913 169.567 288.699Z" fill="black"/>
<path opacity="0.1" d="M155.025 280.586C154.422 280.867 153.841 281.202 153.288 281.586C152.919 281.812 152.6 282.124 152.355 282.501C152.241 282.696 152.18 282.922 152.18 283.154C152.18 283.385 152.241 283.612 152.355 283.806C152.526 283.992 152.732 284.134 152.958 284.224C153.184 284.313 153.425 284.348 153.664 284.326C154.171 284.398 154.685 284.342 155.169 284.162C155.497 283.985 155.794 283.748 156.05 283.462L157.05 282.468C157.4 282.117 157.782 281.643 157.627 281.157C157.548 280.979 157.428 280.827 157.279 280.716C157.13 280.605 156.957 280.539 156.777 280.524C155.914 280.339 155.02 280.512 154.267 281.01" fill="black"/>
<g opacity="0.1">
<path opacity="0.1" d="M150.835 294.417C151.174 294.417 151.448 294.116 151.448 293.744C151.448 293.373 151.174 293.072 150.835 293.072C150.496 293.072 150.222 293.373 150.222 293.744C150.222 294.116 150.496 294.417 150.835 294.417Z" fill="black"/>
</g>
<g opacity="0.1">
<path opacity="0.1" d="M163.321 291.953C164.565 291.953 165.574 290.848 165.574 289.485C165.574 288.121 164.565 287.016 163.321 287.016C162.078 287.016 161.069 288.121 161.069 289.485C161.069 290.848 162.078 291.953 163.321 291.953Z" fill="black"/>
</g>
<g opacity="0.1">
<path opacity="0.1" d="M167.212 280.993C167.208 281.644 167.032 282.28 166.706 282.825C166.381 283.369 165.919 283.8 165.376 284.064C164.833 284.329 164.232 284.416 163.645 284.316C163.058 284.216 162.51 283.933 162.066 283.5C161.622 283.067 161.301 282.504 161.142 281.876C160.982 281.249 160.991 280.585 161.167 279.963C161.343 279.341 161.679 278.787 162.134 278.369C162.589 277.951 163.144 277.685 163.734 277.603C165.089 278.466 166.272 279.619 167.212 280.993Z" fill="black"/>
</g>
<g opacity="0.1">
<path opacity="0.1" d="M167.439 296.061C166.435 297.627 165.123 298.926 163.599 299.86C162.076 300.795 160.38 301.343 158.637 301.462C158.637 301.286 158.637 301.106 158.637 300.897C158.638 299.774 158.923 298.674 159.461 297.719C159.999 296.764 160.768 295.991 161.682 295.486C162.597 294.982 163.621 294.766 164.641 294.862C165.662 294.959 166.637 295.364 167.46 296.032L167.439 296.061Z" fill="black"/>
</g>
<path d="M496.095 242.971C496.619 242.971 497.043 242.506 497.043 241.932C497.043 241.358 496.619 240.892 496.095 240.892C495.571 240.892 495.147 241.358 495.147 241.932C495.147 242.506 495.571 242.971 496.095 242.971Z" fill="white"/>
<path d="M287.678 367H287.322C285.645 367 284.037 366.32 282.852 365.111C281.666 363.901 281 362.26 281 360.549V331H294V360.549C294 362.26 293.334 363.901 292.148 365.111C290.963 366.32 289.355 367 287.678 367Z" fill="url(#paint11_linear)"/>
<path d="M327.678 367H327.322C325.645 367 324.037 366.32 322.852 365.111C321.666 363.901 321 362.26 321 360.549V331H334V360.549C334 362.26 333.334 363.901 332.148 365.111C330.963 366.32 329.355 367 327.678 367Z" fill="url(#paint12_linear)"/>
</g>
</g>
<defs>
<filter id="filter0_dd" x="0" y="0" width="593" height="479" filterUnits="userSpaceOnUse" color-interpolation-filters="sRGB">
<feFlood flood-opacity="0" result="BackgroundImageFix"/>
<feColorMatrix in="SourceAlpha" type="matrix" values="0 0 0 0 0 0 0 0 0 0 0 0 0 0 0 0 0 0 127 0"/>
<feOffset dy="15"/>
<feGaussianBlur stdDeviation="2"/>
<feColorMatrix type="matrix" values="0 0 0 0 0.694118 0 0 0 0 0.521569 0 0 0 0 0.858824 0 0 0 0.5 0"/>
<feBlend mode="normal" in2="BackgroundImageFix" result="effect1_dropShadow"/>
<feColorMatrix in="SourceAlpha" type="matrix" values="0 0 0 0 0 0 0 0 0 0 0 0 0 0 0 0 0 0 127 0"/>
<feOffset dy="6"/>
<feGaussianBlur stdDeviation="2"/>
<feColorMatrix type="matrix" values="0 0 0 0 0.843137 0 0 0 0 0.843137 0 0 0 0 0.843137 0 0 0 0.8 0"/>
<feBlend mode="normal" in2="effect1_dropShadow" result="effect2_dropShadow"/>
<feBlend mode="normal" in="SourceGraphic" in2="effect2_dropShadow" result="shape"/>
</filter>
<linearGradient id="paint0_linear" x1="146.985" y1="393.838" x2="146.985" y2="378.251" gradientUnits="userSpaceOnUse">
<stop stop-color="#808080" stop-opacity="0.25"/>
<stop offset="0.54" stop-color="#808080" stop-opacity="0.12"/>
<stop offset="1" stop-color="#808080" stop-opacity="0.1"/>
</linearGradient>
<linearGradient id="paint1_linear" x1="9266.66" y1="7689.92" x2="9266.66" y2="7390.15" gradientUnits="userSpaceOnUse">
<stop stop-color="#808080" stop-opacity="0.25"/>
<stop offset="0.54" stop-color="#808080" stop-opacity="0.12"/>
<stop offset="1" stop-color="#808080" stop-opacity="0.1"/>
</linearGradient>
<linearGradient id="paint2_linear" x1="83678.6" y1="265369" x2="83678.6" y2="16094.9" gradientUnits="userSpaceOnUse">
<stop stop-color="#808080" stop-opacity="0.25"/>
<stop offset="0.54" stop-color="#808080" stop-opacity="0.12"/>
<stop offset="1" stop-color="#808080" stop-opacity="0.1"/>
</linearGradient>
<linearGradient id="paint3_linear" x1="222.781" y1="330.642" x2="222.781" y2="367.025" gradientUnits="userSpaceOnUse">
<stop stop-color="#E0E0E0"/>
<stop offset="0.31" stop-color="#FCCC63"/>
<stop offset="0.77" stop-color="#F55F44"/>
</linearGradient>
<linearGradient id="paint4_linear" x1="6784.48" y1="23184.4" x2="6784.48" y2="25527.5" gradientUnits="userSpaceOnUse">
<stop stop-color="#E0E0E0"/>
<stop offset="0.31" stop-color="#FCCC63"/>
<stop offset="0.77" stop-color="#F55F44"/>
</linearGradient>
<linearGradient id="paint5_linear" x1="222.781" y1="330.642" x2="222.781" y2="367.025" gradientUnits="userSpaceOnUse">
<stop stop-color="#E0E0E0"/>
<stop offset="0.31" stop-color="#FCCC63"/>
<stop offset="0.77" stop-color="#F55F44"/>
</linearGradient>
<linearGradient id="paint6_linear" x1="262.503" y1="331" x2="262.503" y2="367" gradientUnits="userSpaceOnUse">
<stop stop-color="#E0E0E0"/>
<stop offset="0.31" stop-color="#FCCC63"/>
<stop offset="0.77" stop-color="#F55F44"/>
</linearGradient>
<linearGradient id="paint7_linear" x1="7399.81" y1="23184.4" x2="7399.81" y2="25527.5" gradientUnits="userSpaceOnUse">
<stop stop-color="#E0E0E0"/>
<stop offset="0.31" stop-color="#FCCC63"/>
<stop offset="0.77" stop-color="#F55F44"/>
</linearGradient>
<linearGradient id="paint8_linear" x1="8392.83" y1="23184.5" x2="8392.83" y2="25527.6" gradientUnits="userSpaceOnUse">
<stop stop-color="#E0E0E0"/>
<stop offset="0.31" stop-color="#FCCC63"/>
<stop offset="0.77" stop-color="#F55F44"/>
</linearGradient>
<linearGradient id="paint9_linear" x1="27460.7" y1="16042.2" x2="27460.7" y2="13378.9" gradientUnits="userSpaceOnUse">
<stop stop-color="#808080" stop-opacity="0.25"/>
<stop offset="0.54" stop-color="#808080" stop-opacity="0.12"/>
<stop offset="1" stop-color="#808080" stop-opacity="0.1"/>
</linearGradient>
<linearGradient id="paint10_linear" x1="8343.35" y1="15945.2" x2="8343.35" y2="14646" gradientUnits="userSpaceOnUse">
<stop stop-color="#808080" stop-opacity="0.25"/>
<stop offset="0.54" stop-color="#808080" stop-opacity="0.12"/>
<stop offset="1" stop-color="#808080" stop-opacity="0.1"/>
</linearGradient>
<linearGradient id="paint11_linear" x1="287.503" y1="331" x2="287.503" y2="367" gradientUnits="userSpaceOnUse">
<stop stop-color="#E0E0E0"/>
<stop offset="0.31" stop-color="#FCCC63"/>
<stop offset="0.77" stop-color="#F55F44"/>
</linearGradient>
<linearGradient id="paint12_linear" x1="327.503" y1="331" x2="327.503" y2="367" gradientUnits="userSpaceOnUse">
<stop stop-color="#E0E0E0"/>
<stop offset="0.31" stop-color="#FCCC63"/>
<stop offset="0.77" stop-color="#F55F44"/>
</linearGradient>
<clipPath id="clip0">
<rect width="585" height="460" fill="white" transform="translate(4)"/>
</clipPath>
</defs>
</svg>
