<svg width="194" height="31" viewBox="0 0 194 31" fill="none" xmlns="http://www.w3.org/2000/svg">
<path d="M19.0545 6.92C18.2545 6.04 17.1879 5.32 15.8545 4.76C14.5212 4.17333 13.0012 3.88 11.2945 3.88C8.78786 3.88 6.9612 4.36 5.81453 5.32C4.66786 6.25333 4.09453 7.53333 4.09453 9.16C4.09453 10.28 4.37453 11.16 4.93453 11.8C5.49453 12.44 6.34786 12.9733 7.49453 13.4C8.66786 13.8 10.1612 14.2 11.9745 14.6C14.0012 15.0267 15.7479 15.5333 17.2145 16.12C18.6812 16.7067 19.8145 17.5067 20.6145 18.52C21.4145 19.5067 21.8145 20.8533 21.8145 22.56C21.8145 24.2933 21.3745 25.7333 20.4945 26.88C19.6145 28.0267 18.4012 28.88 16.8545 29.44C15.3079 29.9733 13.5479 30.24 11.5745 30.24C7.14786 30.24 3.34786 28.8667 0.174531 26.12L1.57453 23.84C2.58786 24.9067 3.97453 25.8267 5.73453 26.6C7.5212 27.3733 9.49453 27.76 11.6545 27.76C13.8945 27.76 15.6545 27.3467 16.9345 26.52C18.2145 25.6933 18.8545 24.4667 18.8545 22.84C18.8545 21.6667 18.5345 20.7333 17.8945 20.04C17.2545 19.32 16.2945 18.7333 15.0145 18.28C13.7345 17.8267 12.1612 17.3867 10.2945 16.96C8.3212 16.5067 6.65453 16 5.29453 15.44C3.9612 14.88 2.94786 14.1467 2.25453 13.24C1.5612 12.3333 1.21453 11.1067 1.21453 9.56C1.21453 7.8 1.6412 6.32 2.49453 5.12C3.37453 3.89333 4.57453 2.97333 6.09453 2.36C7.61453 1.72 9.3612 1.4 11.3345 1.4C13.2012 1.4 14.8812 1.69333 16.3745 2.28C17.8679 2.84 19.2145 3.64 20.4145 4.68L19.0545 6.92ZM24.5114 24C24.5114 22.72 24.8847 21.6133 25.6314 20.68C26.3781 19.72 27.4047 18.9733 28.7114 18.44C30.0447 17.9067 31.5781 17.64 33.3114 17.64C34.3247 17.64 35.3781 17.7333 36.4714 17.92C37.5647 18.08 38.5381 18.3067 39.3914 18.6V16.84C39.3914 15.08 38.8714 13.68 37.8314 12.64C36.7914 11.6 35.3514 11.08 33.5114 11.08C32.4181 11.08 31.3247 11.2933 30.2314 11.72C29.1381 12.12 28.0047 12.72 26.8314 13.52L25.7914 11.6C27.1514 10.6667 28.4847 9.97333 29.7914 9.52C31.0981 9.04 32.4314 8.8 33.7914 8.8C36.3514 8.8 38.3781 9.53333 39.8714 11C41.3647 12.4667 42.1114 14.4933 42.1114 17.08V26.72C42.1114 27.44 42.4447 27.8133 43.1114 27.84V30C42.5247 30.08 42.1114 30.1067 41.8714 30.08C41.2047 30.0533 40.6981 29.84 40.3514 29.44C40.0047 29.04 39.8181 28.6133 39.7914 28.16L39.7514 26.64C38.8181 27.84 37.6047 28.7733 36.1114 29.44C34.6181 30.08 33.0981 30.4 31.5514 30.4C30.1914 30.4 28.9781 30.12 27.9114 29.56C26.8447 28.9733 26.0047 28.2 25.3914 27.24C24.8047 26.2533 24.5114 25.1733 24.5114 24ZM38.4714 25.6C39.0847 24.88 39.3914 24.2133 39.3914 23.6V20.56C37.5514 19.84 35.6314 19.48 33.6314 19.48C31.6847 19.48 30.1114 19.8667 28.9114 20.64C27.7114 21.4133 27.1114 22.4667 27.1114 23.8C27.1114 24.9467 27.5514 25.9867 28.4314 26.92C29.3381 27.8533 30.5914 28.32 32.1914 28.32C33.4981 28.32 34.7114 28.0667 35.8314 27.56C36.9781 27.0533 37.8581 26.4 38.4714 25.6ZM47.9883 4.8V0.799999H50.7083V4.8H47.9883ZM47.9883 30V9.16H50.7083V30H47.9883ZM66.8992 30.4C65.2726 30.4 63.7659 29.9867 62.3792 29.16C60.9926 28.3067 59.9126 27.24 59.1392 25.96V30H56.6992V0.799999H59.4192V13.52C60.3526 12.1067 61.4726 10.9733 62.7792 10.12C64.0859 9.24 65.6059 8.8 67.3392 8.8C68.8059 8.8 70.1126 9.10667 71.2592 9.72C72.4326 10.3333 73.4326 11.16 74.2592 12.2C75.0859 13.2133 75.7126 14.3733 76.1392 15.68C76.5659 16.96 76.7792 18.28 76.7792 19.64C76.7792 21.5867 76.3392 23.3733 75.4592 25C74.6059 26.6267 73.4326 27.9333 71.9392 28.92C70.4459 29.9067 68.7659 30.4 66.8992 30.4ZM66.2592 28C67.7792 28 69.1126 27.6 70.2592 26.8C71.4326 26 72.3526 24.9733 73.0192 23.72C73.6859 22.44 74.0192 21.08 74.0192 19.64C74.0192 18.1733 73.6992 16.8 73.0592 15.52C72.4459 14.24 71.5792 13.2 70.4592 12.4C69.3392 11.6 68.0459 11.2 66.5792 11.2C64.9526 11.2 63.5126 11.72 62.2592 12.76C61.0326 13.8 60.0859 15.0133 59.4192 16.4V22.88C59.5526 23.84 59.9926 24.7067 60.7392 25.48C61.4859 26.2533 62.3659 26.8667 63.3792 27.32C64.3926 27.7733 65.3526 28 66.2592 28ZM79.7067 24C79.7067 22.72 80.0801 21.6133 80.8267 20.68C81.5734 19.72 82.6001 18.9733 83.9067 18.44C85.2401 17.9067 86.7734 17.64 88.5067 17.64C89.5201 17.64 90.5734 17.7333 91.6667 17.92C92.7601 18.08 93.7334 18.3067 94.5867 18.6V16.84C94.5867 15.08 94.0667 13.68 93.0267 12.64C91.9867 11.6 90.5467 11.08 88.7067 11.08C87.6134 11.08 86.5201 11.2933 85.4267 11.72C84.3334 12.12 83.2001 12.72 82.0267 13.52L80.9867 11.6C82.3467 10.6667 83.6801 9.97333 84.9867 9.52C86.2934 9.04 87.6267 8.8 88.9867 8.8C91.5467 8.8 93.5734 9.53333 95.0667 11C96.5601 12.4667 97.3067 14.4933 97.3067 17.08V26.72C97.3067 27.44 97.6401 27.8133 98.3067 27.84V30C97.7201 30.08 97.3067 30.1067 97.0667 30.08C96.4001 30.0533 95.8934 29.84 95.5467 29.44C95.2001 29.04 95.0134 28.6133 94.9867 28.16L94.9467 26.64C94.0134 27.84 92.8001 28.7733 91.3067 29.44C89.8134 30.08 88.2934 30.4 86.7467 30.4C85.3867 30.4 84.1734 30.12 83.1067 29.56C82.0401 28.9733 81.2001 28.2 80.5867 27.24C80.0001 26.2533 79.7067 25.1733 79.7067 24ZM93.6667 25.6C94.2801 24.88 94.5867 24.2133 94.5867 23.6V20.56C92.7467 19.84 90.8267 19.48 88.8267 19.48C86.8801 19.48 85.3067 19.8667 84.1067 20.64C82.9067 21.4133 82.3067 22.4667 82.3067 23.8C82.3067 24.9467 82.7467 25.9867 83.6267 26.92C84.5334 27.8533 85.7867 28.32 87.3867 28.32C88.6934 28.32 89.9067 28.0667 91.0267 27.56C92.1734 27.0533 93.0534 26.4 93.6667 25.6ZM139.099 30V6.88L128.819 24.84H127.059L116.739 6.88V30H113.939V1.6H116.819L127.899 21.04L139.059 1.6H141.899V30H139.099ZM146.582 24C146.582 22.72 146.955 21.6133 147.702 20.68C148.448 19.72 149.475 18.9733 150.782 18.44C152.115 17.9067 153.648 17.64 155.382 17.64C156.395 17.64 157.448 17.7333 158.542 17.92C159.635 18.08 160.608 18.3067 161.462 18.6V16.84C161.462 15.08 160.942 13.68 159.902 12.64C158.862 11.6 157.422 11.08 155.582 11.08C154.488 11.08 153.395 11.2933 152.302 11.72C151.208 12.12 150.075 12.72 148.902 13.52L147.862 11.6C149.222 10.6667 150.555 9.97333 151.862 9.52C153.168 9.04 154.502 8.8 155.862 8.8C158.422 8.8 160.448 9.53333 161.942 11C163.435 12.4667 164.182 14.4933 164.182 17.08V26.72C164.182 27.44 164.515 27.8133 165.182 27.84V30C164.595 30.08 164.182 30.1067 163.942 30.08C163.275 30.0533 162.768 29.84 162.422 29.44C162.075 29.04 161.888 28.6133 161.862 28.16L161.822 26.64C160.888 27.84 159.675 28.7733 158.182 29.44C156.688 30.08 155.168 30.4 153.622 30.4C152.262 30.4 151.048 30.12 149.982 29.56C148.915 28.9733 148.075 28.2 147.462 27.24C146.875 26.2533 146.582 25.1733 146.582 24ZM160.542 25.6C161.155 24.88 161.462 24.2133 161.462 23.6V20.56C159.622 19.84 157.702 19.48 155.702 19.48C153.755 19.48 152.182 19.8667 150.982 20.64C149.782 21.4133 149.182 22.4667 149.182 23.8C149.182 24.9467 149.622 25.9867 150.502 26.92C151.408 27.8533 152.662 28.32 154.262 28.32C155.568 28.32 156.782 28.0667 157.902 27.56C159.048 27.0533 159.928 26.4 160.542 25.6ZM170.059 4.8V0.799999H172.779V4.8H170.059ZM170.059 30V9.16H172.779V30H170.059ZM185.61 30.4C183.903 30.4 182.316 30.12 180.85 29.56C179.41 28.9733 178.143 28.12 177.05 27L178.17 25.08C179.343 26.1733 180.516 26.9733 181.69 27.48C182.89 27.96 184.156 28.2 185.49 28.2C187.09 28.2 188.396 27.88 189.41 27.24C190.45 26.5733 190.97 25.6267 190.97 24.4C190.97 23.5733 190.716 22.9467 190.21 22.52C189.73 22.0667 189.023 21.7067 188.09 21.44C187.183 21.1733 186.09 20.8667 184.81 20.52C183.37 20.12 182.156 19.7067 181.17 19.28C180.21 18.8267 179.476 18.2667 178.97 17.6C178.49 16.9067 178.25 16.0133 178.25 14.92C178.25 13.5867 178.583 12.4667 179.25 11.56C179.943 10.6533 180.876 9.97333 182.05 9.52C183.25 9.04 184.583 8.8 186.05 8.8C187.65 8.8 189.063 9.05333 190.29 9.56C191.516 10.0667 192.516 10.7733 193.29 11.68L191.97 13.52C191.25 12.6667 190.356 12.04 189.29 11.64C188.25 11.2133 187.116 11 185.89 11C185.036 11 184.223 11.12 183.45 11.36C182.676 11.5733 182.036 11.9467 181.53 12.48C181.05 12.9867 180.81 13.6933 180.81 14.6C180.81 15.72 181.223 16.4933 182.05 16.92C182.876 17.3467 184.13 17.8 185.81 18.28C187.383 18.7067 188.756 19.1333 189.93 19.56C191.103 19.9867 192.01 20.56 192.65 21.28C193.29 21.9733 193.61 22.9467 193.61 24.2C193.61 26.1467 192.876 27.6667 191.41 28.76C189.943 29.8533 188.01 30.4 185.61 30.4Z" fill="url(#paint0_linear)"/>
<defs>
<linearGradient id="paint0_linear" x1="97" y1="-21" x2="97" y2="39" gradientUnits="userSpaceOnUse">
<stop stop-color="#F78FB3"/>
<stop offset="1" stop-color="#5D18CD" stop-opacity="0.8"/>
</linearGradient>
</defs>
</svg>
