<svg width="404" height="107" viewBox="0 0 404 107" fill="none" xmlns="http://www.w3.org/2000/svg">
<path d="M131.533 64.36C129.873 64.36 128.263 64.14 126.703 63.7C125.163 63.24 123.923 62.65 122.983 61.93L124.633 58.27C125.533 58.93 126.603 59.46 127.843 59.86C129.083 60.26 130.323 60.46 131.563 60.46C132.943 60.46 133.963 60.26 134.623 59.86C135.283 59.44 135.613 58.89 135.613 58.21C135.613 57.71 135.413 57.3 135.013 56.98C134.633 56.64 134.133 56.37 133.513 56.17C132.913 55.97 132.093 55.75 131.053 55.51C129.453 55.13 128.143 54.75 127.123 54.37C126.103 53.99 125.223 53.38 124.483 52.54C123.763 51.7 123.403 50.58 123.403 49.18C123.403 47.96 123.733 46.86 124.393 45.88C125.053 44.88 126.043 44.09 127.363 43.51C128.703 42.93 130.333 42.64 132.253 42.64C133.593 42.64 134.903 42.8 136.183 43.12C137.463 43.44 138.583 43.9 139.543 44.5L138.043 48.19C136.103 47.09 134.163 46.54 132.223 46.54C130.863 46.54 129.853 46.76 129.193 47.2C128.553 47.64 128.233 48.22 128.233 48.94C128.233 49.66 128.603 50.2 129.343 50.56C130.103 50.9 131.253 51.24 132.793 51.58C134.393 51.96 135.703 52.34 136.723 52.72C137.743 53.1 138.613 53.7 139.333 54.52C140.073 55.34 140.443 56.45 140.443 57.85C140.443 59.05 140.103 60.15 139.423 61.15C138.763 62.13 137.763 62.91 136.423 63.49C135.083 64.07 133.453 64.36 131.533 64.36ZM162.076 55.75L159.256 58.69V64H154.426V43H159.256V52.81L168.556 43H173.956L165.256 52.36L174.466 64H168.796L162.076 55.75ZM187.294 43H192.154V64H187.294V43ZM207.799 43H212.659V60.04H223.189V64H207.799V43ZM236.566 43H241.426V60.04H251.956V64H236.566V43ZM272.116 64.36C270.456 64.36 268.846 64.14 267.286 63.7C265.746 63.24 264.506 62.65 263.566 61.93L265.216 58.27C266.116 58.93 267.186 59.46 268.426 59.86C269.666 60.26 270.906 60.46 272.146 60.46C273.526 60.46 274.546 60.26 275.206 59.86C275.866 59.44 276.196 58.89 276.196 58.21C276.196 57.71 275.996 57.3 275.596 56.98C275.216 56.64 274.716 56.37 274.096 56.17C273.496 55.97 272.676 55.75 271.636 55.51C270.036 55.13 268.726 54.75 267.706 54.37C266.686 53.99 265.806 53.38 265.066 52.54C264.346 51.7 263.986 50.58 263.986 49.18C263.986 47.96 264.316 46.86 264.976 45.88C265.636 44.88 266.626 44.09 267.946 43.51C269.286 42.93 270.916 42.64 272.836 42.64C274.176 42.64 275.486 42.8 276.766 43.12C278.046 43.44 279.166 43.9 280.126 44.5L278.626 48.19C276.686 47.09 274.746 46.54 272.806 46.54C271.446 46.54 270.436 46.76 269.776 47.2C269.136 47.64 268.816 48.22 268.816 48.94C268.816 49.66 269.186 50.2 269.926 50.56C270.686 50.9 271.836 51.24 273.376 51.58C274.976 51.96 276.286 52.34 277.306 52.72C278.326 53.1 279.196 53.7 279.916 54.52C280.656 55.34 281.026 56.45 281.026 57.85C281.026 59.05 280.686 60.15 280.006 61.15C279.346 62.13 278.346 62.91 277.006 63.49C275.666 64.07 274.036 64.36 272.116 64.36Z" fill="#B185DB"/>
<path d="M4 4H400V103H4V4Z" stroke="url(#paint0_linear)" stroke-width="8"/>
<defs>
<linearGradient id="paint0_linear" x1="404" y1="0" x2="352.474" y2="198.496" gradientUnits="userSpaceOnUse">
<stop stop-color="#312EC8"/>
<stop offset="1" stop-color="#5D18CD" stop-opacity="0.6"/>
</linearGradient>
</defs>
</svg>
