<svg width="100" height="100" viewBox="0 0 100 100" fill="none" xmlns="http://www.w3.org/2000/svg">
<circle opacity="0.6" cx="50" cy="50" r="50" fill="url(#paint0_linear)"/>
<circle cx="50" cy="50" r="37.7551" fill="url(#paint1_linear)"/>
<path d="M48.0342 65.2763L45.1167 64.2179C44.8106 64.1103 44.6385 63.7097 44.7246 63.327L51.2531 35.2118C51.3392 34.8292 51.6596 34.6139 51.9657 34.7215L54.8832 35.7799C55.1893 35.8875 55.3615 36.2881 55.2754 36.6708L48.7469 64.786C48.656 65.1686 48.3403 65.3899 48.0342 65.2763ZM42.5819 58.5674L44.6624 55.7929C44.8824 55.5 44.868 55.0336 44.6241 54.7645L40.2909 49.9989L44.6241 45.2333C44.868 44.9642 44.8872 44.4978 44.6624 44.2049L42.5819 41.4304C42.3666 41.1434 42.0031 41.1255 41.7688 41.4005L34.8768 49.4727C34.6329 49.7537 34.6329 50.2381 34.8768 50.5191L41.7688 58.5973C42.0031 58.8723 42.3666 58.8604 42.5819 58.5674ZM58.2312 58.6033L65.1232 50.5251C65.3671 50.2441 65.3671 49.7597 65.1232 49.4787L58.2312 41.3945C58.0016 41.1255 57.6381 41.1374 57.4181 41.4244L55.3376 44.1989C55.1176 44.4919 55.1319 44.9583 55.3758 45.2273L59.709 49.9989L55.3758 54.7645C55.1319 55.0336 55.1128 55.5 55.3376 55.7929L57.4181 58.5674C57.6333 58.8604 57.9968 58.8723 58.2312 58.6033Z" fill="#F5F6FA"/>
<defs>
<linearGradient id="paint0_linear" x1="100" y1="0" x2="1.01499" y2="100.995" gradientUnits="userSpaceOnUse">
<stop stop-color="#312EC8"/>
<stop offset="1" stop-color="#5D18CD" stop-opacity="0.6"/>
</linearGradient>
<linearGradient id="paint1_linear" x1="87.7551" y1="12.2449" x2="13.0113" y2="88.5062" gradientUnits="userSpaceOnUse">
<stop stop-color="#312EC8"/>
<stop offset="1" stop-color="#5D18CD" stop-opacity="0.6"/>
</linearGradient>
</defs>
</svg>
