<svg width="100" height="100" viewBox="0 0 100 100" fill="none" xmlns="http://www.w3.org/2000/svg">
<circle opacity="0.6" cx="50" cy="50" r="50" fill="url(#paint0_linear)"/>
<ellipse cx="50" cy="48.9796" rx="37.7551" ry="36.7347" fill="url(#paint1_linear)"/>
<path d="M39.2857 47.8134C40.9742 47.8134 42.347 45.8523 42.347 43.4402C42.347 41.0281 40.9742 39.067 39.2857 39.067C37.5973 39.067 36.2245 41.0281 36.2245 43.4402C36.2245 45.8523 37.5973 47.8134 39.2857 47.8134ZM60.7143 47.8134C62.4028 47.8134 63.7755 45.8523 63.7755 43.4402C63.7755 41.0281 62.4028 39.067 60.7143 39.067C59.0259 39.067 57.6531 41.0281 57.6531 43.4402C57.6531 45.8523 59.0259 47.8134 60.7143 47.8134ZM62.2449 50H59.1837C58.3419 50 57.5813 50.4851 57.0265 51.2709C58.9541 52.781 60.3221 55.5074 60.6187 58.7463H63.7755C64.6222 58.7463 65.3062 57.7692 65.3062 56.5597V54.3731C65.3062 51.9611 63.9334 50 62.2449 50ZM50 50C52.9608 50 55.3572 46.5766 55.3572 42.3469C55.3572 38.1172 52.9608 34.6938 50 34.6938C47.0393 34.6938 44.6429 38.1172 44.6429 42.3469C44.6429 46.5766 47.0393 50 50 50ZM53.6735 52.1866H53.2765C52.2816 52.8699 51.1767 53.2799 50 53.2799C48.8234 53.2799 47.7232 52.8699 46.7236 52.1866H46.3266C43.2845 52.1866 40.8164 55.7124 40.8164 60.0583V62.0262C40.8164 63.837 41.8447 65.3061 43.1123 65.3061H56.8878C58.1553 65.3061 59.1837 63.837 59.1837 62.0262V60.0583C59.1837 55.7124 56.7156 52.1866 53.6735 52.1866ZM42.9736 51.2709C42.4187 50.4851 41.6582 50 40.8164 50H37.7551C36.0667 50 34.6939 51.9611 34.6939 54.3731V56.5597C34.6939 57.7692 35.3779 58.7463 36.2245 58.7463H39.3766C39.678 55.5074 41.0459 52.781 42.9736 51.2709Z" fill="#F6F2FF"/>
<defs>
<linearGradient id="paint0_linear" x1="100" y1="0" x2="1.01499" y2="100.995" gradientUnits="userSpaceOnUse">
<stop stop-color="#312EC8"/>
<stop offset="1" stop-color="#5D18CD" stop-opacity="0.6"/>
</linearGradient>
<linearGradient id="paint1_linear" x1="87.7551" y1="12.2449" x2="15.0987" y2="88.4357" gradientUnits="userSpaceOnUse">
<stop stop-color="#312EC8"/>
<stop offset="1" stop-color="#5D18CD" stop-opacity="0.6"/>
</linearGradient>
</defs>
</svg>
