<svg width="368" height="120" viewBox="0 0 368 120" fill="none" xmlns="http://www.w3.org/2000/svg">
<path d="M157.846 52.72H162.046L165.566 62.36L169.126 52.72H173.326L168.446 65.36L172.686 75.8L181.526 52.6H186.446L174.806 81H170.926L165.606 68.28L160.246 81H156.326L144.726 52.6H149.606L158.486 75.8L162.726 65.36L157.846 52.72ZM211.197 81H206.797V69.28C206.797 67.3867 206.45 65.9733 205.757 65.04C205.064 64.1067 204.09 63.64 202.837 63.64C202.037 63.64 201.224 63.8533 200.397 64.28C199.597 64.7067 198.877 65.2933 198.237 66.04C197.597 66.76 197.13 67.6 196.837 68.56V81H192.437V51.8H196.837V64.28C197.637 62.84 198.73 61.72 200.117 60.92C201.504 60.12 202.997 59.72 204.597 59.72C206.33 59.72 207.677 60.12 208.637 60.92C209.597 61.6933 210.264 62.7333 210.637 64.04C211.01 65.32 211.197 66.72 211.197 68.24V81ZM217.984 74.88C217.984 73.5467 218.357 72.3867 219.104 71.4C219.851 70.3867 220.891 69.6133 222.224 69.08C223.584 68.52 225.144 68.24 226.904 68.24C227.837 68.24 228.784 68.32 229.744 68.48C230.731 68.6133 231.597 68.8133 232.344 69.08V67.76C232.344 66.2933 231.904 65.1467 231.024 64.32C230.144 63.4933 228.877 63.08 227.224 63.08C226.077 63.08 224.971 63.28 223.904 63.68C222.837 64.08 221.731 64.6667 220.584 65.44L219.104 62.48C220.491 61.5733 221.877 60.8933 223.264 60.44C224.677 59.96 226.157 59.72 227.704 59.72C230.504 59.72 232.704 60.4667 234.304 61.96C235.931 63.4267 236.744 65.52 236.744 68.24V76.04C236.744 76.5467 236.824 76.9067 236.984 77.12C237.171 77.3333 237.477 77.4533 237.904 77.48V81C237.504 81.08 237.144 81.1333 236.824 81.16C236.504 81.1867 236.237 81.2 236.024 81.2C235.064 81.2 234.344 80.9733 233.864 80.52C233.411 80.04 233.144 79.5067 233.064 78.92L232.944 77.72C232.037 78.8933 230.877 79.8 229.464 80.44C228.051 81.08 226.624 81.4 225.184 81.4C223.797 81.4 222.557 81.12 221.464 80.56C220.371 79.9733 219.517 79.1867 218.904 78.2C218.291 77.2133 217.984 76.1067 217.984 74.88ZM231.304 76.16C231.997 75.4667 232.344 74.8133 232.344 74.2V71.8C230.771 71.2133 229.171 70.92 227.544 70.92C225.944 70.92 224.637 71.2533 223.624 71.92C222.637 72.56 222.144 73.4267 222.144 74.52C222.144 75.4267 222.504 76.2667 223.224 77.04C223.971 77.7867 225.037 78.16 226.424 78.16C227.357 78.16 228.264 77.9733 229.144 77.6C230.024 77.2267 230.744 76.7467 231.304 76.16ZM256.766 79.92C256.206 80.1867 255.433 80.4933 254.446 80.84C253.459 81.16 252.406 81.32 251.286 81.32C249.899 81.32 248.699 80.9467 247.686 80.2C246.699 79.4533 246.206 78.24 246.206 76.56V63.48H243.446V60.08H246.206V53.2H250.606V60.08H255.166V63.48H250.606V75.16C250.659 75.9067 250.886 76.4533 251.286 76.8C251.713 77.12 252.233 77.28 252.846 77.28C253.459 77.28 254.046 77.1733 254.606 76.96C255.166 76.7467 255.579 76.5733 255.846 76.44L256.766 79.92ZM270.453 81.4C268.693 81.4 267.027 81.1067 265.453 80.52C263.88 79.9333 262.533 79.08 261.413 77.96L263.053 75C264.253 76.0667 265.453 76.84 266.653 77.32C267.853 77.8 269.067 78.04 270.293 78.04C271.52 78.04 272.52 77.8133 273.293 77.36C274.067 76.88 274.453 76.1867 274.453 75.28C274.453 74.64 274.253 74.1467 273.853 73.8C273.453 73.4533 272.867 73.1733 272.093 72.96C271.347 72.7467 270.44 72.48 269.373 72.16C267.88 71.7067 266.627 71.24 265.613 70.76C264.6 70.2533 263.84 69.64 263.333 68.92C262.827 68.2 262.573 67.28 262.573 66.16C262.573 64.1333 263.333 62.56 264.853 61.44C266.373 60.2933 268.36 59.72 270.813 59.72C272.333 59.72 273.733 59.96 275.013 60.44C276.32 60.8933 277.467 61.6133 278.453 62.6L276.573 65.52C274.76 63.8667 272.76 63.04 270.573 63.04C269.613 63.04 268.72 63.2267 267.893 63.6C267.093 63.9733 266.693 64.6667 266.693 65.68C266.693 66.5333 267.053 67.1467 267.773 67.52C268.493 67.8933 269.56 68.2933 270.973 68.72C272.573 69.2 273.947 69.68 275.093 70.16C276.267 70.6133 277.16 71.2133 277.773 71.96C278.413 72.68 278.733 73.68 278.733 74.96C278.733 76.9867 277.973 78.5733 276.453 79.72C274.933 80.84 272.933 81.4 270.453 81.4ZM284.342 74.88C284.342 73.5467 284.715 72.3867 285.462 71.4C286.209 70.3867 287.249 69.6133 288.582 69.08C289.942 68.52 291.502 68.24 293.262 68.24C294.195 68.24 295.142 68.32 296.102 68.48C297.089 68.6133 297.955 68.8133 298.702 69.08V67.76C298.702 66.2933 298.262 65.1467 297.382 64.32C296.502 63.4933 295.235 63.08 293.582 63.08C292.435 63.08 291.329 63.28 290.262 63.68C289.195 64.08 288.089 64.6667 286.942 65.44L285.462 62.48C286.849 61.5733 288.235 60.8933 289.622 60.44C291.035 59.96 292.515 59.72 294.062 59.72C296.862 59.72 299.062 60.4667 300.662 61.96C302.289 63.4267 303.102 65.52 303.102 68.24V76.04C303.102 76.5467 303.182 76.9067 303.342 77.12C303.529 77.3333 303.835 77.4533 304.262 77.48V81C303.862 81.08 303.502 81.1333 303.182 81.16C302.862 81.1867 302.595 81.2 302.382 81.2C301.422 81.2 300.702 80.9733 300.222 80.52C299.769 80.04 299.502 79.5067 299.422 78.92L299.302 77.72C298.395 78.8933 297.235 79.8 295.822 80.44C294.409 81.08 292.982 81.4 291.542 81.4C290.155 81.4 288.915 81.12 287.822 80.56C286.729 79.9733 285.875 79.1867 285.262 78.2C284.649 77.2133 284.342 76.1067 284.342 74.88ZM297.662 76.16C298.355 75.4667 298.702 74.8133 298.702 74.2V71.8C297.129 71.2133 295.529 70.92 293.902 70.92C292.302 70.92 290.995 71.2533 289.982 71.92C288.995 72.56 288.502 73.4267 288.502 74.52C288.502 75.4267 288.862 76.2667 289.582 77.04C290.329 77.7867 291.395 78.16 292.782 78.16C293.715 78.16 294.622 77.9733 295.502 77.6C296.382 77.2267 297.102 76.7467 297.662 76.16ZM323.52 81.4C321.84 81.4 320.36 81 319.08 80.2C317.8 79.4 316.787 78.36 316.04 77.08V89.52H311.64V60.08H315.52V63.84C316.32 62.5867 317.36 61.5867 318.64 60.84C319.92 60.0933 321.347 59.72 322.92 59.72C324.84 59.72 326.533 60.2267 328 61.24C329.493 62.2267 330.667 63.5467 331.52 65.2C332.373 66.8267 332.8 68.6 332.8 70.52C332.8 72.5467 332.4 74.3867 331.6 76.04C330.8 77.6667 329.707 78.9733 328.32 79.96C326.933 80.92 325.333 81.4 323.52 81.4ZM322.08 77.64C323.333 77.64 324.413 77.3067 325.32 76.64C326.253 75.9467 326.973 75.0667 327.48 74C328.013 72.9067 328.28 71.7467 328.28 70.52C328.28 69.24 327.987 68.0667 327.4 67C326.84 65.9333 326.067 65.08 325.08 64.44C324.12 63.8 323.013 63.48 321.76 63.48C321.013 63.48 320.227 63.6667 319.4 64.04C318.6 64.4133 317.893 64.9067 317.28 65.52C316.667 66.1333 316.253 66.8267 316.04 67.6V73.08C316.573 74.36 317.387 75.44 318.48 76.32C319.6 77.2 320.8 77.64 322.08 77.64ZM351.837 81.4C350.157 81.4 348.677 81 347.397 80.2C346.117 79.4 345.104 78.36 344.357 77.08V89.52H339.957V60.08H343.837V63.84C344.637 62.5867 345.677 61.5867 346.957 60.84C348.237 60.0933 349.664 59.72 351.237 59.72C353.157 59.72 354.851 60.2267 356.317 61.24C357.811 62.2267 358.984 63.5467 359.837 65.2C360.691 66.8267 361.117 68.6 361.117 70.52C361.117 72.5467 360.717 74.3867 359.917 76.04C359.117 77.6667 358.024 78.9733 356.637 79.96C355.251 80.92 353.651 81.4 351.837 81.4ZM350.397 77.64C351.651 77.64 352.731 77.3067 353.637 76.64C354.571 75.9467 355.291 75.0667 355.797 74C356.331 72.9067 356.597 71.7467 356.597 70.52C356.597 69.24 356.304 68.0667 355.717 67C355.157 65.9333 354.384 65.08 353.397 64.44C352.437 63.8 351.331 63.48 350.077 63.48C349.331 63.48 348.544 63.6667 347.717 64.04C346.917 64.4133 346.211 64.9067 345.597 65.52C344.984 66.1333 344.571 66.8267 344.357 67.6V73.08C344.891 74.36 345.704 75.44 346.797 76.32C347.917 77.2 349.117 77.64 350.397 77.64Z" fill="url(#paint0_linear)"/>
<circle opacity="0.6" cx="60" cy="60" r="60" fill="url(#paint1_linear)"/>
<circle cx="60" cy="60" r="45.3061" fill="url(#paint2_linear)"/>
<path d="M72.608 47.2312C69.2411 43.8562 64.7571 42 59.992 42C50.1562 42 42.1527 50.0036 42.1527 59.8393C42.1527 62.9812 42.9723 66.0509 44.5312 68.7589L42 78L51.458 75.517C54.0616 76.9393 56.9946 77.6866 59.9839 77.6866H59.992C69.8196 77.6866 78 69.683 78 59.8473C78 55.0821 75.975 50.6062 72.608 47.2312ZM59.992 74.6813C57.3241 74.6813 54.7125 73.9661 52.4384 72.6161L51.9 72.2946L46.2911 73.7652L47.7857 68.2929L47.4321 67.7304C45.9455 65.3679 45.1661 62.6437 45.1661 59.8393C45.1661 51.667 51.8196 45.0134 60 45.0134C63.9616 45.0134 67.6821 46.5562 70.4786 49.3607C73.275 52.1652 74.9946 55.8857 74.9866 59.8473C74.9866 68.0277 68.1643 74.6813 59.992 74.6813ZM68.1241 63.5759C67.6821 63.3509 65.4884 62.2741 65.0786 62.1295C64.6688 61.9768 64.3714 61.9045 64.0741 62.3545C63.7768 62.8045 62.925 63.8009 62.6598 64.1063C62.4027 64.4036 62.1375 64.4438 61.6955 64.2188C59.0759 62.9089 57.3563 61.8804 55.6286 58.9152C55.1705 58.1277 56.0866 58.1839 56.9384 56.4804C57.083 56.183 57.0107 55.9259 56.8982 55.7009C56.7857 55.4759 55.8938 53.2821 55.5241 52.3902C55.1625 51.5223 54.7929 51.6429 54.5196 51.6268C54.2625 51.6107 53.9652 51.6107 53.6679 51.6107C53.3705 51.6107 52.8884 51.7232 52.4786 52.1652C52.0687 52.6152 50.9196 53.692 50.9196 55.8857C50.9196 58.0795 52.5188 60.2009 52.7357 60.4982C52.9607 60.7955 55.8777 65.2955 60.3536 67.2321C63.1821 68.4536 64.2911 68.558 65.7054 68.3491C66.5652 68.2205 68.3411 67.2723 68.7107 66.2277C69.0804 65.183 69.0804 64.2911 68.9679 64.1063C68.8634 63.9054 68.5661 63.7929 68.1241 63.5759Z" fill="#F6F2FF"/>
<defs>
<linearGradient id="paint0_linear" x1="341.665" y1="36" x2="302.064" y2="181.329" gradientUnits="userSpaceOnUse">
<stop offset="0.195918" stop-color="#1DCACA"/>
<stop offset="1" stop-color="#2824E6"/>
</linearGradient>
<linearGradient id="paint1_linear" x1="120" y1="0" x2="1.21799" y2="121.194" gradientUnits="userSpaceOnUse">
<stop stop-color="#312EC8"/>
<stop offset="1" stop-color="#5D18CD" stop-opacity="0.6"/>
</linearGradient>
<linearGradient id="paint2_linear" x1="105.306" y1="14.6938" x2="15.6136" y2="106.207" gradientUnits="userSpaceOnUse">
<stop stop-color="#312EC8"/>
<stop offset="1" stop-color="#5D18CD" stop-opacity="0.6"/>
</linearGradient>
</defs>
</svg>
